<?xml version="1.0" encoding="utf-8"?>
<!-- Generator: Adobe Illustrator 27.2.0, SVG Export Plug-In . SVG Version: 6.00 Build 0)  -->
<svg version="1.1" id="_x3C_Layer_x3E_" xmlns="http://www.w3.org/2000/svg" xmlns:xlink="http://www.w3.org/1999/xlink" x="0px"
	 y="0px" viewBox="0 0 2760 1481.63" style="enable-background:new 0 0 2760 1481.63;" xml:space="preserve">
<style type="text/css">
	.st0{fill:#FFFFFF;}
	.st1{fill:#EBF3FA;}
	.st2{opacity:0.5;}
	.st3{fill:#98BAF4;}
	.st4{fill:#EDF4FF;}
	.st5{fill:#EBF3FF;}
	.st6{fill:#AFCDFB;}
	.st7{fill:#7FA8E5;}
	.st8{fill:#DFEBFD;}
	.st9{fill:#CCE1FF;}
	.st10{fill:#BDD7FD;}
	.st11{fill:#D4E6FF;}
	.st12{fill:#ACD29A;}
	.st13{fill:#FFB27D;}
	.st14{fill:#163560;}
	.st15{fill:#AEC3FF;}
	.st16{opacity:0.3;}
	.st17{fill:#8C9DF4;}
	.st18{fill:#23417C;}
	.st19{fill:#233862;}
	.st20{fill:#2B478B;}
	.st21{fill:#C65447;}
	.st22{fill:#E8945B;}
	.st23{fill:#F8FCFF;}
	.st24{fill:#172944;}
	.st25{fill:#A8302D;}
	.st26{fill:#A2C2DD;}
	.st27{fill:#EA6A60;}
	.st28{fill:#6BB7BF;}
	.st29{fill:#ED985F;}
	.st30{fill:#ABDDDA;}
	.st31{fill:#2C3A64;}
	.st32{fill:#6980E2;}
	.st33{fill:#91CECF;}
	.st34{fill:#59A9AD;}
	.st35{fill:#E2915A;}
	.st36{fill:#9DB0F4;}
	.st37{fill:#82B378;}
	.st38{fill:#2E3552;}
</style>
<rect y="-124.23" class="st0" width="2760" height="1840"/>
<g>
	<g>
		<path class="st1" d="M2659.02,1059.38c-2.27,114.97-34.67,219.94-85.12,323.32c0,0-192.07,0.03-465.8,0.08
			c-678.62,0.1-1859.12,0.26-1859.21,0.19c-0.47-0.37-0.94-0.73-1.42-1.1c-55.3-42.96-75.48-105.73-63.29-175.6
			c0-0.01,0-0.02,0.01-0.03c13.17-76.09,64.08-158.72,143.04-228.57C440.14,877.8,530.37,851.71,471.1,642.16
			c-16.74-59.22-12.76-112.57,3.85-159.84c52.59-149.75,231.8-238.27,279.37-258.05c158.94-66.15,383.05-63.14,552.02-27.69
			c271.5,56.97,366.85,209.41,448.04,292.62c30.13,30.81,58.17,51.71,92.56,53.96c56.17,3.64,136.25-26.7,233.5-35.64
			c72.64-6.69,154.74-1.44,243.33,38.88c97.2,44.15,192.66,129.95,246.84,208.63C2633.28,846.08,2661.14,949.33,2659.02,1059.38z"/>
	</g>
	<g class="st2">
		<g>
			<rect x="1968.84" y="740.85" class="st3" width="519.86" height="640.31"/>
		</g>
		<g>
			<rect x="2020.69" y="772.16" class="st4" width="468.01" height="69.75"/>
		</g>
		<g>
			<rect x="1635.32" y="887.02" class="st5" width="587.12" height="496.33"/>
		</g>
		<g>
			<rect x="1620.8" y="868.99" class="st0" width="610.82" height="18.04"/>
		</g>
		<g>
			<rect x="1958.36" y="731.83" class="st0" width="539.99" height="18.04"/>
		</g>
		<g>
			<rect x="1635.32" y="931.89" class="st6" width="379.87" height="92.25"/>
		</g>
		<g>
			<rect x="1280.95" y="945.82" class="st6" width="354.37" height="196.55"/>
		</g>
		<g>
			<rect x="1280.95" y="1183.26" class="st6" width="354.37" height="196.55"/>
		</g>
		<g>
			<rect x="1330.06" y="1142.37" class="st7" width="305.25" height="40.89"/>
		</g>
		<g>
			<g>
				<path class="st0" d="M1746.61,961.97h7.06v12.7h13.02v-12.7h7.06v32.09h-7.06v-12.88h-13.02v12.88h-7.06V961.97z"/>
			</g>
			<g>
				<path class="st0" d="M1780.03,978.01c0-9.12,7.2-16.59,17.1-16.59s17.01,7.38,17.01,16.59c0,9.12-7.2,16.59-17.1,16.59
					C1787.13,994.61,1780.03,987.23,1780.03,978.01z M1806.75,978.01c0-5.5-4.03-10.08-9.72-10.08s-9.63,4.49-9.63,10.08
					c0,5.5,4.03,10.09,9.72,10.09C1802.81,988.1,1806.75,983.6,1806.75,978.01z"/>
			</g>
			<g>
				<path class="st0" d="M1817.99,989.38l4.17-5c2.89,2.38,5.91,3.9,9.58,3.9c2.89,0,4.63-1.15,4.63-3.12c0-1.79-1.1-2.7-6.46-4.08
					c-6.46-1.65-10.63-3.44-10.63-9.9c0-5.82,4.67-9.67,11.23-9.67c4.67,0,8.66,1.47,11.92,4.08l-3.67,5.32
					c-2.84-1.97-5.64-3.16-8.34-3.16s-4.13,1.24-4.13,2.89c0,2.11,1.38,2.8,6.92,4.22c6.51,1.7,10.18,4.03,10.18,9.72
					c0,6.37-4.86,9.95-11.78,9.95C1826.74,994.52,1821.84,992.82,1817.99,989.38z"/>
			</g>
			<g>
				<path class="st0" d="M1849.53,961.97h13.11c7.66,0,12.29,4.54,12.29,11.18c0,7.43-5.78,11.28-12.97,11.28h-5.36v9.63h-7.06
					v-32.09H1849.53z M1862.18,978.15c3.53,0,5.59-2.11,5.59-4.95c0-3.16-2.2-4.86-5.73-4.86h-5.46v9.81L1862.18,978.15
					L1862.18,978.15z"/>
			</g>
			<g>
				<path class="st0" d="M1880.47,961.97h7.06v32.09h-7.06V961.97z"/>
			</g>
			<g>
				<path class="st0" d="M1903.02,968.48h-9.76v-6.51h26.59v6.51h-9.76v25.58h-7.06L1903.02,968.48L1903.02,968.48z"/>
			</g>
			<g>
				<path class="st0" d="M1932.13,961.74h6.51l13.75,32.32h-7.38l-2.93-7.2h-13.57l-2.93,7.2h-7.2L1932.13,961.74z M1939.56,980.63
					l-4.26-10.41l-4.26,10.41H1939.56z"/>
			</g>
			<g>
				<path class="st0" d="M1957.35,961.97h7.06v25.67h16v6.42h-23.06V961.97z"/>
			</g>
		</g>
		<g>
			<rect x="2251.94" y="1146" class="st6" width="236.76" height="156.25"/>
		</g>
		<g>
			<rect x="2251.94" y="915.93" class="st6" width="236.76" height="156.25"/>
		</g>
		<g>
			<rect x="2025.62" y="775.88" class="st6" width="463.08" height="61.56"/>
		</g>
		<g>
			<polygon class="st8" points="1635.32,893.21 2222.44,910.92 2222.44,887.02 1635.32,887.02 			"/>
		</g>
		<g>
			<rect x="1258.78" y="944.65" class="st0" width="376.54" height="19.46"/>
		</g>
		<g>
			<g>
				<rect x="1726.69" y="1162.72" class="st3" width="412.55" height="215.52"/>
			</g>
			<g>
				<rect x="1740.55" y="1177.79" class="st0" width="386.74" height="201.17"/>
			</g>
			<g>
				<rect x="1755.2" y="1190.52" class="st6" width="358.24" height="46.22"/>
			</g>
			<g>
				<rect x="1755.2" y="1249.3" class="st6" width="104.76" height="128.8"/>
			</g>
			<g>
				<rect x="1869.92" y="1249.3" class="st6" width="128.79" height="128.8"/>
			</g>
			<g>
				<rect x="2007.57" y="1249.3" class="st6" width="105.87" height="128.8"/>
			</g>
			<g>
				<polygon class="st9" points="1912.12,1249.3 1998.71,1249.3 1998.71,1296.96 1983.28,1378.1 1887.62,1378.1 				"/>
			</g>
			<g>
				<g>
					<g>
						<rect x="1886.8" y="1273.8" class="st0" width="96.35" height="104.44"/>
					</g>
					<g>
						<rect x="1891.4" y="1278.52" class="st3" width="87.17" height="99.71"/>
					</g>
					<g>
						<rect x="1933.36" y="1278.52" class="st0" width="3.25" height="99.71"/>
					</g>
				</g>
				<g>
					<g>
						<path class="st0" d="M1925.59,1328.38c0-1.14,0.92-2.06,2.06-2.06s2.06,0.92,2.06,2.06s-0.92,2.06-2.06,2.06
							S1925.59,1329.52,1925.59,1328.38z"/>
					</g>
					<g>
						<path class="st0" d="M1940.25,1328.38c0-1.14,0.92-2.06,2.06-2.06s2.06,0.92,2.06,2.06s-0.92,2.06-2.06,2.06
							S1940.25,1329.52,1940.25,1328.38z"/>
					</g>
				</g>
			</g>
			<g>
				<polygon class="st9" points="1788.52,1249.3 1841.56,1249.3 1824.63,1378.1 1771.59,1378.1 				"/>
			</g>
			<g>
				<polygon class="st9" points="1849.28,1190.52 1843.21,1236.74 1790.17,1236.74 1796.24,1190.52 				"/>
			</g>
			<g>
				<polygon class="st9" points="2032.63,1249.3 2085.66,1249.3 2068.73,1378.1 2015.7,1378.1 				"/>
			</g>
			<g>
				<polygon class="st9" points="2093.39,1190.52 2087.31,1236.74 2034.27,1236.74 2040.35,1190.52 				"/>
			</g>
			<g>
				<polygon class="st9" points="2018.96,1190.52 2010.17,1236.74 1914.51,1236.74 1923.3,1190.52 				"/>
			</g>
		</g>
		<g>
			<polygon class="st9" points="2007.65,1258.79 2007.85,1258.79 2007.65,1259.81 			"/>
		</g>
		<g>
			<polygon class="st10" points="2362.6,1072.18 2284.26,1072.18 2318.54,915.93 2396.87,915.93 			"/>
		</g>
		<g>
			<polygon class="st9" points="2432.01,1302.25 2353.67,1302.25 2387.95,1146 2466.28,1146 			"/>
		</g>
		<g>
			<polygon class="st9" points="2320.6,1146 2286.33,1302.25 2251.94,1302.25 2251.94,1146 			"/>
		</g>
		<g>
			<polygon class="st9" points="2488.7,915.93 2488.7,1072.18 2402.58,1072.18 2440.83,915.93 			"/>
		</g>
		<g>
			<rect x="2139.01" y="775.88" class="st4" width="6.53" height="61.56"/>
		</g>
		<g>
			<rect x="2270.8" y="775.88" class="st4" width="6.53" height="61.56"/>
		</g>
		<g>
			<rect x="2399.32" y="775.88" class="st4" width="6.53" height="61.56"/>
		</g>
		<g class="st2">
			<g>
				<g>
					<rect x="1322.47" y="1016.37" class="st3" width="39.26" height="61.96"/>
				</g>
				<g>
					<g>
						<g>
							<path class="st0" d="M1363.34,1080.33h-43.25v-65.96h43.25V1080.33z M1324.09,1076.33h35.26v-57.97h-35.26V1076.33z"/>
						</g>
					</g>
					<g>
						<rect x="1323.59" y="1037.09" class="st0" width="36.26" height="2.99"/>
					</g>
					<g>
						<rect x="1323.59" y="1057.71" class="st0" width="36.26" height="2.99"/>
					</g>
					<g>
						<rect x="1340.22" y="1016.07" class="st0" width="2.99" height="62.26"/>
					</g>
				</g>
			</g>
			<g>
				<g>
					<rect x="1435.82" y="1016.37" class="st3" width="39.26" height="61.96"/>
				</g>
				<g>
					<g>
						<g>
							<path class="st0" d="M1476.7,1080.33h-43.25v-65.96h43.25V1080.33z M1437.44,1076.33h35.26v-57.97h-35.26V1076.33z"/>
						</g>
					</g>
					<g>
						<rect x="1436.94" y="1037.09" class="st0" width="36.26" height="2.99"/>
					</g>
					<g>
						<rect x="1436.94" y="1057.71" class="st0" width="36.26" height="2.99"/>
					</g>
					<g>
						<rect x="1453.57" y="1016.07" class="st0" width="2.99" height="62.26"/>
					</g>
				</g>
			</g>
			<g>
				<g>
					<rect x="1549.17" y="1016.37" class="st3" width="39.26" height="61.96"/>
				</g>
				<g>
					<g>
						<g>
							<path class="st0" d="M1590.05,1080.33h-43.25v-65.96h43.25V1080.33z M1550.79,1076.33h35.26v-57.97h-35.26V1076.33z"/>
						</g>
					</g>
					<g>
						<rect x="1550.29" y="1037.09" class="st0" width="36.26" height="2.99"/>
					</g>
					<g>
						<rect x="1550.29" y="1057.71" class="st0" width="36.26" height="2.99"/>
					</g>
					<g>
						<rect x="1566.92" y="1016.08" class="st0" width="3" height="62.26"/>
					</g>
				</g>
			</g>
		</g>
		<g class="st2">
			<g>
				<g>
					<rect x="1322.47" y="1228.83" class="st3" width="39.26" height="61.96"/>
				</g>
				<g>
					<g>
						<g>
							<path class="st0" d="M1363.34,1292.79h-43.25v-65.96h43.25V1292.79z M1324.09,1288.8h35.26v-57.97h-35.26V1288.8z"/>
						</g>
					</g>
					<g>
						<rect x="1323.59" y="1249.56" class="st0" width="36.26" height="2.99"/>
					</g>
					<g>
						<rect x="1323.59" y="1270.17" class="st0" width="36.26" height="3"/>
					</g>
					<g>
						<rect x="1340.23" y="1228.54" class="st0" width="2.99" height="62.25"/>
					</g>
				</g>
			</g>
			<g>
				<g>
					<rect x="1435.82" y="1228.83" class="st3" width="39.26" height="61.96"/>
				</g>
				<g>
					<g>
						<g>
							<path class="st0" d="M1476.7,1292.79h-43.25v-65.96h43.25V1292.79z M1437.44,1288.8h35.26v-57.97h-35.26V1288.8z"/>
						</g>
					</g>
					<g>
						<rect x="1436.94" y="1249.56" class="st0" width="36.26" height="2.99"/>
					</g>
					<g>
						<rect x="1436.94" y="1270.17" class="st0" width="36.26" height="3"/>
					</g>
					<g>
						<rect x="1453.58" y="1228.54" class="st0" width="2.99" height="62.25"/>
					</g>
				</g>
			</g>
			<g>
				<g>
					<rect x="1549.17" y="1228.83" class="st3" width="39.26" height="61.96"/>
				</g>
				<g>
					<g>
						<g>
							<path class="st0" d="M1590.05,1292.79h-43.25v-65.96h43.25V1292.79z M1550.79,1288.8h35.26v-57.97h-35.26V1288.8z"/>
						</g>
					</g>
					<g>
						<rect x="1550.29" y="1249.56" class="st0" width="36.26" height="2.99"/>
					</g>
					<g>
						<rect x="1550.29" y="1270.17" class="st0" width="36.26" height="3"/>
					</g>
					<g>
						<rect x="1566.92" y="1228.54" class="st0" width="3" height="62.25"/>
					</g>
				</g>
			</g>
		</g>
		<g>
			<rect x="1626.19" y="1097.53" class="st11" width="613.54" height="21.59"/>
		</g>
		<g>
			<rect x="1709.17" y="1373.77" class="st7" width="458.38" height="9.58"/>
		</g>
		<g>
			<path class="st12" d="M1697.64,1383.35c0,0-2.55-22.54,20.3-28.25c22.85-5.71,31.81-26.11,58.34-8.98
				c26.53,17.14,18.13,37.22,18.13,37.22h-96.77V1383.35z"/>
		</g>
	</g>
	<g>
		<g>
			<path class="st13" d="M1134.83,1021.82c0,0,7.3,25.65,5.58,32.07c-1.73,6.41-9.42,18.38-12.84,17.96c-3.42-0.43,0-41.05,0-41.05
				L1134.83,1021.82z"/>
		</g>
		<g>
			<path class="st14" d="M1010.87,823.11c-2.66-5.13,58.03-23.6,58.99,27.02c0,0,113.69-2.79,59.4-66.16
				c-18.79-21.94-16.86-40.07-16.29-56.96s-11.71-65.96-53.78-61.02c0,0-11.02-4.49-24.77,2.65
				C1003.13,684.88,933.07,841.78,1010.87,823.11z"/>
		</g>
		<g>
			<path class="st15" d="M1140.38,1029.52c0,0-0.64,3.08-7.03,4.63c-2.95,0.72-7.13,1.1-13.03,0.72c-1.26-0.09-2.6-0.21-4.03-0.37
				c-2.71-0.29-5.71-0.74-9.04-1.37l2.35-139.19l-9.8-108.62c0,0,20.92,9.89,31.18,41.96c7.88,24.63,9.2,130.7,9.39,178.6
				C1140.43,1020.36,1140.38,1029.52,1140.38,1029.52z"/>
		</g>
		<g class="st16">
			<path class="st17" d="M1140.38,1029.52c0,0-0.64,3.08-7.03,4.63c-2.95,0.72-7.13,1.1-13.03,0.72l1.89-103.69
				c0,0,1.55,56.62,18.16,74.71C1140.43,1020.36,1140.38,1029.52,1140.38,1029.52z"/>
		</g>
		<g>
			<path class="st18" d="M933.95,1323.88c0,0-12.74,11.62-10.25,19.89c2.49,8.26,13.98,13.77,15.54,23.86
				c1.55,10.1,7.77,15.6,13.36,15.6c5.59,0,26.66,0,26.66,0s4.12-7.11-5.83-9.25c-9.94-2.14-13.69-14.01-13.07-25.02
				s-0.93-25.7-0.93-25.7l-21.13-4.9L933.95,1323.88z"/>
		</g>
		<g>
			<path class="st18" d="M1041.77,1328.81c0,0-4.58,49.25,1.01,52l71.57-0.15c0,0,0-8.26-11.5-10.1s-31.69-8.57-35.11-23.56
				C1064.33,1332.02,1041.77,1328.81,1041.77,1328.81z"/>
		</g>
		<g>
			<path class="st19" d="M1100.22,924.63c0,0,20.64,64.23,21.96,86.1c1.33,21.87-39.45,310.66-41.08,320.73
				c-1.55,9.5-13.34,15.55-13.34,15.55s-5.42,3.2-13.17,1.01c-10.74-3.03-14.14-6.67-14.14-6.67s-16.06-205.96-6.12-279.53
				s10.06-137.2,10.06-137.2h55.83V924.63z"/>
		</g>
		<g>
			<path class="st20" d="M1012.79,922.72c0,0-31.48,42.23-34.41,70.78s-4.6,128.83-10.86,156.67
				c-6.25,27.83-29.22,81.39-29.22,168.2c0,0,2.39,4.98,9.76,7.63c2.36,0.85,5.52,1.67,8.58,2.37c6.08,1.39,12.32-1.58,15.09-7.16
				c15.53-31.27,65-132.11,67.53-153.04c1.79-14.81,12.33-103.73,46.4-161.26c8.18-13.81,7.69-74.02,7.69-74.02L1012.79,922.72z"/>
		</g>
		<g>
			<path class="st20" d="M986.71,840.01c0,0-1.07,15.04,0,33.08c0.71,11.96,12.81,27.98,14.52,31.95
				c4.31,9.94,9.17,11.56,9.17,11.56l37.58,9.21l3.15,20.12c0,0,31.53,13.47,53.41-7.38c19.04-18.14,17.3-74.92,9.68-104.74
				s-19.26-50.53-19.26-50.53s-28.25-11.15-78.27-2.82L986.71,840.01z"/>
		</g>
		<g>
			<path class="st15" d="M1030.21,777.36c0,0-15.79,2.64-25.42,5.83l-7.09,86.62h65.3l-24.53-64.35L1030.21,777.36z"/>
		</g>
		<g>
			<path class="st15" d="M1063,869.81l-7.17,266.9c0,0-35.77,16.98-104.09,0l17.62-284.13L1063,869.81z"/>
		</g>
		<g>
			<path class="st21" d="M952.69,931.84L1001,973.9c3.49,3.04,8.78,2.67,11.82-0.82l61.64-70.79c3.04-3.49,2.67-8.78-0.82-11.82
				l-48.31-42.06c-3.49-3.04-8.79-2.67-11.82,0.82l-61.64,70.79C948.83,923.51,949.19,928.8,952.69,931.84z"/>
		</g>
		<g>
			<path class="st13" d="M1024.15,926.53c0.69,0.18,25.66,3.12,25.66,8.28c0,5.97-7.32,13.96-14.22,13.58
				c-2.8-0.15-15.68-12-15.68-12L1024.15,926.53z"/>
		</g>
		<g>
			<path class="st13" d="M1036.98,777.71c2.84-6.89,4.5-17.39,4.45-30.38l1.89,0.37l31.72,6.28c0,0-0.72,9.98-0.74,19.39
				c0,0.08,0,0.16,0,0.23c-0.04,8.17,5.52,16.36-7.58,19.6C1062.66,794.22,1031.01,792.19,1036.98,777.71z"/>
		</g>
		<g>
			<path class="st22" d="M1075.04,753.99c0,0-0.72,9.98-0.74,19.39c-17.75-0.5-27.14-16.69-30.98-25.67L1075.04,753.99z"/>
		</g>
		<g>
			<path class="st13" d="M1080.97,762.89c0,0-42,0.69-42.03-25.47s-5.47-43.69,21.35-45.24s32.04,8.43,34.17,17.16
				S1091.89,762.04,1080.97,762.89z"/>
		</g>
		<g>
			<path class="st14" d="M1079.41,691.54c0,0-11.5,30.69-29.15,35.23s-25.3-0.19-25.3-0.19s13.54-10.75,16.35-29.53
				C1041.31,697.06,1070.74,676.93,1079.41,691.54z"/>
		</g>
		<g>
			<path class="st14" d="M1076.56,694.03c0,0,8.53,3.19,12.04,9.41c3.43,6.08,6.36,14.14,5.68,24.02c0,0,8.66-20.86-1.07-32.66
				C1082.88,682.28,1076.56,694.03,1076.56,694.03z"/>
		</g>
		<g>
			<path class="st13" d="M1024.15,926.53c0,0,5.99-1.92,9.99-1.36s6.96-0.08,6.96,1.04s-5.16,1.64-6.26,2.18
				C1033.74,928.93,1024.15,926.53,1024.15,926.53z"/>
		</g>
		<g>
			<path class="st15" d="M1016.69,780.45c0,0-29.82,2.09-41.24,29.87c-11.43,27.78-33.11,74.43-33.11,82.28s12.11,32.04,77.16,45.95
				c0,0,6.73-7.08,6.32-12.67c0,0-40.61-34.88-40.5-38.96c0.21-7.71,6.66-17.89,42.31-53.55
				C1037.32,823.66,1016.69,780.45,1016.69,780.45z"/>
		</g>
		<g>
			<path class="st17" d="M1048.25,824.06c0,0-11.19-30.63-9-53.68c0,0-8.73,2.2-13.25,8.7c0,0-2.05,35.25,4.37,51.61
				c0,0,9.55,0.43,11.64-0.7c0,0-4.17,7.06-3.53,7.86s24.53,31.96,24.53,31.96L1048.25,824.06z"/>
		</g>
		<g>
			<path class="st15" d="M1097.63,856.13l7.05,274.5c0,0,16.68,0.64,26.3-9.62l-8.77-297.42c0,0-9.18-35.79-27.25-40.32
				s-18.07-4.53-18.07-4.53L1097.63,856.13z"/>
		</g>
		<g>
			<path class="st17" d="M1074.3,773.38c0,0,0.01,4.26,1.11,11.89c2.96,20.67,24.98,62.11,22.48,80.6c0,0,2.32-32.19,2.32-39.03
				l-6.41-4.49l8.34-3.42C1102.12,818.93,1086.56,780.09,1074.3,773.38z"/>
		</g>
		<g>
			
				<rect x="1006.74" y="1000.73" transform="matrix(0.0724 -0.9974 0.9974 0.0724 -92.3867 1964.4601)" class="st17" width="6.36" height="62.33"/>
		</g>
		<g class="st16">
			<path class="st17" d="M978.62,1032.75c0,0-4.53,38.55,0,42.08c4.53,3.53,51.85,8.02,56.25,4.49s5.92-42.06,5.92-42.06
				L978.62,1032.75z"/>
		</g>
	</g>
	<g>
		<path class="st23" d="M643.84,440.74c0,0,25.39-42.68,86.09-37.94c0,0,88.14-71.13,182.12-9.48c0,0,99.91-15.28,173.9,13.22
			c49.33,19,65.62,38.94,65.62,38.94L643.84,440.74z"/>
	</g>
	<g>
		<path class="st23" d="M1161.44,398.4c0,0,18.53-46.79,62.85-41.59c0,0,64.34-77.99,132.96-10.4c0,0,72.94-16.75,126.95,14.5
			c36.01,20.83,47.91,42.69,47.91,42.69L1161.44,398.4z"/>
	</g>
	<g>
		<path class="st23" d="M1740.38,689.62c0,0,12.74-31.48,43.2-27.98c0,0,44.23-52.47,91.39-7c0,0,50.13-11.27,87.26,9.76
			c24.75,14.02,32.93,28.72,32.93,28.72L1740.38,689.62z"/>
	</g>
	<g>
		<path class="st23" d="M1021.47,557.84c0,0,14.74-26.02,50-23.13c0,0,51.19-43.37,105.78-5.78c0,0,58.03-9.31,101,8.06
			c28.65,11.59,38.12,23.74,38.12,23.74L1021.47,557.84z"/>
	</g>
	<g>
		<g>
			<g>
				<path class="st19" d="M2404.56,1230.83v17.62c0,1.57-0.37,3.08-1.04,4.4c-1.62,3.24-4.99,5.47-8.84,5.47h-3.16
					c-5.41,0-9.87-4.43-9.87-9.87v-17.62c0-1.86,0.53-3.58,1.43-5.07c0-0.03,0-0.03,0-0.03c1.75-2.87,4.88-4.78,8.44-4.78h3.16
					C2400.13,1220.96,2404.56,1225.42,2404.56,1230.83z"/>
			</g>
			<g class="st16">
				<path class="st19" d="M2403.53,1252.85c-1.62,3.24-4.99,5.47-8.84,5.47h-3.16c-5.41,0-9.87-4.43-9.87-9.87v-17.62
					c0-1.86,0.53-3.58,1.43-5.07C2383.28,1226.85,2387.47,1251.02,2403.53,1252.85z"/>
			</g>
		</g>
		<g>
			<polygon class="st24" points="2248.07,1359.79 2296.86,1359.79 2296.86,1310.54 2245.96,1310.54 			"/>
		</g>
		<g>
			<path class="st0" d="M2401.93,1255.69l-239.72,5.91v-126.41h157.42c15.01,0,28.75,8.4,35.59,21.75l10.3,20.11L2401.93,1255.69z"
				/>
		</g>
		<g>
			<path class="st19" d="M2265.75,1351.77c0,13.37,6.9,28.11,6.9,28.11s10.25,0,11.67,0c10.25,0,18.57-12.59,18.57-28.11
				s-19.99-28.11-30.24-28.11S2265.75,1336.25,2265.75,1351.77z"/>
		</g>
		<g>
			<ellipse class="st20" cx="2272.64" cy="1351.77" rx="18.57" ry="28.11"/>
		</g>
		<g>
			<ellipse class="st6" cx="2272.88" cy="1351.77" rx="13.99" ry="21.18"/>
		</g>
		<g>
			<path class="st19" d="M2399.97,1351.77c0,13.37,6.9,28.11,6.9,28.11s10.25,0,11.67,0c10.26,0,18.57-12.59,18.57-28.11
				s-19.99-28.11-30.24-28.11C2396.61,1323.66,2399.97,1336.25,2399.97,1351.77z"/>
		</g>
		<g>
			<path class="st20" d="M2388.29,1351.77c0,15.53,8.31,28.11,18.57,28.11c10.25,0,18.57-12.59,18.57-28.11s-8.31-28.11-18.57-28.11
				C2396.61,1323.66,2388.29,1336.25,2388.29,1351.77z"/>
		</g>
		<g>
			<path class="st19" d="M2091.74,1351.77c0,13.37,6.9,28.11,6.9,28.11s10.25,0,11.67,0c10.26,0,18.57-12.59,18.57-28.11
				s-19.99-28.11-30.24-28.11C2088.38,1323.66,2091.74,1336.25,2091.74,1351.77z"/>
		</g>
		<g>
			<path class="st20" d="M2080.07,1351.77c0,15.53,8.31,28.11,18.57,28.11s18.57-12.59,18.57-28.11s-8.31-28.11-18.57-28.11
				C2088.38,1323.66,2080.07,1336.25,2080.07,1351.77z"/>
		</g>
		<g>
			<path class="st0" d="M2455.6,1338.51c0.03,11.75-9.07,16.58-20.8,16.58l-131.91,1.14c0.4-2.31-5.41-1.14-5.41-3.61
				c0-18.18-10.91-32.93-24.33-32.93c-13.45,0-26.23,9.88-26.23,28.06c0,2.47-2.93,5.84-2.53,8.15l-70.68-6.2
				c0,0-7.92-25.79-7.52-43.78c0.32-15.66,0.32-46.33-0.61-53.81c0-1.12,77.48-1.25,97.04-1.33c2.65-0.03,4.24-0.03,4.4-0.03
				l0.27,0.19l0.29,0.21c3.61,2.52,23.83,16.69,36.38,25c11.07,7.3,92.74,10.27,124.77,11.17c7.96,0.21,12.87,0.29,12.87,0.29
				s4.38,4.48,8.25,11.57c2.97,5.49,5.62,12.55,5.68,20.27c0.03,4.8,0.05,10.59,0.05,16.27
				C2455.6,1336.65,2455.6,1337.58,2455.6,1338.51z"/>
		</g>
		<g>
			<path class="st3" d="M2382.6,1250.76h-107.73c-2.49,0-4.75-1.46-5.78-3.72l-26.67-59.33c-0.88-1.94,0.56-4.14,2.68-4.14h113.65
				c2.49,0,4.78,1.49,5.79,3.79l19.1,43.65l4.78,10.91C2390.21,1246.09,2387.16,1250.76,2382.6,1250.76z"/>
		</g>
		<g>
			<path class="st8" d="M2332.42,1335.72c-0.02,1.87-0.1,3.62-0.21,5.17c-0.77,10.33-11.15,18.89-11.15,18.89h-24.2
				c0.4-2.31,0.61-4.7,0.61-7.17c0-6.18-1.27-11.97-3.45-16.9c-4.28-9.6-12.02-16.03-20.88-16.03c-8.9,0-16.64,6.43-20.92,16.03
				c-2.17,4.94-7.28,10.34-7.28,16.52c0,2.47-2.11,2.42-1.71,4.73l-81.04,2.82v-224.59h69.98l0.33,41.85c0,0,1.18,6.27,3.57,11.88
				c2.14,5,4.98,11.67,8.08,18.93c6.37,14.88,13.81,32.24,18.46,42.93c2.33,5.41,3.98,9.1,4.4,9.9
				c1.31,2.49,20.72,13.01,37.14,22.35c4.1,2.33,8.01,4.58,11.4,6.62c4.83,2.91,8.61,5.37,10.4,6.98
				C2330.43,1300.67,2332.66,1321.64,2332.42,1335.72z"/>
		</g>
		<g>
			<polygon class="st0" points="2441.59,1287.61 2313.9,1287.61 2267.28,1250.94 2267.01,1250.76 2395.81,1250.76 2432.49,1280.26 
							"/>
		</g>
		<g>
			<path class="st25" d="M2330.43,1309.16l-11.54-1.14c-4.03-0.4-7.3-3.42-8.01-7.4l-2.65-14.59c-0.05-0.24-0.08-0.45-0.05-0.69
				c8.23,4.72,15.15,8.94,17.78,11.3C2327.86,1298.36,2329.37,1303.14,2330.43,1309.16z"/>
		</g>
		<g>
			<path class="st0" d="M2365.53,1177.05h-133.02c0,0-0.51-8.51-3.85-18.23c-2.97-8.58-8.11-18.16-17.1-23.62h108.7
				c17.72,0,33.42,9.46,39.66,23.62c0.29,0.59,0.55,1.17,0.77,1.76C2362.56,1165.49,2364.24,1171,2365.53,1177.05z"/>
		</g>
		<g>
			<path class="st26" d="M2330.46,1309.16l-11.57-1.14c-4.03-0.4-7.3-3.42-8.01-7.4l-2.65-14.59c-0.05-0.24-0.08-0.48-0.05-0.72
				c8.23,4.75,15.15,8.97,17.78,11.33C2327.86,1298.36,2329.37,1303.14,2330.46,1309.16z"/>
		</g>
		<g>
			<path class="st19" d="M2455.6,1338.51c0.03,11.75-7,22.39-22.41,21.79l-137.85,0.02c0.4-2.31,1.47-5.64,1.47-8.11
				c0-6.18-0.6-11.55-2.77-16.49h161.54C2455.6,1336.65,2455.6,1337.58,2455.6,1338.51z"/>
		</g>
		<g>
			<path class="st19" d="M2248.78,1352.62c0,2.47,0.19,4.86,0.58,7.16h-87.17v-24.07h90.03
				C2250.06,1340.66,2248.78,1346.44,2248.78,1352.62z"/>
		</g>
		<g>
			<path class="st19" d="M2365.7,1288.65h52.22c1.67,0,2.94,2.25,2.69,4.74l-1.85,18.15c-0.27,2.67-1.79,4.64-3.58,4.64h-43.02
				c-2.76,0-5.19-2.73-5.99-6.72l-3.1-15.43C2362.52,1291.35,2363.85,1288.65,2365.7,1288.65z"/>
		</g>
		<g>
			<path class="st6" d="M2383.63,1231.01c-61.59-3.16-103.25-36.11-115.83-47.44h90.94c2.49,0,4.78,1.49,5.79,3.79L2383.63,1231.01z
				"/>
		</g>
		<g>
			<polygon class="st0" points="2186.84,1135.19 2186.84,1348.72 1953.88,1351.77 1953.88,1135.19 			"/>
		</g>
		<g>
			<path class="st8" d="M2365.53,1177.05h-133.02c0,0-0.51-8.51-3.85-18.23h131.26c0.29,0.59,0.55,1.17,0.77,1.76
				C2362.56,1165.49,2364.24,1171,2365.53,1177.05z"/>
		</g>
		<g>
			<path class="st19" d="M2449.84,1299.18c-0.74,1.22-1.7,2.02-2.73,2.2l-17.91,3.32c-1.51,0.29-2.68-2.33-2.28-5.04l1.75-12.05
				l0.05-0.29l0.35-2.47c0.32-2.12,1.25-3.74,2.39-4.19l1.04-0.4l9.1,7.35C2441.59,1287.61,2445.96,1292.1,2449.84,1299.18z"/>
		</g>
		<g>
			<rect x="1953.88" y="1283.03" class="st27" width="372.06" height="18.93"/>
		</g>
		<g>
			<rect x="1953.88" y="1174.11" class="st27" width="232.96" height="18.93"/>
		</g>
		<g>
			<g>
				<path class="st27" d="M2037.2,1237.61c0-18.31,14.85-33.16,33.16-33.16c18.31,0,33.16,14.85,33.16,33.16
					s-14.85,33.16-33.16,33.16C2052.04,1270.77,2037.2,1255.92,2037.2,1237.61z"/>
			</g>
			<g>
				<g>
					<g>
						<g>
							<path class="st0" d="M2070.36,1266.97c-7.84,0-15.21-3.05-20.76-8.6c-5.55-5.55-8.6-12.92-8.6-20.76s3.05-15.21,8.6-20.76
								c5.54-5.55,12.92-8.6,20.76-8.6s15.21,3.05,20.76,8.6c5.54,5.54,8.6,12.92,8.6,20.76s-3.05,15.21-8.6,20.76
								C2085.57,1263.91,2078.2,1266.97,2070.36,1266.97z M2070.36,1210.95c-7.12,0-13.81,2.77-18.85,7.81
								c-5.03,5.04-7.81,11.73-7.81,18.85s2.77,13.81,7.81,18.85c5.04,5.03,11.73,7.81,18.85,7.81s13.81-2.77,18.85-7.81
								s7.81-11.73,7.81-18.85s-2.77-13.81-7.81-18.85C2084.17,1213.73,2077.48,1210.95,2070.36,1210.95z"/>
						</g>
					</g>
					<g>
						<polygon class="st0" points="2089.32,1232.82 2075.15,1232.82 2075.15,1218.65 2065.57,1218.65 2065.57,1232.82 
							2051.4,1232.82 2051.4,1242.4 2065.57,1242.4 2065.57,1256.57 2075.15,1256.57 2075.15,1242.4 2089.32,1242.4 						"/>
					</g>
				</g>
			</g>
		</g>
		<g>
			<path class="st19" d="M2352.35,1311.33l-21.89-2.17h-0.03l-11.54-1.14c-4.03-0.4-7.3-3.42-8.01-7.4l-2.65-14.59
				c-0.05-0.24-0.08-0.45-0.05-0.69v-0.03c-0.13-3.08,2.68-5.57,5.84-4.93l34.1,6.92c2.18,0.45,3.9,2.07,4.48,4.19l4.01,14.81
				C2357.34,1309,2355.13,1311.63,2352.35,1311.33z"/>
		</g>
		<g>
			<path class="st3" d="M2232.96,1194.24l22.95,56.52h-39.38c0,0-8.08-1.35-9.11-17.86c-1.11-17.62-1.1-48.03-1.1-48.03l17.28-0.08
				C2230.18,1185.79,2231.21,1189.4,2232.96,1194.24z"/>
		</g>
		<g>
			<path class="st19" d="M2244.22,1221.74c0,0,1.99,22.84-9.29,29.1H2256L2244.22,1221.74z"/>
		</g>
		<g>
			<path class="st19" d="M2247.32,1237.03c0,0-4.76-3.39-5.17-6.19v15.98h6.22L2247.32,1237.03z"/>
		</g>
		<g>
			<path class="st19" d="M2242.15,1230.83v17.62c0,1.57-0.37,3.08-1.04,4.4c-1.62,3.24-4.99,5.47-8.84,5.47h-3.16
				c-5.41,0-9.87-4.43-9.87-9.87v-17.62c0-1.86,0.53-3.58,1.43-5.07c0-0.03,0-0.03,0-0.03c1.75-2.87,4.88-4.78,8.44-4.78h3.16
				C2237.72,1220.96,2242.15,1225.42,2242.15,1230.83z"/>
		</g>
		<g>
			<path class="st19" d="M2187.06,1352.62c0,2.47,0.34,4.86,1.07,7.16h-160.4v-24.07h165.67
				C2189.41,1340.66,2187.06,1346.44,2187.06,1352.62z"/>
		</g>
		<g>
			<path class="st19" d="M2113.2,1352.62c0,2.47,0.34,4.86,1.07,7.16h-160.4v-24.07h165.67
				C2115.54,1340.66,2113.2,1346.44,2113.2,1352.62z"/>
		</g>
		<g>
			<path class="st24" d="M2029.97,1359.8h-57.3c-1.21-5.17-4.86-42,27.26-42C2029.11,1317.8,2031.25,1351.4,2029.97,1359.8z"/>
		</g>
		<g>
			<g>
				<path class="st19" d="M1990.6,1351.77c0,13.37,6.9,28.11,6.9,28.11s10.25,0,11.67,0c10.26,0,18.57-12.59,18.57-28.11
					s-19.99-28.11-30.24-28.11C1987.24,1323.66,1990.6,1336.25,1990.6,1351.77z"/>
			</g>
			<g>
				<path class="st20" d="M1978.93,1351.77c0,15.53,8.31,28.11,18.57,28.11c10.25,0,18.57-12.59,18.57-28.11
					s-8.31-28.11-18.57-28.11C1987.24,1323.66,1978.93,1336.25,1978.93,1351.77z"/>
			</g>
			<g>
				<ellipse class="st6" cx="1997.73" cy="1351.77" rx="13.99" ry="21.18"/>
			</g>
		</g>
	</g>
	<g>
		<g>
			<path class="st19" d="M1277.44,698.63c0,0-11.36-24.14-9.07-36.87s1.76-29.63,18.74-36.16c16.98-6.53,18.48-0.24,36.93-2.2
				c17.88-1.9,24.27,20.74,25.96,30.36c3.58,20.32-2.54,33.05-7.93,39.91c-4.66,5.93-6.77,8.9-6.77,8.9L1277.44,698.63z"/>
		</g>
		<g>
			<path class="st19" d="M1230.26,1380.81c0,0,0-11.91,1.7-15.87s7.92-20.08,7.92-20.08h24.32c0,0,4.53,14.71,4.81,19.51
				c0.28,4.81,0,16.43,0,16.43L1230.26,1380.81L1230.26,1380.81z"/>
		</g>
		<g>
			<path class="st19" d="M1384.7,1380.81c0,0,0-11.91-1.7-15.87s-7.92-20.08-7.92-20.08h-24.32c0,0-4.53,14.71-4.81,19.51
				c-0.28,4.81,0,16.43,0,16.43L1384.7,1380.81L1384.7,1380.81z"/>
		</g>
		<g>
			<path class="st28" d="M1233.31,968.43c0,0,4.25,129.95-2.11,204.1s0.04,177.33,0.04,177.33s20.35,11.22,42.41,0
				c0,0,24.19-143.24,24.04-177.33c-0.16-36.3,26.33-198.43,26.33-198.43L1233.31,968.43z"/>
		</g>
		<g>
			<path class="st28" d="M1383.82,1349.86c0,0-20.35,11.22-42.41,0c0,0-24.19-143.24-24.04-177.33
				c0.07-15.33-4.62-53.12-10.05-91.64c-7.44-52.7-16.28-106.79-16.28-106.79l94.24-5.89c0,0-7.77,130.17-1.41,204.32
				C1390.23,1246.68,1383.82,1349.86,1383.82,1349.86z"/>
		</g>
		<g>
			<path class="st15" d="M1251.62,757.13c0,0-35.06,4.16-42.75,35.66c-7.7,31.5-37.97,111.54-7.7,129.62c0,0,32.07-42.97,44.25-77.6
				C1257.6,810.18,1251.62,757.13,1251.62,757.13z"/>
		</g>
		<g>
			<path class="st15" d="M1370.8,773.94c0,0,35.27-4.44,42.97,27.06s32.3,101.83,2.03,119.92c0,0-34.23-41.47-46.41-76.11
				C1357.21,810.18,1370.8,773.94,1370.8,773.94z"/>
		</g>
		<g>
			<path class="st13" d="M1287.25,712.46c0,0-0.86,26.52-4.25,38.39l-26.86,18.74l101.11,15.13l-24.11-33.32
				c0,0-7.28-35.55-3.46-48.7C1333.49,689.56,1287.25,712.46,1287.25,712.46z"/>
		</g>
		<g>
			<path class="st29" d="M1287.1,716.13c0-0.01,8,19.25,23.06,18.82c15.06-0.42,18.49-17.46,18.49-17.46L1287.1,716.13z"/>
		</g>
		<g>
			<path class="st13" d="M1308.43,727.51c-10.91-0.19-31-14.72-31-32.72v-28.08c0-6.57,4.58-11.95,10.18-11.95h41.63
				c5.6,0,10.18,5.38,10.18,11.95v26.49C1339.43,712.07,1320.95,727.73,1308.43,727.51z"/>
		</g>
		<g>
			<path class="st30" d="M1386.68,1026.31c-78.08,13.47-161.79,2.56-161.79,2.56l7.77-157.79c-0.21-2.28-0.36-4.63-0.42-7.03
				c-0.09-3.16-0.03-6.89,0.17-11.04c1.56-33.11,11.57-92.69,19.2-95.89c0,0,11.34-4.21,31.39-6.27c0,0.4,11.63,17.41,25.44,19.3
				c8.58-3.39,15.32-6.29,24.71-18.75c5.5,0.64,11.29,1.44,17.43,2.6c0.45,0.08,0.91,0.17,1.37,0.26c6.73,1.32,13.9,3.08,21.58,5.54
				c0,0,9.92,3.85,7.72,72.97L1386.68,1026.31z"/>
		</g>
		<g>
			<path class="st0" d="M1299.74,709.42c0,0,3.4,4.6,9.33,4.43c5.94-0.16,8.73-4.43,8.73-4.43S1307.79,707.78,1299.74,709.42z"/>
		</g>
		<g>
			<path class="st15" d="M1224.89,905.34l-4.36,234.95c0,0,35.2,9.1,65.46,11.03l7.83-287.21l-10.77-97.21l-9.79-16.03
				c0,0-32.37,2.53-51.75,18.32c-13.22,10.77-19.33,47.51-19.33,47.51l30.47,32.01L1224.89,905.34z"/>
		</g>
		<g>
			<path class="st15" d="M1391.5,905.34l4.36,234.95c0,0-35.2,9.1-65.46,11.03l-6.37-278.65l9.3-105.78l9.79-16.03
				c0,0,32.28,2.65,51.75,18.32c20.89,16.81,25.08,58.2,25.08,58.2l-36.22,21.32L1391.5,905.34z"/>
		</g>
		<g>
			<path class="st13" d="M1201.16,922.41c35.43,9.54,55.36-15.11,138.27-49.2l-2.51-13.23c0,0-95.32,1.11-112.02,10.15
				C1203.18,881.9,1198.25,921.63,1201.16,922.41z"/>
		</g>
		<g>
			<path class="st13" d="M1270.31,850.95c0,0-35.8-2.03-36.18,16.23l33.1-1.5L1270.31,850.95z"/>
		</g>
		<g>
			<path class="st29" d="M1365.06,860.26c0,0,26.79-6.79,31.28,11.15s-38.52,0-38.52,0L1365.06,860.26z"/>
		</g>
		<g>
			<path class="st29" d="M1297.9,891.64c0,0-10.19-12.26-34.84-27.79l41.85,7.9l12.77,10.47l-5.82,2.96L1297.9,891.64z"/>
		</g>
		<g>
			<polygon class="st29" points="1340.22,861.61 1375.9,859 1373.41,869.19 			"/>
		</g>
		<g>
			<path class="st29" d="M1234.13,867.18c0,0,24.48-4.19,24.05-4.51c-0.43-0.32-8.9-2.89-10.84-1.92
				C1245.4,861.71,1234.13,867.18,1234.13,867.18z"/>
		</g>
		<g>
			<path class="st17" d="M1285.44,737.12c0,0-14.82,8.2-17.42,15.88c0,0-7.18,31.27,2.29,52.32l15.13-3.67l-7.77,9.55
				c0,0,4.01,43.44,16.16,52.89C1293.83,864.1,1284.35,748.76,1285.44,737.12z"/>
		</g>
		<g>
			<path class="st17" d="M1330.67,737.12c0,0,14.82,8.2,17.42,15.88c0,0,9.47,29.06,0,50.12l-17.42-1.47l12.46,10.28
				c0,0-6.94,51.27-19.09,60.72C1324.03,872.66,1331.76,748.76,1330.67,737.12z"/>
		</g>
		<g>
			<path class="st13" d="M1415.8,920.92c0,0-73.54-7.98-159.67-62.32l14.17-7.65c0,0,112.95,12.26,127.11,22.9
				C1419.62,890.53,1432.46,917.03,1415.8,920.92z"/>
		</g>
		<g>
			<rect x="1246.16" y="814.88" class="st1" width="24.15" height="10.61"/>
		</g>
		<g>
			<path class="st19" d="M1294.48,654.77c0,0,11.1,10.08,25.3,8.09c14.2-1.99,13.87-7.93,15.85-5.42c1.99,2.51,2.2,22.91,4.96,24.24
				l1.47-26.91l-28.16-16.19l-40.4,4.65l3.93,39.42c0,0-0.75-14.45,5.37-18.61C1288.93,659.88,1294.48,654.77,1294.48,654.77z"/>
		</g>
	</g>
	<g>
		<g>
			<path class="st19" d="M402.31,1379.94c0,0,0-11.91,1.7-15.87s7.92-20.08,7.92-20.08h24.32c0,0,4.53,14.71,4.81,19.52
				s0,16.43,0,16.43L402.31,1379.94L402.31,1379.94z"/>
		</g>
		<g>
			<path class="st19" d="M556.74,1379.94c0,0,0-11.91-1.7-15.87s-7.92-20.08-7.92-20.08H522.8c0,0-4.53,14.71-4.81,19.52
				c-0.28,4.81,0,16.43,0,16.43L556.74,1379.94L556.74,1379.94z"/>
		</g>
		<g>
			<path class="st20" d="M405.36,967.56c0,0,4.26,129.95-2.11,204.1c-6.36,74.15,0.05,177.33,0.05,177.33s20.35,11.22,42.41,0
				c0,0,24.19-143.24,24.04-177.33c-0.16-36.3,26.33-198.43,26.33-198.43L405.36,967.56z"/>
		</g>
		<g>
			<path class="st20" d="M555.86,1348.98c0,0-20.35,11.22-42.41,0c0,0-24.19-143.24-24.04-177.33c0.07-15.33-4.62-53.11-10.05-91.63
				c-7.44-52.7-16.28-106.79-16.28-106.79l94.24-5.89c0,0-7.77,130.17-1.41,204.31C562.28,1245.8,555.86,1348.98,555.86,1348.98z"/>
		</g>
		<g>
			<path class="st19" d="M489.42,1171.65c0.07-15.33-4.62-53.11-10.05-91.63c5.64-23.01,19.39-45.16,19.39-45.16
				C516.15,1083.65,489.42,1171.65,489.42,1171.65z"/>
		</g>
		<g>
			<path class="st13" d="M423.66,756.25c0,0-35.06,4.16-42.75,35.66c-7.7,31.5-37.97,111.54-7.7,129.62c0,0,32.07-42.97,44.25-77.6
				C429.65,809.3,423.66,756.25,423.66,756.25z"/>
		</g>
		<g>
			<path class="st13" d="M542.85,773.06c0,0,35.27-4.44,42.97,27.06c7.7,31.5,32.3,101.83,2.03,119.92c0,0-34.23-41.47-46.41-76.11
				C529.25,809.3,542.85,773.06,542.85,773.06z"/>
		</g>
		<g>
			<path class="st13" d="M459.3,711.59c0,0-0.86,26.51-4.25,38.39l-26.86,18.74l101.11,15.13l-24.11-33.32c0,0-7.28-35.55-3.46-48.7
				C505.54,688.68,459.3,711.59,459.3,711.59z"/>
		</g>
		<g>
			<path class="st29" d="M459.15,715.25c0-0.01,8,19.25,23.06,18.82c15.06-0.42,18.49-17.46,18.49-17.46L459.15,715.25z"/>
		</g>
		<g>
			<path class="st31" d="M450.16,699.66c0,0-4.86-24.28-8.26-31.63c-3.39-7.35-6.22-40.16,31.39-41.86c0,0,14.42,1.7,22.34-3.11
				c0,0,0,4.81-1.98,6.5c0,0,13.01-3.11,23.19,8.2s-6.79,50.91-5.94,60.24L450.16,699.66z"/>
		</g>
		<g>
			<path class="st13" d="M480.48,726.63c-10.91-0.19-31-14.72-31-32.72v-28.08c0-6.57,4.58-11.95,10.18-11.95h41.63
				c5.6,0,10.18,5.38,10.18,11.95v26.49C511.48,711.19,493,726.85,480.48,726.63z"/>
		</g>
		<g>
			<path class="st31" d="M449.48,680.83c0,0,0.06-16.87,13.42-19.47c13.36-2.59,43.27,8.22,47.52-4.08
				c4.24-12.3-57.81-12.09-60.94-4.24C446.36,660.89,449.48,680.83,449.48,680.83z"/>
		</g>
		<g>
			<path class="st30" d="M563.05,832.41l-4.32,193.02c-78.08,13.47-161.79,2.57-161.79,2.57l7.77-157.79
				c-0.2-2.28-0.36-4.63-0.42-7.03c-0.09-3.16-0.03-6.89,0.17-11.04c1.56-33.11,11.57-92.69,19.2-95.9c0,0,11.34-4.21,31.39-6.27
				c0,0.4,11.63,17.41,25.44,19.3c8.58-3.39,15.32-6.29,24.71-18.75c5.5,0.64,11.29,1.44,17.43,2.6c0.45,0.08,0.91,0.17,1.37,0.26
				c6.73,1.32,13.91,3.08,21.58,5.54c0,0,9.92,3.85,7.72,72.97L563.05,832.41z"/>
		</g>
		<g>
			<path class="st0" d="M471.79,708.55c0,0,3.4,4.6,9.34,4.43c5.94-0.16,8.73-4.43,8.73-4.43S479.83,706.9,471.79,708.55z"/>
		</g>
		<g>
			<path class="st13" d="M373.21,921.54c35.43,9.54,55.36-15.11,138.27-49.2l-2.51-13.23c0,0-95.32,1.11-112.02,10.16
				C375.22,881.02,370.3,920.75,373.21,921.54z"/>
		</g>
		<g>
			<path class="st30" d="M440.07,752.11v0.01l-8.35,24.72l-0.39,1.13l-0.12,0.33l-0.6,1.81l-10.35,30.63l-1.03,3.05l-11.39,33.73
				c-1.07,0.1-2.12,0.19-3.14,0.27c-29.64,2.08-44.32-6.76-44.32-6.76s6.09-39.44,20.84-61.89c9.65-14.69,31.85-21.73,46.05-24.85
				c0.46-0.09,0.9-0.19,1.33-0.28C435.41,752.6,440.07,752.11,440.07,752.11z"/>
		</g>
		<g>
			<path class="st30" d="M535.24,756.25c0,0,26.21,3.85,43.53,24.44s21.81,56.51,21.81,56.51s-24.05,10.26-52.27,7.7
				C520.08,842.33,535.24,756.25,535.24,756.25z"/>
		</g>
		<g>
			<rect x="504.33" y="810.93" class="st1" width="36.16" height="13.76"/>
		</g>
		<g>
			<g>
				<g>
					<g>
						<path class="st20" d="M421.53,840.51l1.7-0.78c-0.1-0.23-10.37-23.06-3.46-47.74c2.01-7.17,8.19-12.63,15.39-13.58
							c6.78-0.9,12.93,2.39,16.87,9.03c9.35,15.75-7.67,53.88-7.84,54.26l1.71,0.77c0.04-0.1,4.44-9.9,7.59-21.57
							c4.27-15.83,4.32-27.41,0.16-34.42c-4.34-7.31-11.17-10.93-18.73-9.93c-7.93,1.05-14.75,7.05-16.95,14.94
							C410.87,816.85,421.42,840.28,421.53,840.51z"/>
					</g>
				</g>
				<g>
					<path class="st20" d="M447.65,842.81c0.4-1.44-0.44-2.92-1.87-3.32s-2.92,0.44-3.32,1.87s0.44,2.92,1.87,3.32
						C445.76,845.08,447.25,844.24,447.65,842.81z"/>
				</g>
				<g>
					<path class="st20" d="M425.19,840.91c0.4-1.43-0.44-2.92-1.87-3.32s-2.92,0.44-3.32,1.87s0.44,2.92,1.87,3.32
						C423.3,843.18,424.79,842.34,425.19,840.91z"/>
				</g>
			</g>
			<g>
				<path class="st20" d="M438.57,778.15c-0.05,0-0.09-0.01-0.14-0.02c-0.35-0.08-0.56-0.42-0.48-0.77
					c0.04-0.18,4.17-18.09,13.36-28.46c0.23-0.27,0.64-0.29,0.91-0.05c0.26,0.23,0.29,0.64,0.05,0.9
					c-8.97,10.13-13.02,27.72-13.06,27.89C439.12,777.95,438.86,778.15,438.57,778.15z"/>
			</g>
		</g>
		<g>
			<path class="st13" d="M442.35,850.07c0,0-35.8-2.03-36.18,16.23l33.1-1.5L442.35,850.07z"/>
		</g>
		<g>
			<path class="st29" d="M537.1,859.39c0,0,26.79-6.79,31.28,11.15c4.49,17.94-38.52,0-38.52,0L537.1,859.39z"/>
		</g>
		<g>
			<g>
				<path class="st20" d="M524.91,780.44c-0.26,0-0.51-0.16-0.6-0.42c-6.21-17.01-16.95-29.5-17.05-29.62
					c-0.23-0.27-0.2-0.67,0.06-0.91c0.27-0.23,0.67-0.2,0.91,0.06c0.11,0.13,11,12.78,17.29,30.02c0.12,0.33-0.05,0.7-0.38,0.82
					C525.05,780.42,524.98,780.44,524.91,780.44z"/>
			</g>
			<g>
				<g>
					<path class="st20" d="M531.17,781.18c0-3.46-2.81-6.27-6.27-6.27s-6.27,2.81-6.27,6.27s2.81,6.27,6.27,6.27
						C528.37,787.45,531.17,784.64,531.17,781.18z"/>
				</g>
				<g>
					<path class="st32" d="M527.76,781.18c0-1.58-1.28-2.85-2.85-2.85c-1.58,0-2.85,1.28-2.85,2.85c0,1.58,1.28,2.85,2.85,2.85
						C526.48,784.03,527.76,782.76,527.76,781.18z"/>
				</g>
			</g>
		</g>
		<g>
			<path class="st29" d="M469.95,890.76c0,0-10.19-12.26-34.84-27.79l41.85,7.9l12.77,10.47l-5.82,2.96L469.95,890.76z"/>
		</g>
		<g>
			<polygon class="st29" points="512.26,860.73 547.94,858.12 545.45,868.31 			"/>
		</g>
		<g>
			<path class="st13" d="M587.85,920.04c0,0-73.54-7.98-159.67-62.32l14.17-7.65c0,0,112.95,12.26,127.11,22.9
				C591.67,889.65,604.5,916.15,587.85,920.04z"/>
		</g>
		<g>
			<path class="st29" d="M406.17,866.3c0,0,24.48-4.19,24.05-4.51c-0.43-0.32-8.9-2.89-10.84-1.92
				C417.44,860.83,406.17,866.3,406.17,866.3z"/>
		</g>
	</g>
	<g>
		<g>
			<path class="st13" d="M1505.53,853.81c-1.24,2.34-9.47,89.97-3,101.51c6.47,11.53,37-21.98,37.75-78.54
				C1540.92,829.12,1505.53,853.81,1505.53,853.81z"/>
		</g>
		<g>
			
				<rect x="1474.15" y="903.09" transform="matrix(0.2961 -0.9552 0.9552 0.2961 146.1023 2130.7297)" class="st19" width="89.05" height="126.3"/>
		</g>
		<g>
			<path class="st20" d="M1502.67,1359.07l12.43,4.63c0,0,53.97-74.85,60.61-140.71c1.19-11.76,0.79-23.15-1.78-33.67
				c0,0,0.53-3.01,1.45-8.34c0.43-2.49,0.95-5.48,1.55-8.91c1.75-10.05,4.17-23.81,6.93-39.47c6.35-36.04,14.58-82.12,20.97-115.99
				l-3.35-1.08l-36.23-11.69l-7.49-23.78l-26.97-7.1c0,0-6.03,11.79-11.41,67.47c-0.99,7.3-1.9,15.36-2.58,24.09
				c-2.1,26.66-2.25,59.73,2.57,97.54c1.24,9.68,2.8,19.67,4.74,29.94c1.42,7.53,1.63,17.78,1.03,29.56
				C1522.43,1275.41,1502.67,1359.07,1502.67,1359.07z"/>
		</g>
		<g>
			<path class="st19" d="M1516.81,1064.53l58.58,116.45c0.43-2.49,0.95-5.48,1.55-8.91c1.75-10.05,4.17-23.81,6.93-39.47
				c6.35-36.04,14.58-82.12,20.97-115.99l-3.35-1.08l-36.23-11.69l-7.49-23.78l-26.97-7.1c0,0-6.03,11.79-11.41,67.47
				C1518.39,1047.74,1517.49,1055.8,1516.81,1064.53z"/>
		</g>
		<g>
			<path class="st20" d="M1542.58,987.91l1.36-11.63c22.72,6.03,83.42-16.86,83.42-16.86s22.01,19.35,19.12,65.72
				c-1.41,22.63-3.99,118.81-6.68,147.27c-0.97,10.31-1.82,17.66-2.17,20.59c-0.01,0.01-0.01,0.02-0.01,0.03
				c-0.11,0.89,0.21,1.74,0.66,2.52c3.96,6.72,7.24,13.72,9.93,20.89c26.41,70.37-4.07,157.04-4.07,157.04l-7.91-3.19
				c0,0-17.34-96.45-31.43-139.06c-2.39-7.23-4.69-12.91-6.79-16.3c-6.13-9.89-11.81-26.05-16.97-45.26
				c-9.75-36.33-17.61-83.6-22.83-120.08C1557.48,1049.61,1542.58,987.91,1542.58,987.91z"/>
		</g>
		<g>
			<path class="st19" d="M1598.16,1379.94h62.58c0,0,1.5-9.54-1.77-16.78c-3.13-6.94-8.04-10.1-6.86-18.5
				c-3.98,4.09-10.46,8.68-19.51,7.46c-1.11,1.8-7.16,11.42-10.86,14.08C1617.65,1369.14,1599.42,1368.09,1598.16,1379.94z"/>
		</g>
		<g>
			<path class="st19" d="M1463.78,1379.94h62.58c0,0,2.34-9.98-1.77-16.78c-3.64-6.01-2.24-9.43,0.45-14.41
				c-2.83,1.16-6.5,2.22-10.54,1.99c-3.12-0.18-6.42-1.59-9.31-3.27c-2.69,3.07-14.23,16.14-17.83,18.73
				C1483.28,1369.14,1465.04,1368.09,1463.78,1379.94z"/>
		</g>
		<g>
			<path class="st31" d="M1610.82,666.64c0.49-1.68,6.43-19.64,34.53-13.54c0,0-14.11-1.83-18,3.59c0,0,11.21-5.08,18.2-0.77
				c6.99,4.32,8.08,18.75,7.02,23.14c-1.06,4.39-8.85,17.43-13.98,17.41c-1.94-0.01-4.01-0.66-5.84-1.47
				c0.78,2.33,1.47,4.86,2.05,7.63c5.34,25.63-11.77,45.03-20.55,40.19c-5.64-3.11-9.95,6.76-9.95,6.76l-46.62-62.31
				C1557.68,687.26,1590.49,648.15,1610.82,666.64z"/>
		</g>
		<g>
			<path class="st13" d="M1571.38,832.19c38.61,12.05,44.77-48.48,42.31-48.79c-4.16-3.71-9.68-18.04-9.51-39.63l-1.89,0.36
				l-31.61,6.13c0,0,0.67,9.95,0.67,19.31c-0.01,7.32-0.46,14.29-1.96,15.88c-2.46,0.34-3.93,0.57-3.93,0.57s0,0.01-0.02,0.03
				C1564.96,786.7,1561.08,828.98,1571.38,832.19z"/>
		</g>
		<g>
			<path class="st29" d="M1570.68,750.27c0,0,0.68,9.94,0.66,19.31c17.68-0.43,27.08-16.52,30.95-25.44L1570.68,750.27z"/>
		</g>
		<g>
			<path class="st13" d="M1564.74,759.11c0,0,41.82,0.85,41.95-25.2s5.62-43.48-21.08-45.13c-26.69-1.65-31.93,8.27-34.09,16.95
				C1549.36,714.42,1553.87,758.22,1564.74,759.11z"/>
		</g>
		<g>
			<path class="st31" d="M1552.82,691.26c6.5-7.81,11.37-6.07,14.1-3.7c22.91-12.48,37.56,6.16,37.56,6.16
				c2.72,18.7,16.16,29.46,16.16,29.46s-7.64,4.68-25.2,0.09c-5.36-1.4-10.14-5.23-14.2-9.88c7.07,11.95,16.71,20.57,16.71,20.57
				c-20.95-9.79-29.27-39.01-30.09-42.1c-2.56,2.28-7.61,7.24-9.17,12.12c-2.11,6.63-3.1,20.28-7.08,19.8
				C1551.63,723.77,1543.08,702.97,1552.82,691.26z"/>
		</g>
		<g>
			<path class="st33" d="M1609.34,776.27c0,0,6.57,2.14,6.92,6.78c0,0-17.61,32.9-37.08,34.77L1609.34,776.27z"/>
		</g>
		<g>
			<path class="st30" d="M1517.54,932.76l-15.11,86.17c8.92,5.46,17.53,10.14,25.81,14.16c2.29-6.74,6.53-14.36,6.8-14.83
				c-1.21,4.43,1.84,14.24,3.75,19.64c77.07,33.2,123.59,7.69,123.59,7.69c-11.56-85.12-2.99-225.26-5.07-235.28
				c-3.95-19.02-41.04-27.28-41.04-27.28c-13.57,23.77-37.09,34.77-37.09,34.77c-8.85-8.74-11.15-32.15-11.15-32.15l-15.46,3.8
				c-10,2.46-19.26,7.37-26.67,14.52c-0.66,0.65-1.33,1.31-1.96,1.99c-7.64,8.18-27.53,60.91-27.53,60.91s4.17,14.49,11.84,21.79
				c3.92,3.73,9.03,7.26,15.09,10.96L1517.54,932.76z"/>
		</g>
		<g>
			<path class="st33" d="M1579.18,817.81c0,0-9.65-31.94-8.53-36.08c0,0-7.56,0.94-8.22,5.31
				C1562.43,787.04,1570.98,813.7,1579.18,817.81z"/>
		</g>
		<g>
			<path class="st0" d="M1574.25,744.17c0,0-1.86,4.07-4.47,4.52s-6.72,0.43-7.65,0s-2.39-3.3-3.01-4.19c0,0,4.69-0.51,14.52-0.33
				H1574.25z"/>
		</g>
		<g>
			<path class="st33" d="M1508.25,888.67c4.06,3.58,9.03,7.26,15.09,10.96c0,0,11.58-43.31,8.13-46.33
				C1528.02,850.29,1521.68,878.77,1508.25,888.67z"/>
		</g>
		<g>
			<path class="st13" d="M1676.62,839.31c0,0,53.98,73.49,48.74,98.45c-4.17,19.88-58.79,65.58-58.79,65.58l-14.1-9.1
				c0,0,34.11-49.43,31.12-63.91c-2.33-11.27-36.15-53.97-36.15-53.97L1676.62,839.31z"/>
		</g>
		<g>
			<path class="st30" d="M1640.58,792.18c0,0,29.94,16.08,55.71,67.12c0,0-15.2,20.23-45.48,30.05
				c-30.27,9.82-29.25-48.67-29.25-48.67L1640.58,792.18z"/>
		</g>
		<g>
			<polygon class="st33" points="1577.66,849.64 1540.53,849.73 1540.29,880.22 1556.58,889.39 1576.82,881.58 			"/>
		</g>
		<g>
			<path class="st13" d="M1656.12,995.16c0,0-15.23-5.8-23.75-3.53c-4.81,1.28-13.74,18.28-8.18,20.84
				c5.56,2.56,11.84-6.52,18.68-4.81c6.84,1.71,15.31,11.65,23.7-4.33L1656.12,995.16z"/>
		</g>
		<g>
			<path class="st13" d="M1655.3,993.24c0,0-5.85-2.65-8.5-4.49s-4.25,1.44,0,4.49s5.77,1.68,5.77,1.68L1655.3,993.24z"/>
		</g>
		<g>
			<path class="st13" d="M1449.49,991.37c0,0,17.27-8.2,20.79,1s-2.56,16.92-8.34,15.1
				C1456.15,1005.66,1445.83,999.5,1449.49,991.37z"/>
		</g>
		<g>
			<g>
				<g>
					<g>
						<path class="st20" d="M1623.14,880.79l-1.35-1.3c0.17-0.18,17.39-18.35,19-43.94c0.47-7.43-3.57-14.63-10.05-17.9
							c-6.11-3.08-13-2-18.9,2.96c-14.02,11.79-10.52,53.4-10.49,53.82l-1.87,0.17c-0.01-0.11-0.93-10.81-0.05-22.87
							c1.19-16.35,4.96-27.3,11.2-32.55c6.51-5.47,14.15-6.64,20.96-3.2c7.14,3.61,11.6,11.52,11.08,19.69
							C1641,861.96,1623.32,880.6,1623.14,880.79z"/>
					</g>
				</g>
				<g>
					<path class="st20" d="M1597.72,874.34c0.09-1.49,1.38-2.62,2.86-2.52c1.49,0.09,2.62,1.37,2.52,2.86
						c-0.09,1.49-1.38,2.62-2.86,2.52S1597.63,875.83,1597.72,874.34z"/>
				</g>
				<g>
					<path class="st20" d="M1619.56,879.95c0.09-1.49,1.37-2.62,2.86-2.52c1.49,0.09,2.62,1.37,2.52,2.86
						c-0.09,1.49-1.37,2.62-2.86,2.52C1620.59,882.72,1619.46,881.44,1619.56,879.95z"/>
				</g>
			</g>
			<g>
				<path class="st20" d="M1627.83,816.33c-0.03,0-0.05,0-0.07,0c-0.35-0.04-0.61-0.36-0.56-0.71c0.02-0.18,1.98-18.13-3.14-30.64
					c-0.13-0.33,0.02-0.7,0.35-0.84s0.7,0.02,0.84,0.35c5.25,12.82,3.25,31.09,3.23,31.27
					C1628.43,816.09,1628.15,816.33,1627.83,816.33z"/>
			</g>
		</g>
		<g>
			<g>
				<path class="st20" d="M1549.15,821.15c-0.01,0-0.02,0-0.02,0c-0.35-0.01-0.63-0.31-0.62-0.67c0.7-18.34,7.18-33.73,7.24-33.88
					c0.14-0.33,0.52-0.48,0.84-0.34c0.33,0.14,0.48,0.52,0.34,0.84c-0.06,0.15-6.45,15.33-7.14,33.43
					C1549.78,820.88,1549.49,821.15,1549.15,821.15z"/>
			</g>
			<g>
				<g>
					<path class="st20" d="M1543.61,823.75c-1.06-3.29,0.75-6.82,4.04-7.89c3.29-1.06,6.82,0.75,7.89,4.04
						c1.06,3.29-0.75,6.82-4.04,7.89C1548.21,828.86,1544.67,827.05,1543.61,823.75z"/>
				</g>
				<g>
					<path class="st32" d="M1546.86,822.71c-0.48-1.5,0.34-3.11,1.84-3.59c1.5-0.48,3.11,0.34,3.59,1.84s-0.34,3.11-1.84,3.59
						C1548.95,825.03,1547.34,824.21,1546.86,822.71z"/>
				</g>
			</g>
		</g>
	</g>
	<g>
		<g>
			<g>
				<path class="st19" d="M701.22,1380.05h40.43c-0.3-2.12-1.33-8.57-3.23-14.51c-0.66-2.07-1.42-4.08-2.29-5.83
					c-3.93-7.85-28.91-2.86-28.91-2.86s-2.32,1.99-4.13,9.58C702.29,1369.78,701.59,1374.22,701.22,1380.05z"/>
			</g>
			<g>
				<path class="st15" d="M775.44,759.96c0,0,32.21,5.66,39.5,24.67c7.28,19.01,48.43,326.16,48.43,326.16s-20.38,16.14-64.11,10.35
					C755.52,1115.34,775.44,759.96,775.44,759.96z"/>
			</g>
			<g>
				<path class="st19" d="M823.39,1368.56c0.11,5.5,0.8,10.71,2.8,12.76h79.96c-1.02-2.89-3.9-7.25-12.1-8.58
					c-9.33-1.51-23.87-6-32.36-14.98c-3.03-3.19-5.28-6.95-6.26-11.35c-3.76-16.75-31.11,5.13-31.11,5.13
					S823.21,1360.37,823.39,1368.56z"/>
			</g>
			<g>
				<path class="st34" d="M857.82,1356.58c-8.94,2.85-26.01,11.55-36.87,7.46c-7.01-2.64-46.21-116.02-48.75-165.61
					c-0.19-3.61-0.9-8.64-2.01-14.77c-2.32-12.8-6.38-30.38-11.06-49.79c-12.54-52-29.51-117.05-29.14-137.84
					c0.57-32.27,96.17-6.76,96.17-6.76s6.58,26.47,7.89,64.8c2.6,76.07,9.73,204.57,29.15,293.81
					C864.03,1351.66,861.53,1355.4,857.82,1356.58z"/>
			</g>
			<g>
				<path class="st28" d="M791.47,996.14l-50.54,366.29c0,0-22.19,5.35-39.46,1.07c0,0-14.79-194.81-13.56-241.91
					s-10.62-126.02,2.71-134.73C703.94,978.17,791.47,996.14,791.47,996.14z"/>
			</g>
			<g>
				<path class="st0" d="M684.23,776.74c0,0,53.11-34.34,91.21-16.78c6.07,2.8,12.99,10.61,17.95,16.07
					c13.77,15.17,40.68,256.2,40.68,256.2s-76.38,25.87-149.84-8.78V776.74z"/>
			</g>
			<g>
				<path class="st15" d="M778.46,759.09c0,0,53.77,22.04,61.05,38.97c7.28,16.93,30.95,120.9,30.95,133.09s-41.21,2.73-47.84-16.94
					c-5.51-16.33-24.09-66.49-33.89-98.22L778.46,759.09z"/>
			</g>
			<g>
				<g>
					<path class="st13" d="M767.29,775.88c-11.74,2.3-28.98-0.15-41.61-8.47c5.7-13.61,8.04-24.36,8.87-31.32
						c0.05-0.37,0.08-0.73,0.12-1.07c0.38-3.61,0.32-6.05,0.15-7.17h30.35c0,0,8.3,3.79,8.3,6.41c0,1.4,0.01,2.74,0.04,4.02
						c0.06,3.49,0.2,6.54,0.38,9.15c0.58,8.52,1.55,12.53,1.55,12.53S779.14,773.56,767.29,775.88z"/>
				</g>
				<g>
					<path class="st35" d="M773.88,747.43c-22.99,4.44-36.34-8.12-39.33-11.34c-0.42-0.46-0.64-0.73-0.64-0.73
						c0.24-0.12,0.5-0.23,0.76-0.34c8.56-3.47,27.98-0.71,38.82,3.26C773.56,741.77,773.7,744.82,773.88,747.43z"/>
				</g>
				<g>
					<path class="st13" d="M727.04,722.86c4.11,22.11,32.64,21.38,44.97,20c3.47-0.39,5.65-0.83,5.65-0.83
						c3.91-1.04,6.09-7.21,7.11-15.28c2.01-15.97-0.53-39.42-3.23-45.42c-4.06-9.02-11.71-18.79-40.44-11.74
						C712.37,676.63,721.77,694.52,727.04,722.86z"/>
				</g>
				<g>
					<path class="st19" d="M782.61,668.99c-3.93-5.44-12.25-12.08-19.81-16.17c-16.25-8.79-37.04,0.28-37.13,0.32
						c-23.47,10.32-29.6,28.27-17.15,56.24c13.16,29.58,25.68,26.25,25.68,26.25s-2.66-1.66-2.42-10.87
						c0.01-0.52,0.03-0.96,0.06-1.34c0.12-1.89-0.54-3.78-1.96-5.04c-2.91-2.6-4.34-10.47-1.89-12.66c2.94-2.64,7.08,0.57,8.4,3.04
						c1.15,1.74,3.22,2.35,5.15,1.14c7.3-4.62,2.56-13.85,9.54-19.5s21.14-0.91,31.61-5.41
						C796.4,679.86,785.57,673.08,782.61,668.99z"/>
				</g>
			</g>
			<g>
				<path class="st15" d="M785.88,1133.36c-4.62,1.19-9.2,2.17-13.75,2.92c-4.02,0.69-8.03,1.2-12.04,1.54
					c-22.73,1.98-45.56-1.22-72.25-8.87c-6.01-1.72-12.22-3.68-18.66-5.84c-0.69-0.23,1.75-70.8,4.57-143.58
					c0.29-7.51,0.58-15.06,0.87-22.55c0.13-3.17,0.25-6.33,0.38-9.48c2.55-64.38,5.08-122.51,5.62-125.64
					c1.22-7.08,2.36-13.12,3.61-18.35c3.63-15.25,8.15-23.62,18-30.81c0.96-0.73,8.83-4.7,15.77-8.15
					c5.75-2.86,10.86-5.35,10.86-5.35l0,0c2.29,1.12,5.04,6.37,7.92,13.73c5.29,13.57,10.99,34.35,14.96,49.87
					c0.01,0.04,0.02,0.07,0.02,0.08s0,0.01,0,0.01c2.55,10.02,4.39,17.82,4.91,20.06c0.89,3.78,2.06,11.1,3.44,21.02
					c1.87,13.5,4.1,31.83,6.46,52.63c0.24,2.14,0.49,4.3,0.73,6.49c0.28,2.49,0.56,5.02,0.84,7.57c0.09,0.82,0.18,1.64,0.27,2.46
					c0.91,8.24,1.83,16.74,2.74,25.38c0.76,7.14,11.59,12.31,12.34,19.57c0.43,4.27,1.33,43.63,2.49,56.19
					C786.8,1043.21,786.21,1129.14,785.88,1133.36z"/>
			</g>
			<g>
				<path class="st36" d="M707.5,847.79c-0.03,0.15-1.84,65.1,47.02,72.99c48.86,7.89,16.4,9.97,16.4,9.97s-91.92-3.91-93.44-6.33
					C675.95,921.99,707.5,847.79,707.5,847.79z"/>
			</g>
			<g>
				<path class="st36" d="M748.78,948.66c0,0-0.92,0.65-2.68,1.78c-0.03,0.01-0.06,0.04-0.09,0.05
					c-7.45,4.76-29.58,17.73-61.78,26.42c-3.38,0.92-6.88,1.78-10.48,2.59c0.29-7.51,0.58-15.06,0.87-22.55
					c-4.25-0.33-8.33-0.87-12.11-1.67c0.13-0.99,0.26-1.98,0.39-2.97c4.1-1.68,8.17-3.3,12.1-4.84c3.2-1.25,6.29-2.44,9.22-3.54
					c13.23-5.03,23.04-8.43,23.04-8.43l39.16,12.4L748.78,948.66z"/>
			</g>
			<g>
				<path class="st15" d="M759.14,947.58c0,0-5.03,1.26-13.04,2.87c-0.03,0-0.06,0.01-0.09,0.02c-14.77,2.97-39.61,7.13-61.79,6.91
					c-3.27-0.04-6.49-0.16-9.6-0.41c-4.25-0.33-8.33-0.87-12.11-1.67c-8.11-1.71-14.9-4.61-19.34-9.13
					c-33-33.61,18.01-154.24,28.73-165.98c12.52-13.7,35.37-18.51,47.99-20.16c0.53-0.07,1.03-0.13,1.52-0.19
					c4.44-0.53,7.28-0.64,7.44-0.64l0,0c0,0-0.99,3.18-2.65,8.58c-0.64,2.09-1.39,4.51-2.21,7.21
					c-7.75,25.38-22.71,75.26-29.3,103.39c-2.42,10.29-3.71,17.67-3.12,19.88c2.57,9.61,29.24,14.55,46.13,16.73
					c7.05,0.91,12.39,1.34,13.59,1.43c0.08,0,0.16,0,0.25,0.02l0.98,4l2.34,9.61l2.3,9.44L759.14,947.58z"/>
			</g>
			<g>
				<polygon class="st19" points="851.18,1005.4 737.85,1000.62 760.84,859.39 874.17,864.17 				"/>
			</g>
			<g>
				<path class="st13" d="M751.56,916.42c0,0,22.06-1.54,23.17,3.6c2.58,11.99-18.97,21.83-25.95,21.16
					C741.8,940.51,746.48,915.62,751.56,916.42z"/>
			</g>
			<g>
				<path class="st13" d="M867.97,892.85c0,0-21.11-6.6-23.37-1.85c-5.28,11.06,13.4,25.62,20.35,26.58
					C871.9,918.54,873.1,893.24,867.97,892.85z"/>
			</g>
			<g>
				<path class="st36" d="M731.15,752.09c0,0-9.28,4.42-13.93,11.1c0,0,34.69,60.23,34.54,59.67
					C751.6,822.29,740.03,759.8,731.15,752.09z"/>
			</g>
			<g>
				<path class="st36" d="M774.36,752.93c3.06,1.15,8.91,7.16,10.24,10.47l4.12,52.58c0,0-8.81-38.59-13.29-56.03
					C774.3,755.53,774.5,754.18,774.36,752.93z"/>
			</g>
			<g>
				<path class="st21" d="M798.41,860.97c0,0,0.9-3.92,6.06-3.46c5.16,0.46,34.14,1.88,34.14,1.88s5.59-0.09,5.07,3.49
					L798.41,860.97z"/>
			</g>
			<g>
				<path class="st0" d="M765.17,727.84c0,0,3.76,3.43,9.83,2.37c3.6-0.63,5.61-5.31,5.61-5.31S773.7,723.65,765.17,727.84z"/>
			</g>
		</g>
		<g>
			<rect x="698.39" y="801.74" class="st1" width="29.34" height="13.16"/>
		</g>
	</g>
	<g>
		<path class="st37" d="M313.91,1377.37c-2.91-4.57-11.65-16.42-23.3-14.85c-12.69,1.71,14.02,10.08,22.2,14.88
			c-1.82,0.03-3.38-0.12-4.52-0.53c-5.47-1.95-14.83,1.79-17.83,3.1h52.05c-0.36-1.25-1.3-3.28-3.72-4.76
			c-0.86-0.52-2.57-0.6-4.79-0.43c3.09-3.65,5.24-15.3-3.37-12.3c-6.29,2.19-6.28,9.31-5.66,13.53c-1.34,0.21-2.7,0.42-4.04,0.62
			c-2.59-13.21-11.76-51.92-30.34-52.95c-18.83-1.05,15.97,40.14,27.56,53.32C316.67,1377.18,315.24,1377.31,313.91,1377.37z"/>
	</g>
	<g>
		<path class="st38" d="M2670.31,1386.77H99.52c-1.61,0-2.92-1.31-2.92-2.92v-1c0-1.61,1.31-2.92,2.92-2.92h2570.79
			c1.61,0,2.92,1.31,2.92,2.92v1C2673.23,1385.46,2671.92,1386.77,2670.31,1386.77z"/>
	</g>
</g>
</svg>
