<?xml version="1.0" encoding="utf-8"?>
<!-- Generator: Adobe Illustrator 27.2.0, SVG Export Plug-In . SVG Version: 6.00 Build 0)  -->
<svg version="1.1" id="_x3C_Layer_x3E_" xmlns="http://www.w3.org/2000/svg" xmlns:xlink="http://www.w3.org/1999/xlink" x="0px"
	 y="0px" viewBox="0 0 2760 1840" style="enable-background:new 0 0 2760 1840;" xml:space="preserve">
<style type="text/css">
	.st0{fill:#FFFFFF;}
	.st1{fill:#EBF3FA;}
	.st2{opacity:0.5;}
	.st3{fill:#98BAF4;}
	.st4{fill:#EDF4FF;}
	.st5{fill:#EBF3FF;}
	.st6{fill:#AFCDFB;}
	.st7{fill:#7FA8E5;}
	.st8{fill:#DFEBFD;}
	.st9{fill:#CCE1FF;}
	.st10{fill:#BDD7FD;}
	.st11{fill:#D4E6FF;}
	.st12{fill:#ACD29A;}
	.st13{fill:#FFB27D;}
	.st14{fill:#163560;}
	.st15{fill:#AEC3FF;}
	.st16{opacity:0.3;}
	.st17{fill:#8C9DF4;}
	.st18{fill:#23417C;}
	.st19{fill:#233862;}
	.st20{fill:#2B478B;}
	.st21{fill:#C65447;}
	.st22{fill:#E8945B;}
	.st23{fill:#F8FCFF;}
	.st24{fill:#172944;}
	.st25{fill:#A8302D;}
	.st26{fill:#A2C2DD;}
	.st27{fill:#EA6A60;}
	.st28{fill:#6BB7BF;}
	.st29{fill:#ED985F;}
	.st30{fill:#ABDDDA;}
	.st31{fill:#2C3A64;}
	.st32{fill:#6980E2;}
	.st33{fill:#91CECF;}
	.st34{fill:#59A9AD;}
	.st35{fill:#E2915A;}
	.st36{fill:#9DB0F4;}
	.st37{fill:#82B378;}
	.st38{fill:#2E3552;}
</style>
<rect class="st0" width="2760" height="1840"/>
<g>
	<g>
		<path class="st1" d="M2659.02,1183.61c-2.27,114.97-34.67,219.94-85.12,323.32c0,0-192.07,0.03-465.8,0.08
			c-678.62,0.1-1859.12,0.26-1859.21,0.19c-0.47-0.37-0.94-0.73-1.42-1.1c-55.3-42.96-75.48-105.73-63.29-175.6
			c0-0.01,0-0.02,0.01-0.03c13.17-76.09,64.08-158.72,143.04-228.57c112.91-99.87,203.14-125.96,143.87-335.51
			c-16.74-59.22-12.76-112.57,3.85-159.84C527.54,456.8,706.75,368.28,754.32,348.5c158.94-66.15,383.05-63.14,552.02-27.69
			c271.5,56.97,366.85,209.41,448.04,292.62c30.13,30.81,58.17,51.71,92.56,53.96c56.17,3.64,136.25-26.7,233.5-35.64
			c72.64-6.69,154.74-1.44,243.33,38.88c97.2,44.15,192.66,129.95,246.84,208.63C2633.28,970.31,2661.14,1073.56,2659.02,1183.61z"
			/>
	</g>
	<g class="st2">
		<g>
			<rect x="1968.84" y="865.08" class="st3" width="519.86" height="640.31"/>
		</g>
		<g>
			<rect x="2020.69" y="896.39" class="st4" width="468.01" height="69.75"/>
		</g>
		<g>
			<rect x="1635.32" y="1011.25" class="st5" width="587.12" height="496.33"/>
		</g>
		<g>
			<rect x="1620.8" y="993.22" class="st0" width="610.82" height="18.04"/>
		</g>
		<g>
			<rect x="1958.36" y="856.06" class="st0" width="539.99" height="18.04"/>
		</g>
		<g>
			<rect x="1635.32" y="1056.12" class="st6" width="379.87" height="92.25"/>
		</g>
		<g>
			<rect x="1280.95" y="1070.05" class="st6" width="354.37" height="196.55"/>
		</g>
		<g>
			<rect x="1280.95" y="1307.49" class="st6" width="354.37" height="196.55"/>
		</g>
		<g>
			<rect x="1330.06" y="1266.6" class="st7" width="305.25" height="40.89"/>
		</g>
		<g>
			<g>
				<path class="st0" d="M1746.61,1086.2h7.06v12.7h13.02v-12.7h7.06v32.09h-7.06v-12.88h-13.02v12.88h-7.06V1086.2z"/>
			</g>
			<g>
				<path class="st0" d="M1780.03,1102.24c0-9.12,7.2-16.59,17.1-16.59c9.9,0,17.01,7.38,17.01,16.59c0,9.12-7.2,16.59-17.1,16.59
					C1787.13,1118.84,1780.03,1111.46,1780.03,1102.24z M1806.75,1102.24c0-5.5-4.03-10.08-9.72-10.08s-9.63,4.49-9.63,10.08
					c0,5.5,4.03,10.09,9.72,10.09C1802.81,1112.33,1806.75,1107.83,1806.75,1102.24z"/>
			</g>
			<g>
				<path class="st0" d="M1817.99,1113.61l4.17-5c2.89,2.38,5.91,3.9,9.58,3.9c2.89,0,4.63-1.15,4.63-3.12c0-1.79-1.1-2.7-6.46-4.08
					c-6.46-1.65-10.63-3.44-10.63-9.9c0-5.82,4.67-9.67,11.23-9.67c4.67,0,8.66,1.47,11.92,4.08l-3.67,5.32
					c-2.84-1.97-5.64-3.16-8.34-3.16c-2.7,0-4.13,1.24-4.13,2.89c0,2.11,1.38,2.8,6.92,4.22c6.51,1.7,10.18,4.03,10.18,9.72
					c0,6.37-4.86,9.95-11.78,9.95C1826.74,1118.75,1821.84,1117.05,1817.99,1113.61z"/>
			</g>
			<g>
				<path class="st0" d="M1849.53,1086.2h13.11c7.66,0,12.29,4.54,12.29,11.18c0,7.43-5.78,11.28-12.97,11.28h-5.36v9.63h-7.06
					V1086.2z M1862.18,1102.38c3.53,0,5.59-2.11,5.59-4.95c0-3.16-2.2-4.86-5.73-4.86h-5.46v9.81H1862.18z"/>
			</g>
			<g>
				<path class="st0" d="M1880.47,1086.2h7.06v32.09h-7.06V1086.2z"/>
			</g>
			<g>
				<path class="st0" d="M1903.02,1092.71h-9.76v-6.51h26.59v6.51h-9.76v25.58h-7.06V1092.71z"/>
			</g>
			<g>
				<path class="st0" d="M1932.13,1085.97h6.51l13.75,32.32h-7.38l-2.93-7.2h-13.57l-2.93,7.2h-7.2L1932.13,1085.97z
					 M1939.56,1104.86l-4.26-10.41l-4.26,10.41H1939.56z"/>
			</g>
			<g>
				<path class="st0" d="M1957.35,1086.2h7.06v25.67h16v6.42h-23.06V1086.2z"/>
			</g>
		</g>
		<g>
			<rect x="2251.94" y="1270.23" class="st6" width="236.76" height="156.25"/>
		</g>
		<g>
			<rect x="2251.94" y="1040.16" class="st6" width="236.76" height="156.25"/>
		</g>
		<g>
			<rect x="2025.62" y="900.11" class="st6" width="463.08" height="61.56"/>
		</g>
		<g>
			<polygon class="st8" points="1635.32,1017.44 2222.44,1035.15 2222.44,1011.25 1635.32,1011.25 			"/>
		</g>
		<g>
			<rect x="1258.78" y="1068.88" class="st0" width="376.54" height="19.46"/>
		</g>
		<g>
			<g>
				<rect x="1726.69" y="1286.95" class="st3" width="412.55" height="215.52"/>
			</g>
			<g>
				<rect x="1740.55" y="1302.02" class="st0" width="386.74" height="201.17"/>
			</g>
			<g>
				<rect x="1755.2" y="1314.75" class="st6" width="358.24" height="46.22"/>
			</g>
			<g>
				<rect x="1755.2" y="1373.53" class="st6" width="104.76" height="128.8"/>
			</g>
			<g>
				<rect x="1869.92" y="1373.53" class="st6" width="128.79" height="128.8"/>
			</g>
			<g>
				<rect x="2007.57" y="1373.53" class="st6" width="105.87" height="128.8"/>
			</g>
			<g>
				<polygon class="st9" points="1912.12,1373.53 1998.71,1373.53 1998.71,1421.19 1983.28,1502.33 1887.62,1502.33 				"/>
			</g>
			<g>
				<g>
					<g>
						<rect x="1886.8" y="1398.03" class="st0" width="96.35" height="104.44"/>
					</g>
					<g>
						<rect x="1891.4" y="1402.75" class="st3" width="87.17" height="99.71"/>
					</g>
					<g>
						<rect x="1933.36" y="1402.75" class="st0" width="3.25" height="99.71"/>
					</g>
				</g>
				<g>
					<g>
						<path class="st0" d="M1925.59,1452.61c0-1.14,0.92-2.06,2.06-2.06s2.06,0.92,2.06,2.06c0,1.14-0.92,2.06-2.06,2.06
							S1925.59,1453.75,1925.59,1452.61z"/>
					</g>
					<g>
						<path class="st0" d="M1940.25,1452.61c0-1.14,0.92-2.06,2.06-2.06s2.06,0.92,2.06,2.06c0,1.14-0.92,2.06-2.06,2.06
							S1940.25,1453.75,1940.25,1452.61z"/>
					</g>
				</g>
			</g>
			<g>
				<polygon class="st9" points="1788.52,1373.53 1841.56,1373.53 1824.63,1502.33 1771.59,1502.33 				"/>
			</g>
			<g>
				<polygon class="st9" points="1849.28,1314.75 1843.21,1360.97 1790.17,1360.97 1796.24,1314.75 				"/>
			</g>
			<g>
				<polygon class="st9" points="2032.63,1373.53 2085.66,1373.53 2068.73,1502.33 2015.7,1502.33 				"/>
			</g>
			<g>
				<polygon class="st9" points="2093.39,1314.75 2087.31,1360.97 2034.27,1360.97 2040.35,1314.75 				"/>
			</g>
			<g>
				<polygon class="st9" points="2018.96,1314.75 2010.17,1360.97 1914.51,1360.97 1923.3,1314.75 				"/>
			</g>
		</g>
		<g>
			<polygon class="st9" points="2007.65,1383.02 2007.85,1383.02 2007.65,1384.04 			"/>
		</g>
		<g>
			<polygon class="st10" points="2362.6,1196.41 2284.26,1196.41 2318.54,1040.16 2396.87,1040.16 			"/>
		</g>
		<g>
			<polygon class="st9" points="2432.01,1426.48 2353.67,1426.48 2387.95,1270.23 2466.28,1270.23 			"/>
		</g>
		<g>
			<polygon class="st9" points="2320.6,1270.23 2286.33,1426.48 2251.94,1426.48 2251.94,1270.23 			"/>
		</g>
		<g>
			<polygon class="st9" points="2488.7,1040.16 2488.7,1196.41 2402.58,1196.41 2440.83,1040.16 			"/>
		</g>
		<g>
			<rect x="2139.01" y="900.11" class="st4" width="6.53" height="61.56"/>
		</g>
		<g>
			<rect x="2270.8" y="900.11" class="st4" width="6.53" height="61.56"/>
		</g>
		<g>
			<rect x="2399.32" y="900.11" class="st4" width="6.53" height="61.56"/>
		</g>
		<g class="st2">
			<g>
				<g>
					<rect x="1322.47" y="1140.6" class="st3" width="39.26" height="61.96"/>
				</g>
				<g>
					<g>
						<g>
							<path class="st0" d="M1363.34,1204.56h-43.25v-65.96h43.25V1204.56z M1324.09,1200.56h35.26v-57.97h-35.26V1200.56z"/>
						</g>
					</g>
					<g>
						<rect x="1323.59" y="1161.32" class="st0" width="36.26" height="2.99"/>
					</g>
					<g>
						<rect x="1323.59" y="1181.94" class="st0" width="36.26" height="2.99"/>
					</g>
					<g>
						
							<rect x="1310.59" y="1169.94" transform="matrix(-1.836970e-16 1 -1 -1.836970e-16 2513.1523 -170.2872)" class="st0" width="62.26" height="2.99"/>
					</g>
				</g>
			</g>
			<g>
				<g>
					<rect x="1435.82" y="1140.6" class="st3" width="39.26" height="61.96"/>
				</g>
				<g>
					<g>
						<g>
							<path class="st0" d="M1476.7,1204.56h-43.25v-65.96h43.25V1204.56z M1437.44,1200.56h35.26v-57.97h-35.26V1200.56z"/>
						</g>
					</g>
					<g>
						<rect x="1436.94" y="1161.32" class="st0" width="36.26" height="2.99"/>
					</g>
					<g>
						<rect x="1436.94" y="1181.94" class="st0" width="36.26" height="2.99"/>
					</g>
					<g>
						
							<rect x="1423.94" y="1169.94" transform="matrix(-1.836970e-16 1 -1 -1.836970e-16 2626.5044 -283.6392)" class="st0" width="62.26" height="2.99"/>
					</g>
				</g>
			</g>
			<g>
				<g>
					<rect x="1549.17" y="1140.6" class="st3" width="39.26" height="61.96"/>
				</g>
				<g>
					<g>
						<g>
							<path class="st0" d="M1590.05,1204.56h-43.25v-65.96h43.25V1204.56z M1550.79,1200.56h35.26v-57.97h-35.26V1200.56z"/>
						</g>
					</g>
					<g>
						<rect x="1550.29" y="1161.32" class="st0" width="36.26" height="2.99"/>
					</g>
					<g>
						<rect x="1550.29" y="1181.94" class="st0" width="36.26" height="2.99"/>
					</g>
					<g>
						
							<rect x="1537.3" y="1169.94" transform="matrix(-1.836970e-16 1 -1 -1.836970e-16 2739.856 -396.9908)" class="st0" width="62.26" height="3"/>
					</g>
				</g>
			</g>
		</g>
		<g class="st2">
			<g>
				<g>
					<rect x="1322.47" y="1353.06" class="st3" width="39.26" height="61.96"/>
				</g>
				<g>
					<g>
						<g>
							<path class="st0" d="M1363.34,1417.02h-43.25v-65.96h43.25V1417.02z M1324.09,1413.03h35.26v-57.97h-35.26V1413.03z"/>
						</g>
					</g>
					<g>
						<rect x="1323.59" y="1373.79" class="st0" width="36.26" height="2.99"/>
					</g>
					<g>
						<rect x="1323.59" y="1394.4" class="st0" width="36.26" height="3"/>
					</g>
					<g>
						
							<rect x="1310.59" y="1382.4" transform="matrix(-1.836970e-16 1 -1 -1.836970e-16 2725.6177 42.1782)" class="st0" width="62.25" height="2.99"/>
					</g>
				</g>
			</g>
			<g>
				<g>
					<rect x="1435.82" y="1353.06" class="st3" width="39.26" height="61.96"/>
				</g>
				<g>
					<g>
						<g>
							<path class="st0" d="M1476.7,1417.02h-43.25v-65.96h43.25V1417.02z M1437.44,1413.03h35.26v-57.97h-35.26V1413.03z"/>
						</g>
					</g>
					<g>
						<rect x="1436.94" y="1373.79" class="st0" width="36.26" height="2.99"/>
					</g>
					<g>
						<rect x="1436.94" y="1394.4" class="st0" width="36.26" height="3"/>
					</g>
					<g>
						
							<rect x="1423.94" y="1382.4" transform="matrix(-1.836970e-16 1 -1 -1.836970e-16 2838.9697 -71.1739)" class="st0" width="62.25" height="2.99"/>
					</g>
				</g>
			</g>
			<g>
				<g>
					<rect x="1549.17" y="1353.06" class="st3" width="39.26" height="61.96"/>
				</g>
				<g>
					<g>
						<g>
							<path class="st0" d="M1590.05,1417.02h-43.25v-65.96h43.25V1417.02z M1550.79,1413.03h35.26v-57.97h-35.26V1413.03z"/>
						</g>
					</g>
					<g>
						<rect x="1550.29" y="1373.79" class="st0" width="36.26" height="2.99"/>
					</g>
					<g>
						<rect x="1550.29" y="1394.4" class="st0" width="36.26" height="3"/>
					</g>
					<g>
						
							<rect x="1537.3" y="1382.4" transform="matrix(-1.836970e-16 1 -1 -1.836970e-16 2952.3213 -184.5254)" class="st0" width="62.25" height="3"/>
					</g>
				</g>
			</g>
		</g>
		<g>
			<rect x="1626.19" y="1221.76" class="st11" width="613.54" height="21.59"/>
		</g>
		<g>
			<rect x="1709.17" y="1498" class="st7" width="458.38" height="9.58"/>
		</g>
		<g>
			<path class="st12" d="M1697.64,1507.58c0,0-2.55-22.54,20.3-28.25c22.85-5.71,31.81-26.11,58.34-8.98
				c26.53,17.14,18.13,37.22,18.13,37.22H1697.64z"/>
		</g>
	</g>
	<g>
		<g>
			<path class="st13" d="M1134.83,1146.05c0,0,7.3,25.65,5.58,32.07c-1.73,6.41-9.42,18.38-12.84,17.96c-3.42-0.43,0-41.05,0-41.05
				L1134.83,1146.05z"/>
		</g>
		<g>
			<path class="st14" d="M1010.87,947.34c-2.66-5.13,58.03-23.6,58.99,27.02c0,0,113.69-2.79,59.4-66.16
				c-18.79-21.94-16.86-40.07-16.29-56.96c0.57-16.89-11.71-65.96-53.78-61.02c0,0-11.02-4.49-24.77,2.65
				C1003.13,809.11,933.07,966.01,1010.87,947.34z"/>
		</g>
		<g>
			<path class="st15" d="M1140.38,1153.75c0,0-0.64,3.08-7.03,4.63c-2.95,0.72-7.13,1.1-13.03,0.72c-1.26-0.09-2.6-0.21-4.03-0.37
				c-2.71-0.29-5.71-0.74-9.04-1.37l2.35-139.19l-9.8-108.62c0,0,20.92,9.89,31.18,41.96c7.88,24.63,9.2,130.7,9.39,178.6
				C1140.43,1144.59,1140.38,1153.75,1140.38,1153.75z"/>
		</g>
		<g class="st16">
			<path class="st17" d="M1140.38,1153.75c0,0-0.64,3.08-7.03,4.63c-2.95,0.72-7.13,1.1-13.03,0.72l1.89-103.69
				c0,0,1.55,56.62,18.16,74.71C1140.43,1144.59,1140.38,1153.75,1140.38,1153.75z"/>
		</g>
		<g>
			<path class="st18" d="M933.95,1448.11c0,0-12.74,11.62-10.25,19.89c2.49,8.26,13.98,13.77,15.54,23.86
				c1.55,10.1,7.77,15.6,13.36,15.6c5.59,0,26.66,0,26.66,0s4.12-7.11-5.83-9.25c-9.94-2.14-13.69-14.01-13.07-25.02
				c0.62-11.01-0.93-25.7-0.93-25.7l-21.13-4.9L933.95,1448.11z"/>
		</g>
		<g>
			<path class="st18" d="M1041.77,1453.04c0,0-4.58,49.25,1.01,52l71.57-0.15c0,0,0-8.26-11.5-10.1
				c-11.5-1.84-31.69-8.57-35.11-23.56C1064.33,1456.25,1041.77,1453.04,1041.77,1453.04z"/>
		</g>
		<g>
			<path class="st19" d="M1100.22,1048.86c0,0,20.64,64.23,21.96,86.1c1.33,21.87-39.45,310.66-41.08,320.73
				c-1.55,9.5-13.34,15.55-13.34,15.55s-5.42,3.2-13.17,1.01c-10.74-3.03-14.14-6.67-14.14-6.67s-16.06-205.96-6.12-279.53
				s10.06-137.2,10.06-137.2H1100.22z"/>
		</g>
		<g>
			<path class="st20" d="M1012.79,1046.95c0,0-31.48,42.23-34.41,70.78c-2.93,28.55-4.6,128.83-10.86,156.67
				c-6.25,27.83-29.22,81.39-29.22,168.2c0,0,2.39,4.98,9.76,7.63c2.36,0.85,5.52,1.67,8.58,2.37c6.08,1.39,12.32-1.58,15.09-7.16
				c15.53-31.27,65-132.11,67.53-153.04c1.79-14.81,12.33-103.73,46.4-161.26c8.18-13.81,7.69-74.02,7.69-74.02L1012.79,1046.95z"/>
		</g>
		<g>
			<path class="st20" d="M986.71,964.24c0,0-1.07,15.04,0,33.08c0.71,11.96,12.81,27.98,14.52,31.95
				c4.31,9.94,9.17,11.56,9.17,11.56l37.58,9.21l3.15,20.12c0,0,31.53,13.47,53.41-7.38c19.04-18.14,17.3-74.92,9.68-104.74
				c-7.62-29.82-19.26-50.53-19.26-50.53s-28.25-11.15-78.27-2.82L986.71,964.24z"/>
		</g>
		<g>
			<path class="st15" d="M1030.21,901.59c0,0-15.79,2.64-25.42,5.83l-7.09,86.62H1063l-24.53-64.35L1030.21,901.59z"/>
		</g>
		<g>
			<path class="st15" d="M1063,994.04l-7.17,266.9c0,0-35.77,16.98-104.09,0l17.62-284.13L1063,994.04z"/>
		</g>
		<g>
			<path class="st21" d="M952.69,1056.07l48.31,42.06c3.49,3.04,8.78,2.67,11.82-0.82l61.64-70.79c3.04-3.49,2.67-8.78-0.82-11.82
				l-48.31-42.06c-3.49-3.04-8.79-2.67-11.82,0.82l-61.64,70.79C948.83,1047.74,949.19,1053.03,952.69,1056.07z"/>
		</g>
		<g>
			<path class="st13" d="M1024.15,1050.76c0.69,0.18,25.66,3.12,25.66,8.28c0,5.97-7.32,13.96-14.22,13.58
				c-2.8-0.15-15.68-12-15.68-12L1024.15,1050.76z"/>
		</g>
		<g>
			<path class="st13" d="M1036.98,901.94c2.84-6.89,4.5-17.39,4.45-30.38l1.89,0.37l31.72,6.28c0,0-0.72,9.98-0.74,19.39
				c0,0.08,0,0.16,0,0.23c-0.04,8.17,5.52,16.36-7.58,19.6C1062.66,918.45,1031.01,916.42,1036.98,901.94z"/>
		</g>
		<g>
			<path class="st22" d="M1075.04,878.22c0,0-0.72,9.98-0.74,19.39c-17.75-0.5-27.14-16.69-30.98-25.67L1075.04,878.22z"/>
		</g>
		<g>
			<path class="st13" d="M1080.97,887.12c0,0-42,0.69-42.03-25.47c-0.03-26.16-5.47-43.69,21.35-45.24
				c26.82-1.55,32.04,8.43,34.17,17.16C1096.59,842.3,1091.89,886.27,1080.97,887.12z"/>
		</g>
		<g>
			<path class="st14" d="M1079.41,815.77c0,0-11.5,30.69-29.15,35.23c-17.65,4.54-25.3-0.19-25.3-0.19s13.54-10.75,16.35-29.53
				C1041.31,821.29,1070.74,801.16,1079.41,815.77z"/>
		</g>
		<g>
			<path class="st14" d="M1076.56,818.26c0,0,8.53,3.19,12.04,9.41c3.43,6.08,6.36,14.14,5.68,24.02c0,0,8.66-20.86-1.07-32.66
				C1082.88,806.51,1076.56,818.26,1076.56,818.26z"/>
		</g>
		<g>
			<path class="st13" d="M1024.15,1050.76c0,0,5.99-1.92,9.99-1.36c4,0.56,6.96-0.08,6.96,1.04c0,1.12-5.16,1.64-6.26,2.18
				C1033.74,1053.16,1024.15,1050.76,1024.15,1050.76z"/>
		</g>
		<g>
			<path class="st15" d="M1016.69,904.68c0,0-29.82,2.09-41.24,29.87c-11.43,27.78-33.11,74.43-33.11,82.28
				c0,7.85,12.11,32.04,77.16,45.95c0,0,6.73-7.08,6.32-12.67c0,0-40.61-34.88-40.5-38.96c0.21-7.71,6.66-17.89,42.31-53.55
				C1037.32,947.89,1016.69,904.68,1016.69,904.68z"/>
		</g>
		<g>
			<path class="st17" d="M1048.25,948.29c0,0-11.19-30.63-9-53.68c0,0-8.73,2.2-13.25,8.7c0,0-2.05,35.25,4.37,51.61
				c0,0,9.55,0.43,11.64-0.7c0,0-4.17,7.06-3.53,7.86c0.64,0.8,24.53,31.96,24.53,31.96L1048.25,948.29z"/>
		</g>
		<g>
			<path class="st15" d="M1097.63,980.36l7.05,274.5c0,0,16.68,0.64,26.3-9.62l-8.77-297.42c0,0-9.18-35.79-27.25-40.32
				c-18.07-4.53-18.07-4.53-18.07-4.53L1097.63,980.36z"/>
		</g>
		<g>
			<path class="st17" d="M1074.3,897.61c0,0,0.01,4.26,1.11,11.89c2.96,20.67,24.98,62.11,22.48,80.6c0,0,2.32-32.19,2.32-39.03
				l-6.41-4.49l8.34-3.42C1102.12,943.16,1086.56,904.32,1074.3,897.61z"/>
		</g>
		<g>
			
				<rect x="978.77" y="1152.89" transform="matrix(0.9974 0.0724 -0.0724 0.9974 86.3102 -70.0555)" class="st17" width="62.33" height="6.36"/>
		</g>
		<g class="st16">
			<path class="st17" d="M978.62,1156.98c0,0-4.53,38.55,0,42.08c4.53,3.53,51.85,8.02,56.25,4.49c4.4-3.53,5.92-42.06,5.92-42.06
				L978.62,1156.98z"/>
		</g>
	</g>
	<g>
		<path class="st23" d="M643.84,564.97c0,0,25.39-42.68,86.09-37.94c0,0,88.14-71.13,182.12-9.48c0,0,99.91-15.28,173.9,13.22
			c49.33,19,65.62,38.94,65.62,38.94L643.84,564.97z"/>
	</g>
	<g>
		<path class="st23" d="M1161.44,522.63c0,0,18.53-46.79,62.85-41.59c0,0,64.34-77.99,132.96-10.4c0,0,72.94-16.75,126.95,14.5
			c36.01,20.83,47.91,42.69,47.91,42.69L1161.44,522.63z"/>
	</g>
	<g>
		<path class="st23" d="M1740.38,813.85c0,0,12.74-31.48,43.2-27.98c0,0,44.23-52.47,91.39-7c0,0,50.13-11.27,87.26,9.76
			c24.75,14.02,32.93,28.72,32.93,28.72L1740.38,813.85z"/>
	</g>
	<g>
		<path class="st23" d="M1021.47,682.07c0,0,14.74-26.02,50-23.13c0,0,51.19-43.37,105.78-5.78c0,0,58.03-9.31,101,8.06
			c28.65,11.59,38.12,23.74,38.12,23.74L1021.47,682.07z"/>
	</g>
	<g>
		<g>
			<g>
				<path class="st19" d="M2404.56,1355.06v17.62c0,1.57-0.37,3.08-1.04,4.4c-1.62,3.24-4.99,5.47-8.84,5.47h-3.16
					c-5.41,0-9.87-4.43-9.87-9.87v-17.62c0-1.86,0.53-3.58,1.43-5.07c0-0.03,0-0.03,0-0.03c1.75-2.87,4.88-4.78,8.44-4.78h3.16
					C2400.13,1345.19,2404.56,1349.65,2404.56,1355.06z"/>
			</g>
			<g class="st16">
				<path class="st19" d="M2403.53,1377.08c-1.62,3.24-4.99,5.47-8.84,5.47h-3.16c-5.41,0-9.87-4.43-9.87-9.87v-17.62
					c0-1.86,0.53-3.58,1.43-5.07C2383.28,1351.08,2387.47,1375.25,2403.53,1377.08z"/>
			</g>
		</g>
		<g>
			<polygon class="st24" points="2248.07,1484.02 2296.86,1484.02 2296.86,1434.77 2245.96,1434.77 			"/>
		</g>
		<g>
			<path class="st0" d="M2401.93,1379.92l-239.72,5.91v-126.41h157.42c15.01,0,28.75,8.4,35.59,21.75l10.3,20.11L2401.93,1379.92z"
				/>
		</g>
		<g>
			<path class="st19" d="M2265.75,1476c0,13.37,6.9,28.11,6.9,28.11s10.25,0,11.67,0c10.25,0,18.57-12.59,18.57-28.11
				s-19.99-28.11-30.24-28.11S2265.75,1460.48,2265.75,1476z"/>
		</g>
		<g>
			<ellipse class="st20" cx="2272.64" cy="1476" rx="18.57" ry="28.11"/>
		</g>
		<g>
			<ellipse class="st6" cx="2272.88" cy="1476" rx="13.99" ry="21.18"/>
		</g>
		<g>
			<path class="st19" d="M2399.97,1476c0,13.37,6.9,28.11,6.9,28.11s10.25,0,11.67,0c10.26,0,18.57-12.59,18.57-28.11
				s-19.99-28.11-30.24-28.11C2396.61,1447.89,2399.97,1460.48,2399.97,1476z"/>
		</g>
		<g>
			<path class="st20" d="M2388.29,1476c0,15.53,8.31,28.11,18.57,28.11c10.25,0,18.57-12.59,18.57-28.11s-8.31-28.11-18.57-28.11
				C2396.61,1447.89,2388.29,1460.48,2388.29,1476z"/>
		</g>
		<g>
			<path class="st19" d="M2091.74,1476c0,13.37,6.9,28.11,6.9,28.11s10.25,0,11.67,0c10.26,0,18.57-12.59,18.57-28.11
				s-19.99-28.11-30.24-28.11C2088.38,1447.89,2091.74,1460.48,2091.74,1476z"/>
		</g>
		<g>
			<path class="st20" d="M2080.07,1476c0,15.53,8.31,28.11,18.57,28.11c10.26,0,18.57-12.59,18.57-28.11s-8.31-28.11-18.57-28.11
				C2088.38,1447.89,2080.07,1460.48,2080.07,1476z"/>
		</g>
		<g>
			<path class="st0" d="M2455.6,1462.74c0.03,11.75-9.07,16.58-20.8,16.58l-131.91,1.14c0.4-2.31-5.41-1.14-5.41-3.61
				c0-18.18-10.91-32.93-24.33-32.93c-13.45,0-26.23,9.88-26.23,28.06c0,2.47-2.93,5.84-2.53,8.15l-70.68-6.2
				c0,0-7.92-25.79-7.52-43.78c0.32-15.66,0.32-46.33-0.61-53.81c0-1.12,77.48-1.25,97.04-1.33c2.65-0.03,4.24-0.03,4.4-0.03
				l0.27,0.19l0.29,0.21c3.61,2.52,23.83,16.69,36.38,25c11.07,7.3,92.74,10.27,124.77,11.17c7.96,0.21,12.87,0.29,12.87,0.29
				s4.38,4.48,8.25,11.57c2.97,5.49,5.62,12.55,5.68,20.27c0.03,4.8,0.05,10.59,0.05,16.27
				C2455.6,1460.88,2455.6,1461.81,2455.6,1462.74z"/>
		</g>
		<g>
			<path class="st3" d="M2382.6,1374.99h-107.73c-2.49,0-4.75-1.46-5.78-3.72l-26.67-59.33c-0.88-1.94,0.56-4.14,2.68-4.14h113.65
				c2.49,0,4.78,1.49,5.79,3.79l19.1,43.65l4.78,10.91C2390.21,1370.32,2387.16,1374.99,2382.6,1374.99z"/>
		</g>
		<g>
			<path class="st8" d="M2332.42,1459.95c-0.02,1.87-0.1,3.62-0.21,5.17c-0.77,10.33-11.15,18.89-11.15,18.89h-24.2
				c0.4-2.31,0.61-4.7,0.61-7.17c0-6.18-1.27-11.97-3.45-16.9c-4.28-9.6-12.02-16.03-20.88-16.03c-8.9,0-16.64,6.43-20.92,16.03
				c-2.17,4.94-7.28,10.34-7.28,16.52c0,2.47-2.11,2.42-1.71,4.73l-81.04,2.82v-224.59h69.98l0.33,41.85c0,0,1.18,6.27,3.57,11.88
				c2.14,5,4.98,11.67,8.08,18.93c6.37,14.88,13.81,32.24,18.46,42.93c2.33,5.41,3.98,9.1,4.4,9.9
				c1.31,2.49,20.72,13.01,37.14,22.35c4.1,2.33,8.01,4.58,11.4,6.62c4.83,2.91,8.61,5.37,10.4,6.98
				C2330.43,1424.9,2332.66,1445.87,2332.42,1459.95z"/>
		</g>
		<g>
			<polygon class="st0" points="2441.59,1411.84 2313.9,1411.84 2267.28,1375.17 2267.01,1374.99 2395.81,1374.99 2432.49,1404.49 
							"/>
		</g>
		<g>
			<path class="st25" d="M2330.43,1433.39l-11.54-1.14c-4.03-0.4-7.3-3.42-8.01-7.4l-2.65-14.59c-0.05-0.24-0.08-0.45-0.05-0.69
				c8.23,4.72,15.15,8.94,17.78,11.3C2327.86,1422.59,2329.37,1427.37,2330.43,1433.39z"/>
		</g>
		<g>
			<path class="st0" d="M2365.53,1301.28h-133.02c0,0-0.51-8.51-3.85-18.23c-2.97-8.58-8.11-18.16-17.1-23.62h108.7
				c17.72,0,33.42,9.46,39.66,23.62c0.29,0.59,0.55,1.17,0.77,1.76C2362.56,1289.72,2364.24,1295.23,2365.53,1301.28z"/>
		</g>
		<g>
			<path class="st26" d="M2330.46,1433.39l-11.57-1.14c-4.03-0.4-7.3-3.42-8.01-7.4l-2.65-14.59c-0.05-0.24-0.08-0.48-0.05-0.72
				c8.23,4.75,15.15,8.97,17.78,11.33C2327.86,1422.59,2329.37,1427.37,2330.46,1433.39z"/>
		</g>
		<g>
			<path class="st19" d="M2455.6,1462.74c0.03,11.75-7,22.39-22.41,21.79l-137.85,0.02c0.4-2.31,1.47-5.64,1.47-8.11
				c0-6.18-0.6-11.55-2.77-16.49h161.54C2455.6,1460.88,2455.6,1461.81,2455.6,1462.74z"/>
		</g>
		<g>
			<path class="st19" d="M2248.78,1476.85c0,2.47,0.19,4.86,0.58,7.16h-87.17v-24.07h90.03
				C2250.06,1464.89,2248.78,1470.67,2248.78,1476.85z"/>
		</g>
		<g>
			<path class="st19" d="M2365.7,1412.88h52.22c1.67,0,2.94,2.25,2.69,4.74l-1.85,18.15c-0.27,2.67-1.79,4.64-3.58,4.64h-43.02
				c-2.76,0-5.19-2.73-5.99-6.72l-3.1-15.43C2362.52,1415.58,2363.85,1412.88,2365.7,1412.88z"/>
		</g>
		<g>
			<path class="st6" d="M2383.63,1355.24c-61.59-3.16-103.25-36.11-115.83-47.44h90.94c2.49,0,4.78,1.49,5.79,3.79L2383.63,1355.24z
				"/>
		</g>
		<g>
			<polygon class="st0" points="2186.84,1259.42 2186.84,1472.95 1953.88,1476 1953.88,1259.42 			"/>
		</g>
		<g>
			<path class="st8" d="M2365.53,1301.28h-133.02c0,0-0.51-8.51-3.85-18.23h131.26c0.29,0.59,0.55,1.17,0.77,1.76
				C2362.56,1289.72,2364.24,1295.23,2365.53,1301.28z"/>
		</g>
		<g>
			<path class="st19" d="M2449.84,1423.41c-0.74,1.22-1.7,2.02-2.73,2.2l-17.91,3.32c-1.51,0.29-2.68-2.33-2.28-5.04l1.75-12.05
				l0.05-0.29l0.35-2.47c0.32-2.12,1.25-3.74,2.39-4.19l1.04-0.4l9.1,7.35C2441.59,1411.84,2445.96,1416.33,2449.84,1423.41z"/>
		</g>
		<g>
			<rect x="1953.88" y="1407.26" class="st27" width="372.06" height="18.93"/>
		</g>
		<g>
			<rect x="1953.88" y="1298.34" class="st27" width="232.96" height="18.93"/>
		</g>
		<g>
			<g>
				<path class="st27" d="M2037.2,1361.84c0-18.31,14.85-33.16,33.16-33.16c18.31,0,33.16,14.85,33.16,33.16
					c0,18.31-14.85,33.16-33.16,33.16C2052.04,1395,2037.2,1380.15,2037.2,1361.84z"/>
			</g>
			<g>
				<g>
					<g>
						<g>
							<path class="st0" d="M2070.36,1391.2c-7.84,0-15.21-3.05-20.76-8.6c-5.55-5.55-8.6-12.92-8.6-20.76
								c0-7.84,3.05-15.21,8.6-20.76c5.54-5.55,12.92-8.6,20.76-8.6s15.21,3.05,20.76,8.6c5.54,5.54,8.6,12.92,8.6,20.76
								c0,7.84-3.05,15.21-8.6,20.76C2085.57,1388.14,2078.2,1391.2,2070.36,1391.2z M2070.36,1335.18
								c-7.12,0-13.81,2.77-18.85,7.81c-5.03,5.04-7.81,11.73-7.81,18.85s2.77,13.81,7.81,18.85c5.04,5.03,11.73,7.81,18.85,7.81
								s13.81-2.77,18.85-7.81c5.04-5.04,7.81-11.73,7.81-18.85s-2.77-13.81-7.81-18.85
								C2084.17,1337.96,2077.48,1335.18,2070.36,1335.18z"/>
						</g>
					</g>
					<g>
						<polygon class="st0" points="2089.32,1357.05 2075.15,1357.05 2075.15,1342.88 2065.57,1342.88 2065.57,1357.05 
							2051.4,1357.05 2051.4,1366.63 2065.57,1366.63 2065.57,1380.8 2075.15,1380.8 2075.15,1366.63 2089.32,1366.63 						"/>
					</g>
				</g>
			</g>
		</g>
		<g>
			<path class="st19" d="M2352.35,1435.56l-21.89-2.17h-0.03l-11.54-1.14c-4.03-0.4-7.3-3.42-8.01-7.4l-2.65-14.59
				c-0.05-0.24-0.08-0.45-0.05-0.69v-0.03c-0.13-3.08,2.68-5.57,5.84-4.93l34.1,6.92c2.18,0.45,3.9,2.07,4.48,4.19l4.01,14.81
				C2357.34,1433.23,2355.13,1435.86,2352.35,1435.56z"/>
		</g>
		<g>
			<path class="st3" d="M2232.96,1318.47l22.95,56.52h-39.38c0,0-8.08-1.35-9.11-17.86c-1.11-17.62-1.1-48.03-1.1-48.03l17.28-0.08
				C2230.18,1310.02,2231.21,1313.63,2232.96,1318.47z"/>
		</g>
		<g>
			<path class="st19" d="M2244.22,1345.97c0,0,1.99,22.84-9.29,29.1h21.07L2244.22,1345.97z"/>
		</g>
		<g>
			<path class="st19" d="M2247.32,1361.26c0,0-4.76-3.39-5.17-6.19v15.98h6.22L2247.32,1361.26z"/>
		</g>
		<g>
			<path class="st19" d="M2242.15,1355.06v17.62c0,1.57-0.37,3.08-1.04,4.4c-1.62,3.24-4.99,5.47-8.84,5.47h-3.16
				c-5.41,0-9.87-4.43-9.87-9.87v-17.62c0-1.86,0.53-3.58,1.43-5.07c0-0.03,0-0.03,0-0.03c1.75-2.87,4.88-4.78,8.44-4.78h3.16
				C2237.72,1345.19,2242.15,1349.65,2242.15,1355.06z"/>
		</g>
		<g>
			<path class="st19" d="M2187.06,1476.85c0,2.47,0.34,4.86,1.07,7.16h-160.4v-24.07h165.67
				C2189.41,1464.89,2187.06,1470.67,2187.06,1476.85z"/>
		</g>
		<g>
			<path class="st19" d="M2113.2,1476.85c0,2.47,0.34,4.86,1.07,7.16h-160.4v-24.07h165.67
				C2115.54,1464.89,2113.2,1470.67,2113.2,1476.85z"/>
		</g>
		<g>
			<path class="st24" d="M2029.97,1484.03h-57.3c-1.21-5.17-4.86-42,27.26-42C2029.11,1442.03,2031.25,1475.63,2029.97,1484.03z"/>
		</g>
		<g>
			<g>
				<path class="st19" d="M1990.6,1476c0,13.37,6.9,28.11,6.9,28.11s10.25,0,11.67,0c10.26,0,18.57-12.59,18.57-28.11
					s-19.99-28.11-30.24-28.11C1987.24,1447.89,1990.6,1460.48,1990.6,1476z"/>
			</g>
			<g>
				<path class="st20" d="M1978.93,1476c0,15.53,8.31,28.11,18.57,28.11c10.25,0,18.57-12.59,18.57-28.11s-8.31-28.11-18.57-28.11
					C1987.24,1447.89,1978.93,1460.48,1978.93,1476z"/>
			</g>
			<g>
				<ellipse class="st6" cx="1997.73" cy="1476" rx="13.99" ry="21.18"/>
			</g>
		</g>
	</g>
	<g>
		<g>
			<path class="st19" d="M1277.44,822.86c0,0-11.36-24.14-9.07-36.87c2.29-12.73,1.76-29.63,18.74-36.16
				c16.98-6.53,18.48-0.24,36.93-2.2c17.88-1.9,24.27,20.74,25.96,30.36c3.58,20.32-2.54,33.05-7.93,39.91
				c-4.66,5.93-6.77,8.9-6.77,8.9L1277.44,822.86z"/>
		</g>
		<g>
			<path class="st19" d="M1230.26,1505.04c0,0,0-11.91,1.7-15.87c1.7-3.96,7.92-20.08,7.92-20.08h24.32c0,0,4.53,14.71,4.81,19.51
				c0.28,4.81,0,16.43,0,16.43H1230.26z"/>
		</g>
		<g>
			<path class="st19" d="M1384.7,1505.04c0,0,0-11.91-1.7-15.87c-1.7-3.96-7.92-20.08-7.92-20.08h-24.32c0,0-4.53,14.71-4.81,19.51
				c-0.28,4.81,0,16.43,0,16.43H1384.7z"/>
		</g>
		<g>
			<path class="st28" d="M1233.31,1092.66c0,0,4.25,129.95-2.11,204.1c-6.36,74.15,0.04,177.33,0.04,177.33s20.35,11.22,42.41,0
				c0,0,24.19-143.24,24.04-177.33c-0.16-36.3,26.33-198.43,26.33-198.43L1233.31,1092.66z"/>
		</g>
		<g>
			<path class="st28" d="M1383.82,1474.09c0,0-20.35,11.22-42.41,0c0,0-24.19-143.24-24.04-177.33
				c0.07-15.33-4.62-53.12-10.05-91.64c-7.44-52.7-16.28-106.79-16.28-106.79l94.24-5.89c0,0-7.77,130.17-1.41,204.32
				C1390.23,1370.91,1383.82,1474.09,1383.82,1474.09z"/>
		</g>
		<g>
			<path class="st15" d="M1251.62,881.36c0,0-35.06,4.16-42.75,35.66c-7.7,31.5-37.97,111.54-7.7,129.62c0,0,32.07-42.97,44.25-77.6
				C1257.6,934.41,1251.62,881.36,1251.62,881.36z"/>
		</g>
		<g>
			<path class="st15" d="M1370.8,898.17c0,0,35.27-4.44,42.97,27.06c7.7,31.5,32.3,101.83,2.03,119.92c0,0-34.23-41.47-46.41-76.11
				C1357.21,934.41,1370.8,898.17,1370.8,898.17z"/>
		</g>
		<g>
			<path class="st13" d="M1287.25,836.69c0,0-0.86,26.52-4.25,38.39l-26.86,18.74l101.11,15.13l-24.11-33.32
				c0,0-7.28-35.55-3.46-48.7C1333.49,813.79,1287.25,836.69,1287.25,836.69z"/>
		</g>
		<g>
			<path class="st29" d="M1287.1,840.36c0-0.01,8,19.25,23.06,18.82c15.06-0.42,18.49-17.46,18.49-17.46L1287.1,840.36z"/>
		</g>
		<g>
			<path class="st13" d="M1308.43,851.74c-10.91-0.19-31-14.72-31-32.72v-28.08c0-6.57,4.58-11.95,10.18-11.95h41.63
				c5.6,0,10.18,5.38,10.18,11.95v26.49C1339.43,836.3,1320.95,851.96,1308.43,851.74z"/>
		</g>
		<g>
			<path class="st30" d="M1386.68,1150.54c-78.08,13.47-161.79,2.56-161.79,2.56l7.77-157.79c-0.21-2.28-0.36-4.63-0.42-7.03
				c-0.09-3.16-0.03-6.89,0.17-11.04c1.56-33.11,11.57-92.69,19.2-95.89c0,0,11.34-4.21,31.39-6.27c0,0.4,11.63,17.41,25.44,19.3
				c8.58-3.39,15.32-6.29,24.71-18.75c5.5,0.64,11.29,1.44,17.43,2.6c0.45,0.08,0.91,0.17,1.37,0.26c6.73,1.32,13.9,3.08,21.58,5.54
				c0,0,9.92,3.85,7.72,72.97L1386.68,1150.54z"/>
		</g>
		<g>
			<path class="st0" d="M1299.74,833.65c0,0,3.4,4.6,9.33,4.43c5.94-0.16,8.73-4.43,8.73-4.43S1307.79,832.01,1299.74,833.65z"/>
		</g>
		<g>
			<path class="st15" d="M1224.89,1029.57l-4.36,234.95c0,0,35.2,9.1,65.46,11.03l7.83-287.21l-10.77-97.21l-9.79-16.03
				c0,0-32.37,2.53-51.75,18.32c-13.22,10.77-19.33,47.51-19.33,47.51l30.47,32.01L1224.89,1029.57z"/>
		</g>
		<g>
			<path class="st15" d="M1391.5,1029.57l4.36,234.95c0,0-35.2,9.1-65.46,11.03l-6.37-278.65l9.3-105.78l9.79-16.03
				c0,0,32.28,2.65,51.75,18.32c20.89,16.81,25.08,58.2,25.08,58.2l-36.22,21.32L1391.5,1029.57z"/>
		</g>
		<g>
			<path class="st13" d="M1201.16,1046.64c35.43,9.54,55.36-15.11,138.27-49.2l-2.51-13.23c0,0-95.32,1.11-112.02,10.15
				C1203.18,1006.13,1198.25,1045.86,1201.16,1046.64z"/>
		</g>
		<g>
			<path class="st13" d="M1270.31,975.18c0,0-35.8-2.03-36.18,16.23l33.1-1.5L1270.31,975.18z"/>
		</g>
		<g>
			<path class="st29" d="M1365.06,984.49c0,0,26.79-6.79,31.28,11.15c4.49,17.94-38.52,0-38.52,0L1365.06,984.49z"/>
		</g>
		<g>
			<path class="st29" d="M1297.9,1015.87c0,0-10.19-12.26-34.84-27.79l41.85,7.9l12.77,10.47l-5.82,2.96L1297.9,1015.87z"/>
		</g>
		<g>
			<polygon class="st29" points="1340.22,985.84 1375.9,983.23 1373.41,993.42 			"/>
		</g>
		<g>
			<path class="st29" d="M1234.13,991.41c0,0,24.48-4.19,24.05-4.51c-0.43-0.32-8.9-2.89-10.84-1.92
				C1245.4,985.94,1234.13,991.41,1234.13,991.41z"/>
		</g>
		<g>
			<path class="st17" d="M1285.44,861.35c0,0-14.82,8.2-17.42,15.88c0,0-7.18,31.27,2.29,52.32l15.13-3.67l-7.77,9.55
				c0,0,4.01,43.44,16.16,52.89C1293.83,988.33,1284.35,872.99,1285.44,861.35z"/>
		</g>
		<g>
			<path class="st17" d="M1330.67,861.35c0,0,14.82,8.2,17.42,15.88c0,0,9.47,29.06,0,50.12l-17.42-1.47l12.46,10.28
				c0,0-6.94,51.27-19.09,60.72C1324.03,996.89,1331.76,872.99,1330.67,861.35z"/>
		</g>
		<g>
			<path class="st13" d="M1415.8,1045.15c0,0-73.54-7.98-159.67-62.32l14.17-7.65c0,0,112.95,12.26,127.11,22.9
				C1419.62,1014.76,1432.46,1041.26,1415.8,1045.15z"/>
		</g>
		<g>
			<rect x="1246.16" y="939.11" class="st1" width="24.15" height="10.61"/>
		</g>
		<g>
			<path class="st19" d="M1294.48,779c0,0,11.1,10.08,25.3,8.09c14.2-1.99,13.87-7.93,15.85-5.42c1.99,2.51,2.2,22.91,4.96,24.24
				l1.47-26.91l-28.16-16.19l-40.4,4.65l3.93,39.42c0,0-0.75-14.45,5.37-18.61C1288.93,784.11,1294.48,779,1294.48,779z"/>
		</g>
	</g>
	<g>
		<g>
			<path class="st19" d="M402.31,1504.17c0,0,0-11.91,1.7-15.87c1.7-3.96,7.92-20.08,7.92-20.08h24.32c0,0,4.53,14.71,4.81,19.52
				c0.28,4.81,0,16.43,0,16.43H402.31z"/>
		</g>
		<g>
			<path class="st19" d="M556.74,1504.17c0,0,0-11.91-1.7-15.87c-1.7-3.96-7.92-20.08-7.92-20.08H522.8c0,0-4.53,14.71-4.81,19.52
				c-0.28,4.81,0,16.43,0,16.43H556.74z"/>
		</g>
		<g>
			<path class="st20" d="M405.36,1091.79c0,0,4.26,129.95-2.11,204.1c-6.36,74.15,0.05,177.33,0.05,177.33s20.35,11.22,42.41,0
				c0,0,24.19-143.24,24.04-177.33c-0.16-36.3,26.33-198.43,26.33-198.43L405.36,1091.79z"/>
		</g>
		<g>
			<path class="st20" d="M555.86,1473.21c0,0-20.35,11.22-42.41,0c0,0-24.19-143.24-24.04-177.33c0.07-15.33-4.62-53.11-10.05-91.63
				c-7.44-52.7-16.28-106.79-16.28-106.79l94.24-5.89c0,0-7.77,130.17-1.41,204.31C562.28,1370.03,555.86,1473.21,555.86,1473.21z"
				/>
		</g>
		<g>
			<path class="st19" d="M489.42,1295.88c0.07-15.33-4.62-53.11-10.05-91.63c5.64-23.01,19.39-45.16,19.39-45.16
				C516.15,1207.88,489.42,1295.88,489.42,1295.88z"/>
		</g>
		<g>
			<path class="st13" d="M423.66,880.48c0,0-35.06,4.16-42.75,35.66c-7.7,31.5-37.97,111.54-7.7,129.62c0,0,32.07-42.97,44.25-77.6
				C429.65,933.53,423.66,880.48,423.66,880.48z"/>
		</g>
		<g>
			<path class="st13" d="M542.85,897.29c0,0,35.27-4.44,42.97,27.06c7.7,31.5,32.3,101.83,2.03,119.92c0,0-34.23-41.47-46.41-76.11
				C529.25,933.53,542.85,897.29,542.85,897.29z"/>
		</g>
		<g>
			<path class="st13" d="M459.3,835.82c0,0-0.86,26.51-4.25,38.39l-26.86,18.74l101.11,15.13l-24.11-33.32c0,0-7.28-35.55-3.46-48.7
				C505.54,812.91,459.3,835.82,459.3,835.82z"/>
		</g>
		<g>
			<path class="st29" d="M459.15,839.48c0-0.01,8,19.25,23.06,18.82c15.06-0.42,18.49-17.46,18.49-17.46L459.15,839.48z"/>
		</g>
		<g>
			<path class="st31" d="M450.16,823.89c0,0-4.86-24.28-8.26-31.63c-3.39-7.35-6.22-40.16,31.39-41.86c0,0,14.42,1.7,22.34-3.11
				c0,0,0,4.81-1.98,6.5c0,0,13.01-3.11,23.19,8.2c10.18,11.31-6.79,50.91-5.94,60.24L450.16,823.89z"/>
		</g>
		<g>
			<path class="st13" d="M480.48,850.86c-10.91-0.19-31-14.72-31-32.72v-28.08c0-6.57,4.58-11.95,10.18-11.95h41.63
				c5.6,0,10.18,5.38,10.18,11.95v26.49C511.48,835.42,493,851.08,480.48,850.86z"/>
		</g>
		<g>
			<path class="st31" d="M449.48,805.06c0,0,0.06-16.87,13.42-19.47c13.36-2.59,43.27,8.22,47.52-4.08
				c4.24-12.3-57.81-12.09-60.94-4.24C446.36,785.12,449.48,805.06,449.48,805.06z"/>
		</g>
		<g>
			<path class="st30" d="M563.05,956.64l-4.32,193.02c-78.08,13.47-161.79,2.57-161.79,2.57l7.77-157.79
				c-0.2-2.28-0.36-4.63-0.42-7.03c-0.09-3.16-0.03-6.89,0.17-11.04c1.56-33.11,11.57-92.69,19.2-95.9c0,0,11.34-4.21,31.39-6.27
				c0,0.4,11.63,17.41,25.44,19.3c8.58-3.39,15.32-6.29,24.71-18.75c5.5,0.64,11.29,1.44,17.43,2.6c0.45,0.08,0.91,0.17,1.37,0.26
				c6.73,1.32,13.91,3.08,21.58,5.54c0,0,9.92,3.85,7.72,72.97L563.05,956.64z"/>
		</g>
		<g>
			<path class="st0" d="M471.79,832.78c0,0,3.4,4.6,9.34,4.43c5.94-0.16,8.73-4.43,8.73-4.43S479.83,831.13,471.79,832.78z"/>
		</g>
		<g>
			<path class="st13" d="M373.21,1045.77c35.43,9.54,55.36-15.11,138.27-49.2l-2.51-13.23c0,0-95.32,1.11-112.02,10.16
				C375.22,1005.25,370.3,1044.98,373.21,1045.77z"/>
		</g>
		<g>
			<path class="st30" d="M440.07,876.34v0.01l-8.35,24.72l-0.39,1.13l-0.12,0.33l-0.6,1.81l-10.35,30.63l-1.03,3.05l-11.39,33.73
				c-1.07,0.1-2.12,0.19-3.14,0.27c-29.64,2.08-44.32-6.76-44.32-6.76s6.09-39.44,20.84-61.89c9.65-14.69,31.85-21.73,46.05-24.85
				c0.46-0.09,0.9-0.19,1.33-0.28C435.41,876.83,440.07,876.34,440.07,876.34z"/>
		</g>
		<g>
			<path class="st30" d="M535.24,880.48c0,0,26.21,3.85,43.53,24.44c17.32,20.59,21.81,56.51,21.81,56.51s-24.05,10.26-52.27,7.7
				C520.08,966.56,535.24,880.48,535.24,880.48z"/>
		</g>
		<g>
			<rect x="504.33" y="935.16" class="st1" width="36.16" height="13.76"/>
		</g>
		<g>
			<g>
				<g>
					<g>
						<path class="st20" d="M421.53,964.74l1.7-0.78c-0.1-0.23-10.37-23.06-3.46-47.74c2.01-7.17,8.19-12.63,15.39-13.58
							c6.78-0.9,12.93,2.39,16.87,9.03c9.35,15.75-7.67,53.88-7.84,54.26l1.71,0.77c0.04-0.1,4.44-9.9,7.59-21.57
							c4.27-15.83,4.32-27.41,0.16-34.42c-4.34-7.31-11.17-10.93-18.73-9.93c-7.93,1.05-14.75,7.05-16.95,14.94
							C410.87,941.08,421.42,964.51,421.53,964.74z"/>
					</g>
				</g>
				<g>
					<path class="st20" d="M447.65,967.04c0.4-1.44-0.44-2.92-1.87-3.32c-1.43-0.4-2.92,0.44-3.32,1.87
						c-0.4,1.43,0.44,2.92,1.87,3.32C445.76,969.31,447.25,968.47,447.65,967.04z"/>
				</g>
				<g>
					<path class="st20" d="M425.19,965.14c0.4-1.43-0.44-2.92-1.87-3.32c-1.43-0.4-2.92,0.44-3.32,1.87
						c-0.4,1.43,0.44,2.92,1.87,3.32C423.3,967.41,424.79,966.57,425.19,965.14z"/>
				</g>
			</g>
			<g>
				<path class="st20" d="M438.57,902.38c-0.05,0-0.09-0.01-0.14-0.02c-0.35-0.08-0.56-0.42-0.48-0.77
					c0.04-0.18,4.17-18.09,13.36-28.46c0.23-0.27,0.64-0.29,0.91-0.05c0.26,0.23,0.29,0.64,0.05,0.9
					c-8.97,10.13-13.02,27.72-13.06,27.89C439.12,902.18,438.86,902.38,438.57,902.38z"/>
			</g>
		</g>
		<g>
			<path class="st13" d="M442.35,974.3c0,0-35.8-2.03-36.18,16.23l33.1-1.5L442.35,974.3z"/>
		</g>
		<g>
			<path class="st29" d="M537.1,983.62c0,0,26.79-6.79,31.28,11.15c4.49,17.94-38.52,0-38.52,0L537.1,983.62z"/>
		</g>
		<g>
			<g>
				<path class="st20" d="M524.91,904.67c-0.26,0-0.51-0.16-0.6-0.42c-6.21-17.01-16.95-29.5-17.05-29.62
					c-0.23-0.27-0.2-0.67,0.06-0.91c0.27-0.23,0.67-0.2,0.91,0.06c0.11,0.13,11,12.78,17.29,30.02c0.12,0.33-0.05,0.7-0.38,0.82
					C525.05,904.65,524.98,904.67,524.91,904.67z"/>
			</g>
			<g>
				<g>
					<path class="st20" d="M531.17,905.41c0-3.46-2.81-6.27-6.27-6.27c-3.46,0-6.27,2.81-6.27,6.27c0,3.46,2.81,6.27,6.27,6.27
						C528.37,911.68,531.17,908.87,531.17,905.41z"/>
				</g>
				<g>
					<path class="st32" d="M527.76,905.41c0-1.58-1.28-2.85-2.85-2.85c-1.58,0-2.85,1.28-2.85,2.85c0,1.58,1.28,2.85,2.85,2.85
						C526.48,908.26,527.76,906.99,527.76,905.41z"/>
				</g>
			</g>
		</g>
		<g>
			<path class="st29" d="M469.95,1014.99c0,0-10.19-12.26-34.84-27.79l41.85,7.9l12.77,10.47l-5.82,2.96L469.95,1014.99z"/>
		</g>
		<g>
			<polygon class="st29" points="512.26,984.96 547.94,982.35 545.45,992.54 			"/>
		</g>
		<g>
			<path class="st13" d="M587.85,1044.27c0,0-73.54-7.98-159.67-62.32l14.17-7.65c0,0,112.95,12.26,127.11,22.9
				C591.67,1013.88,604.5,1040.38,587.85,1044.27z"/>
		</g>
		<g>
			<path class="st29" d="M406.17,990.53c0,0,24.48-4.19,24.05-4.51c-0.43-0.32-8.9-2.89-10.84-1.92
				C417.44,985.06,406.17,990.53,406.17,990.53z"/>
		</g>
	</g>
	<g>
		<g>
			<path class="st13" d="M1505.53,978.04c-1.24,2.34-9.47,89.97-3,101.51c6.47,11.53,37-21.98,37.75-78.54
				C1540.92,953.35,1505.53,978.04,1505.53,978.04z"/>
		</g>
		<g>
			
				<rect x="1455.59" y="1046" transform="matrix(-0.9552 -0.2961 0.2961 -0.9552 2646.4697 2581.8364)" class="st19" width="126.29" height="89.05"/>
		</g>
		<g>
			<path class="st20" d="M1502.67,1483.3l12.43,4.63c0,0,53.97-74.85,60.61-140.71c1.19-11.76,0.79-23.15-1.78-33.67
				c0,0,0.53-3.01,1.45-8.34c0.43-2.49,0.95-5.48,1.55-8.91c1.75-10.05,4.17-23.81,6.93-39.47c6.35-36.04,14.58-82.12,20.97-115.99
				l-3.35-1.08l-36.23-11.69l-7.49-23.78l-26.97-7.1c0,0-6.03,11.79-11.41,67.47c-0.99,7.3-1.9,15.36-2.58,24.09
				c-2.1,26.66-2.25,59.73,2.57,97.54c1.24,9.68,2.8,19.67,4.74,29.94c1.42,7.53,1.63,17.78,1.03,29.56
				C1522.43,1399.64,1502.67,1483.3,1502.67,1483.3z"/>
		</g>
		<g>
			<path class="st19" d="M1516.81,1188.76l58.58,116.45c0.43-2.49,0.95-5.48,1.55-8.91c1.75-10.05,4.17-23.81,6.93-39.47
				c6.35-36.04,14.58-82.12,20.97-115.99l-3.35-1.08l-36.23-11.69l-7.49-23.78l-26.97-7.1c0,0-6.03,11.79-11.41,67.47
				C1518.39,1171.97,1517.49,1180.03,1516.81,1188.76z"/>
		</g>
		<g>
			<path class="st20" d="M1542.58,1112.14l1.36-11.63c22.72,6.03,83.42-16.86,83.42-16.86s22.01,19.35,19.12,65.72
				c-1.41,22.63-3.99,118.81-6.68,147.27c-0.97,10.31-1.82,17.66-2.17,20.59c-0.01,0.01-0.01,0.02-0.01,0.03
				c-0.11,0.89,0.21,1.74,0.66,2.52c3.96,6.72,7.24,13.72,9.93,20.89c26.41,70.37-4.07,157.04-4.07,157.04l-7.91-3.19
				c0,0-17.34-96.45-31.43-139.06c-2.39-7.23-4.69-12.91-6.79-16.3c-6.13-9.89-11.81-26.05-16.97-45.26
				c-9.75-36.33-17.61-83.6-22.83-120.08C1557.48,1173.84,1542.58,1112.14,1542.58,1112.14z"/>
		</g>
		<g>
			<path class="st19" d="M1598.16,1504.17h62.58c0,0,1.5-9.54-1.77-16.78c-3.13-6.94-8.04-10.1-6.86-18.5
				c-3.98,4.09-10.46,8.68-19.51,7.46c-1.11,1.8-7.16,11.42-10.86,14.08C1617.65,1493.37,1599.42,1492.32,1598.16,1504.17z"/>
		</g>
		<g>
			<path class="st19" d="M1463.78,1504.17h62.58c0,0,2.34-9.98-1.77-16.78c-3.64-6.01-2.24-9.43,0.45-14.41
				c-2.83,1.16-6.5,2.22-10.54,1.99c-3.12-0.18-6.42-1.59-9.31-3.27c-2.69,3.07-14.23,16.14-17.83,18.73
				C1483.28,1493.37,1465.04,1492.32,1463.78,1504.17z"/>
		</g>
		<g>
			<path class="st31" d="M1610.82,790.87c0.49-1.68,6.43-19.64,34.53-13.54c0,0-14.11-1.83-18,3.59c0,0,11.21-5.08,18.2-0.77
				c6.99,4.32,8.08,18.75,7.02,23.14c-1.06,4.39-8.85,17.43-13.98,17.41c-1.94-0.01-4.01-0.66-5.84-1.47
				c0.78,2.33,1.47,4.86,2.05,7.63c5.34,25.63-11.77,45.03-20.55,40.19c-5.64-3.11-9.95,6.76-9.95,6.76l-46.62-62.31
				C1557.68,811.49,1590.49,772.38,1610.82,790.87z"/>
		</g>
		<g>
			<path class="st13" d="M1571.38,956.42c38.61,12.05,44.77-48.48,42.31-48.79c-4.16-3.71-9.68-18.04-9.51-39.63l-1.89,0.36
				l-31.61,6.13c0,0,0.67,9.95,0.67,19.31c-0.01,7.32-0.46,14.29-1.96,15.88c-2.46,0.34-3.93,0.57-3.93,0.57s0,0.01-0.02,0.03
				C1564.96,910.93,1561.08,953.21,1571.38,956.42z"/>
		</g>
		<g>
			<path class="st29" d="M1570.68,874.5c0,0,0.68,9.94,0.66,19.31c17.68-0.43,27.08-16.52,30.95-25.44L1570.68,874.5z"/>
		</g>
		<g>
			<path class="st13" d="M1564.74,883.34c0,0,41.82,0.85,41.95-25.2s5.62-43.48-21.08-45.13c-26.69-1.65-31.93,8.27-34.09,16.95
				C1549.36,838.65,1553.87,882.45,1564.74,883.34z"/>
		</g>
		<g>
			<path class="st31" d="M1552.82,815.49c6.5-7.81,11.37-6.07,14.1-3.7c22.91-12.48,37.56,6.16,37.56,6.16
				c2.72,18.7,16.16,29.46,16.16,29.46s-7.64,4.68-25.2,0.09c-5.36-1.4-10.14-5.23-14.2-9.88c7.07,11.95,16.71,20.57,16.71,20.57
				c-20.95-9.79-29.27-39.01-30.09-42.1c-2.56,2.28-7.61,7.24-9.17,12.12c-2.11,6.63-3.1,20.28-7.08,19.8
				C1551.63,848,1543.08,827.2,1552.82,815.49z"/>
		</g>
		<g>
			<path class="st33" d="M1609.34,900.5c0,0,6.57,2.14,6.92,6.78c0,0-17.61,32.9-37.08,34.77L1609.34,900.5z"/>
		</g>
		<g>
			<path class="st30" d="M1517.54,1056.99l-15.11,86.17c8.92,5.46,17.53,10.14,25.81,14.16c2.29-6.74,6.53-14.36,6.8-14.83
				c-1.21,4.43,1.84,14.24,3.75,19.64c77.07,33.2,123.59,7.69,123.59,7.69c-11.56-85.12-2.99-225.26-5.07-235.28
				c-3.95-19.02-41.04-27.28-41.04-27.28c-13.57,23.77-37.09,34.77-37.09,34.77c-8.85-8.74-11.15-32.15-11.15-32.15l-15.46,3.8
				c-10,2.46-19.26,7.37-26.67,14.52c-0.66,0.65-1.33,1.31-1.96,1.99c-7.64,8.18-27.53,60.91-27.53,60.91s4.17,14.49,11.84,21.79
				c3.92,3.73,9.03,7.26,15.09,10.96L1517.54,1056.99z"/>
		</g>
		<g>
			<path class="st33" d="M1579.18,942.04c0,0-9.65-31.94-8.53-36.08c0,0-7.56,0.94-8.22,5.31
				C1562.43,911.27,1570.98,937.93,1579.18,942.04z"/>
		</g>
		<g>
			<path class="st0" d="M1574.25,868.4c0,0-1.86,4.07-4.47,4.52c-2.61,0.45-6.72,0.43-7.65,0c-0.93-0.43-2.39-3.3-3.01-4.19
				c0,0,4.69-0.51,14.52-0.33H1574.25z"/>
		</g>
		<g>
			<path class="st33" d="M1508.25,1012.9c4.06,3.58,9.03,7.26,15.09,10.96c0,0,11.58-43.31,8.13-46.33
				C1528.02,974.52,1521.68,1003,1508.25,1012.9z"/>
		</g>
		<g>
			<path class="st13" d="M1676.62,963.54c0,0,53.98,73.49,48.74,98.45c-4.17,19.88-58.79,65.58-58.79,65.58l-14.1-9.1
				c0,0,34.11-49.43,31.12-63.91c-2.33-11.27-36.15-53.97-36.15-53.97L1676.62,963.54z"/>
		</g>
		<g>
			<path class="st30" d="M1640.58,916.41c0,0,29.94,16.08,55.71,67.12c0,0-15.2,20.23-45.48,30.05
				c-30.27,9.82-29.25-48.67-29.25-48.67L1640.58,916.41z"/>
		</g>
		<g>
			<polygon class="st33" points="1577.66,973.87 1540.53,973.96 1540.29,1004.45 1556.58,1013.62 1576.82,1005.81 			"/>
		</g>
		<g>
			<path class="st13" d="M1656.12,1119.39c0,0-15.23-5.8-23.75-3.53c-4.81,1.28-13.74,18.28-8.18,20.84
				c5.56,2.56,11.84-6.52,18.68-4.81c6.84,1.71,15.31,11.65,23.7-4.33L1656.12,1119.39z"/>
		</g>
		<g>
			<path class="st13" d="M1655.3,1117.47c0,0-5.85-2.65-8.5-4.49c-2.65-1.84-4.25,1.44,0,4.49c4.25,3.05,5.77,1.68,5.77,1.68
				L1655.3,1117.47z"/>
		</g>
		<g>
			<path class="st13" d="M1449.49,1115.6c0,0,17.27-8.2,20.79,1c3.52,9.2-2.56,16.92-8.34,15.1
				C1456.15,1129.89,1445.83,1123.73,1449.49,1115.6z"/>
		</g>
		<g>
			<g>
				<g>
					<g>
						<path class="st20" d="M1623.14,1005.02l-1.35-1.3c0.17-0.18,17.39-18.35,19-43.94c0.47-7.43-3.57-14.63-10.05-17.9
							c-6.11-3.08-13-2-18.9,2.96c-14.02,11.79-10.52,53.4-10.49,53.82l-1.87,0.17c-0.01-0.11-0.93-10.81-0.05-22.87
							c1.19-16.35,4.96-27.3,11.2-32.55c6.51-5.47,14.15-6.64,20.96-3.2c7.14,3.61,11.6,11.52,11.08,19.69
							C1641,986.19,1623.32,1004.83,1623.14,1005.02z"/>
					</g>
				</g>
				<g>
					<path class="st20" d="M1597.72,998.57c0.09-1.49,1.38-2.62,2.86-2.52c1.49,0.09,2.62,1.37,2.52,2.86
						c-0.09,1.49-1.38,2.62-2.86,2.52S1597.63,1000.06,1597.72,998.57z"/>
				</g>
				<g>
					<path class="st20" d="M1619.56,1004.18c0.09-1.49,1.37-2.62,2.86-2.52c1.49,0.09,2.62,1.37,2.52,2.86
						c-0.09,1.49-1.37,2.62-2.86,2.52C1620.59,1006.95,1619.46,1005.67,1619.56,1004.18z"/>
				</g>
			</g>
			<g>
				<path class="st20" d="M1627.83,940.56c-0.03,0-0.05,0-0.07,0c-0.35-0.04-0.61-0.36-0.56-0.71c0.02-0.18,1.98-18.13-3.14-30.64
					c-0.13-0.33,0.02-0.7,0.35-0.84c0.33-0.14,0.7,0.02,0.84,0.35c5.25,12.82,3.25,31.09,3.23,31.27
					C1628.43,940.32,1628.15,940.56,1627.83,940.56z"/>
			</g>
		</g>
		<g>
			<g>
				<path class="st20" d="M1549.15,945.38c-0.01,0-0.02,0-0.02,0c-0.35-0.01-0.63-0.31-0.62-0.67c0.7-18.34,7.18-33.73,7.24-33.88
					c0.14-0.33,0.52-0.48,0.84-0.34c0.33,0.14,0.48,0.52,0.34,0.84c-0.06,0.15-6.45,15.33-7.14,33.43
					C1549.78,945.11,1549.49,945.38,1549.15,945.38z"/>
			</g>
			<g>
				<g>
					<path class="st20" d="M1543.61,947.98c-1.06-3.29,0.75-6.82,4.04-7.89c3.29-1.06,6.82,0.75,7.89,4.04
						c1.06,3.29-0.75,6.82-4.04,7.89C1548.21,953.09,1544.67,951.28,1543.61,947.98z"/>
				</g>
				<g>
					<path class="st32" d="M1546.86,946.94c-0.48-1.5,0.34-3.11,1.84-3.59c1.5-0.48,3.11,0.34,3.59,1.84
						c0.48,1.5-0.34,3.11-1.84,3.59C1548.95,949.26,1547.34,948.44,1546.86,946.94z"/>
				</g>
			</g>
		</g>
	</g>
	<g>
		<g>
			<g>
				<path class="st19" d="M701.22,1504.28h40.43c-0.3-2.12-1.33-8.57-3.23-14.51c-0.66-2.07-1.42-4.08-2.29-5.83
					c-3.93-7.85-28.91-2.86-28.91-2.86s-2.32,1.99-4.13,9.58C702.29,1494.01,701.59,1498.45,701.22,1504.28z"/>
			</g>
			<g>
				<path class="st15" d="M775.44,884.19c0,0,32.21,5.66,39.5,24.67c7.28,19.01,48.43,326.16,48.43,326.16s-20.38,16.14-64.11,10.35
					C755.52,1239.57,775.44,884.19,775.44,884.19z"/>
			</g>
			<g>
				<path class="st19" d="M823.39,1492.79c0.11,5.5,0.8,10.71,2.8,12.76h79.96c-1.02-2.89-3.9-7.25-12.1-8.58
					c-9.33-1.51-23.87-6-32.36-14.98c-3.03-3.19-5.28-6.95-6.26-11.35c-3.76-16.75-31.11,5.13-31.11,5.13
					S823.21,1484.6,823.39,1492.79z"/>
			</g>
			<g>
				<path class="st34" d="M857.82,1480.81c-8.94,2.85-26.01,11.55-36.87,7.46c-7.01-2.64-46.21-116.02-48.75-165.61
					c-0.19-3.61-0.9-8.64-2.01-14.77c-2.32-12.8-6.38-30.38-11.06-49.79c-12.54-52-29.51-117.05-29.14-137.84
					c0.57-32.27,96.17-6.76,96.17-6.76s6.58,26.47,7.89,64.8c2.6,76.07,9.73,204.57,29.15,293.81
					C864.03,1475.89,861.53,1479.63,857.82,1480.81z"/>
			</g>
			<g>
				<path class="st28" d="M791.47,1120.37l-50.54,366.29c0,0-22.19,5.35-39.46,1.07c0,0-14.79-194.81-13.56-241.91
					c1.23-47.1-10.62-126.02,2.71-134.73C703.94,1102.4,791.47,1120.37,791.47,1120.37z"/>
			</g>
			<g>
				<path class="st0" d="M684.23,900.97c0,0,53.11-34.34,91.21-16.78c6.07,2.8,12.99,10.61,17.95,16.07
					c13.77,15.17,40.68,256.2,40.68,256.2s-76.38,25.87-149.84-8.78V900.97z"/>
			</g>
			<g>
				<path class="st15" d="M778.46,883.32c0,0,53.77,22.04,61.05,38.97c7.28,16.93,30.95,120.9,30.95,133.09
					c0,12.19-41.21,2.73-47.84-16.94c-5.51-16.33-24.09-66.49-33.89-98.22L778.46,883.32z"/>
			</g>
			<g>
				<g>
					<path class="st13" d="M767.29,900.11c-11.74,2.3-28.98-0.15-41.61-8.47c5.7-13.61,8.04-24.36,8.87-31.32
						c0.05-0.37,0.08-0.73,0.12-1.07c0.38-3.61,0.32-6.05,0.15-7.17h30.35c0,0,8.3,3.79,8.3,6.41c0,1.4,0.01,2.74,0.04,4.02
						c0.06,3.49,0.2,6.54,0.38,9.15c0.58,8.52,1.55,12.53,1.55,12.53S779.14,897.79,767.29,900.11z"/>
				</g>
				<g>
					<path class="st35" d="M773.88,871.66c-22.99,4.44-36.34-8.12-39.33-11.34c-0.42-0.46-0.64-0.73-0.64-0.73
						c0.24-0.12,0.5-0.23,0.76-0.34c8.56-3.47,27.98-0.71,38.82,3.26C773.56,866,773.7,869.05,773.88,871.66z"/>
				</g>
				<g>
					<path class="st13" d="M727.04,847.09c4.11,22.11,32.64,21.38,44.97,20c3.47-0.39,5.65-0.83,5.65-0.83
						c3.91-1.04,6.09-7.21,7.11-15.28c2.01-15.97-0.53-39.42-3.23-45.42c-4.06-9.02-11.71-18.79-40.44-11.74
						C712.37,800.86,721.77,818.75,727.04,847.09z"/>
				</g>
				<g>
					<path class="st19" d="M782.61,793.22c-3.93-5.44-12.25-12.08-19.81-16.17c-16.25-8.79-37.04,0.28-37.13,0.32
						c-23.47,10.32-29.6,28.27-17.15,56.24c13.16,29.58,25.68,26.25,25.68,26.25s-2.66-1.66-2.42-10.87
						c0.01-0.52,0.03-0.96,0.06-1.34c0.12-1.89-0.54-3.78-1.96-5.04c-2.91-2.6-4.34-10.47-1.89-12.66c2.94-2.64,7.08,0.57,8.4,3.04
						c1.15,1.74,3.22,2.35,5.15,1.14c7.3-4.62,2.56-13.85,9.54-19.5c6.98-5.65,21.14-0.91,31.61-5.41
						C796.4,804.09,785.57,797.31,782.61,793.22z"/>
				</g>
			</g>
			<g>
				<path class="st15" d="M785.88,1257.59c-4.62,1.19-9.2,2.17-13.75,2.92c-4.02,0.69-8.03,1.2-12.04,1.54
					c-22.73,1.98-45.56-1.22-72.25-8.87c-6.01-1.72-12.22-3.68-18.66-5.84c-0.69-0.23,1.75-70.8,4.57-143.58
					c0.29-7.51,0.58-15.06,0.87-22.55c0.13-3.17,0.25-6.33,0.38-9.48c2.55-64.38,5.08-122.51,5.62-125.64
					c1.22-7.08,2.36-13.12,3.61-18.35c3.63-15.25,8.15-23.62,18-30.81c0.96-0.73,8.83-4.7,15.77-8.15
					c5.75-2.86,10.86-5.35,10.86-5.35c0,0,0,0,0,0c2.29,1.12,5.04,6.37,7.92,13.73c5.29,13.57,10.99,34.35,14.96,49.87
					c0.01,0.04,0.02,0.07,0.02,0.08c0,0.01,0,0.01,0,0.01c2.55,10.02,4.39,17.82,4.91,20.06c0.89,3.78,2.06,11.1,3.44,21.02
					c1.87,13.5,4.1,31.83,6.46,52.63c0.24,2.14,0.49,4.3,0.73,6.49c0.28,2.49,0.56,5.02,0.84,7.57c0.09,0.82,0.18,1.64,0.27,2.46
					c0.91,8.24,1.83,16.74,2.74,25.38c0.76,7.14,11.59,12.31,12.34,19.57c0.43,4.27,1.33,43.63,2.49,56.19
					C786.8,1167.44,786.21,1253.37,785.88,1257.59z"/>
			</g>
			<g>
				<path class="st36" d="M707.5,972.02c-0.03,0.15-1.84,65.1,47.02,72.99c48.86,7.89,16.4,9.97,16.4,9.97s-91.92-3.91-93.44-6.33
					C675.95,1046.22,707.5,972.02,707.5,972.02z"/>
			</g>
			<g>
				<path class="st36" d="M748.78,1072.89c0,0-0.92,0.65-2.68,1.78c-0.03,0.01-0.06,0.04-0.09,0.05
					c-7.45,4.76-29.58,17.73-61.78,26.42c-3.38,0.92-6.88,1.78-10.48,2.59c0.29-7.51,0.58-15.06,0.87-22.55
					c-4.25-0.33-8.33-0.87-12.11-1.67c0.13-0.99,0.26-1.98,0.39-2.97c4.1-1.68,8.17-3.3,12.1-4.84c3.2-1.25,6.29-2.44,9.22-3.54
					c13.23-5.03,23.04-8.43,23.04-8.43l39.16,12.4L748.78,1072.89z"/>
			</g>
			<g>
				<path class="st15" d="M759.14,1071.81c0,0-5.03,1.26-13.04,2.87c-0.03,0-0.06,0.01-0.09,0.02c-14.77,2.97-39.61,7.13-61.79,6.91
					c-3.27-0.04-6.49-0.16-9.6-0.41c-4.25-0.33-8.33-0.87-12.11-1.67c-8.11-1.71-14.9-4.61-19.34-9.13
					c-33-33.61,18.01-154.24,28.73-165.98c12.52-13.7,35.37-18.51,47.99-20.16c0.53-0.07,1.03-0.13,1.52-0.19
					c4.44-0.53,7.28-0.64,7.44-0.64c0,0,0,0,0,0s-0.99,3.18-2.65,8.58c-0.64,2.09-1.39,4.51-2.21,7.21
					c-7.75,25.38-22.71,75.26-29.3,103.39c-2.42,10.29-3.71,17.67-3.12,19.88c2.57,9.61,29.24,14.55,46.13,16.73
					c7.05,0.91,12.39,1.34,13.59,1.43c0.08,0,0.16,0,0.25,0.02l0.98,4l2.34,9.61l2.3,9.44L759.14,1071.81z"/>
			</g>
			<g>
				<polygon class="st19" points="851.18,1129.63 737.85,1124.85 760.84,983.62 874.17,988.4 				"/>
			</g>
			<g>
				<path class="st13" d="M751.56,1040.65c0,0,22.06-1.54,23.17,3.6c2.58,11.99-18.97,21.83-25.95,21.16
					C741.8,1064.74,746.48,1039.85,751.56,1040.65z"/>
			</g>
			<g>
				<path class="st13" d="M867.97,1017.08c0,0-21.11-6.6-23.37-1.85c-5.28,11.06,13.4,25.62,20.35,26.58
					C871.9,1042.77,873.1,1017.47,867.97,1017.08z"/>
			</g>
			<g>
				<path class="st36" d="M731.15,876.32c0,0-9.28,4.42-13.93,11.1c0,0,34.69,60.23,34.54,59.67
					C751.6,946.52,740.03,884.03,731.15,876.32z"/>
			</g>
			<g>
				<path class="st36" d="M774.36,877.16c3.06,1.15,8.91,7.16,10.24,10.47l4.12,52.58c0,0-8.81-38.59-13.29-56.03
					C774.3,879.76,774.5,878.41,774.36,877.16z"/>
			</g>
			<g>
				<path class="st21" d="M798.41,985.2c0,0,0.9-3.92,6.06-3.46c5.16,0.46,34.14,1.88,34.14,1.88s5.59-0.09,5.07,3.49L798.41,985.2z
					"/>
			</g>
			<g>
				<path class="st0" d="M765.17,852.07c0,0,3.76,3.43,9.83,2.37c3.6-0.63,5.61-5.31,5.61-5.31S773.7,847.88,765.17,852.07z"/>
			</g>
		</g>
		<g>
			<rect x="698.39" y="925.97" class="st1" width="29.34" height="13.16"/>
		</g>
	</g>
	<g>
		<path class="st37" d="M313.91,1501.6c-2.91-4.57-11.65-16.42-23.3-14.85c-12.69,1.71,14.02,10.08,22.2,14.88
			c-1.82,0.03-3.38-0.12-4.52-0.53c-5.47-1.95-14.83,1.79-17.83,3.1h52.05c-0.36-1.25-1.3-3.28-3.72-4.76
			c-0.86-0.52-2.57-0.6-4.79-0.43c3.09-3.65,5.24-15.3-3.37-12.3c-6.29,2.19-6.28,9.31-5.66,13.53c-1.34,0.21-2.7,0.42-4.04,0.62
			c-2.59-13.21-11.76-51.92-30.34-52.95c-18.83-1.05,15.97,40.14,27.56,53.32C316.67,1501.41,315.24,1501.54,313.91,1501.6z"/>
	</g>
	<g>
		<path class="st38" d="M2670.31,1511H99.52c-1.61,0-2.92-1.31-2.92-2.92v-1c0-1.61,1.31-2.92,2.92-2.92h2570.79
			c1.61,0,2.92,1.31,2.92,2.92v1C2673.23,1509.69,2671.92,1511,2670.31,1511z"/>
	</g>
</g>
</svg>
