<?xml version="1.0" encoding="utf-8"?>
<!-- Generator: Adobe Illustrator 26.5.3, SVG Export Plug-In . SVG Version: 6.00 Build 0)  -->
<svg version="1.1" id="Lager_1" xmlns="http://www.w3.org/2000/svg" xmlns:xlink="http://www.w3.org/1999/xlink" x="0px" y="0px"
	 viewBox="0 0 442.5 209.9" style="enable-background:new 0 0 442.5 209.9;" xml:space="preserve">
<style type="text/css">
	.st0{display:none;}
	.st1{display:inline;fill:none;}
	.st2{display:inline;}
	.st3{fill:none;stroke:#4BB492;stroke-width:50;stroke-miterlimit:10;}
	.st4{fill:#4BB492;}
	.st5{display:none;fill:none;stroke:#1E1E1C;stroke-width:2;stroke-miterlimit:10;}
	.st6{fill:#FFFFFF;stroke:#DADADA;stroke-miterlimit:10;}
	.st7{fill:#343434;}
	.st8{fill:#6ED6B0;}
	.st9{fill:#E2CBA6;}
	.st10{fill:#1D7D57;}
	.st11{fill:#020203;}
	.st12{fill-rule:evenodd;clip-rule:evenodd;fill:#FFFFFF;}
	.st13{fill-rule:evenodd;clip-rule:evenodd;fill:#585857;}
	.st14{fill:none;stroke:#4BB492;stroke-width:2;stroke-miterlimit:10;stroke-dasharray:14.997,9.9979;}
	.st15{fill:#1D1D1B;stroke:#1D1D1B;stroke-width:2;stroke-miterlimit:10;stroke-dasharray:14.997,9.9979;}
	.st16{fill:#1D1D1B;stroke:#1D1D1B;stroke-miterlimit:10;}
	.st17{fill:none;stroke:#1D1D1B;stroke-width:3;stroke-miterlimit:10;}
	.st18{fill:none;stroke:#1D1D1B;stroke-width:2;stroke-miterlimit:10;}
</style>
<g class="st0">
	<line class="st1" x1="218.6" y1="166.4" x2="432.4" y2="24.9"/>
	<g class="st2">
		<line class="st3" x1="218.6" y1="166.4" x2="377" y2="61.6"/>
		<g>
			<path class="st4" d="M432.4,24.9c-19.6,26.9-41.1,64.8-49.5,95.5l-13.1-54.1l-44.6-33.2C356.7,37.4,399.9,32.5,432.4,24.9z"/>
		</g>
	</g>
</g>
<polyline class="st5" points="184.8,6.3 184.8,195.9 432.4,195.9 "/>
<g>
	<g>
		<path class="st6" d="M106,101.2c-1.1,1.5-1.9,3.2-2.9,4.8c-1.2,1.8-2.4,3.5-3.8,5.1c-4.2,4.7-9.1,8.5-14.8,11
			c-0.6,0.2-0.8,0.5-0.8,1.1c0,4.5,0,8.9,0,13.4c0,0.8,0,0.8,0.9,0.9c2.7,0,5.5,0,8.2,0c0.4,0,0.9-0.1,1.2,0.2c-3.2,0-6.3,0-9.5,0
			c-0.6,0-1.1,0.1-1.5,0.6c-1.8,2.1-3.5,4.1-5.3,6.1c-2.8,3.2-5.7,6.5-8.6,9.6c-0.7,0.8-0.8,0.8-1.4,0c-2.1-2.4-4.2-4.8-6.3-7.1
			c-2.4-2.8-4.8-5.5-7.2-8.3c-0.6-0.7-1.2-1-2.1-0.9c-2.8,0.1-5.7,0-8.5,0c0.4-0.3,0.8-0.2,1.2-0.2c2.5,0,4.9,0,7.4,0c1,0,1,0,1-1.1
			c0-4,0-8,0-12c0-0.7-0.2-1-0.9-1.3c-3.2-1.2-6.2-2.7-9-4.6c-6.1-4.1-10.8-9.5-14.2-16.1c-0.2-0.4-0.5-0.8-0.7-1.2
			c0-0.1-0.1-0.2-0.1-0.2l0,0c0-0.1,0-0.3-0.1-0.4c-0.5-1.2-1-2.4-1.5-3.6c-0.9-2.3-1.4-4.6-1.7-7.1c-0.3-2.1-0.5-4.1-0.5-6.2
			c0-1,0-1,0.9-1.3c4.6-1.5,9.1-3.4,13.4-5.6c4.5-2.2,8.7-4.7,12.5-8c6.3-5.5,10.8-12.3,14.6-19.6c0.2-0.3,0.3-0.7,0.5-1
			c0.4-0.6,0.7-0.6,1.2,0c0.3,0.3,0.4,0.6,0.6,0.9c1.6,3.2,3.4,6.2,5.4,9.2c3.5,5.1,7.5,9.7,12.6,13.3c5.2,3.7,10.9,6.4,16.7,8.8
			c1.9,0.8,3.9,1.5,5.9,2.3c0.9,0.3,0.9,0.3,0.9,1.3c0,3.6-0.6,7.1-1.6,10.5c-0.6,2.1-1.2,4.2-2.2,6.2
			C105.8,100.7,105.8,100.9,106,101.2z"/>
		<path class="st7" d="M104,35.2c2.5,2.8,4.8,5.8,6.7,9.1c1.1,1.9,2.1,3.8,2.8,5.8c1.1,2.8,1.9,5.6,2.6,8.5c1,4.2,1.3,8.5,1.2,12.8
			c-0.1,2.7-0.6,5.4-1.1,8c-0.4,2.1-0.9,4.1-1.6,6c-1,2.7-2.1,5.4-3.6,7.9c-1.3,2.1-2.7,4.1-3.9,6.2c-0.2,0.3-0.5,0.6-0.7,0.9
			c-0.1,0-0.2,0-0.3,0c1-2,1.6-4.1,2.2-6.2c1-3.4,1.6-6.9,1.6-10.5c0-1,0-1-0.9-1.3c-2-0.7-3.9-1.5-5.9-2.3
			c-5.8-2.4-11.5-5.2-16.7-8.8c-5.1-3.6-9.1-8.2-12.6-13.3c-2-2.9-3.8-6-5.4-9.2c-0.2-0.3-0.3-0.6-0.6-0.9c-0.5-0.5-0.8-0.6-1.2,0
			c-0.2,0.3-0.3,0.7-0.5,1c-3.8,7.3-8.3,14.2-14.6,19.6c-3.8,3.3-8,5.8-12.5,8c-4.4,2.2-8.8,4.1-13.4,5.6c-0.9,0.3-0.9,0.3-0.9,1.3
			c0,2.1,0.2,4.1,0.5,6.2c0.3,2.4,0.8,4.8,1.7,7.1c0.5,1.2,1,2.4,1.5,3.6c-0.1,0-0.2,0-0.3,0c-1.7-2-3.2-4.2-4.5-6.6
			c-0.5-0.9-1-1.9-1.6-2.8c-0.4-0.8-0.6-1.6-1-2.4c-0.9-2.1-1.6-4.3-2.2-6.5c-0.4-1.4-0.7-2.8-1-4.2c-0.2-0.8-0.1-1.7-0.2-2.6
			c-0.5-4.4-0.5-8.7,0.1-13.1c0.1-0.9,0.1-1.8,0.3-2.8c0.1-0.8,0.4-1.5,0.6-2.2c0.5-1.4,0.7-2.8,1.2-4.2c0.6-1.8,1.5-3.5,2.2-5.3
			c1-2.3,2.3-4.4,3.6-6.5c0.8-1.3,1.9-2.5,2.9-3.8c0.6-0.7,1.3-1.4,1.7-2.2c0.2-0.4,0.5-0.7,0.9-0.9c0.6-0.4,0.6-0.6,1.4-1.4
			C37.2,28.2,67.1,6.2,104,35.2z"/>
		<path class="st4" d="M97.8,138.2c7.4,1.7,13.1,5.8,17,12.3c2.4,4,3.5,8.3,3.7,12.9c0,0.8-0.2,1.3-0.7,1.9
			c-3.1,3.4-6.7,6.1-10.6,8.4c-7.2,4.3-15,6.9-23.3,8.3c-2.5,0.4-5,0.7-7.6,1c-0.7,0-1.4-0.1-2,0.1c-0.7,0-1.3,0.1-2,0.1
			c-2.2,0-4.5,0-6.7,0c-1.9-0.1-3.8-0.1-5.7-0.4c-0.4-0.2-0.9-0.2-1.3-0.1c-2.1-0.3-4.2-0.4-6.3-0.8c-4.6-1-9.1-2.2-13.5-4
			c-5.9-2.4-11.3-5.5-16-9.8c-1-0.9-2-2-3-3c-0.5-0.5-0.6-1-0.6-1.7c0.1-3.5,0.8-6.9,2.2-10.1c0.9-2.2,2.2-4.1,3.6-6
			c3.6-4.7,8.4-7.5,14-9.1c0.3-0.1,0.6-0.1,0.9-0.2c0.2,0.4,0.5,0.8,0.8,1.1c0.8,0.8,1.5,1.7,2.3,2.5c2,2.3,4,4.6,6,6.9
			c1.9,2.2,3.8,4.3,5.7,6.5c2.4,2.8,4.9,5.6,7.3,8.4c2,2.3,4,4.6,6,6.9c0.5,0.6,0.5,0.6,0.9,0c1.5-1.7,2.9-3.3,4.4-5
			c2.6-2.9,5.3-5.9,7.9-8.8c3.3-3.7,6.6-7.4,9.9-11.1C93.3,143.1,95.6,140.6,97.8,138.2z"/>
		<path class="st8" d="M97.8,138.2c-2.2,2.5-4.4,4.9-6.7,7.4c-3.3,3.7-6.6,7.4-9.9,11.1c-2.6,2.9-5.3,5.9-7.9,8.8
			c-1.5,1.7-3,3.3-4.4,5c-0.5,0.5-0.5,0.5-0.9,0c-2-2.3-4-4.6-6-6.9c-2.4-2.8-4.8-5.6-7.3-8.4c-1.9-2.2-3.8-4.3-5.7-6.5
			c-2-2.3-4-4.6-6-6.9c-0.7-0.9-1.5-1.7-2.3-2.5c-0.3-0.4-0.6-0.7-0.8-1.1c0.5-0.1,1.1-0.2,1.6-0.3c0.4,0.1,0.8,0,1.2-0.2
			c0.3,0,0.6,0,0.9-0.1c2.8,0,5.7,0.1,8.5,0c0.9,0,1.5,0.3,2.1,0.9c2.4,2.8,4.8,5.5,7.2,8.3c2.1,2.4,4.2,4.8,6.3,7.1
			c0.7,0.8,0.7,0.8,1.4,0c2.9-3.1,5.8-6.4,8.6-9.6c1.8-2,3.6-4.1,5.3-6.1c0.4-0.5,0.9-0.7,1.5-0.6c3.2,0,6.3,0,9.5,0
			c0.3,0,0.6,0,0.9,0c0.4,0.2,0.8,0.2,1.2,0.2C96.7,137.9,97.2,138.1,97.8,138.2z"/>
		<path class="st9" d="M65.5,183.3c2.2,0,4.5,0,6.7,0c-0.8,0.3-1.6,0.1-2.4,0.1C68.4,183.4,67,183.5,65.5,183.3z"/>
		<path class="st9" d="M74.2,183.1c0.7-0.2,1.3-0.2,2-0.1C75.6,183.2,74.9,183.1,74.2,183.1z"/>
		<path class="st9" d="M58.5,182.8c0.5,0,0.9-0.1,1.3,0.1C59.4,182.9,58.9,183,58.5,182.8z"/>
		<path class="st10" d="M106.1,100.5c0.1,0,0.2,0,0.3,0c-0.1,0.2-0.3,0.4-0.4,0.6C105.8,100.9,105.8,100.7,106.1,100.5z"/>
		<path class="st9" d="M42.6,137.6c-0.4,0.2-0.8,0.2-1.2,0.2C41.8,137.5,42.2,137.6,42.6,137.6z"/>
		<path class="st9" d="M96.1,137.8c-0.4,0.1-0.8,0-1.2-0.2C95.4,137.6,95.8,137.5,96.1,137.8z"/>
		<path class="st10" d="M27.9,100.6c0.1,0,0.2,0,0.3,0c0,0.1,0,0.3,0.1,0.4C28,100.9,28,100.8,27.9,100.6z"/>
		<path class="st10" d="M28.3,101c0,0.1,0.1,0.2,0.1,0.2C28.4,101.1,28.3,101.1,28.3,101z"/>
		<g>
			<path class="st11" d="M67.1,95.2c0.5-0.5,0.9-1.1,1.4-1.5c1.2-1,2.6-1.2,4-0.8c2,0.4,3.8,1.5,5.4,2.8c1.4,1.1,2.8,2.2,4.3,3.2
				c0.4,0.3,0.8,0.5,1.3,0.7c0.3,0.1,0.7,0.2,0.9,0.1c1.1-0.2,1.4-1,0.8-1.9c-0.2-0.2-0.4-0.5-0.5-0.8c0-0.3,0-0.7,0.2-0.9
				C85,96,85.5,96,85.7,96c1.2,0.4,2.1,1.3,2.7,2.4c1.2,2.3,0.5,5-1.7,6.7c-1.3,1-2.8,1.5-4.5,1.7c-4.3,0.4-8.3-0.4-12-2.8
				c-1.3-0.8-2.4-1.9-3-3.3c-0.5,0.7-0.9,1.4-1.5,2c-1.8,1.9-4.1,2.9-6.6,3.6c-2.9,0.8-5.8,1-8.7,0.2c-2.3-0.6-4.1-1.9-4.9-4.2
				c-0.8-2.3,0.5-5.2,2.8-6.1c0.3-0.1,0.7-0.3,1,0c0.3,0.4,0.3,0.8,0,1.2c-0.2,0.2-0.3,0.5-0.5,0.7c-0.3,0.5-0.3,0.7,0.2,1.1
				c0.6,0.5,1.3,0.6,2,0.2c1-0.6,2-1.2,2.9-1.9c1.8-1.4,3.6-2.8,5.7-3.8c1.2-0.6,2.5-1,4-0.9c1.5,0.2,2.5,0.9,3.4,2.1
				C67,95,67,95.1,67.1,95.2z"/>
		</g>
	</g>
	<path class="st12" d="M92.1,137.6c0.1,1.6-0.1,11.8-0.1,11.8s2.2,0.8,3.1,2.2c0.8,1.3,1.5,2.5,1,5.3s-3.7,4.5-5.9,4.4
		s-5.9-1.2-6.1-6.1c-0.2-4.8,4.9-6.1,4.9-6.1l0.1-11.5L92.1,137.6z"/>
	<g>
		<path class="st12" d="M44.1,137.6v4.7c0,0-5.8,0.6-9.5,5.2c-3.8,4.6-3.5,7.6-3.5,9.6s-0.1,13.1,0,13.6c0.1,0.5,0.2,1.4,1.3,1.5
			c1.1,0.2,4.8,0.1,5.4,0c0.6-0.1,1.5-0.4,1.6-1.6c0-0.9-0.5-1.4-1-1.5c-0.5-0.1-4-0.1-4-0.1s-0.2-10,0.1-13.7s3.8-10.5,11.7-10.2
			c7.8,0.3,11.3,5.7,11.6,9.2c0.3,3.5,0.3,14.7,0.3,14.7s-2.3-0.1-3.4,0c-1.1,0.1-1.7,3.1-0.3,3.1c1.4,0,4.3,0.1,5.2,0
			s1.4-0.4,1.4-1.6c0-1.1,0-11.8,0-14.1c0-2.3-1-5.7-2.6-8c-1.6-2.3-5.3-5.1-7.7-5.7s-3.5-0.7-3.5-0.7v-4.6L44.1,137.6z"/>
		<circle class="st13" cx="90" cy="155.4" r="3"/>
	</g>
</g>
<g class="st0">
	<g class="st2">
		<path class="st14" d="M212.9,172c0,0,37.1-8.8,47.1-14.5c10-5.7,17-24.1,23.4-37.1s19.7-28,32.8-30.5s20.4-2.2,36.1-10.9
			c15.7-8.7,17.5-19.4,24.6-26.8s15.5-14.4,28.9-18.4c6.6-2,13.2-4.2,18.1-5.9"/>
		<g>
			<path class="st4" d="M419.1,18.8c3.7,3.2,8.5,5,13.3,6.1c-3.1,3.8-5.5,8.2-6.6,13l-2.4,0.8c1.2-4.7,3-9,5.8-12.7
				c-4.5-1.2-8.8-3.5-12.5-6.4L419.1,18.8z"/>
			<path class="st4" d="M413.4,20.8c3.7,3.2,8.5,5,13.3,6.1c-3.1,3.8-5.5,8.2-6.6,13l-2.4,0.8c1.2-4.7,3-9,5.8-12.7
				c-4.5-1.2-8.8-3.5-12.5-6.4L413.4,20.8z"/>
		</g>
	</g>
</g>
<g>
	<g>
		<line class="st15" x1="205.9" y1="169.6" x2="349.8" y2="17.5"/>
		<g>
			<polygon class="st16" points="351.1,27.9 349.1,27.9 349.2,18 339.4,18.7 339.3,16.7 351.2,15.9 			"/>
		</g>
	</g>
</g>
<line class="st17" x1="139.8" y1="182.9" x2="430.8" y2="182.9"/>
<rect x="140.8" y="6.8" class="st18" width="289" height="177.9"/>
</svg>
