<?xml version="1.0" encoding="utf-8"?>
<!-- Generator: Adobe Illustrator 27.2.0, SVG Export Plug-In . SVG Version: 6.00 Build 0)  -->
<svg version="1.1" id="Lager_1" xmlns="http://www.w3.org/2000/svg" xmlns:xlink="http://www.w3.org/1999/xlink" x="0px" y="0px"
	 viewBox="0 0 442.51 209.85" style="enable-background:new 0 0 442.51 209.85;" xml:space="preserve">
<style type="text/css">
	.st0{display:none;}
	.st1{display:inline;fill:none;}
	.st2{display:inline;}
	.st3{fill:none;stroke:#4BB492;stroke-width:50;stroke-miterlimit:10;}
	.st4{fill:#4BB492;}
	.st5{display:none;fill:none;stroke:#1E1E1C;stroke-width:2;stroke-miterlimit:10;}
	.st6{fill:#FFFFFF;stroke:#DADADA;stroke-miterlimit:10;}
	.st7{fill:#343434;}
	.st8{fill:#6ED6B0;}
	.st9{fill:#E2CBA6;}
	.st10{fill:#1D7D57;}
	.st11{fill:#020203;}
	.st12{fill-rule:evenodd;clip-rule:evenodd;fill:#FFFFFF;}
	.st13{fill-rule:evenodd;clip-rule:evenodd;fill:#585857;}
	.st14{fill:none;stroke:#4BB492;stroke-width:2;stroke-miterlimit:10;stroke-dasharray:14.997,9.9979;}
	.st15{fill:none;stroke:#4BB492;stroke-width:3;stroke-miterlimit:10;}
	.st16{fill:none;stroke:#4BB492;stroke-width:2;stroke-miterlimit:10;}
</style>
<g class="st0">
	<line class="st1" x1="218.56" y1="166.4" x2="432.36" y2="24.93"/>
	<g class="st2">
		<line class="st3" x1="218.56" y1="166.4" x2="377" y2="61.56"/>
		<g>
			<path class="st4" d="M432.36,24.93c-19.65,26.9-41.06,64.78-49.54,95.51l-13.09-54.07l-44.64-33.18
				C356.68,37.4,399.92,32.51,432.36,24.93z"/>
		</g>
	</g>
</g>
<polyline class="st5" points="184.8,6.26 184.8,195.85 432.36,195.85 "/>
<g>
	<g>
		<path class="st6" d="M105.96,101.18c-1.1,1.52-1.86,3.24-2.88,4.81c-1.15,1.78-2.38,3.49-3.77,5.06c-4.18,4.7-9.07,8.47-14.85,11
			c-0.56,0.24-0.78,0.51-0.78,1.11c0.01,4.46,0.01,8.91,0.01,13.37c0,0.82,0.03,0.84,0.88,0.85c2.74,0.02,5.48,0,8.21,0.02
			c0.41,0,0.87-0.12,1.24,0.2c-3.17,0.01-6.33,0.02-9.5,0c-0.63-0.01-1.1,0.15-1.51,0.65c-1.75,2.06-3.53,4.07-5.3,6.11
			c-2.82,3.23-5.65,6.46-8.57,9.6c-0.71,0.76-0.76,0.77-1.43,0.01c-2.1-2.36-4.18-4.75-6.26-7.12c-2.42-2.76-4.85-5.51-7.25-8.3
			c-0.58-0.67-1.19-0.98-2.1-0.95c-2.85,0.06-5.7,0.01-8.55,0c0.38-0.29,0.82-0.19,1.24-0.19c2.46-0.01,4.92,0,7.39-0.01
			c1.01,0,1.03-0.02,1.03-1.05c0.01-3.98-0.02-7.97,0.02-11.96c0.01-0.71-0.23-1.03-0.88-1.27c-3.19-1.18-6.23-2.69-9.05-4.61
			c-6.1-4.14-10.84-9.48-14.18-16.06c-0.21-0.41-0.47-0.8-0.71-1.21c-0.04-0.08-0.07-0.16-0.11-0.25l0.01,0.02
			c-0.02-0.13-0.05-0.26-0.07-0.39c-0.5-1.2-1.01-2.4-1.5-3.6c-0.92-2.26-1.35-4.64-1.69-7.05c-0.29-2.06-0.54-4.1-0.51-6.18
			c0.01-1,0.01-1.02,0.92-1.32c4.62-1.54,9.08-3.45,13.44-5.62c4.46-2.22,8.72-4.71,12.48-7.98c6.29-5.48,10.82-12.29,14.6-19.64
			c0.18-0.35,0.27-0.74,0.49-1.05c0.41-0.61,0.71-0.57,1.25-0.04c0.26,0.26,0.39,0.58,0.55,0.88c1.61,3.18,3.4,6.25,5.42,9.19
			c3.5,5.1,7.53,9.69,12.63,13.26c5.21,3.65,10.88,6.41,16.73,8.82c1.94,0.79,3.89,1.54,5.86,2.29c0.93,0.35,0.93,0.31,0.93,1.32
			c0,3.56-0.56,7.05-1.55,10.46c-0.61,2.11-1.2,4.23-2.18,6.22C105.81,100.73,105.76,100.93,105.96,101.18z"/>
		<path class="st7" d="M104.01,35.25c2.53,2.83,4.82,5.82,6.69,9.13c1.06,1.86,2.06,3.75,2.81,5.75c1.06,2.79,1.95,5.62,2.62,8.55
			c0.97,4.24,1.28,8.51,1.15,12.83c-0.08,2.72-0.56,5.38-1.05,8.04c-0.38,2.05-0.88,4.07-1.62,6c-1.04,2.71-2.05,5.42-3.6,7.94
			c-1.28,2.08-2.66,4.1-3.92,6.17c-0.2,0.33-0.48,0.62-0.72,0.91c-0.11-0.01-0.22-0.02-0.34-0.03c0.97-1.99,1.56-4.11,2.18-6.22
			c1-3.41,1.55-6.89,1.55-10.46c0-1,0-0.97-0.93-1.32c-1.96-0.74-3.92-1.49-5.86-2.29c-5.85-2.42-11.52-5.18-16.73-8.82
			c-5.1-3.58-9.14-8.16-12.63-13.26c-2.01-2.94-3.81-6.01-5.42-9.19c-0.16-0.31-0.28-0.61-0.55-0.89c-0.53-0.53-0.83-0.58-1.25,0.04
			c-0.21,0.31-0.31,0.7-0.49,1.05c-3.79,7.35-8.31,14.17-14.6,19.64c-3.76,3.27-8.03,5.76-12.48,7.98
			c-4.36,2.18-8.82,4.08-13.44,5.63c-0.92,0.31-0.91,0.32-0.92,1.32c-0.03,2.08,0.23,4.13,0.51,6.18c0.34,2.4,0.77,4.79,1.69,7.05
			c0.49,1.21,1,2.4,1.5,3.6c-0.1-0.01-0.21-0.01-0.32-0.01c-1.74-2.03-3.2-4.25-4.52-6.56c-0.53-0.93-1.04-1.88-1.58-2.81
			c-0.43-0.76-0.65-1.64-0.98-2.45c-0.87-2.11-1.64-4.27-2.24-6.49c-0.37-1.38-0.68-2.78-1.04-4.16c-0.21-0.79-0.14-1.7-0.23-2.55
			c-0.5-4.37-0.52-8.73,0.09-13.1c0.13-0.92,0.1-1.85,0.28-2.78c0.15-0.75,0.38-1.51,0.6-2.2c0.45-1.39,0.74-2.82,1.2-4.21
			c0.62-1.82,1.45-3.52,2.17-5.28c0.95-2.33,2.34-4.41,3.62-6.55c0.8-1.35,1.89-2.52,2.86-3.77c0.57-0.74,1.27-1.37,1.73-2.19
			c0.2-0.36,0.54-0.69,0.89-0.92c0.56-0.36,0.59-0.59,1.36-1.36C37.17,28.19,67.12,6.24,104.01,35.25z"/>
		<path class="st4" d="M97.78,138.16c7.4,1.7,13.05,5.84,16.96,12.32c2.38,3.96,3.5,8.3,3.67,12.91c0.03,0.76-0.19,1.33-0.71,1.88
			c-3.11,3.36-6.7,6.11-10.62,8.43c-7.22,4.27-15.03,6.89-23.27,8.32c-2.5,0.44-5.03,0.74-7.55,0.98c-0.68-0.02-1.37-0.05-2.03,0.14
			c-0.65,0.03-1.31,0.06-1.97,0.09c-2.24,0.01-4.49,0.02-6.73,0.04c-1.91-0.11-3.83-0.13-5.73-0.35c-0.42-0.19-0.87-0.16-1.32-0.13
			c-2.09-0.27-4.22-0.38-6.26-0.83c-4.57-1.03-9.11-2.16-13.46-3.96c-5.86-2.42-11.3-5.53-16.03-9.8c-1.04-0.94-2.02-1.96-2.97-3
			c-0.45-0.49-0.65-1.01-0.63-1.68c0.08-3.52,0.8-6.9,2.18-10.14c0.92-2.16,2.16-4.12,3.59-5.97c3.61-4.66,8.39-7.47,13.98-9.05
			c0.3-0.08,0.6-0.15,0.9-0.22c0.19,0.44,0.5,0.78,0.83,1.13c0.76,0.83,1.51,1.68,2.26,2.54c2,2.29,3.99,4.6,6,6.89
			c1.91,2.18,3.83,4.33,5.74,6.5c2.44,2.79,4.86,5.61,7.3,8.4c2,2.29,4.03,4.58,6.03,6.86c0.49,0.56,0.5,0.56,0.95,0.04
			c1.48-1.67,2.95-3.34,4.43-5c2.63-2.94,5.26-5.88,7.89-8.82c3.31-3.7,6.62-7.4,9.92-11.09C93.35,143.11,95.57,140.64,97.78,138.16
			z"/>
		<path class="st8" d="M97.78,138.16c-2.21,2.48-4.43,4.95-6.65,7.42c-3.31,3.7-6.62,7.4-9.92,11.09c-2.63,2.94-5.26,5.88-7.89,8.82
			c-1.49,1.66-2.96,3.33-4.43,5c-0.46,0.52-0.47,0.52-0.95-0.04c-2.01-2.29-4.03-4.57-6.03-6.86c-2.44-2.8-4.85-5.61-7.3-8.4
			c-1.91-2.18-3.83-4.33-5.74-6.5c-2.01-2.29-4-4.6-6-6.89c-0.74-0.86-1.5-1.7-2.27-2.54c-0.32-0.35-0.63-0.69-0.83-1.13
			c0.55-0.1,1.1-0.22,1.64-0.32c0.41,0.07,0.81,0.02,1.18-0.19c0.31-0.01,0.61-0.04,0.92-0.05c2.85,0.01,5.7,0.06,8.55,0
			c0.92-0.01,1.52,0.29,2.1,0.95c2.4,2.78,4.83,5.54,7.25,8.3c2.08,2.38,4.16,4.76,6.26,7.12c0.68,0.76,0.72,0.76,1.43-0.01
			c2.93-3.14,5.75-6.37,8.57-9.6c1.77-2.03,3.56-4.05,5.3-6.11c0.43-0.5,0.89-0.66,1.51-0.65c3.17,0.02,6.33,0,9.5,0
			c0.32,0.01,0.62,0.03,0.94,0.04c0.37,0.21,0.76,0.25,1.18,0.18C96.69,137.93,97.23,138.05,97.78,138.16z"/>
		<path class="st9" d="M65.54,183.26c2.24-0.02,4.49-0.02,6.73-0.04c-0.79,0.27-1.62,0.13-2.42,0.13
			C68.41,183.37,66.97,183.49,65.54,183.26z"/>
		<path class="st9" d="M74.23,183.14c0.67-0.19,1.35-0.16,2.03-0.14C75.6,183.25,74.91,183.14,74.23,183.14z"/>
		<path class="st9" d="M58.49,182.78c0.45-0.03,0.89-0.06,1.32,0.13C59.37,182.91,58.91,183.01,58.49,182.78z"/>
		<path class="st10" d="M106.05,100.54c0.11,0.01,0.22,0.01,0.34,0.03c-0.14,0.2-0.28,0.4-0.43,0.61
			C105.76,100.93,105.81,100.73,106.05,100.54z"/>
		<path class="st9" d="M42.6,137.63c-0.37,0.21-0.76,0.25-1.18,0.19C41.79,137.51,42.2,137.59,42.6,137.63z"/>
		<path class="st9" d="M96.14,137.81c-0.41,0.06-0.81,0.03-1.18-0.18C95.37,137.59,95.78,137.51,96.14,137.81z"/>
		<path class="st10" d="M27.87,100.59c0.1,0.01,0.21,0.01,0.32,0.01c0.03,0.13,0.05,0.26,0.08,0.39
			C28.05,100.95,27.96,100.78,27.87,100.59z"/>
		<path class="st10" d="M28.26,100.98c0.04,0.08,0.07,0.16,0.11,0.25C28.35,101.14,28.3,101.06,28.26,100.98z"/>
		<g>
			<path class="st11" d="M67.08,95.23c0.47-0.52,0.87-1.08,1.39-1.51c1.18-0.97,2.57-1.15,4.03-0.83c2.04,0.44,3.75,1.54,5.41,2.75
				c1.44,1.05,2.85,2.15,4.29,3.19c0.39,0.29,0.83,0.51,1.28,0.69c0.29,0.11,0.65,0.17,0.95,0.12c1.09-0.17,1.4-0.98,0.76-1.86
				c-0.18-0.25-0.41-0.5-0.46-0.78c-0.04-0.28,0.04-0.66,0.21-0.89c0.1-0.14,0.52-0.16,0.74-0.08c1.23,0.41,2.07,1.3,2.66,2.41
				c1.22,2.31,0.5,5.03-1.71,6.71c-1.32,1.01-2.84,1.49-4.46,1.67c-4.31,0.45-8.33-0.42-11.98-2.78c-1.31-0.85-2.36-1.94-2.99-3.35
				c-0.48,0.65-0.9,1.37-1.46,1.96c-1.8,1.9-4.11,2.94-6.6,3.62c-2.87,0.78-5.75,1.01-8.66,0.25c-2.32-0.61-4.07-1.92-4.88-4.25
				c-0.81-2.3,0.48-5.18,2.75-6.14c0.35-0.14,0.74-0.35,1.05,0.02c0.35,0.39,0.28,0.83,0,1.25c-0.16,0.24-0.35,0.46-0.5,0.7
				c-0.31,0.47-0.26,0.74,0.17,1.12c0.6,0.53,1.28,0.64,1.95,0.23c1-0.61,1.97-1.25,2.91-1.95c1.84-1.36,3.59-2.84,5.68-3.83
				c1.25-0.59,2.54-1.02,3.96-0.87c1.47,0.16,2.54,0.92,3.35,2.12C66.96,95.02,67.03,95.14,67.08,95.23z"/>
		</g>
	</g>
	<path class="st12" d="M92.07,137.57c0.09,1.62-0.14,11.82-0.14,11.82s2.24,0.84,3.06,2.17c0.83,1.32,1.49,2.51,0.96,5.29
		s-3.71,4.47-5.94,4.37s-5.88-1.25-6.05-6.05c-0.16-4.79,4.95-6.05,4.95-6.05l0.05-11.54L92.07,137.57z"/>
	<g>
		<path class="st12" d="M44.13,137.61v4.71c0,0-5.75,0.58-9.55,5.19c-3.8,4.6-3.53,7.64-3.53,9.59s-0.09,13.1,0,13.6
			c0.09,0.51,0.23,1.37,1.3,1.54c1.07,0.17,4.76,0.15,5.38,0.02c0.62-0.13,1.49-0.35,1.57-1.57c0.05-0.87-0.53-1.38-1.05-1.47
			c-0.53-0.1-4.05-0.1-4.05-0.1s-0.17-10,0.11-13.73s3.83-10.49,11.66-10.2c7.83,0.29,11.3,5.7,11.6,9.22
			c0.3,3.52,0.3,14.72,0.3,14.72s-2.3-0.12-3.4,0c-1.1,0.12-1.7,3.07-0.28,3.1c1.42,0.03,4.35,0.11,5.25,0.03s1.44-0.41,1.44-1.57
			c0-1.15,0.02-11.82,0-14.13c-0.02-2.3-1.03-5.71-2.62-7.98c-1.59-2.27-5.3-5.14-7.66-5.7s-3.46-0.7-3.46-0.7v-4.6L44.13,137.61z"
			/>
		<circle class="st13" cx="90.04" cy="155.45" r="2.98"/>
	</g>
</g>
<g class="st0">
	<g class="st2">
		<path class="st14" d="M212.91,172.04c0,0,37.12-8.8,47.15-14.49c10.03-5.68,17.05-24.07,23.41-37.11s19.73-27.98,32.77-30.54
			s20.4-2.23,36.11-10.92c15.72-8.69,17.52-19.39,24.64-26.75s15.48-14.38,28.86-18.39c6.62-1.98,13.17-4.18,18.11-5.9"/>
		<g>
			<path class="st4" d="M419.1,18.83c3.74,3.17,8.5,5.02,13.26,6.1c-3.11,3.77-5.51,8.24-6.63,13l-2.36,0.82
				c1.16-4.65,2.99-8.97,5.81-12.72c-4.55-1.24-8.8-3.49-12.48-6.37L419.1,18.83z"/>
			<path class="st4" d="M413.42,20.8c3.74,3.17,8.5,5.02,13.26,6.1c-3.11,3.77-5.5,8.24-6.62,13l-2.36,0.82
				c1.16-4.65,3-8.97,5.81-12.72c-4.55-1.24-8.8-3.49-12.48-6.37L413.42,20.8z"/>
		</g>
	</g>
</g>
<g>
	<g>
		<line class="st14" x1="205.89" y1="169.59" x2="349.75" y2="17.46"/>
		<g>
			<polygon class="st4" points="351.14,27.9 349.14,27.88 349.23,18.02 339.39,18.66 339.26,16.66 351.25,15.89 			"/>
		</g>
	</g>
</g>
<line class="st15" x1="139.78" y1="182.85" x2="430.78" y2="182.85"/>
<rect x="140.78" y="6.85" class="st16" width="288.97" height="177.9"/>
</svg>
