<?xml version="1.0" encoding="utf-8"?>
<!-- Generator: Adobe Illustrator 27.2.0, SVG Export Plug-In . SVG Version: 6.00 Build 0)  -->
<svg version="1.1" id="Lager_1" xmlns="http://www.w3.org/2000/svg" xmlns:xlink="http://www.w3.org/1999/xlink" x="0px" y="0px"
	 viewBox="0 0 138.5 247.2" style="enable-background:new 0 0 138.5 247.2;" xml:space="preserve">
<style type="text/css">
	.st0{display:none;}
	.st1{display:inline;fill:none;}
	.st2{display:inline;}
	.st3{fill:none;stroke:#4BB492;stroke-width:50;stroke-miterlimit:10;}
	.st4{fill:#4BB492;}
	.st5{display:none;fill:none;stroke:#1E1E1C;stroke-width:2;stroke-miterlimit:10;}
	.st6{fill:#343434;}
	.st7{fill:#FFFFFF;}
	.st8{fill:#6ED6B0;}
	.st9{fill:#E2CBA6;}
	.st10{fill:#1D7D57;}
	.st11{fill-rule:evenodd;clip-rule:evenodd;fill:#FFFFFF;}
	.st12{fill-rule:evenodd;clip-rule:evenodd;fill:#585857;}
</style>
<g class="st0">
	<line class="st1" x1="218.9" y1="203.1" x2="432.7" y2="61.7"/>
	<g class="st2">
		<line class="st3" x1="218.9" y1="203.1" x2="377.3" y2="98.3"/>
		<g>
			<path class="st4" d="M432.7,61.7c-19.6,26.9-41.1,64.8-49.5,95.5l-13.1-54.1l-44.6-33.2C357,74.1,400.3,69.2,432.7,61.7z"/>
		</g>
	</g>
</g>
<polyline class="st5" points="185.1,43 185.1,232.6 432.7,232.6 "/>
<g id="_x31_XiT1G.tif">
</g>
<g>
	<g>
		<path class="st6" d="M117.4,105.3c0,0,2.1,17.4-1.8,33.4c-3.9,16.1-6,26.5-2.4,33s10.1,11.4,10.1,11.4s-5.1-0.5-8.2,0
			s-3.2,0.5-3.2,0.5s-11.6-6.4-19.8-6.2s-35.9,0.2-41.9,0.5c-6,0.4-8.9,1.4-14.9,2.2c-8.5,1.1-14.3,2.3-14.3,2.3s4.2-3.6,7-9.4
			c3.2-6.9-2.7-22.1-4.8-32.7c-4.6-24.5-5.2-32-5.2-32L117.4,105.3z"/>
		<path class="st7" d="M106.2,138.7c-1.1,1.5-1.8,3.2-2.8,4.8c-1.1,1.8-2.4,3.5-3.7,5c-4.1,4.7-9,8.4-14.7,10.9
			c-0.6,0.2-0.8,0.5-0.8,1.1c0,4.4,0,8.8,0,13.2c0,0.8-0.1,1.3,0.7,1.3c2.7,0,5.7,0.1,8.4,0.1c0.4,0,0.9-0.1,1.3,0.2
			c-3.1,0-6.4-0.5-9.5-0.5c-0.6,0-1.1,0.1-1.5,0.6c-1.7,2-3.5,4-5.2,6.1c-2.8,3.2-5.6,6.4-8.5,9.5c-0.7,0.8-0.8,0.8-1.4,0
			c-2.1-2.3-4.1-4.7-6.2-7.1c-2.4-2.7-4.8-5.5-7.2-8.2c-0.6-0.7-1.2-1-2.1-0.9c-2.8,0.1-5.8,0.6-8.6,0.6c0.4-0.3,1.3,0.8,1.7,0.8
			c2.4,0,5.1-0.4,7.5-0.4c1,0,0.7-0.4,0.5-2.2c0-3.9,0-7.9,0-11.8c0-0.7-0.2-1-0.9-1.2c-3.2-1.2-6.2-2.7-9-4.6
			c-6-4.1-10.7-9.4-14.1-15.9c-0.2-0.4-0.5-0.8-0.7-1.2c0-0.1-0.1-0.2-0.1-0.2l0,0c0-0.1,0-0.3-0.1-0.4c-0.5-1.2-1-2.4-1.5-3.6
			c-0.9-2.2-1.3-4.6-1.7-7c-0.3-2-0.5-4.1-0.5-6.1c0-1,0-1,0.9-1.3c4.6-1.5,9-3.4,13.3-5.6c4.4-2.2,8.6-4.7,12.4-7.9
			c6.2-5.4,10.7-12.2,14.5-19.5c0.2-0.3,0.3-0.7,0.5-1c0.4-0.6,0.7-0.6,1.2,0c0.3,0.3,0.4,0.6,0.5,0.9c1.6,3.2,3.4,6.2,5.4,9.1
			c3.5,5.1,7.5,9.6,12.5,13.1c5.2,3.6,10.8,6.3,16.6,8.7c1.9,0.8,3.9,1.5,5.8,2.3c0.9,0.3,0.9,0.3,0.9,1.3c0,3.5-0.6,7-1.5,10.4
			c-0.6,2.1-1.2,4.2-2.2,6.2C106,138.2,106,138.5,106.2,138.7z"/>
		<path class="st6" d="M104.3,73.4c2.5,2.8,4.8,5.8,6.6,9c1.1,1.8,2,3.7,2.8,5.7c1.1,2.8,1.9,5.6,2.6,8.5c1,4.2,1.3,8.4,1.2,12.7
			c-0.1,2.7-0.6,5.3-1,8c-0.4,2-0.9,4-1.6,5.9c-1,2.7-2,5.4-3.6,7.9c-1.3,2.1-2.6,4.1-3.9,6.1c-0.2,0.3-0.5,0.6-0.7,0.9
			c-0.1,0-0.2,0-0.3,0c1-2,1.6-4.1,2.2-6.2c1-3.4,1.5-6.8,1.5-10.4c0-1,0-1-0.9-1.3c-1.9-0.7-3.9-1.5-5.8-2.3
			c-5.8-2.4-11.4-5.1-16.6-8.7c-5.1-3.6-9.1-8.1-12.5-13.1c-2-2.9-3.8-6-5.4-9.1c-0.2-0.3-0.3-0.6-0.5-0.9c-0.5-0.5-0.8-0.6-1.2,0
			c-0.2,0.3-0.3,0.7-0.5,1c-3.8,7.3-8.2,14-14.5,19.5c-3.7,3.2-7.9,5.7-12.4,7.9c-4.3,2.2-8.7,4-13.3,5.6c-0.9,0.3-0.9,0.3-0.9,1.3
			c0,2.1,0.2,4.1,0.5,6.1c0.3,2.4,0.8,4.7,1.7,7c0.5,1.2,1,2.4,1.5,3.6c-0.1,0-0.2,0-0.3,0c-1.7-2-3.2-4.2-4.5-6.5
			c-0.5-0.9-1-1.9-1.6-2.8c-0.4-0.8-0.6-1.6-1-2.4c-0.9-2.1-0.6-2.8-1.2-5c-0.4-1.4-0.9-3-1.2-4.3c-0.2-0.8-1.3-6.8-1.4-7.6
			c-0.5-4.3-0.2-4.8,0.4-9.1c0.1-0.9,0.1-1.8,0.3-2.8c0.1-0.7,0.4-1.5,0.6-2.2c0.4-1.4,0.7-2.8,1.2-4.2c0.6-1.8,1.4-3.5,2.1-5.2
			c1-2.3,2.3-4.4,3.6-6.5c0.8-1.3,1.9-2.5,2.8-3.7c0.6-0.7,1.2-1.3,1.7-2.2c0.2-0.4,0.5-0.7,0.9-0.9c0.6-0.4,0.6-0.4,1.3-1.3
			C37,66.5,73.6,41.1,104.3,73.4z"/>
		<path class="st4" d="M98.1,175.3c7.3,1.7,12.9,5.8,16.8,12.2c2.4,3.9,3.5,8.2,3.6,12.8c0,0.8-0.2,1.3-0.7,1.9
			c-3.1,3.3-6.6,6.1-10.5,8.4c-7.2,4.2-14.9,6.8-23.1,8.2c-2.5,0.4-5,0.7-7.5,1c-0.7,0-1.3-0.1-2,0.1c-0.7,0-1.3,0.1-1.9,0.1
			c-2.2,0-4.4,0-6.7,0c-1.9-0.1-3.8-0.1-5.7-0.4c-0.4-0.2-0.9-0.2-1.3-0.1c-2.1-0.3-4.2-0.4-6.2-0.8c-4.5-1-9-2.1-13.3-3.9
			c-5.8-2.4-11.2-5.5-15.9-9.7c-1-0.9-2-1.9-2.9-3c-0.4-0.5-0.6-1-0.6-1.7c0.1-3.5,0.8-6.8,2.1-10.1c0.9-2.1,2.1-4.1,3.6-5.9
			c3.6-4.6,8.3-7.4,13.9-9c0.3-0.1,0.6-0.1,0.9-0.2c0.2,0.4,0.5,0.8,0.8,1.1c0.8,0.8,1.5,1.7,2.2,2.5c2,2.3,4,4.6,6,6.8
			c1.9,2.1,3.8,4.3,5.7,6.4c2.4,2.8,4.8,5.6,7.2,8.3c2,2.3,4,4.5,6,6.8c0.5,0.6,0.5,0.6,0.9,0c1.5-1.6,2.9-3.3,4.4-4.9
			c2.6-2.9,5.2-5.8,7.8-8.7c3.3-3.7,6.6-7.3,9.8-11C93.7,180.2,95.9,177.8,98.1,175.3z"/>
		<path class="st8" d="M98.1,175.3c-2.2,2.4-4.4,4.9-6.6,7.4c-3.3,3.7-6.6,7.3-9.8,11c-2.6,2.9-5.2,5.8-7.8,8.7
			c-1.5,1.6-2.9,3.3-4.4,4.9c-0.4,0.5-0.5,0.5-0.9,0c-2-2.3-4-4.5-6-6.8c-2.4-2.8-4.8-5.6-7.2-8.3c-1.9-2.1-3.8-4.3-5.7-6.4
			c-2-2.3-4-4.6-6-6.8c-0.7-0.9-1.5-1.7-2.2-2.5c-0.3-0.4-0.6-0.7-0.8-1.1c0.5-0.1,1.1-0.2,1.6-0.3c0.4,0.1,0.8,0,1.2-0.2
			c0.3,0,0.6,0,0.9-0.1c2.8,0,5.7,0.1,8.5,0c0.9,0,1.5,0.3,2.1,0.9c2.4,2.8,4.8,5.5,7.2,8.2c2.1,2.4,4.1,4.7,6.2,7.1
			c0.7,0.8,0.7,0.8,1.4,0c2.9-3.1,5.7-6.3,8.5-9.5c1.8-2,3.5-4,5.2-6.1c0.4-0.5,0.9-0.6,1.5-0.6c3.1,0,6.3,0,9.4,0
			c0.3,0,0.6,0,0.9,0c0.4,0.2,0.8,0.2,1.2,0.2C97,175.1,97.6,175.2,98.1,175.3z"/>
		<path class="st9" d="M66.1,220c2.2,0,4.4,0,6.7,0c-0.8,0.3-1.6,0.1-2.4,0.1C69,220.1,67.6,220.3,66.1,220z"/>
		<path class="st9" d="M74.8,219.9c0.7-0.2,1.3-0.2,2-0.1C76.1,220,75.4,219.9,74.8,219.9z"/>
		<path class="st9" d="M59.2,219.5c0.4,0,0.9-0.1,1.3,0.1C60,219.7,59.6,219.8,59.2,219.5z"/>
		<path class="st10" d="M106.3,138.1c0.1,0,0.2,0,0.3,0c-0.1,0.2-0.3,0.4-0.4,0.6C106,138.5,106,138.2,106.3,138.1z"/>
		<path class="st9" d="M43.4,174.8c-0.4,0.2-0.8,0.2-1.2,0.2C42.6,174.7,43,174.8,43.4,174.8z"/>
		<path class="st9" d="M96.5,175c-0.4,0.1-0.8,0-1.2-0.2C95.7,174.8,96.1,174.7,96.5,175z"/>
		<path class="st10" d="M28.8,138.1c0.1,0,0.2,0,0.3,0c0,0.1,0,0.3,0.1,0.4C29,138.5,28.9,138.3,28.8,138.1z"/>
		<path class="st10" d="M29.2,138.5c0,0.1,0.1,0.2,0.1,0.2C29.3,138.7,29.3,138.6,29.2,138.5z"/>
	</g>
	<path class="st11" d="M94.4,174.8c0.1,1.6-0.1,11.7-0.1,11.7s2.2,0.8,3,2.1s1.5,2.5,0.9,5.2c-0.5,2.8-3.7,4.4-5.9,4.3
		c-2.2-0.1-5.8-1.2-6-6s4.9-6,4.9-6l0.1-11.4L94.4,174.8L94.4,174.8z"/>
	<g>
		<path class="st11" d="M46.9,174.8v4.7c0,0-5.7,0.6-9.5,5.1c-3.8,4.6-3.5,7.6-3.5,9.5s-0.1,13,0,13.5s0.2,1.4,1.3,1.5
			c1.1,0.2,4.7,0.1,5.3,0s1.5-0.4,1.5-1.6c0-0.9-0.5-1.4-1-1.5s-4-0.1-4-0.1s-0.2-9.9,0.1-13.6c0.3-3.7,3.8-10.4,11.5-10.1
			s11.2,5.6,11.5,9.1s0.3,14.6,0.3,14.6s-2.3-0.1-3.4,0s-1.7,3-0.3,3.1c1.4,0,4.3,0.1,5.2,0s1.4-0.4,1.4-1.6c0-1.1,0-11.7,0-14
			s-1-5.7-2.6-7.9s-5.2-5.1-7.6-5.6s-3.4-0.7-3.4-0.7v-4.6L46.9,174.8z"/>
		<circle class="st12" cx="92.4" cy="192.5" r="2.9"/>
	</g>
</g>
</svg>
