<?xml version="1.0" encoding="utf-8"?>
<!-- Generator: Adobe Illustrator 27.2.0, SVG Export Plug-In . SVG Version: 6.00 Build 0)  -->
<svg version="1.1" id="Lager_1" xmlns="http://www.w3.org/2000/svg" xmlns:xlink="http://www.w3.org/1999/xlink" x="0px" y="0px"
	 viewBox="0 0 442.51 239.91" style="enable-background:new 0 0 442.51 239.91;" xml:space="preserve">
<style type="text/css">
	.st0{display:none;}
	.st1{display:inline;fill:none;}
	.st2{display:inline;}
	.st3{fill:none;stroke:#4BB492;stroke-width:50;stroke-miterlimit:10;}
	.st4{fill:#4BB492;}
	.st5{fill:none;stroke:#1E1E1C;stroke-width:2;stroke-miterlimit:10;}
	.st6{fill:#FFFFFF;stroke:#DADADA;stroke-miterlimit:10;}
	.st7{fill:#343434;}
	.st8{fill:#E2CBA6;}
	.st9{fill:#1D7D57;}
	.st10{fill:#020203;}
	.st11{fill-rule:evenodd;clip-rule:evenodd;fill:#FFFFFF;}
	.st12{fill-rule:evenodd;clip-rule:evenodd;fill:#585857;}
	.st13{fill:none;stroke:#4BB492;stroke-width:2;stroke-miterlimit:10;stroke-dasharray:14.997,9.9979;}
</style>
<g class="st0">
	<line class="st1" x1="218.56" y1="196.46" x2="432.36" y2="54.99"/>
	<g class="st2">
		<line class="st3" x1="218.56" y1="196.46" x2="377" y2="91.62"/>
		<g>
			<path class="st4" d="M432.36,54.99c-19.65,26.9-41.06,64.78-49.54,95.51l-13.09-54.07l-44.64-33.18
				C356.68,67.46,399.92,62.57,432.36,54.99z"/>
		</g>
	</g>
</g>
<polyline class="st5" points="184.8,36.32 184.8,225.91 432.36,225.91 "/>
<g>
	<g>
		<path class="st6" d="M118.73,130.98c-1.47,2.02-2.48,4.32-3.84,6.41c-1.53,2.37-3.17,4.65-5.03,6.75
			c-5.57,6.26-12.09,11.29-19.8,14.66c-0.74,0.32-1.04,0.68-1.04,1.48c0.02,5.94,0.01,11.88,0.02,17.82c0,1.09,0.04,1.12,1.17,1.13
			c3.65,0.02,7.3,0,10.94,0.02c0.55,0,1.16-0.16,1.65,0.27c-4.22,0.01-8.44,0.03-12.66,0c-0.84-0.01-1.46,0.2-2.02,0.87
			c-2.33,2.74-4.71,5.43-7.07,8.14c-3.76,4.31-7.53,8.61-11.43,12.8c-0.95,1.02-1.01,1.03-1.91,0.01c-2.8-3.15-5.57-6.33-8.35-9.5
			c-3.23-3.68-6.47-7.35-9.67-11.06c-0.77-0.89-1.58-1.3-2.8-1.27c-3.8,0.08-7.6,0.01-11.4,0c0.51-0.39,1.1-0.25,1.66-0.25
			c3.28-0.02,6.56,0,9.85-0.02c1.35,0,1.37-0.02,1.37-1.4c0.01-5.31-0.02-10.63,0.03-15.94c0.01-0.94-0.3-1.37-1.17-1.69
			c-4.26-1.58-8.31-3.59-12.07-6.15c-8.13-5.52-14.45-12.64-18.91-21.41c-0.28-0.55-0.63-1.07-0.95-1.61
			c-0.05-0.11-0.1-0.22-0.15-0.33l0.01,0.03c-0.03-0.17-0.07-0.35-0.1-0.52c-0.67-1.6-1.35-3.2-2-4.8c-1.22-3.02-1.8-6.19-2.25-9.4
			c-0.39-2.74-0.72-5.47-0.68-8.24c0.02-1.34,0.01-1.36,1.23-1.76c6.16-2.06,12.1-4.6,17.92-7.5c5.94-2.96,11.63-6.28,16.64-10.64
			c8.39-7.3,14.42-16.39,19.47-26.19c0.24-0.46,0.36-0.98,0.65-1.4c0.55-0.81,0.95-0.76,1.66-0.05c0.35,0.35,0.52,0.77,0.73,1.18
			c2.14,4.24,4.53,8.33,7.22,12.25c4.66,6.8,10.04,12.92,16.84,17.68c6.94,4.86,14.5,8.55,22.3,11.76c2.58,1.06,5.19,2.06,7.81,3.05
			c1.24,0.47,1.24,0.42,1.24,1.76c0,4.75-0.74,9.4-2.07,13.94c-0.82,2.81-1.6,5.64-2.9,8.29
			C118.52,130.38,118.46,130.65,118.73,130.98z"/>
		<path class="st7" d="M116.13,43.07c3.38,3.77,6.42,7.76,8.92,12.17c1.41,2.48,2.74,5,3.75,7.67c1.41,3.72,2.6,7.5,3.49,11.4
			c1.29,5.65,1.71,11.34,1.54,17.11c-0.11,3.63-0.75,7.17-1.4,10.72c-0.5,2.73-1.17,5.43-2.16,8c-1.38,3.61-2.73,7.23-4.8,10.58
			c-1.71,2.77-3.54,5.46-5.23,8.23c-0.27,0.44-0.64,0.82-0.96,1.22c-0.15-0.01-0.3-0.03-0.45-0.04c1.3-2.65,2.08-5.48,2.9-8.29
			c1.33-4.54,2.07-9.19,2.07-13.94c0-1.34,0-1.29-1.24-1.76c-2.61-0.99-5.22-1.99-7.81-3.05c-7.8-3.22-15.36-6.9-22.3-11.76
			c-6.8-4.77-12.18-10.88-16.84-17.68c-2.68-3.92-5.08-8.01-7.22-12.25c-0.21-0.41-0.38-0.82-0.73-1.18
			c-0.71-0.71-1.11-0.77-1.66,0.05c-0.28,0.42-0.41,0.94-0.65,1.4c-5.05,9.8-11.08,18.89-19.47,26.19
			c-5.01,4.36-10.71,7.68-16.64,10.64c-5.81,2.9-11.76,5.44-17.92,7.5c-1.22,0.41-1.21,0.43-1.23,1.76
			c-0.04,2.77,0.3,5.51,0.68,8.24c0.45,3.2,1.03,6.38,2.25,9.4c0.65,1.61,1.33,3.2,2,4.8c-0.14-0.01-0.28-0.01-0.42-0.02
			c-2.32-2.7-4.26-5.66-6.02-8.74c-0.71-1.24-1.39-2.5-2.1-3.74c-0.58-1.01-0.86-2.18-1.31-3.27c-1.16-2.82-2.19-5.69-2.98-8.65
			c-0.49-1.84-0.9-3.71-1.38-5.55c-0.28-1.06-0.18-2.26-0.31-3.4c-0.66-5.82-0.7-11.64,0.12-17.46c0.17-1.23,0.13-2.47,0.37-3.71
			c0.2-1,0.5-2.01,0.8-2.93c0.6-1.85,0.98-3.76,1.6-5.61c0.82-2.42,1.93-4.69,2.89-7.04c1.27-3.1,3.12-5.88,4.82-8.73
			c1.07-1.8,2.52-3.36,3.81-5.03c0.76-0.98,1.69-1.82,2.31-2.92c0.27-0.48,0.72-0.92,1.19-1.23c0.75-0.48,0.79-0.79,1.81-1.81
			C27,33.66,66.94,4.39,116.13,43.07z"/>
		<path class="st4" d="M107.82,180.29c9.86,2.27,17.4,7.79,22.61,16.43c3.18,5.28,4.66,11.07,4.89,17.21
			c0.04,1.02-0.26,1.77-0.94,2.51c-4.14,4.48-8.93,8.14-14.16,11.24c-9.62,5.69-20.04,9.19-31.03,11.09
			c-3.34,0.58-6.7,0.98-10.07,1.3c-0.91-0.03-1.82-0.07-2.71,0.19c-0.87,0.04-1.75,0.08-2.62,0.12c-2.99,0.01-5.98,0.03-8.97,0.05
			c-2.55-0.15-5.11-0.18-7.64-0.47c-0.56-0.26-1.16-0.22-1.76-0.18c-2.79-0.36-5.62-0.5-8.35-1.11c-6.09-1.37-12.15-2.88-17.95-5.28
			c-7.81-3.23-15.06-7.37-21.37-13.06c-1.39-1.26-2.69-2.62-3.96-4c-0.6-0.66-0.86-1.34-0.84-2.24c0.11-4.69,1.06-9.2,2.9-13.52
			c1.23-2.88,2.88-5.49,4.79-7.96c4.81-6.21,11.19-9.96,18.64-12.07c0.4-0.11,0.8-0.2,1.2-0.29c0.25,0.59,0.67,1.04,1.1,1.51
			c1.02,1.11,2.02,2.24,3.02,3.38c2.67,3.06,5.32,6.13,8,9.19c2.54,2.9,5.11,5.77,7.65,8.67c3.25,3.72,6.48,7.48,9.73,11.2
			c2.67,3.06,5.37,6.1,8.04,9.15c0.65,0.74,0.66,0.74,1.27,0.05c1.97-2.22,3.93-4.45,5.91-6.66c3.5-3.92,7.01-7.84,10.52-11.76
			c4.41-4.93,8.82-9.86,13.23-14.79C101.91,186.89,104.87,183.59,107.82,180.29z"/>
		<path class="st4" d="M107.82,180.29c-2.95,3.3-5.91,6.6-8.86,9.89c-4.41,4.93-8.82,9.86-13.23,14.79
			c-3.51,3.92-7.01,7.84-10.52,11.76c-1.98,2.21-3.94,4.44-5.91,6.66c-0.61,0.69-0.63,0.69-1.27-0.05
			c-2.68-3.05-5.37-6.09-8.04-9.15c-3.25-3.73-6.47-7.48-9.73-11.2c-2.54-2.9-5.11-5.77-7.65-8.67c-2.68-3.05-5.33-6.13-8-9.19
			c-0.99-1.14-2-2.27-3.02-3.38c-0.43-0.46-0.84-0.92-1.1-1.51c0.73-0.14,1.46-0.29,2.18-0.43c0.55,0.09,1.08,0.03,1.57-0.25
			c0.41-0.02,0.82-0.05,1.23-0.07c3.8,0.01,7.6,0.08,11.4,0c1.22-0.02,2.03,0.38,2.8,1.27c3.2,3.71,6.44,7.38,9.67,11.06
			c2.78,3.17,5.55,6.35,8.35,9.5c0.9,1.01,0.96,1.01,1.91-0.01c3.9-4.19,7.67-8.49,11.43-12.8c2.36-2.71,4.74-5.4,7.07-8.14
			c0.57-0.67,1.18-0.88,2.02-0.87c4.22,0.03,8.44,0,12.66,0c0.42,0.02,0.83,0.04,1.25,0.05c0.49,0.28,1.02,0.33,1.57,0.24
			C106.36,179.98,107.09,180.14,107.82,180.29z"/>
		<path class="st8" d="M64.83,240.42c2.99-0.02,5.98-0.03,8.97-0.05c-1.06,0.36-2.16,0.18-3.23,0.18
			C68.66,240.56,66.74,240.73,64.83,240.42z"/>
		<path class="st8" d="M76.42,240.26c0.89-0.26,1.8-0.22,2.71-0.19C78.24,240.4,77.32,240.26,76.42,240.26z"/>
		<path class="st8" d="M55.43,239.78c0.6-0.04,1.19-0.08,1.76,0.18C56.6,239.95,55.99,240.09,55.43,239.78z"/>
		<path class="st9" d="M118.85,130.13c0.15,0.01,0.3,0.02,0.45,0.04c-0.19,0.27-0.38,0.54-0.57,0.81
			C118.46,130.65,118.52,130.38,118.85,130.13z"/>
		<path class="st8" d="M34.25,179.58c-0.49,0.28-1.02,0.33-1.57,0.25C33.16,179.42,33.71,179.52,34.25,179.58z"/>
		<path class="st8" d="M105.63,179.82c-0.55,0.08-1.08,0.04-1.57-0.24C104.6,179.52,105.15,179.42,105.63,179.82z"/>
		<path class="st9" d="M14.61,130.19c0.14,0.01,0.28,0.01,0.42,0.02c0.04,0.18,0.07,0.35,0.1,0.52
			C14.85,130.67,14.72,130.44,14.61,130.19z"/>
		<path class="st9" d="M15.13,130.71c0.05,0.11,0.1,0.22,0.15,0.33C15.24,130.93,15.18,130.82,15.13,130.71z"/>
		<g>
			<path class="st10" d="M66.88,123.04c0.62-0.69,1.16-1.44,1.85-2.01c1.57-1.3,3.42-1.54,5.37-1.11c2.72,0.59,5,2.06,7.21,3.66
				c1.92,1.4,3.8,2.86,5.72,4.26c0.52,0.38,1.11,0.68,1.71,0.92c0.38,0.15,0.86,0.22,1.26,0.16c1.45-0.23,1.87-1.31,1.01-2.48
				c-0.24-0.33-0.55-0.67-0.61-1.04c-0.06-0.38,0.05-0.88,0.28-1.18c0.14-0.19,0.69-0.21,0.98-0.11c1.64,0.55,2.76,1.73,3.54,3.21
				c1.63,3.08,0.67,6.7-2.28,8.95c-1.76,1.34-3.79,1.99-5.94,2.22c-5.74,0.6-11.1-0.56-15.97-3.71c-1.74-1.13-3.15-2.59-3.99-4.47
				c-0.64,0.87-1.2,1.83-1.94,2.61c-2.4,2.54-5.48,3.92-8.8,4.82c-3.82,1.04-7.67,1.35-11.55,0.33c-3.09-0.81-5.42-2.56-6.51-5.66
				c-1.08-3.07,0.64-6.9,3.66-8.18c0.46-0.19,0.98-0.46,1.4,0.03c0.46,0.52,0.37,1.11,0,1.66c-0.21,0.32-0.46,0.61-0.67,0.93
				c-0.42,0.63-0.35,0.99,0.22,1.5c0.8,0.71,1.71,0.85,2.6,0.31c1.33-0.81,2.63-1.67,3.88-2.6c2.45-1.82,4.79-3.79,7.57-5.11
				c1.66-0.79,3.38-1.36,5.28-1.16c1.96,0.21,3.39,1.23,4.46,2.83C66.73,122.77,66.82,122.93,66.88,123.04z"/>
		</g>
	</g>
	<path class="st11" d="M100.2,179.5c0.12,2.16-0.18,15.76-0.18,15.76s2.98,1.12,4.08,2.89c1.1,1.76,1.98,3.35,1.28,7.05
		c-0.71,3.71-4.95,5.96-7.92,5.82s-7.84-1.67-8.06-8.06s6.6-8.07,6.6-8.07l0.07-15.39L100.2,179.5z"/>
	<g>
		<path class="st11" d="M36.28,179.55v6.28c0,0-7.67,0.78-12.73,6.92s-4.71,10.19-4.71,12.79s-0.12,17.46,0,18.13
			c0.12,0.68,0.31,1.83,1.73,2.06s6.35,0.2,7.17,0.03s1.99-0.47,2.09-2.09c0.07-1.16-0.7-1.84-1.4-1.96c-0.7-0.13-5.4-0.13-5.4-0.13
			s-0.23-13.33,0.15-18.31s5.1-13.98,15.54-13.6s15.06,7.6,15.46,12.29s0.4,19.62,0.4,19.62s-3.06-0.16-4.53,0s-2.27,4.09-0.37,4.14
			c1.89,0.04,5.8,0.15,7,0.04s1.92-0.55,1.92-2.09s0.03-15.76,0-18.84c-0.03-3.07-1.37-7.61-3.49-10.64s-7.07-6.85-10.21-7.6
			s-4.61-0.93-4.61-0.93v-6.13L36.28,179.55z"/>
		<circle class="st12" cx="97.5" cy="203.34" r="3.97"/>
	</g>
</g>
<g>
	<g>
		<path class="st13" d="M212.91,202.1c0,0,37.12-8.8,47.15-14.49c10.03-5.68,17.05-24.07,23.41-37.11s19.73-27.98,32.77-30.54
			s20.4-2.23,36.11-10.92c15.72-8.69,17.52-19.39,24.64-26.75s15.48-14.38,28.86-18.39c6.62-1.98,13.17-4.18,18.11-5.9"/>
		<g>
			<path class="st4" d="M419.1,48.89c3.74,3.17,8.5,5.02,13.26,6.1c-3.11,3.77-5.51,8.24-6.63,13l-2.36,0.82
				c1.16-4.65,2.99-8.97,5.81-12.72c-4.55-1.24-8.8-3.49-12.48-6.37L419.1,48.89z"/>
			<path class="st4" d="M413.42,50.86c3.74,3.17,8.5,5.02,13.26,6.1c-3.11,3.77-5.5,8.24-6.62,13l-2.36,0.82
				c1.16-4.65,3-8.97,5.81-12.72c-4.55-1.24-8.8-3.49-12.48-6.37L413.42,50.86z"/>
		</g>
	</g>
</g>
</svg>
