<?xml version="1.0" encoding="utf-8"?>
<!-- Generator: Adobe Illustrator 27.2.0, SVG Export Plug-In . SVG Version: 6.00 Build 0)  -->
<svg version="1.1" id="Lager_1" xmlns="http://www.w3.org/2000/svg" xmlns:xlink="http://www.w3.org/1999/xlink" x="0px" y="0px"
	 viewBox="0 0 165.07 273.93" style="enable-background:new 0 0 165.07 273.93;" xml:space="preserve">
<style type="text/css">
	.st0{fill:#FFFFFF;}
	.st1{fill:#333333;}
	.st2{fill:#878787;}
	.st3{fill:#F6F6F6;}
	.st4{fill:#E2CBA3;}
	.st5{fill:#137D55;}
	.st6{fill-rule:evenodd;clip-rule:evenodd;fill:#FFFFFF;}
	.st7{fill-rule:evenodd;clip-rule:evenodd;fill:#575756;}
</style>
<g>
	<path class="st0" d="M130.73,143.2c-1.47,2.02-2.48,4.32-3.84,6.41c-1.53,2.37-3.17,4.65-5.03,6.75
		c-5.57,6.26-12.09,11.29-19.8,14.66c-0.74,0.32-1.04,0.68-1.04,1.48c0.02,5.94,0.01,11.88,0.02,17.82c0,1.09,0.04,1.12,1.17,1.13
		c3.65,0.02,7.3,0,10.94,0.02c0.55,0,1.16-0.16,1.65,0.27c-4.22,0.01-8.44,0.03-12.66,0c-0.84-0.01-1.46,0.2-2.02,0.87
		c-2.33,2.74-4.71,5.43-7.07,8.14c-3.76,4.31-7.53,8.61-11.43,12.8c-0.95,1.02-1.01,1.03-1.91,0.01c-2.8-3.15-5.57-6.33-8.35-9.5
		c-3.23-3.68-6.47-7.35-9.67-11.06c-0.77-0.89-1.58-1.3-2.8-1.27c-3.8,0.08-7.6,0.01-11.4,0c0.51-0.39,1.1-0.25,1.66-0.25
		c3.28-0.02,6.56,0,9.85-0.02c1.35,0,1.37-0.02,1.37-1.4c0.01-5.31-0.02-10.63,0.03-15.94c0.01-0.94-0.3-1.37-1.17-1.69
		c-4.26-1.58-8.31-3.59-12.07-6.15c-8.13-5.52-14.45-12.64-18.91-21.41c-0.28-0.55-0.63-1.07-0.95-1.61
		c-0.05-0.11-0.1-0.22-0.15-0.33l0.01,0.03c-0.03-0.17-0.07-0.35-0.1-0.52c-0.67-1.6-1.35-3.2-2-4.8c-1.22-3.02-1.8-6.19-2.25-9.4
		c-0.39-2.74-0.72-5.47-0.68-8.24c0.02-1.34,0.01-1.36,1.23-1.76c6.16-2.06,12.1-4.6,17.92-7.5c5.94-2.96,11.63-6.28,16.64-10.64
		c8.39-7.3,14.42-16.39,19.47-26.19c0.24-0.46,0.36-0.98,0.65-1.4c0.55-0.81,0.95-0.76,1.66-0.05c0.35,0.35,0.52,0.77,0.73,1.18
		c2.14,4.24,4.53,8.33,7.22,12.25c4.66,6.8,10.04,12.92,16.84,17.68c6.94,4.86,14.5,8.55,22.3,11.76c2.58,1.06,5.19,2.06,7.81,3.05
		c1.24,0.47,1.24,0.42,1.24,1.76c0,4.75-0.74,9.4-2.07,13.94c-0.82,2.81-1.6,5.64-2.9,8.29C130.53,142.6,130.47,142.88,130.73,143.2
		z"/>
	<path class="st1" d="M130.85,142.35c1.3-2.65,2.08-5.48,2.9-8.29c1.33-4.54,2.07-9.19,2.07-13.94c0-1.34,0-1.29-1.24-1.76
		c-2.61-0.99-5.22-1.99-7.81-3.05c-7.8-3.22-15.36-6.9-22.3-11.76c-6.8-4.77-12.18-10.88-16.84-17.68
		c-2.68-3.92-5.08-8.01-7.22-12.25c-0.21-0.41-0.38-0.82-0.73-1.18c-0.71-0.71-1.11-0.77-1.66,0.05c-0.28,0.42-0.41,0.94-0.65,1.4
		c-5.05,9.8-11.08,18.89-19.47,26.19c-5.01,4.36-10.71,7.68-16.64,10.64c-5.81,2.9-11.76,5.44-17.92,7.5
		c-1.22,0.41-1.21,0.43-1.23,1.76c-0.04,2.77,0.3,5.51,0.68,8.24c0.45,3.2,1.03,6.38,2.25,9.4c0.65,1.61,1.33,3.2,2,4.8
		c-0.14-0.01-0.28-0.01-0.42-0.02c-2.32-2.7-4.26-5.66-6.02-8.74c-0.71-1.24-1.39-2.5-2.1-3.74c-0.58-1.01-0.86-2.18-1.31-3.27
		c-1.16-2.82-2.19-5.69-2.98-8.65c-0.49-1.84-0.9-3.71-1.38-5.55c-0.28-1.06-0.18-2.26-0.31-3.4c-0.66-5.82-0.7-11.64,0.12-17.46
		c0.17-1.23,0.13-2.47,0.37-3.71c0.2-1,0.5-2.01,0.8-2.93c0.6-1.85,0.98-3.76,1.6-5.61c0.82-2.42,1.93-4.69,2.89-7.04
		c1.27-3.1,3.12-5.88,4.82-8.73c1.07-1.8,2.52-3.36,3.81-5.03c0.76-0.98,1.69-1.82,2.31-2.92c0.27-0.48,0.72-0.92,1.19-1.23
		c0.75-0.48,1.27-1.11,1.81-1.81c1.28-1.64,3.19-2.6,4.65-4.06c0.52-0.52,0.99-0.13,1.21,0.4c0.36,0.89,0.7,1.8,0.94,2.73
		c0.66,2.49,1.47,4.94,2.25,7.39c0.31,0.54,0.83,0.28,1.24,0.28c23.15,0.02,46.29,0.02,69.44,0.01c0.45,0,0.94,0.18,1.34-0.21
		c1.43-4.06,2.89-8.11,4.01-12.27c0.16-0.58,0.56-0.71,1.02-0.3c3.25,2.93,6.84,5.45,9.79,8.73c3.38,3.77,6.42,7.76,8.92,12.17
		c1.41,2.48,2.74,5,3.75,7.67c1.41,3.72,2.6,7.5,3.49,11.4c1.29,5.65,1.71,11.34,1.54,17.11c-0.11,3.63-0.75,7.17-1.4,10.72
		c-0.5,2.73-1.17,5.43-2.16,8c-1.38,3.61-2.73,7.23-4.8,10.58c-1.71,2.77-3.54,5.46-5.23,8.23c-0.27,0.44-0.64,0.82-0.96,1.22
		C131.16,142.38,131.01,142.37,130.85,142.35z"/>
	<path d="M119.83,192.51c9.86,2.27,17.4,7.79,22.61,16.43c3.18,5.28,4.66,11.07,4.89,17.21c0.04,1.02-0.26,1.77-0.94,2.51
		c-4.14,4.48-8.93,8.14-14.16,11.24c-9.62,5.69-20.04,9.19-31.03,11.09c-3.34,0.58-6.7,0.98-10.07,1.3
		c-0.91-0.03-1.82-0.07-2.71,0.19c-0.87,0.04-1.75,0.08-2.62,0.12c-2.99,0.01-5.98,0.03-8.97,0.05c-2.55-0.15-5.11-0.18-7.64-0.47
		c-0.56-0.26-1.16-0.22-1.76-0.18c-2.79-0.36-5.62-0.5-8.35-1.11c-6.09-1.37-12.15-2.88-17.95-5.28
		c-7.81-3.23-15.06-7.37-21.37-13.06c-1.39-1.26-2.69-2.62-3.96-4c-0.6-0.66-0.86-1.34-0.84-2.24c0.11-4.69,1.06-9.2,2.9-13.52
		c1.23-2.88,2.88-5.49,4.79-7.96c4.81-6.21,11.19-9.96,18.64-12.07c0.4-0.11,0.8-0.2,1.2-0.29c0.25,0.59,0.67,1.04,1.1,1.51
		c1.02,1.11,2.02,2.24,3.02,3.38c2.67,3.06,5.32,6.13,8,9.19c2.54,2.9,5.11,5.77,7.65,8.67c3.25,3.72,6.48,7.48,9.73,11.2
		c2.67,3.06,5.37,6.1,8.04,9.15c0.65,0.74,0.66,0.74,1.27,0.05c1.97-2.22,3.93-4.45,5.91-6.66c3.5-3.92,7.01-7.84,10.52-11.76
		c4.41-4.93,8.82-9.86,13.23-14.79C113.92,199.11,116.88,195.81,119.83,192.51z"/>
	<path class="st2" d="M119.83,192.51c-2.95,3.3-5.91,6.6-8.86,9.89c-4.41,4.93-8.82,9.86-13.23,14.79
		c-3.51,3.92-7.01,7.84-10.52,11.76c-1.98,2.21-3.94,4.44-5.91,6.66c-0.61,0.69-0.63,0.69-1.27-0.05c-2.68-3.05-5.37-6.09-8.04-9.15
		c-3.25-3.73-6.47-7.48-9.73-11.2c-2.54-2.9-5.11-5.77-7.65-8.67c-2.68-3.05-5.33-6.13-8-9.19c-0.99-1.14-2-2.27-3.02-3.38
		c-0.43-0.46-0.84-0.92-1.1-1.51c0.73-0.14,1.46-0.29,2.18-0.43c0.55,0.09,1.08,0.03,1.57-0.25c0.41-0.02,0.82-0.05,1.23-0.07
		c3.8,0.01,7.6,0.08,11.4,0c1.22-0.02,2.03,0.38,2.8,1.27c3.2,3.71,6.44,7.38,9.67,11.06c2.78,3.17,5.55,6.35,8.35,9.5
		c0.9,1.01,0.96,1.01,1.91-0.01c3.9-4.19,7.67-8.49,11.43-12.8c2.36-2.71,4.74-5.4,7.07-8.14c0.57-0.67,1.18-0.88,2.02-0.87
		c4.22,0.03,8.44,0,12.66,0c0.42,0.02,0.83,0.04,1.25,0.05c0.49,0.28,1.02,0.33,1.57,0.24C118.37,192.2,119.1,192.36,119.83,192.51z
		"/>
	<path class="st2" d="M39.78,59.39c0,0-7.16-27.34-7.16-29.39s0.53-2.85,2.58-3.92c2.05-1.07,35.17-16.21,38.91-17.1
		c3.74-0.89,5.16-0.8,9.17,0.53S117.57,24.84,120.24,26c2.67,1.16,3.74,2.14,2.58,5.79c-1.16,3.65-9.17,27.6-9.17,27.6H39.78z"/>
	<path class="st3" d="M77.71,52.37c-1.3,0-2.61-0.03-3.91,0.01c-0.75,0.03-1.01-0.25-1-0.99c0.03-1.88,0.01-3.75,0.01-5.63
		c0-1.94,0.14-1.72-1.8-1.72c-1.72-0.01-3.44,0-5.16,0c-1.39-0.01-1.4-0.01-1.4-1.33c-0.01-2.35-0.01-4.69,0-7.04
		c0-1.39,0.01-1.4,1.49-1.4c1.82-0.01,3.65,0,5.47,0c1.38-0.01,1.39-0.01,1.4-1.34c0.01-1.98,0.03-3.96-0.01-5.94
		c-0.01-0.78,0.19-1.12,1.05-1.1c2.55,0.05,5.11,0.01,7.66,0.02c1.07,0.01,1.09,0.03,1.1,1.17c0.02,1.77,0,3.54,0.01,5.32
		c0.01,2.14-0.21,1.86,1.96,1.88c1.77,0.01,3.55,0.03,5.32-0.01c0.81-0.02,1.09,0.25,1.08,1.07c-0.04,2.55-0.04,5.11,0,7.66
		c0.01,0.83-0.28,1.08-1.08,1.06c-1.88-0.04-3.75-0.02-5.63-0.01c-1.71,0-1.64-0.16-1.64,1.57c0,1.88,0.01,3.75,0,5.63
		c-0.01,1.1-0.03,1.11-1.14,1.13C80.22,52.38,78.97,52.37,77.71,52.37z"/>
	<path class="st4" d="M76.84,252.64c2.99-0.02,5.98-0.03,8.97-0.05c-1.06,0.36-2.16,0.18-3.23,0.18
		C80.66,252.78,78.74,252.96,76.84,252.64z"/>
	<path class="st4" d="M88.43,252.48c0.89-0.26,1.8-0.22,2.71-0.19C90.25,252.62,89.33,252.48,88.43,252.48z"/>
	<path class="st4" d="M67.44,252c0.6-0.04,1.19-0.08,1.76,0.18C68.6,252.17,68,252.31,67.44,252z"/>
	<path class="st5" d="M130.85,142.35c0.15,0.01,0.3,0.02,0.45,0.04c-0.19,0.27-0.38,0.54-0.57,0.81
		C130.47,142.88,130.53,142.6,130.85,142.35z"/>
	<path class="st4" d="M46.26,191.8c-0.49,0.28-1.02,0.33-1.57,0.25C45.16,191.64,45.72,191.74,46.26,191.8z"/>
	<path class="st4" d="M117.64,192.04c-0.55,0.08-1.08,0.04-1.57-0.24C116.61,191.74,117.16,191.64,117.64,192.04z"/>
	<path class="st5" d="M26.62,142.41c0.14,0.01,0.28,0.01,0.42,0.02c0.04,0.18,0.07,0.35,0.1,0.52
		C26.85,142.89,26.73,142.66,26.62,142.41z"/>
	<path class="st5" d="M27.14,142.93c0.05,0.11,0.1,0.22,0.15,0.33C27.24,143.15,27.19,143.04,27.14,142.93z"/>
	<g>
		<path d="M78.89,135.26c0.62-0.69,1.16-1.44,1.85-2.01c1.57-1.3,3.42-1.54,5.37-1.11c2.72,0.59,5,2.06,7.21,3.66
			c1.92,1.4,3.8,2.86,5.72,4.26c0.52,0.38,1.11,0.68,1.71,0.92c0.38,0.15,0.86,0.22,1.26,0.16c1.45-0.23,1.87-1.31,1.01-2.48
			c-0.24-0.33-0.55-0.67-0.61-1.04c-0.06-0.38,0.05-0.88,0.28-1.18c0.14-0.19,0.69-0.21,0.98-0.11c1.64,0.55,2.76,1.73,3.54,3.21
			c1.63,3.08,0.67,6.7-2.28,8.95c-1.76,1.34-3.79,1.99-5.94,2.22c-5.74,0.6-11.1-0.56-15.97-3.71c-1.74-1.13-3.15-2.59-3.99-4.47
			c-0.64,0.87-1.2,1.83-1.94,2.61c-2.4,2.54-5.48,3.92-8.8,4.82c-3.82,1.04-7.67,1.35-11.55,0.33c-3.09-0.81-5.42-2.56-6.51-5.66
			c-1.08-3.07,0.64-6.9,3.66-8.18c0.46-0.19,0.98-0.46,1.4,0.03c0.46,0.52,0.37,1.11,0,1.66c-0.21,0.32-0.46,0.61-0.67,0.93
			c-0.42,0.63-0.35,0.99,0.22,1.5c0.8,0.71,1.71,0.85,2.6,0.31c1.33-0.81,2.63-1.67,3.88-2.6c2.45-1.82,4.79-3.79,7.57-5.11
			c1.66-0.79,3.38-1.36,5.28-1.16c1.96,0.21,3.39,1.23,4.46,2.83C78.74,134.99,78.83,135.15,78.89,135.26z"/>
	</g>
</g>
<g>
	<path class="st1" d="M560.79,429.29c0,0,2.81,23.38-2.39,45.01c-5.2,21.63-8.12,35.61-3.25,44.38
		c4.87,8.77,13.65,15.27,13.65,15.27s-6.81-0.66-11.05,0s-4.24,0.66-4.24,0.66s-15.56-8.65-26.57-8.38
		c-11.01,0.27-48.33,0.23-56.4,0.73c-8.07,0.51-11.96,1.9-20.02,2.93c-11.48,1.47-19.19,3.08-19.19,3.08s5.69-4.83,9.38-12.63
		c4.35-9.21-3.57-29.73-6.39-43.96c-6.51-32.89-7.3-42.99-7.3-42.99L560.79,429.29z"/>
	<path class="st0" d="M545.72,474.25c-1.47,2.02-2.48,4.32-3.84,6.41c-1.53,2.37-3.17,4.65-5.03,6.75
		c-5.57,6.26-12.09,11.29-19.8,14.66c-0.74,0.32-1.04,0.68-1.04,1.48c0.02,5.94,0.01,11.88,0.02,17.82c0,1.09-0.19,1.75,0.94,1.75
		c3.65,0.02,7.65,0.12,11.3,0.14c0.55,0,1.21-0.17,1.7,0.26c-4.22,0.01-8.62-0.7-12.83-0.73c-0.84-0.01-1.46,0.2-2.02,0.87
		c-2.33,2.74-4.71,5.43-7.07,8.14c-3.76,4.31-7.53,8.61-11.43,12.8c-0.95,1.02-1.01,1.03-1.91,0.01c-2.8-3.15-5.57-6.33-8.35-9.5
		c-3.23-3.68-6.47-7.35-9.67-11.06c-0.77-0.89-1.58-1.3-2.8-1.27c-3.8,0.08-7.79,0.76-11.59,0.74c0.51-0.39,1.76,1.03,2.31,1.02
		c3.28-0.02,6.85-0.47,10.13-0.49c1.35,0,0.89-0.54,0.62-2.95c0.01-5.31-0.02-10.63,0.03-15.94c0.01-0.94-0.3-1.37-1.17-1.69
		c-4.26-1.58-8.31-3.59-12.07-6.15c-8.13-5.52-14.45-12.64-18.91-21.41c-0.28-0.55-0.63-1.07-0.95-1.61
		c-0.05-0.11-0.1-0.22-0.15-0.33l0.01,0.03c-0.03-0.17-0.07-0.35-0.1-0.52c-0.67-1.6-1.35-3.2-2-4.8c-1.22-3.02-1.8-6.19-2.25-9.4
		c-0.39-2.74-0.72-5.47-0.68-8.24c0.02-1.34,0.01-1.36,1.23-1.76c6.16-2.06,12.1-4.6,17.92-7.5c5.94-2.96,11.63-6.28,16.64-10.64
		c8.39-7.3,14.42-16.39,19.47-26.19c0.24-0.46,0.36-0.98,0.65-1.4c0.55-0.81,0.95-0.76,1.66-0.05c0.35,0.35,0.52,0.77,0.73,1.18
		c2.14,4.24,4.53,8.33,7.22,12.25c4.66,6.8,10.04,12.92,16.84,17.68c6.94,4.86,14.5,8.55,22.3,11.76c2.58,1.06,5.19,2.06,7.81,3.05
		c1.24,0.47,1.24,0.42,1.24,1.76c0,4.75-0.74,9.4-2.07,13.94c-0.82,2.81-1.6,5.64-2.9,8.29
		C545.51,473.64,545.45,473.92,545.72,474.25z"/>
	<path class="st1" d="M545.83,473.4c1.3-2.65,2.08-5.48,2.9-8.29c1.33-4.54,2.07-9.19,2.07-13.94c0-1.34,0-1.29-1.24-1.76
		c-2.61-0.99-5.22-1.99-7.81-3.05c-7.8-3.22-15.36-6.9-22.3-11.76c-6.8-4.77-12.18-10.88-16.84-17.68
		c-2.68-3.92-5.08-8.01-7.22-12.25c-0.21-0.41-0.38-0.82-0.73-1.18c-0.71-0.71-1.11-0.77-1.66,0.05c-0.28,0.42-0.41,0.94-0.65,1.4
		c-5.05,9.8-11.08,18.89-19.47,26.19c-5.01,4.36-10.71,7.68-16.64,10.64c-5.81,2.9-11.76,5.44-17.92,7.5
		c-1.22,0.41-1.21,0.43-1.23,1.76c-0.04,2.77,0.3,5.51,0.68,8.24c0.45,3.2,1.03,6.38,2.25,9.4c0.65,1.61,1.33,3.2,2,4.8
		c-0.14-0.01-0.28-0.01-0.42-0.02c-2.32-2.7-4.26-5.66-6.02-8.74c-0.71-1.24-1.39-2.5-2.1-3.74c-0.58-1.01-0.86-2.18-1.31-3.27
		c-1.16-2.82-0.76-3.79-1.55-6.75c-0.49-1.84-1.14-4-1.62-5.84c-0.28-1.06-1.8-9.12-1.93-10.26c-0.66-5.82-0.28-6.4,0.54-12.22
		c0.17-1.23,0.13-2.47,0.37-3.71c0.2-1,0.5-2.01,0.8-2.93c0.6-1.85,0.98-3.76,1.6-5.61c0.82-2.42,1.93-4.69,2.89-7.04
		c1.27-3.1,3.12-5.88,4.82-8.73c1.07-1.8,2.52-3.36,3.81-5.03c0.76-0.98,1.69-1.82,2.31-2.92c0.27-0.48,0.72-0.92,1.19-1.23
		c0.75-0.48,1.27-1.11,1.81-1.81c1.28-1.64,3.19-2.6,4.65-4.06c0.52-0.52,0.99-0.13,1.21,0.4c0.36,0.89,0.7,1.8,0.94,2.73
		c0.66,2.49,1.47,4.94,2.25,7.39c0.31,0.54,0.83,0.28,1.24,0.28c23.15,0.02,46.29,0.02,69.44,0.01c0.45,0,0.94,0.18,1.34-0.21
		c1.43-4.06,2.89-8.11,4.01-12.27c0.16-0.58,0.56-0.71,1.02-0.3c3.25,2.93,6.84,5.45,9.79,8.73c3.38,3.77,6.42,7.76,8.92,12.17
		c1.41,2.48,2.74,5,3.75,7.67c1.41,3.72,2.6,7.5,3.49,11.4c1.29,5.65,1.71,11.34,1.54,17.11c-0.11,3.63-0.75,7.17-1.4,10.72
		c-0.5,2.73-1.17,5.43-2.16,8c-1.38,3.61-2.73,7.23-4.8,10.58c-1.71,2.77-3.54,5.46-5.23,8.23c-0.27,0.44-0.64,0.82-0.96,1.22
		C546.14,473.43,545.99,473.41,545.83,473.4z"/>
	<path d="M534.81,523.56c9.86,2.27,17.4,7.79,22.61,16.43c3.18,5.28,4.66,11.07,4.89,17.21c0.04,1.02-0.26,1.77-0.94,2.51
		c-4.14,4.48-8.93,8.14-14.16,11.24c-9.62,5.69-20.04,9.19-31.03,11.09c-3.34,0.58-6.7,0.98-10.07,1.3
		c-0.91-0.03-1.82-0.07-2.71,0.19c-0.87,0.04-1.75,0.08-2.62,0.12c-2.99,0.01-5.98,0.03-8.97,0.05c-2.55-0.15-5.11-0.18-7.64-0.47
		c-0.56-0.26-1.16-0.22-1.76-0.18c-2.79-0.36-5.62-0.5-8.35-1.11c-6.09-1.37-12.15-2.88-17.95-5.28
		c-7.81-3.23-15.06-7.37-21.37-13.06c-1.39-1.26-2.69-2.62-3.96-4c-0.6-0.66-0.86-1.34-0.84-2.24c0.11-4.69,1.06-9.2,2.9-13.52
		c1.23-2.88,2.88-5.49,4.79-7.96c4.81-6.21,11.19-9.96,18.64-12.07c0.4-0.11,0.8-0.2,1.2-0.29c0.25,0.59,0.67,1.04,1.1,1.51
		c1.02,1.11,2.02,2.24,3.02,3.38c2.67,3.06,5.32,6.13,8,9.19c2.54,2.9,5.11,5.77,7.65,8.67c3.25,3.72,6.48,7.48,9.73,11.2
		c2.67,3.06,5.37,6.1,8.04,9.15c0.65,0.74,0.66,0.74,1.27,0.05c1.97-2.22,3.93-4.45,5.91-6.66c3.5-3.92,7.01-7.84,10.52-11.76
		c4.41-4.93,8.82-9.86,13.23-14.79C528.9,530.15,531.86,526.86,534.81,523.56z"/>
	<path class="st2" d="M534.81,523.56c-2.95,3.3-5.91,6.6-8.86,9.89c-4.41,4.93-8.82,9.86-13.23,14.79
		c-3.51,3.92-7.01,7.84-10.52,11.76c-1.98,2.21-3.94,4.44-5.91,6.66c-0.61,0.69-0.63,0.69-1.27-0.05c-2.68-3.05-5.37-6.09-8.04-9.15
		c-3.25-3.73-6.47-7.48-9.73-11.2c-2.54-2.9-5.11-5.77-7.65-8.67c-2.68-3.05-5.33-6.13-8-9.19c-0.99-1.14-2-2.27-3.02-3.38
		c-0.43-0.46-0.84-0.92-1.1-1.51c0.73-0.14,1.46-0.29,2.18-0.43c0.55,0.09,1.08,0.03,1.57-0.25c0.41-0.02,0.82-0.05,1.23-0.07
		c3.8,0.01,7.6,0.08,11.4,0c1.22-0.02,2.03,0.38,2.8,1.27c3.2,3.71,6.44,7.38,9.67,11.06c2.78,3.17,5.55,6.35,8.35,9.5
		c0.9,1.01,0.96,1.01,1.91-0.01c3.9-4.19,7.67-8.49,11.43-12.8c2.36-2.71,4.74-5.4,7.07-8.14c0.57-0.67,1.18-0.88,2.02-0.87
		c4.22,0.03,8.44,0,12.66,0c0.42,0.02,0.83,0.04,1.25,0.05c0.49,0.28,1.02,0.33,1.57,0.24C533.35,523.25,534.08,523.4,534.81,523.56
		z"/>
	<path class="st2" d="M454.76,390.44c0,0-7.16-27.34-7.16-29.39c0-2.05,0.53-2.85,2.58-3.92c2.05-1.07,35.17-16.21,38.91-17.1
		s5.16-0.8,9.17,0.53c4.01,1.34,34.28,15.32,36.95,16.47c2.67,1.16,3.74,2.14,2.58,5.79c-1.16,3.65-9.17,27.6-9.17,27.6H454.76z"/>
	<path class="st3" d="M492.69,383.41c-1.3,0-2.61-0.03-3.91,0.01c-0.75,0.03-1.01-0.25-1-0.99c0.03-1.88,0.01-3.75,0.01-5.63
		c0-1.94,0.14-1.72-1.8-1.72c-1.72-0.01-3.44,0-5.16,0c-1.39-0.01-1.4-0.01-1.4-1.33c-0.01-2.35-0.01-4.69,0-7.04
		c0-1.39,0.01-1.4,1.49-1.4c1.82-0.01,3.65,0,5.47,0c1.38-0.01,1.39-0.01,1.4-1.34c0.01-1.98,0.03-3.96-0.01-5.94
		c-0.01-0.78,0.19-1.12,1.05-1.1c2.55,0.05,5.11,0.01,7.66,0.02c1.07,0.01,1.09,0.03,1.1,1.17c0.02,1.77,0,3.54,0.01,5.32
		c0.01,2.14-0.21,1.86,1.96,1.88c1.77,0.01,3.55,0.03,5.32-0.01c0.81-0.02,1.09,0.25,1.08,1.07c-0.04,2.55-0.04,5.11,0,7.66
		c0.01,0.83-0.28,1.08-1.08,1.06c-1.88-0.04-3.75-0.02-5.63-0.01c-1.71,0-1.64-0.16-1.64,1.57c0,1.88,0.01,3.75,0,5.63
		c-0.01,1.1-0.03,1.11-1.14,1.13C495.2,383.43,493.95,383.41,492.69,383.41z"/>
	<path class="st4" d="M491.82,583.69c2.99-0.02,5.98-0.03,8.97-0.05c-1.06,0.36-2.16,0.18-3.23,0.18
		C495.64,583.82,493.73,584,491.82,583.69z"/>
	<path class="st4" d="M503.41,583.53c0.89-0.26,1.8-0.22,2.71-0.19C505.23,583.67,504.31,583.53,503.41,583.53z"/>
	<path class="st4" d="M482.42,583.04c0.6-0.04,1.19-0.08,1.76,0.18C483.58,583.21,482.98,583.36,482.42,583.04z"/>
	<path class="st5" d="M545.83,473.4c0.15,0.01,0.3,0.02,0.45,0.04c-0.19,0.27-0.38,0.54-0.57,0.81
		C545.45,473.92,545.51,473.64,545.83,473.4z"/>
	<path class="st4" d="M461.24,522.84c-0.49,0.28-1.02,0.33-1.57,0.25C460.14,522.69,460.7,522.79,461.24,522.84z"/>
	<path class="st4" d="M532.62,523.09c-0.55,0.08-1.08,0.04-1.57-0.24C531.59,522.79,532.14,522.69,532.62,523.09z"/>
	<path class="st5" d="M441.6,473.46c0.14,0.01,0.28,0.01,0.42,0.02c0.04,0.18,0.07,0.35,0.1,0.52
		C441.84,473.93,441.71,473.71,441.6,473.46z"/>
	<path class="st5" d="M442.12,473.97c0.05,0.11,0.1,0.22,0.15,0.33C442.22,474.19,442.17,474.08,442.12,473.97z"/>
</g>
<g>
	<g>
		<path class="st0" d="M392.76,741.81c-1.47,2.02-2.48,4.32-3.84,6.41c-1.53,2.37-3.17,4.65-5.03,6.75
			c-5.57,6.26-12.09,11.29-19.8,14.66c-0.74,0.32-1.04,0.68-1.04,1.48c0.02,5.94,0.01,11.88,0.02,17.82c0,1.09,0.04,1.12,1.17,1.13
			c3.65,0.02,7.3,0,10.94,0.02c0.55,0,1.16-0.16,1.65,0.27c-4.22,0.01-8.44,0.03-12.66,0c-0.84-0.01-1.46,0.2-2.02,0.87
			c-2.33,2.74-4.71,5.43-7.07,8.14c-3.76,4.31-7.53,8.61-11.43,12.8c-0.95,1.02-1.01,1.03-1.91,0.01c-2.8-3.15-5.57-6.33-8.35-9.5
			c-3.23-3.68-6.47-7.35-9.67-11.06c-0.77-0.89-1.58-1.3-2.8-1.27c-3.8,0.08-7.6,0.01-11.4,0c0.51-0.39,1.1-0.25,1.66-0.25
			c3.28-0.02,6.56,0,9.85-0.02c1.35,0,1.37-0.02,1.37-1.4c0.01-5.31-0.02-10.63,0.03-15.94c0.01-0.94-0.3-1.37-1.17-1.69
			c-4.26-1.58-8.31-3.59-12.07-6.15c-8.13-5.52-14.45-12.64-18.91-21.41c-0.28-0.55-0.63-1.07-0.95-1.61
			c-0.05-0.11-0.1-0.22-0.15-0.33l0.01,0.03c-0.03-0.17-0.07-0.35-0.1-0.52c-0.67-1.6-1.35-3.2-2-4.8c-1.22-3.02-1.8-6.19-2.25-9.4
			c-0.39-2.74-0.72-5.47-0.68-8.24c0.02-1.34,0.01-1.36,1.23-1.76c6.16-2.06,12.1-4.6,17.92-7.5c5.94-2.96,11.63-6.28,16.64-10.64
			c8.39-7.3,14.42-16.39,19.47-26.19c0.24-0.46,0.36-0.98,0.65-1.4c0.55-0.81,0.95-0.76,1.66-0.05c0.35,0.35,0.52,0.77,0.73,1.18
			c2.14,4.24,4.53,8.33,7.22,12.25c4.66,6.8,10.04,12.92,16.84,17.68c6.94,4.86,14.5,8.55,22.3,11.76c2.58,1.06,5.19,2.06,7.81,3.05
			c1.24,0.47,1.24,0.42,1.24,1.76c0,4.75-0.74,9.4-2.07,13.94c-0.82,2.81-1.6,5.64-2.9,8.29
			C392.55,741.21,392.49,741.49,392.76,741.81z"/>
		<path class="st1" d="M390.16,653.9c3.38,3.77,6.42,7.76,8.92,12.17c1.41,2.48,2.74,5,3.75,7.67c1.41,3.72,2.6,7.5,3.49,11.4
			c1.29,5.65,1.71,11.34,1.54,17.11c-0.11,3.63-0.75,7.17-1.4,10.72c-0.5,2.73-1.17,5.43-2.16,8c-1.38,3.61-2.73,7.23-4.8,10.58
			c-1.71,2.77-3.54,5.46-5.23,8.23c-0.27,0.44-0.64,0.82-0.96,1.22c-0.15-0.01-0.3-0.03-0.45-0.04c1.3-2.65,2.08-5.48,2.9-8.29
			c1.33-4.54,2.07-9.19,2.07-13.94c0-1.34,0-1.29-1.24-1.76c-2.61-0.99-5.22-1.99-7.81-3.05c-7.8-3.22-15.36-6.9-22.3-11.76
			c-6.8-4.77-12.18-10.88-16.84-17.68c-2.68-3.92-5.08-8.01-7.22-12.25c-0.21-0.41-0.38-0.82-0.73-1.18
			c-0.71-0.71-1.11-0.77-1.66,0.05c-0.28,0.42-0.41,0.94-0.65,1.4c-5.05,9.8-11.08,18.89-19.47,26.19
			c-5.01,4.36-10.71,7.68-16.64,10.64c-5.81,2.9-11.76,5.44-17.92,7.5c-1.22,0.41-1.21,0.43-1.23,1.76
			c-0.04,2.77,0.3,5.51,0.68,8.24c0.45,3.21,1.03,6.38,2.25,9.4c0.65,1.61,1.33,3.2,2,4.8c-0.14-0.01-0.28-0.01-0.42-0.02
			c-2.32-2.7-4.26-5.66-6.02-8.74c-0.71-1.24-1.39-2.5-2.1-3.74c-0.58-1.01-0.86-2.18-1.31-3.27c-1.16-2.82-2.19-5.69-2.98-8.65
			c-0.49-1.84-0.9-3.71-1.38-5.55c-0.28-1.06-0.18-2.26-0.31-3.4c-0.66-5.82-0.7-11.64,0.12-17.46c0.17-1.23,0.13-2.47,0.37-3.71
			c0.2-1,0.5-2.01,0.8-2.93c0.6-1.85,0.98-3.76,1.6-5.61c0.82-2.42,1.93-4.69,2.89-7.04c1.27-3.1,3.12-5.88,4.82-8.73
			c1.07-1.8,2.52-3.36,3.81-5.03c0.76-0.98,1.69-1.82,2.31-2.92c0.27-0.48,0.72-0.92,1.19-1.23c0.75-0.48,0.79-0.79,1.81-1.81
			C301.03,644.49,340.97,615.22,390.16,653.9z"/>
		<path d="M381.85,791.12c9.86,2.27,17.4,7.79,22.61,16.43c3.18,5.28,4.66,11.07,4.89,17.21c0.04,1.02-0.26,1.77-0.94,2.51
			c-4.14,4.48-8.93,8.14-14.16,11.24c-9.62,5.69-20.04,9.19-31.03,11.09c-3.34,0.58-6.7,0.98-10.07,1.3
			c-0.91-0.03-1.82-0.07-2.71,0.19c-0.87,0.04-1.75,0.08-2.62,0.12c-2.99,0.01-5.98,0.03-8.97,0.05c-2.55-0.15-5.11-0.18-7.64-0.47
			c-0.56-0.26-1.16-0.22-1.76-0.18c-2.79-0.36-5.62-0.5-8.35-1.11c-6.09-1.37-12.15-2.88-17.95-5.28
			c-7.81-3.23-15.06-7.37-21.37-13.06c-1.39-1.26-2.69-2.62-3.96-4c-0.6-0.66-0.86-1.34-0.84-2.24c0.11-4.69,1.06-9.2,2.9-13.52
			c1.23-2.88,2.88-5.49,4.79-7.96c4.81-6.21,11.19-9.96,18.64-12.07c0.4-0.11,0.8-0.2,1.2-0.29c0.25,0.59,0.67,1.04,1.1,1.51
			c1.02,1.11,2.02,2.24,3.02,3.38c2.67,3.06,5.32,6.13,8,9.19c2.54,2.9,5.11,5.77,7.65,8.67c3.25,3.72,6.48,7.48,9.73,11.2
			c2.67,3.06,5.37,6.1,8.04,9.15c0.65,0.74,0.66,0.74,1.27,0.05c1.97-2.22,3.93-4.45,5.91-6.66c3.5-3.92,7.01-7.84,10.52-11.76
			c4.41-4.93,8.82-9.86,13.23-14.79C375.94,797.72,378.9,794.42,381.85,791.12z"/>
		<path class="st2" d="M381.85,791.12c-2.95,3.3-5.91,6.6-8.86,9.89c-4.41,4.93-8.82,9.86-13.23,14.79
			c-3.51,3.92-7.01,7.84-10.52,11.76c-1.98,2.21-3.94,4.44-5.91,6.66c-0.61,0.69-0.63,0.69-1.27-0.05
			c-2.68-3.05-5.37-6.09-8.04-9.15c-3.25-3.73-6.47-7.48-9.73-11.2c-2.54-2.9-5.11-5.77-7.65-8.67c-2.68-3.05-5.33-6.13-8-9.19
			c-0.99-1.14-2-2.27-3.02-3.38c-0.43-0.46-0.84-0.92-1.1-1.51c0.73-0.14,1.46-0.29,2.18-0.43c0.55,0.09,1.08,0.03,1.57-0.25
			c0.41-0.02,0.82-0.05,1.23-0.07c3.8,0.01,7.6,0.08,11.4,0c1.22-0.02,2.03,0.38,2.8,1.27c3.2,3.71,6.44,7.38,9.67,11.06
			c2.78,3.17,5.55,6.35,8.35,9.5c0.9,1.01,0.96,1.01,1.91-0.01c3.9-4.19,7.67-8.49,11.43-12.8c2.36-2.71,4.74-5.4,7.07-8.14
			c0.57-0.67,1.18-0.88,2.02-0.87c4.22,0.03,8.44,0,12.66,0c0.42,0.02,0.83,0.04,1.25,0.05c0.49,0.28,1.02,0.33,1.57,0.24
			C380.39,790.81,381.12,790.97,381.85,791.12z"/>
		<path class="st4" d="M338.86,851.25c2.99-0.02,5.98-0.03,8.97-0.05c-1.06,0.36-2.16,0.18-3.23,0.18
			C342.69,851.39,340.77,851.57,338.86,851.25z"/>
		<path class="st4" d="M350.45,851.09c0.89-0.26,1.8-0.22,2.71-0.19C352.27,851.23,351.35,851.09,350.45,851.09z"/>
		<path class="st4" d="M329.46,850.61c0.6-0.04,1.19-0.08,1.76,0.18C330.63,850.78,330.02,850.92,329.46,850.61z"/>
		<path class="st5" d="M392.88,740.97c0.15,0.01,0.3,0.02,0.45,0.04c-0.19,0.27-0.38,0.54-0.57,0.81
			C392.49,741.49,392.55,741.21,392.88,740.97z"/>
		<path class="st4" d="M308.28,790.41c-0.49,0.28-1.02,0.33-1.57,0.25C307.19,790.25,307.74,790.35,308.28,790.41z"/>
		<path class="st4" d="M379.66,790.65c-0.55,0.08-1.08,0.04-1.57-0.24C378.63,790.35,379.18,790.25,379.66,790.65z"/>
		<path class="st5" d="M288.64,741.02c0.14,0.01,0.28,0.01,0.42,0.02c0.04,0.18,0.07,0.35,0.1,0.52
			C288.88,741.5,288.75,741.27,288.64,741.02z"/>
		<path class="st5" d="M289.16,741.54c0.05,0.11,0.1,0.22,0.15,0.33C289.27,741.76,289.21,741.65,289.16,741.54z"/>
		<g>
			<path d="M340.91,733.87c0.62-0.69,1.16-1.44,1.85-2.01c1.57-1.3,3.42-1.54,5.37-1.11c2.72,0.59,5,2.06,7.21,3.66
				c1.92,1.4,3.8,2.86,5.72,4.26c0.52,0.38,1.11,0.68,1.71,0.92c0.38,0.15,0.86,0.22,1.26,0.16c1.45-0.23,1.87-1.31,1.01-2.48
				c-0.24-0.33-0.55-0.67-0.61-1.04c-0.06-0.38,0.05-0.88,0.28-1.18c0.14-0.19,0.69-0.21,0.98-0.11c1.64,0.55,2.76,1.73,3.54,3.21
				c1.63,3.08,0.67,6.7-2.29,8.95c-1.76,1.34-3.79,1.99-5.94,2.22c-5.74,0.6-11.1-0.56-15.97-3.71c-1.74-1.13-3.15-2.59-3.99-4.47
				c-0.64,0.87-1.2,1.83-1.94,2.61c-2.4,2.54-5.48,3.92-8.8,4.82c-3.82,1.04-7.67,1.35-11.55,0.33c-3.09-0.81-5.42-2.56-6.51-5.66
				c-1.08-3.07,0.64-6.9,3.66-8.18c0.46-0.19,0.98-0.46,1.4,0.03c0.46,0.52,0.37,1.11,0,1.66c-0.21,0.32-0.46,0.61-0.67,0.93
				c-0.42,0.63-0.35,0.99,0.22,1.5c0.8,0.71,1.71,0.85,2.6,0.31c1.33-0.81,2.63-1.67,3.88-2.6c2.45-1.82,4.79-3.79,7.57-5.11
				c1.66-0.79,3.38-1.36,5.28-1.16c1.96,0.21,3.39,1.23,4.46,2.83C340.76,733.6,340.85,733.76,340.91,733.87z"/>
		</g>
	</g>
	<path class="st6" d="M374.23,790.34c0.12,2.16-0.18,15.76-0.18,15.76s2.98,1.12,4.08,2.89s1.98,3.35,1.28,7.05
		c-0.71,3.71-4.95,5.96-7.92,5.82c-2.97-0.14-7.84-1.67-8.06-8.06c-0.22-6.39,6.6-8.07,6.6-8.07l0.07-15.39L374.23,790.34z"/>
	<g>
		<path class="st6" d="M310.31,790.38v6.28c0,0-7.67,0.78-12.73,6.92c-5.06,6.14-4.71,10.19-4.71,12.79c0,2.6-0.12,17.46,0,18.13
			c0.12,0.67,0.31,1.83,1.73,2.06s6.35,0.2,7.17,0.03s1.99-0.47,2.09-2.09c0.07-1.16-0.7-1.84-1.4-1.96s-5.4-0.13-5.4-0.13
			s-0.23-13.33,0.15-18.31c0.38-4.98,5.1-13.98,15.54-13.6c10.44,0.38,15.06,7.6,15.46,12.29c0.4,4.7,0.4,19.62,0.4,19.62
			s-3.06-0.16-4.53,0c-1.47,0.16-2.27,4.09-0.37,4.14s5.8,0.15,7,0.04c1.2-0.11,1.92-0.55,1.92-2.09c0-1.55,0.03-15.76,0-18.84
			c-0.03-3.07-1.37-7.61-3.49-10.64c-2.12-3.03-7.07-6.85-10.21-7.6c-3.14-0.75-4.61-0.93-4.61-0.93v-6.13L310.31,790.38z"/>
		<circle class="st7" cx="371.54" cy="814.17" r="3.97"/>
	</g>
</g>
<g>
	<g>
		<path class="st1" d="M571.42,696.86c0,0,2.81,23.38-2.39,45.01c-5.2,21.63-8.12,35.61-3.25,44.38
			c4.87,8.77,13.65,15.27,13.65,15.27s-6.81-0.66-11.05,0s-4.24,0.66-4.24,0.66s-15.56-8.65-26.57-8.38
			c-11.01,0.27-48.33,0.23-56.4,0.73c-8.07,0.51-11.96,1.9-20.02,2.93c-11.48,1.47-19.19,3.08-19.19,3.08s5.69-4.83,9.38-12.63
			c4.35-9.21-3.57-29.73-6.39-43.96c-6.51-32.89-7.3-42.99-7.3-42.99L571.42,696.86z"/>
		<path class="st0" d="M556.34,741.81c-1.47,2.02-2.48,4.32-3.84,6.41c-1.53,2.37-3.17,4.65-5.03,6.75
			c-5.57,6.26-12.09,11.29-19.8,14.66c-0.74,0.32-1.04,0.68-1.04,1.48c0.02,5.94,0.01,11.88,0.02,17.82c0,1.09-0.19,1.75,0.94,1.75
			c3.65,0.02,7.65,0.12,11.3,0.14c0.55,0,1.21-0.17,1.7,0.26c-4.22,0.01-8.62-0.7-12.83-0.73c-0.84-0.01-1.46,0.2-2.02,0.87
			c-2.33,2.74-4.71,5.43-7.07,8.14c-3.76,4.31-7.53,8.61-11.43,12.8c-0.95,1.02-1.01,1.03-1.91,0.01c-2.8-3.15-5.57-6.33-8.35-9.5
			c-3.23-3.68-6.47-7.35-9.67-11.06c-0.77-0.89-1.58-1.3-2.8-1.27c-3.8,0.08-7.79,0.76-11.59,0.74c0.51-0.39,1.76,1.03,2.31,1.02
			c3.28-0.02,6.85-0.47,10.13-0.49c1.35,0,0.89-0.54,0.62-2.95c0.01-5.31-0.02-10.63,0.03-15.94c0.01-0.94-0.3-1.37-1.17-1.69
			c-4.26-1.58-8.31-3.59-12.07-6.15c-8.13-5.52-14.45-12.64-18.91-21.41c-0.28-0.55-0.63-1.07-0.95-1.61
			c-0.05-0.11-0.1-0.22-0.15-0.33l0.01,0.03c-0.03-0.17-0.07-0.35-0.1-0.52c-0.67-1.6-1.35-3.2-2-4.8c-1.22-3.02-1.8-6.19-2.25-9.4
			c-0.39-2.74-0.72-5.47-0.68-8.24c0.02-1.34,0.01-1.36,1.23-1.76c6.16-2.06,12.1-4.6,17.92-7.5c5.94-2.96,11.63-6.28,16.64-10.64
			c8.39-7.3,14.42-16.39,19.47-26.19c0.24-0.46,0.36-0.98,0.65-1.4c0.55-0.81,0.95-0.76,1.66-0.05c0.35,0.35,0.52,0.77,0.73,1.18
			c2.14,4.24,4.53,8.33,7.22,12.25c4.66,6.8,10.04,12.92,16.84,17.68c6.94,4.86,14.5,8.55,22.3,11.76c2.58,1.06,5.19,2.06,7.81,3.05
			c1.24,0.47,1.24,0.42,1.24,1.76c0,4.75-0.74,9.4-2.07,13.94c-0.82,2.81-1.6,5.64-2.9,8.29
			C556.14,741.21,556.07,741.49,556.34,741.81z"/>
		<path class="st1" d="M553.75,653.9c3.38,3.77,6.42,7.76,8.92,12.17c1.41,2.48,2.74,5,3.75,7.67c1.41,3.72,2.6,7.5,3.49,11.4
			c1.29,5.65,1.71,11.34,1.54,17.11c-0.11,3.63-0.75,7.17-1.4,10.72c-0.5,2.73-1.17,5.43-2.16,8c-1.38,3.61-2.73,7.23-4.8,10.58
			c-1.71,2.77-3.54,5.46-5.23,8.23c-0.27,0.44-0.64,0.82-0.96,1.22c-0.15-0.01-0.3-0.03-0.45-0.04c1.3-2.65,2.08-5.48,2.9-8.29
			c1.33-4.54,2.07-9.19,2.07-13.94c0-1.34,0-1.29-1.24-1.76c-2.61-0.99-5.22-1.99-7.81-3.05c-7.8-3.22-15.36-6.9-22.3-11.76
			c-6.8-4.77-12.18-10.88-16.84-17.68c-2.68-3.92-5.08-8.01-7.22-12.25c-0.21-0.41-0.38-0.82-0.73-1.18
			c-0.71-0.71-1.11-0.77-1.66,0.05c-0.28,0.42-0.41,0.94-0.65,1.4c-5.05,9.8-11.08,18.89-19.47,26.19
			c-5.01,4.36-10.71,7.68-16.64,10.64c-5.81,2.9-11.76,5.44-17.92,7.5c-1.22,0.41-1.21,0.43-1.23,1.76
			c-0.04,2.77,0.3,5.51,0.68,8.24c0.45,3.21,1.03,6.38,2.25,9.4c0.65,1.61,1.33,3.2,2,4.8c-0.14-0.01-0.28-0.01-0.42-0.02
			c-2.32-2.7-4.26-5.66-6.02-8.74c-0.71-1.24-1.39-2.5-2.1-3.74c-0.58-1.01-0.86-2.18-1.31-3.27c-1.16-2.82-0.76-3.79-1.55-6.75
			c-0.49-1.84-1.14-4-1.62-5.84c-0.28-1.06-1.8-9.12-1.93-10.26c-0.66-5.82-0.28-6.4,0.54-12.22c0.17-1.23,0.13-2.47,0.37-3.71
			c0.2-1,0.5-2.01,0.8-2.93c0.6-1.85,0.98-3.76,1.6-5.61c0.82-2.42,1.93-4.69,2.89-7.04c1.27-3.1,3.12-5.88,4.82-8.73
			c1.07-1.8,2.52-3.36,3.81-5.03c0.76-0.98,1.69-1.82,2.31-2.92c0.27-0.48,0.72-0.92,1.19-1.23c0.75-0.48,0.75-0.48,1.81-1.81
			C463.14,644.6,512.49,610.46,553.75,653.9z"/>
		<path d="M545.43,791.12c9.86,2.27,17.4,7.79,22.61,16.43c3.18,5.28,4.66,11.07,4.89,17.21c0.04,1.02-0.26,1.77-0.94,2.51
			c-4.14,4.48-8.93,8.14-14.16,11.24c-9.62,5.69-20.04,9.19-31.03,11.09c-3.34,0.58-6.7,0.98-10.07,1.3
			c-0.91-0.03-1.82-0.07-2.71,0.19c-0.87,0.04-1.75,0.08-2.62,0.12c-2.99,0.01-5.98,0.03-8.97,0.05c-2.55-0.15-5.11-0.18-7.64-0.47
			c-0.56-0.26-1.16-0.22-1.76-0.18c-2.79-0.36-5.62-0.5-8.35-1.11c-6.09-1.37-12.15-2.88-17.95-5.28
			c-7.81-3.23-15.06-7.37-21.37-13.06c-1.39-1.26-2.69-2.62-3.96-4c-0.6-0.66-0.86-1.34-0.84-2.24c0.11-4.69,1.06-9.2,2.9-13.52
			c1.23-2.88,2.88-5.49,4.79-7.96c4.81-6.21,11.19-9.96,18.64-12.07c0.4-0.11,0.8-0.2,1.2-0.29c0.25,0.59,0.67,1.04,1.1,1.51
			c1.02,1.11,2.02,2.24,3.02,3.38c2.67,3.06,5.32,6.13,8,9.19c2.54,2.9,5.11,5.77,7.65,8.67c3.25,3.72,6.48,7.48,9.73,11.2
			c2.67,3.06,5.37,6.1,8.04,9.15c0.65,0.74,0.66,0.74,1.27,0.05c1.97-2.22,3.93-4.45,5.91-6.66c3.5-3.92,7.01-7.84,10.52-11.76
			c4.41-4.93,8.82-9.86,13.23-14.79C539.53,797.72,542.48,794.42,545.43,791.12z"/>
		<path class="st2" d="M545.43,791.12c-2.95,3.3-5.91,6.6-8.86,9.89c-4.41,4.93-8.82,9.86-13.23,14.79
			c-3.51,3.92-7.01,7.84-10.52,11.76c-1.98,2.21-3.94,4.44-5.91,6.66c-0.61,0.69-0.63,0.69-1.27-0.05
			c-2.68-3.05-5.37-6.09-8.04-9.15c-3.25-3.73-6.47-7.48-9.73-11.2c-2.54-2.9-5.11-5.77-7.65-8.67c-2.68-3.05-5.33-6.13-8-9.19
			c-0.99-1.14-2-2.27-3.02-3.38c-0.43-0.46-0.84-0.92-1.1-1.51c0.73-0.14,1.46-0.29,2.18-0.43c0.55,0.09,1.08,0.03,1.57-0.25
			c0.41-0.02,0.82-0.05,1.23-0.07c3.8,0.01,7.6,0.08,11.4,0c1.22-0.02,2.03,0.38,2.8,1.27c3.2,3.71,6.44,7.38,9.67,11.06
			c2.78,3.17,5.55,6.35,8.35,9.5c0.9,1.01,0.96,1.01,1.91-0.01c3.9-4.19,7.67-8.49,11.43-12.8c2.36-2.71,4.74-5.4,7.07-8.14
			c0.57-0.67,1.18-0.88,2.02-0.87c4.22,0.03,8.44,0,12.66,0c0.42,0.02,0.83,0.04,1.25,0.05c0.49,0.28,1.02,0.33,1.57,0.24
			C543.97,790.81,544.7,790.97,545.43,791.12z"/>
		<path class="st4" d="M502.44,851.25c2.99-0.02,5.98-0.03,8.97-0.05c-1.06,0.36-2.16,0.18-3.23,0.18
			C506.27,851.39,504.35,851.57,502.44,851.25z"/>
		<path class="st4" d="M514.03,851.09c0.89-0.26,1.8-0.22,2.71-0.19C515.85,851.23,514.94,851.09,514.03,851.09z"/>
		<path class="st4" d="M493.05,850.61c0.6-0.04,1.19-0.08,1.76,0.18C494.21,850.78,493.6,850.92,493.05,850.61z"/>
		<path class="st5" d="M556.46,740.97c0.15,0.01,0.3,0.02,0.45,0.04c-0.19,0.27-0.38,0.54-0.57,0.81
			C556.07,741.49,556.14,741.21,556.46,740.97z"/>
		<path class="st4" d="M471.87,790.41c-0.49,0.28-1.02,0.33-1.57,0.25C470.77,790.25,471.32,790.35,471.87,790.41z"/>
		<path class="st4" d="M543.24,790.65c-0.55,0.08-1.08,0.04-1.57-0.24C542.21,790.35,542.77,790.25,543.24,790.65z"/>
		<path class="st5" d="M452.23,741.02c0.14,0.01,0.28,0.01,0.42,0.02c0.04,0.18,0.07,0.35,0.1,0.52
			C452.46,741.5,452.33,741.27,452.23,741.02z"/>
		<path class="st5" d="M452.75,741.54c0.05,0.11,0.1,0.22,0.15,0.33C452.85,741.76,452.8,741.65,452.75,741.54z"/>
	</g>
	<path class="st6" d="M540.44,790.34c0.12,2.16-0.18,15.76-0.18,15.76s2.98,1.12,4.08,2.89c1.1,1.76,1.98,3.35,1.28,7.05
		s-4.95,5.96-7.92,5.82c-2.97-0.14-7.84-1.67-8.06-8.06s6.6-8.07,6.6-8.07l0.07-15.39L540.44,790.34z"/>
	<g>
		<path class="st6" d="M476.52,790.39v6.28c0,0-7.67,0.78-12.73,6.92c-5.06,6.14-4.71,10.19-4.71,12.79s-0.12,17.46,0,18.13
			c0.12,0.68,0.31,1.83,1.73,2.06s6.35,0.2,7.17,0.03c0.81-0.17,1.99-0.47,2.09-2.09c0.07-1.16-0.7-1.84-1.4-1.96
			c-0.7-0.13-5.4-0.13-5.4-0.13s-0.23-13.33,0.15-18.31c0.38-4.98,5.1-13.98,15.54-13.6c10.44,0.38,15.06,7.6,15.46,12.29
			c0.4,4.7,0.4,19.62,0.4,19.62s-3.06-0.16-4.53,0c-1.47,0.16-2.27,4.09-0.37,4.14s5.8,0.15,7,0.04c1.2-0.11,1.92-0.55,1.92-2.09
			s0.03-15.76,0-18.84c-0.03-3.07-1.37-7.61-3.49-10.64s-7.07-6.85-10.21-7.6s-4.61-0.93-4.61-0.93v-6.13L476.52,790.39z"/>
		<circle class="st7" cx="537.74" cy="814.18" r="3.97"/>
	</g>
</g>
</svg>
