<?xml version="1.0" encoding="utf-8"?>
<!-- Generator: Adobe Illustrator 27.2.0, SVG Export Plug-In . SVG Version: 6.00 Build 0)  -->
<svg version="1.1" id="Lager_1" xmlns="http://www.w3.org/2000/svg" xmlns:xlink="http://www.w3.org/1999/xlink" x="0px" y="0px"
	 viewBox="0 0 442.51 244.25" style="enable-background:new 0 0 442.51 244.25;" xml:space="preserve">
<style type="text/css">
	.st0{fill:#343434;}
	.st1{fill:#FFFFFF;}
	.st2{fill:#0099CE;}
	.st3{fill:#67C2DB;}
	.st4{fill:#878787;}
	.st5{fill:#F6F6F6;}
	.st6{fill:#137F57;}
	.st7{fill:#E3CCA5;}
	.st8{display:none;}
	.st9{display:inline;}
	.st10{fill:none;stroke:#0099CE;stroke-width:50;stroke-miterlimit:10;}
	.st11{display:none;fill:none;stroke:#1E1E1C;stroke-width:2;stroke-miterlimit:10;}
	.st12{fill:none;stroke:#0099CE;stroke-width:2;stroke-miterlimit:10;stroke-dasharray:14.997,9.9979;}
	.st13{fill:none;stroke:#0099CE;stroke-width:3;stroke-miterlimit:10;}
	.st14{fill:none;stroke:#0099CE;stroke-width:2;stroke-miterlimit:10;}
</style>
<g>
	<path class="st0" d="M118.3,97.91c0,0,2.11,17.53-1.79,33.76c-3.9,16.22-6.09,26.71-2.44,33.28c3.65,6.58,10.24,11.45,10.24,11.45
		s-5.11-0.49-8.29,0c-3.18,0.5-3.18,0.5-3.18,0.5s-11.67-6.49-19.93-6.28c-8.26,0.2-36.25,0.17-42.3,0.55s-8.97,1.42-15.01,2.2
		c-8.61,1.1-14.39,2.31-14.39,2.31s4.27-3.62,7.03-9.47c3.26-6.91-2.68-22.3-4.79-32.97C18.57,108.57,17.98,101,17.98,101
		L118.3,97.91z"/>
	<path class="st1" d="M106.99,131.63c-1.1,1.51-1.86,3.24-2.88,4.81c-1.15,1.78-2.38,3.49-3.77,5.06
		c-4.18,4.69-9.07,8.47-14.85,10.99c-0.56,0.24-0.78,0.51-0.78,1.11c0.01,4.45,0.01,8.91,0.01,13.36c0,0.82-0.14,1.31,0.71,1.31
		c2.74,0.01,5.74,0.09,8.47,0.1c0.41,0,0.91-0.13,1.27,0.19c-3.16,0.01-6.46-0.52-9.62-0.55c-0.63-0.01-1.1,0.15-1.51,0.65
		c-1.75,2.05-3.53,4.07-5.3,6.1c-2.82,3.23-5.65,6.46-8.57,9.6c-0.71,0.76-0.76,0.77-1.43,0.01c-2.1-2.36-4.18-4.75-6.26-7.12
		c-2.42-2.76-4.85-5.51-7.25-8.29c-0.58-0.67-1.18-0.98-2.1-0.95c-2.85,0.06-5.84,0.57-8.69,0.55c0.38-0.29,1.32,0.77,1.73,0.76
		c2.46-0.01,5.14-0.35,7.6-0.37c1.01,0,0.67-0.4,0.46-2.21c0.01-3.98-0.01-7.97,0.02-11.95c0.01-0.71-0.22-1.03-0.88-1.27
		c-3.19-1.18-6.23-2.69-9.05-4.61c-6.1-4.14-10.84-9.48-14.18-16.06c-0.21-0.41-0.47-0.8-0.71-1.21c-0.04-0.08-0.08-0.17-0.11-0.25
		l0.01,0.02c-0.02-0.13-0.05-0.26-0.08-0.39c-0.5-1.2-1.01-2.4-1.5-3.6c-0.91-2.26-1.35-4.64-1.69-7.05
		c-0.29-2.05-0.54-4.1-0.51-6.18c0.01-1,0.01-1.02,0.92-1.32c4.62-1.54,9.07-3.45,13.44-5.62c4.45-2.22,8.72-4.71,12.48-7.98
		c6.29-5.47,10.81-12.29,14.6-19.64c0.18-0.34,0.27-0.74,0.49-1.05c0.41-0.61,0.71-0.57,1.24-0.04c0.26,0.26,0.39,0.58,0.55,0.88
		c1.6,3.18,3.4,6.25,5.41,9.19c3.49,5.1,7.53,9.69,12.63,13.26c5.2,3.64,10.87,6.41,16.72,8.82c1.93,0.79,3.89,1.54,5.86,2.29
		c0.93,0.35,0.93,0.31,0.93,1.32c0,3.56-0.55,7.05-1.55,10.45c-0.61,2.11-1.2,4.23-2.17,6.22
		C106.84,131.17,106.79,131.38,106.99,131.63z"/>
	<path class="st0" d="M107.08,130.99c0.97-1.99,1.56-4.11,2.17-6.22c1-3.4,1.55-6.89,1.55-10.45c0-1,0-0.97-0.93-1.32
		c-1.96-0.74-3.91-1.49-5.86-2.29c-5.85-2.41-11.52-5.17-16.72-8.82c-5.1-3.58-9.13-8.16-12.63-13.26
		c-2.01-2.94-3.81-6.01-5.41-9.19c-0.16-0.31-0.28-0.61-0.55-0.89c-0.53-0.53-0.83-0.58-1.24,0.04c-0.21,0.31-0.31,0.71-0.49,1.05
		c-3.79,7.35-8.31,14.17-14.6,19.64c-3.76,3.27-8.03,5.76-12.48,7.98c-4.36,2.17-8.82,4.08-13.44,5.62
		c-0.91,0.31-0.91,0.32-0.92,1.32c-0.03,2.08,0.23,4.13,0.51,6.18c0.34,2.4,0.77,4.78,1.69,7.05c0.49,1.21,1,2.4,1.5,3.6
		c-0.1-0.01-0.21-0.01-0.31-0.01c-1.74-2.02-3.19-4.24-4.51-6.55c-0.53-0.93-1.04-1.87-1.57-2.8c-0.43-0.76-0.64-1.63-0.98-2.45
		c-0.87-2.11-0.57-2.84-1.16-5.06c-0.37-1.38-0.85-3-1.21-4.38c-0.21-0.79-1.35-6.84-1.45-7.69c-0.49-4.36-0.21-4.8,0.4-9.16
		c0.13-0.92,0.1-1.85,0.28-2.78c0.15-0.75,0.37-1.51,0.6-2.2c0.45-1.39,0.73-2.82,1.2-4.21c0.61-1.81,1.45-3.52,2.17-5.28
		c0.95-2.32,2.34-4.41,3.61-6.55c0.8-1.35,1.89-2.52,2.86-3.77c0.57-0.74,1.27-1.36,1.73-2.19c0.2-0.36,0.54-0.69,0.89-0.92
		c0.56-0.36,0.95-0.83,1.36-1.36c0.96-1.23,2.39-1.95,3.49-3.04c0.39-0.39,0.74-0.1,0.91,0.3c0.27,0.67,0.53,1.35,0.7,2.05
		c0.49,1.87,1.1,3.7,1.69,5.54c0.23,0.4,0.62,0.21,0.93,0.21c17.36,0.01,34.72,0.01,52.08,0.01c0.34,0,0.71,0.14,1-0.16
		c1.07-3.04,2.17-6.08,3.01-9.2c0.12-0.43,0.42-0.53,0.76-0.22c2.44,2.2,5.13,4.09,7.34,6.55c2.53,2.83,4.81,5.82,6.69,9.13
		c1.06,1.86,2.05,3.75,2.81,5.75c1.06,2.79,1.95,5.62,2.62,8.55c0.97,4.24,1.28,8.5,1.15,12.83c-0.08,2.72-0.56,5.38-1.05,8.04
		c-0.38,2.05-0.88,4.07-1.62,6c-1.03,2.71-2.05,5.42-3.6,7.93c-1.28,2.08-2.65,4.09-3.92,6.17c-0.2,0.33-0.48,0.62-0.72,0.91
		C107.31,131.02,107.2,131,107.08,130.99z"/>
	<path class="st2" d="M98.81,168.61c7.39,1.7,13.05,5.84,16.96,12.32c2.38,3.96,3.49,8.3,3.67,12.91c0.03,0.76-0.19,1.33-0.71,1.88
		c-3.1,3.36-6.7,6.1-10.62,8.43c-7.21,4.27-15.03,6.89-23.27,8.32c-2.5,0.43-5.02,0.74-7.55,0.98c-0.68-0.02-1.36-0.05-2.03,0.14
		c-0.65,0.03-1.31,0.06-1.96,0.09c-2.24,0.01-4.48,0.02-6.73,0.04c-1.91-0.11-3.83-0.13-5.73-0.35c-0.42-0.19-0.87-0.17-1.32-0.13
		c-2.09-0.27-4.21-0.38-6.26-0.83c-4.57-1.03-9.11-2.16-13.46-3.96c-5.86-2.42-11.29-5.53-16.03-9.79c-1.04-0.94-2.02-1.96-2.97-3
		c-0.45-0.49-0.64-1-0.63-1.68c0.08-3.52,0.79-6.9,2.17-10.14c0.92-2.16,2.16-4.12,3.59-5.97c3.61-4.66,8.39-7.47,13.98-9.05
		c0.3-0.08,0.6-0.15,0.9-0.22c0.19,0.44,0.5,0.78,0.82,1.13c0.76,0.83,1.51,1.68,2.26,2.53c2,2.29,3.99,4.6,6,6.89
		c1.9,2.17,3.83,4.33,5.74,6.5c2.44,2.79,4.86,5.61,7.3,8.4c2,2.29,4.03,4.57,6.03,6.86c0.49,0.56,0.5,0.56,0.95,0.04
		c1.48-1.66,2.95-3.34,4.43-4.99c2.62-2.94,5.26-5.88,7.89-8.82c3.31-3.7,6.61-7.39,9.92-11.09
		C94.38,173.56,96.6,171.09,98.81,168.61z"/>
	<path class="st3" d="M98.81,168.61c-2.21,2.47-4.43,4.95-6.64,7.42c-3.31,3.7-6.61,7.39-9.92,11.09c-2.63,2.94-5.26,5.88-7.89,8.82
		c-1.49,1.66-2.95,3.33-4.43,4.99c-0.46,0.52-0.47,0.52-0.95-0.04c-2.01-2.29-4.03-4.57-6.03-6.86c-2.44-2.8-4.85-5.61-7.3-8.4
		c-1.9-2.17-3.83-4.33-5.74-6.5c-2.01-2.29-4-4.6-6-6.89c-0.74-0.85-1.5-1.7-2.26-2.54c-0.32-0.35-0.63-0.69-0.82-1.13
		c0.55-0.1,1.09-0.22,1.63-0.32c0.41,0.07,0.81,0.02,1.18-0.19c0.31-0.01,0.61-0.04,0.92-0.05c2.85,0.01,5.7,0.06,8.55,0
		c0.91-0.01,1.52,0.29,2.1,0.95c2.4,2.78,4.83,5.53,7.25,8.29c2.08,2.38,4.16,4.76,6.26,7.12c0.67,0.76,0.72,0.76,1.43-0.01
		c2.92-3.14,5.75-6.37,8.57-9.6c1.77-2.03,3.55-4.05,5.3-6.1c0.43-0.5,0.89-0.66,1.51-0.65c3.16,0.02,6.33,0,9.49,0
		c0.31,0.02,0.62,0.03,0.94,0.04c0.37,0.21,0.76,0.25,1.18,0.18C97.72,168.38,98.26,168.49,98.81,168.61z"/>
	<path class="st4" d="M38.77,68.77c0,0-5.37-20.5-5.37-22.04s0.4-2.14,1.93-2.94s26.38-12.16,29.18-12.82
		c2.8-0.67,3.87-0.6,6.88,0.4c3.01,1,25.71,11.49,27.71,12.35c2,0.87,2.8,1.6,1.93,4.34s-6.88,20.7-6.88,20.7H38.77V68.77z"/>
	<path class="st5" d="M67.23,63.5c-0.97,0-1.96-0.02-2.93,0.01c-0.56,0.02-0.76-0.19-0.75-0.74c0.02-1.41,0.01-2.81,0.01-4.22
		c0-1.45,0.1-1.29-1.35-1.29c-1.29-0.01-2.58,0-3.87,0c-1.04-0.01-1.05-0.01-1.05-1c-0.01-1.76-0.01-3.52,0-5.28
		c0-1.04,0.01-1.05,1.12-1.05c1.36-0.01,2.74,0,4.1,0c1.03-0.01,1.04-0.01,1.05-1c0.01-1.48,0.02-2.97-0.01-4.45
		c-0.01-0.58,0.14-0.84,0.79-0.82c1.91,0.04,3.83,0.01,5.74,0.01c0.8,0.01,0.82,0.02,0.82,0.88c0.01,1.33,0,2.65,0.01,3.99
		c0.01,1.6-0.16,1.39,1.47,1.41c1.33,0.01,2.66,0.02,3.99-0.01c0.61-0.01,0.82,0.19,0.81,0.8c-0.03,1.91-0.03,3.83,0,5.74
		c0.01,0.62-0.21,0.81-0.81,0.79c-1.41-0.03-2.81-0.01-4.22-0.01c-1.28,0-1.23-0.12-1.23,1.18c0,1.41,0.01,2.81,0,4.22
		c-0.01,0.82-0.02,0.83-0.85,0.85C69.1,63.52,68.17,63.5,67.23,63.5z"/>
	<path class="st6" d="M107.08,130.99c0.11,0.01,0.22,0.01,0.34,0.03c-0.14,0.2-0.28,0.4-0.43,0.61
		C106.79,131.38,106.84,131.17,107.08,130.99z"/>
	<path class="st7" d="M43.63,168.07c-0.37,0.21-0.76,0.25-1.18,0.19C42.82,167.96,43.23,168.04,43.63,168.07z"/>
	<path class="st7" d="M97.17,168.26c-0.41,0.06-0.81,0.03-1.18-0.18C96.4,168.04,96.81,167.96,97.17,168.26z"/>
	<path class="st6" d="M28.91,131.04c0.1,0.01,0.21,0.01,0.31,0.01c0.03,0.13,0.05,0.26,0.07,0.39
		C29.08,131.39,28.99,131.23,28.91,131.04z"/>
	<path class="st6" d="M29.29,131.42c0.04,0.08,0.08,0.16,0.11,0.25C29.38,131.59,29.34,131.5,29.29,131.42z"/>
</g>
<g class="st8">
	<g class="st9">
		<line class="st10" x1="218.9" y1="200.2" x2="377.34" y2="95.36"/>
		<g>
			<path class="st2" d="M432.7,58.73c-19.65,26.9-41.06,64.78-49.54,95.51l-13.09-54.07l-44.64-33.18
				C357.02,71.2,400.26,66.31,432.7,58.73z"/>
		</g>
	</g>
</g>
<polyline class="st11" points="185.14,40.06 185.14,229.65 432.7,229.65 "/>
<g>
	<g>
		<line class="st12" x1="176.27" y1="169.9" x2="392.18" y2="105.53"/>
		<g>
			<polygon class="st2" points="388.17,115.26 386.44,114.25 391.45,105.75 382.61,101.38 383.49,99.59 394.26,104.91 			"/>
		</g>
	</g>
</g>
<line class="st13" x1="139.78" y1="218.03" x2="430.78" y2="218.03"/>
<rect x="140.78" y="42.04" class="st14" width="288.97" height="177.9"/>
</svg>
