<?xml version="1.0" encoding="utf-8"?>
<!-- Generator: Adobe Illustrator 27.2.0, SVG Export Plug-In . SVG Version: 6.00 Build 0)  -->
<svg version="1.1" id="Lager_1" xmlns="http://www.w3.org/2000/svg" xmlns:xlink="http://www.w3.org/1999/xlink" x="0px" y="0px"
	 viewBox="0 0 442.5 248.3" style="enable-background:new 0 0 442.5 248.3;" xml:space="preserve">
<style type="text/css">
	.st0{fill:#343434;}
	.st1{fill:#FFFFFF;}
	.st2{fill:#0099CE;}
	.st3{fill:#67C2DB;}
	.st4{fill:#595959;}
	.st5{fill:#F6F6F6;}
	.st6{fill:#137F57;}
	.st7{fill:#E3CCA5;}
	.st8{display:none;}
	.st9{display:inline;}
	.st10{fill:none;stroke:#0099CE;stroke-width:50;stroke-miterlimit:10;}
	.st11{display:none;fill:none;stroke:#1E1E1C;stroke-width:2;stroke-miterlimit:10;}
	.st12{fill:none;stroke:#1D1D1B;stroke-width:2;stroke-miterlimit:10;stroke-dasharray:14.997,9.9979;}
	.st13{fill:#1D1D1B;stroke:#1D1D1B;stroke-miterlimit:10;}
	.st14{fill:none;stroke:#1D1D1B;stroke-width:3;stroke-miterlimit:10;}
	.st15{fill:none;stroke:#1D1D1B;stroke-width:2;stroke-miterlimit:10;}
</style>
<g>
	<path class="st0" d="M118.3,102c0,0,2.1,17.5-1.8,33.8c-3.9,16.2-6.1,26.7-2.4,33.3s10.2,11.4,10.2,11.4s-5.1-0.5-8.3,0
		c-3.2,0.5-3.2,0.5-3.2,0.5s-11.7-6.5-19.9-6.3c-8.3,0.2-36.2,0.2-42.3,0.6s-9,1.4-15,2.2c-8.6,1.1-14.4,2.3-14.4,2.3s4.3-3.6,7-9.5
		c3.3-6.9-2.7-22.3-4.8-33c-4.8-24.6-5.4-32.2-5.4-32.2L118.3,102z"/>
	<path class="st1" d="M107,135.7c-1.1,1.5-1.9,3.2-2.9,4.8c-1.2,1.8-2.4,3.5-3.8,5.1c-4.2,4.7-9.1,8.5-14.8,11
		c-0.6,0.2-0.8,0.5-0.8,1.1c0,4.4,0,8.9,0,13.4c0,0.8-0.1,1.3,0.7,1.3c2.7,0,5.7,0.1,8.5,0.1c0.4,0,0.9-0.1,1.3,0.2
		c-3.2,0-6.5-0.5-9.6-0.6c-0.6,0-1.1,0.1-1.5,0.6c-1.8,2.1-3.5,4.1-5.3,6.1c-2.8,3.2-5.7,6.5-8.6,9.6c-0.7,0.8-0.8,0.8-1.4,0
		c-2.1-2.4-4.2-4.8-6.3-7.1c-2.4-2.8-4.8-5.5-7.2-8.3c-0.6-0.7-1.2-1-2.1-0.9c-2.8,0.1-5.8,0.6-8.7,0.6c0.4-0.3,1.3,0.8,1.7,0.8
		c2.5,0,5.1-0.4,7.6-0.4c1,0,0.7-0.4,0.5-2.2c0-4,0-8,0-11.9c0-0.7-0.2-1-0.9-1.3c-3.2-1.2-6.2-2.7-9-4.6
		c-6.1-4.1-10.8-9.5-14.2-16.1c-0.2-0.4-0.5-0.8-0.7-1.2c0-0.1-0.1-0.2-0.1-0.2l0,0c0-0.1,0-0.3-0.1-0.4c-0.5-1.2-1-2.4-1.5-3.6
		c-0.9-2.3-1.4-4.6-1.7-7.1c-0.3-2.1-0.5-4.1-0.5-6.2c0-1,0-1,0.9-1.3c4.6-1.5,9.1-3.4,13.4-5.6c4.5-2.2,8.7-4.7,12.5-8
		c6.3-5.5,10.8-12.3,14.6-19.7c0.2-0.3,0.3-0.7,0.5-1.1c0.4-0.6,0.7-0.6,1.2,0c0.3,0.3,0.4,0.6,0.6,0.9c1.6,3.2,3.4,6.2,5.4,9.2
		c3.5,5.1,7.5,9.7,12.6,13.3c5.2,3.6,10.9,6.4,16.7,8.8c1.9,0.8,3.9,1.5,5.9,2.3c0.9,0.3,0.9,0.3,0.9,1.3c0,3.6-0.6,7.1-1.6,10.4
		c-0.6,2.1-1.2,4.2-2.2,6.2C106.8,135.3,106.8,135.5,107,135.7z"/>
	<path class="st0" d="M107.1,135.1c1-2,1.6-4.1,2.2-6.2c1-3.4,1.6-6.9,1.6-10.4c0-1,0-1-0.9-1.3c-2-0.7-3.9-1.5-5.9-2.3
		c-5.8-2.4-11.5-5.2-16.7-8.8c-5.1-3.6-9.1-8.2-12.6-13.3c-2-2.9-3.8-6-5.4-9.2c-0.2-0.3-0.3-0.6-0.6-0.9c-0.5-0.5-0.8-0.6-1.2,0
		c-0.2,0.3-0.3,0.7-0.5,1.1c-3.8,7.3-8.3,14.2-14.6,19.6c-3.8,3.3-8,5.8-12.5,8c-4.4,2.2-8.8,4.1-13.4,5.6c-0.9,0.3-0.9,0.3-0.9,1.3
		c0,2.1,0.2,4.1,0.5,6.2c0.3,2.4,0.8,4.8,1.7,7.1c0.5,1.2,1,2.4,1.5,3.6c-0.1,0-0.2,0-0.3,0c-1.7-2-3.2-4.2-4.5-6.6
		c-0.5-0.9-1-1.9-1.6-2.8c-0.4-0.8-0.6-1.6-1-2.4c-0.9-2.1-0.6-2.8-1.2-5.1c-0.4-1.4-0.9-3-1.2-4.4c-0.2-0.8-1.4-6.8-1.5-7.7
		c-0.5-4.4-0.2-4.8,0.4-9.2c0.1-0.9,0.1-1.8,0.3-2.8c0.1-0.8,0.4-1.5,0.6-2.2c0.5-1.4,0.7-2.8,1.2-4.2c0.6-1.8,1.5-3.5,2.2-5.3
		c1-2.3,2.3-4.4,3.6-6.6c0.8-1.3,1.9-2.5,2.9-3.8c0.6-0.7,1.3-1.4,1.7-2.2c0.2-0.4,0.5-0.7,0.9-0.9c0.6-0.4,1-0.8,1.4-1.4
		c1-1.2,2.4-2,3.5-3c0.4-0.4,0.7-0.1,0.9,0.3c0.3,0.7,0.5,1.3,0.7,2c0.5,1.9,1.1,3.7,1.7,5.5c0.2,0.4,0.6,0.2,0.9,0.2
		c17.4,0,34.7,0,52.1,0c0.3,0,0.7,0.1,1-0.2c1.1-3,2.2-6.1,3-9.2c0.1-0.4,0.4-0.5,0.8-0.2c2.4,2.2,5.1,4.1,7.3,6.5
		c2.5,2.8,4.8,5.8,6.7,9.1c1.1,1.9,2.1,3.8,2.8,5.8c1.1,2.8,1.9,5.6,2.6,8.6c1,4.2,1.3,8.5,1.2,12.8c-0.1,2.7-0.6,5.4-1.1,8
		c-0.4,2.1-0.9,4.1-1.6,6c-1,2.7-2.1,5.4-3.6,7.9c-1.3,2.1-2.7,4.1-3.9,6.2c-0.2,0.3-0.5,0.6-0.7,0.9
		C107.3,135.1,107.2,135.1,107.1,135.1z"/>
	<path class="st2" d="M98.8,172.7c7.4,1.7,13.1,5.8,17,12.3c2.4,4,3.5,8.3,3.7,12.9c0,0.8-0.2,1.3-0.7,1.9
		c-3.1,3.4-6.7,6.1-10.6,8.4c-7.2,4.3-15,6.9-23.3,8.3c-2.5,0.4-5,0.7-7.6,1c-0.7,0-1.4-0.1-2,0.1c-0.7,0-1.3,0.1-2,0.1
		c-2.2,0-4.5,0-6.7,0c-1.9-0.1-3.8-0.1-5.7-0.4c-0.4-0.2-0.9-0.2-1.3-0.1c-2.1-0.3-4.2-0.4-6.3-0.8c-4.6-1-9.1-2.2-13.5-4
		c-5.9-2.4-11.3-5.5-16-9.8c-1-0.9-2-2-3-3c-0.5-0.5-0.6-1-0.6-1.7c0.1-3.5,0.8-6.9,2.2-10.1c0.9-2.2,2.2-4.1,3.6-6
		c3.6-4.7,8.4-7.5,14-9.1c0.3-0.1,0.6-0.1,0.9-0.2c0.2,0.4,0.5,0.8,0.8,1.1c0.8,0.8,1.5,1.7,2.3,2.5c2,2.3,4,4.6,6,6.9
		c1.9,2.2,3.8,4.3,5.7,6.5c2.4,2.8,4.9,5.6,7.3,8.4c2,2.3,4,4.6,6,6.9c0.5,0.6,0.5,0.6,0.9,0c1.5-1.7,2.9-3.3,4.4-5
		c2.6-2.9,5.3-5.9,7.9-8.8c3.3-3.7,6.6-7.4,9.9-11.1C94.4,177.7,96.6,175.2,98.8,172.7z"/>
	<path class="st3" d="M98.8,172.7c-2.2,2.5-4.4,4.9-6.6,7.4c-3.3,3.7-6.6,7.4-9.9,11.1c-2.6,2.9-5.3,5.9-7.9,8.8
		c-1.5,1.7-2.9,3.3-4.4,5c-0.5,0.5-0.5,0.5-0.9,0c-2-2.3-4-4.6-6-6.9c-2.4-2.8-4.8-5.6-7.3-8.4c-1.9-2.2-3.8-4.3-5.7-6.5
		c-2-2.3-4-4.6-6-6.9c-0.7-0.9-1.5-1.7-2.3-2.5c-0.3-0.4-0.6-0.7-0.8-1.1c0.5-0.1,1.1-0.2,1.6-0.3c0.4,0.1,0.8,0,1.2-0.2
		c0.3,0,0.6,0,0.9-0.1c2.8,0,5.7,0.1,8.5,0c0.9,0,1.5,0.3,2.1,0.9c2.4,2.8,4.8,5.5,7.2,8.3c2.1,2.4,4.2,4.8,6.3,7.1
		c0.7,0.8,0.7,0.8,1.4,0c2.9-3.1,5.8-6.4,8.6-9.6c1.8-2,3.6-4.1,5.3-6.1c0.4-0.5,0.9-0.7,1.5-0.6c3.2,0,6.3,0,9.5,0
		c0.3,0,0.6,0,0.9,0c0.4,0.2,0.8,0.2,1.2,0.2C97.7,172.5,98.3,172.6,98.8,172.7z"/>
	<path class="st4" d="M38.8,72.9c0,0-5.4-20.5-5.4-22s0.4-2.1,1.9-2.9s26.4-12.3,29.2-12.9c2.8-0.7,3.9-0.6,6.9,0.4
		S97.1,47,99.1,47.9c2,0.9,2.8,1.6,1.9,4.3s-6.9,20.7-6.9,20.7H38.8L38.8,72.9z"/>
	<path class="st5" d="M67.2,67.6c-1,0-2,0-2.9,0c-0.6,0-0.8-0.2-0.8-0.7c0-1.4,0-2.8,0-4.2c0-1.5,0.1-1.3-1.3-1.3
		c-1.3,0-2.6,0-3.9,0c-1,0-1,0-1-1c0-1.8,0-3.5,0-5.3c0-1,0-1,1.1-1c1.4,0,2.7,0,4.1,0c1,0,1,0,1-1c0-1.5,0-3,0-4.5
		c0-0.6,0.1-0.8,0.8-0.8c1.9,0,3.8,0,5.7,0c0.8,0,0.8,0,0.8,0.9c0,1.3,0,2.7,0,4c0,1.6-0.2,1.4,1.5,1.4c1.3,0,2.7,0,4,0
		c0.6,0,0.8,0.2,0.8,0.8c0,1.9,0,3.8,0,5.7c0,0.6-0.2,0.8-0.8,0.8c-1.4,0-2.8,0-4.2,0c-1.3,0-1.2-0.1-1.2,1.2c0,1.4,0,2.8,0,4.2
		c0,0.8,0,0.8-0.8,0.8C69.1,67.6,68.2,67.6,67.2,67.6z"/>
	<path class="st6" d="M107.1,135.1c0.1,0,0.2,0,0.3,0c-0.1,0.2-0.3,0.4-0.4,0.6C106.8,135.5,106.8,135.3,107.1,135.1z"/>
	<path class="st7" d="M43.6,172.2c-0.4,0.2-0.8,0.2-1.2,0.2C42.8,172.1,43.2,172.1,43.6,172.2z"/>
	<path class="st7" d="M97.2,172.4c-0.4,0.1-0.8,0-1.2-0.2C96.4,172.1,96.8,172.1,97.2,172.4z"/>
	<path class="st6" d="M28.9,135.1c0.1,0,0.2,0,0.3,0c0,0.1,0,0.3,0.1,0.4C29.1,135.5,29,135.3,28.9,135.1z"/>
	<path class="st6" d="M29.3,135.5c0,0.1,0.1,0.2,0.1,0.2C29.4,135.7,29.3,135.6,29.3,135.5z"/>
</g>
<g class="st8">
	<g class="st9">
		<line class="st10" x1="218.9" y1="204.3" x2="377.3" y2="99.5"/>
		<g>
			<path class="st2" d="M432.7,62.8c-19.6,26.9-41.1,64.8-49.5,95.5l-13.1-54.1l-44.7-33.1C357,75.3,400.3,70.4,432.7,62.8z"/>
		</g>
	</g>
</g>
<polyline class="st11" points="185.1,44.2 185.1,233.7 432.7,233.7 "/>
<g>
	<g>
		<line class="st12" x1="176.3" y1="174" x2="392.2" y2="109.6"/>
		<g>
			<polygon class="st13" points="388.2,119.4 386.4,118.3 391.5,109.9 382.6,105.5 383.5,103.7 394.3,109 			"/>
		</g>
	</g>
</g>
<line class="st14" x1="139.8" y1="222.1" x2="430.8" y2="222.1"/>
<rect x="140.8" y="46.1" class="st15" width="289" height="177.9"/>
</svg>
