<?xml version="1.0" encoding="utf-8"?>
<!-- Generator: Adobe Illustrator 27.2.0, SVG Export Plug-In . SVG Version: 6.00 Build 0)  -->
<svg version="1.1" id="Lager_1" xmlns="http://www.w3.org/2000/svg" xmlns:xlink="http://www.w3.org/1999/xlink" x="0px" y="0px"
	 viewBox="0 0 442.51 244.25" style="enable-background:new 0 0 442.51 244.25;" xml:space="preserve">
<style type="text/css">
	.st0{fill:#EDEDED;}
	.st1{fill:none;stroke:#0099CE;stroke-width:50;stroke-miterlimit:10;}
	.st2{fill:#0099CE;}
	.st3{fill:none;stroke:#1E1E1C;stroke-width:2;stroke-miterlimit:10;}
	.st4{fill:#FFFFFF;stroke:#DADADA;stroke-miterlimit:10;}
	.st5{fill:#343434;}
	.st6{fill:#020203;}
	.st7{fill:#878787;}
	.st8{fill:#F6F6F6;}
	.st9{fill:#E2CCA4;}
	.st10{fill:#157E56;}
</style>
<g>
	<line class="st0" x1="218.9" y1="200.2" x2="432.7" y2="58.73"/>
	<g>
		<line class="st1" x1="218.9" y1="200.2" x2="377.34" y2="95.36"/>
		<g>
			<path class="st2" d="M432.7,58.73c-19.65,26.9-41.06,64.78-49.54,95.51l-13.09-54.07l-44.64-33.18
				C357.02,71.2,400.26,66.31,432.7,58.73z"/>
		</g>
	</g>
</g>
<polyline class="st3" points="185.14,40.06 185.14,229.65 432.7,229.65 "/>
<g>
	<path class="st4" d="M119.43,134.71c-1.47,2.02-2.48,4.32-3.84,6.41c-1.53,2.37-3.17,4.65-5.03,6.75
		c-5.57,6.26-12.09,11.29-19.8,14.66c-0.74,0.32-1.04,0.68-1.04,1.48c0.02,5.94,0.01,11.88,0.02,17.82c0,1.09,0.04,1.12,1.17,1.13
		c3.65,0.02,7.3,0,10.94,0.02c0.55,0,1.16-0.16,1.65,0.27c-4.22,0.01-8.44,0.03-12.66,0c-0.84-0.01-1.46,0.2-2.02,0.87
		c-2.33,2.74-4.71,5.43-7.07,8.14c-3.76,4.31-7.53,8.61-11.43,12.8c-0.95,1.02-1.01,1.03-1.91,0.01c-2.8-3.15-5.57-6.33-8.35-9.5
		c-3.23-3.68-6.47-7.35-9.67-11.06c-0.77-0.89-1.58-1.3-2.8-1.27c-3.8,0.08-7.6,0.01-11.4,0c0.51-0.39,1.1-0.25,1.66-0.25
		c3.28-0.02,6.56,0,9.85-0.02c1.35,0,1.37-0.02,1.37-1.4c0.01-5.31-0.02-10.63,0.03-15.94c0.01-0.94-0.3-1.37-1.17-1.69
		c-4.26-1.58-8.31-3.59-12.07-6.15c-8.13-5.52-14.45-12.64-18.91-21.41c-0.28-0.55-0.63-1.07-0.95-1.61
		c-0.05-0.11-0.1-0.22-0.15-0.33l0.01,0.03c-0.03-0.17-0.07-0.35-0.1-0.52c-0.67-1.6-1.35-3.2-2-4.8c-1.22-3.02-1.8-6.19-2.25-9.4
		c-0.39-2.74-0.72-5.47-0.68-8.24c0.02-1.34,0.01-1.36,1.23-1.76c6.16-2.06,12.1-4.6,17.92-7.5c5.94-2.96,11.63-6.28,16.64-10.64
		c8.39-7.3,14.42-16.39,19.47-26.19c0.24-0.46,0.36-0.98,0.65-1.4c0.55-0.81,0.95-0.76,1.66-0.05c0.35,0.35,0.52,0.77,0.73,1.18
		c2.14,4.24,4.53,8.33,7.22,12.25c4.66,6.8,10.04,12.92,16.84,17.68c6.94,4.86,14.5,8.55,22.3,11.76c2.58,1.06,5.19,2.06,7.81,3.05
		c1.24,0.47,1.24,0.42,1.24,1.76c0,4.75-0.74,9.4-2.07,13.94c-0.82,2.81-1.6,5.64-2.9,8.29
		C119.23,134.11,119.17,134.39,119.43,134.71z"/>
	<path class="st5" d="M119.55,133.86c1.3-2.65,2.08-5.48,2.9-8.29c1.33-4.54,2.07-9.19,2.07-13.94c0-1.34,0-1.29-1.24-1.76
		c-2.61-0.99-5.22-1.99-7.81-3.05c-7.8-3.22-15.36-6.9-22.3-11.76c-6.8-4.77-12.18-10.88-16.84-17.68
		c-2.68-3.92-5.08-8.01-7.22-12.25c-0.21-0.41-0.38-0.82-0.73-1.18c-0.71-0.71-1.11-0.77-1.66,0.05c-0.28,0.42-0.41,0.94-0.65,1.4
		c-5.05,9.8-11.08,18.89-19.47,26.19c-5.01,4.36-10.71,7.68-16.64,10.64c-5.81,2.9-11.76,5.44-17.92,7.5
		c-1.22,0.41-1.21,0.43-1.23,1.76c-0.04,2.77,0.3,5.51,0.68,8.24c0.45,3.2,1.03,6.38,2.25,9.4c0.65,1.61,1.33,3.2,2,4.8
		c-0.14-0.01-0.28-0.01-0.42-0.02c-2.32-2.7-4.26-5.66-6.02-8.74c-0.71-1.24-1.39-2.5-2.1-3.74c-0.58-1.01-0.86-2.18-1.31-3.27
		c-1.16-2.82-2.19-5.69-2.98-8.65c-0.49-1.84-0.9-3.71-1.38-5.55c-0.28-1.06-0.18-2.26-0.31-3.4c-0.66-5.82-0.7-11.64,0.12-17.46
		c0.17-1.23,0.13-2.47,0.37-3.71c0.2-1,0.5-2.01,0.8-2.93c0.6-1.85,0.98-3.76,1.6-5.61c0.82-2.42,1.93-4.69,2.89-7.04
		c1.27-3.1,3.12-5.88,4.82-8.73c1.07-1.8,2.52-3.36,3.81-5.03c0.76-0.98,1.69-1.82,2.31-2.92c0.27-0.48,0.72-0.92,1.19-1.23
		c0.75-0.48,1.27-1.11,1.81-1.81c1.28-1.64,3.19-2.6,4.65-4.06c0.52-0.52,0.99-0.13,1.21,0.4c0.36,0.89,0.7,1.8,0.94,2.73
		c0.66,2.49,1.47,4.94,2.25,7.39c0.31,0.54,0.83,0.28,1.24,0.28c23.15,0.02,46.29,0.02,69.44,0.01c0.45,0,0.94,0.18,1.34-0.21
		c1.43-4.06,2.89-8.11,4.01-12.27c0.16-0.58,0.56-0.71,1.02-0.3c3.25,2.93,6.84,5.45,9.79,8.73c3.38,3.77,6.42,7.76,8.92,12.17
		c1.41,2.48,2.74,5,3.75,7.67c1.41,3.72,2.6,7.5,3.49,11.4c1.29,5.65,1.71,11.34,1.54,17.11c-0.11,3.63-0.75,7.17-1.4,10.72
		c-0.5,2.73-1.17,5.43-2.16,8c-1.38,3.61-2.73,7.23-4.8,10.58c-1.71,2.77-3.54,5.46-5.23,8.23c-0.27,0.44-0.64,0.82-0.96,1.22
		C119.86,133.89,119.71,133.88,119.55,133.86z"/>
	<path class="st6" d="M108.53,184.02c9.86,2.27,17.4,7.79,22.61,16.43c3.18,5.28,4.66,11.07,4.89,17.21
		c0.04,1.02-0.26,1.77-0.94,2.51c-4.14,4.48-8.93,8.14-14.16,11.24c-9.62,5.69-20.04,9.19-31.03,11.09
		c-3.34,0.58-6.7,0.98-10.07,1.3c-0.91-0.03-1.82-0.07-2.71,0.19c-0.87,0.04-1.75,0.08-2.62,0.12c-2.99,0.01-5.98,0.03-8.97,0.05
		c-2.55-0.15-5.11-0.18-7.64-0.47c-0.56-0.26-1.16-0.22-1.76-0.18c-2.79-0.36-5.62-0.5-8.35-1.11c-6.09-1.37-12.15-2.88-17.95-5.28
		c-7.81-3.23-15.06-7.37-21.37-13.06c-1.39-1.26-2.69-2.62-3.96-4c-0.6-0.66-0.86-1.34-0.84-2.24c0.11-4.69,1.06-9.2,2.9-13.52
		c1.23-2.88,2.88-5.49,4.79-7.96c4.81-6.21,11.19-9.96,18.64-12.07c0.4-0.11,0.8-0.2,1.2-0.29c0.25,0.59,0.67,1.04,1.1,1.51
		c1.02,1.11,2.02,2.24,3.02,3.38c2.67,3.06,5.32,6.13,8,9.19c2.54,2.9,5.11,5.77,7.65,8.67c3.25,3.72,6.48,7.48,9.73,11.2
		c2.67,3.06,5.37,6.1,8.04,9.15c0.65,0.74,0.66,0.74,1.27,0.05c1.97-2.22,3.93-4.45,5.91-6.66c3.5-3.92,7.01-7.84,10.52-11.76
		c4.41-4.93,8.82-9.86,13.23-14.79C102.62,190.62,105.58,187.32,108.53,184.02z"/>
	<path class="st7" d="M108.53,184.02c-2.95,3.3-5.91,6.6-8.86,9.89c-4.41,4.93-8.82,9.86-13.23,14.79
		c-3.51,3.92-7.01,7.84-10.52,11.76c-1.98,2.21-3.94,4.44-5.91,6.66c-0.61,0.69-0.63,0.69-1.27-0.05c-2.68-3.05-5.37-6.09-8.04-9.15
		c-3.25-3.73-6.47-7.48-9.73-11.2c-2.54-2.9-5.11-5.77-7.65-8.67c-2.68-3.05-5.33-6.13-8-9.19c-0.99-1.14-2-2.27-3.02-3.38
		c-0.43-0.46-0.84-0.92-1.1-1.51c0.73-0.14,1.46-0.29,2.18-0.43c0.55,0.09,1.08,0.03,1.57-0.25c0.41-0.02,0.82-0.05,1.23-0.07
		c3.8,0.01,7.6,0.08,11.4,0c1.22-0.02,2.03,0.38,2.8,1.27c3.2,3.71,6.44,7.38,9.67,11.06c2.78,3.17,5.55,6.35,8.35,9.5
		c0.9,1.01,0.96,1.01,1.91-0.01c3.9-4.19,7.67-8.49,11.43-12.8c2.36-2.71,4.74-5.4,7.07-8.14c0.57-0.67,1.18-0.88,2.02-0.87
		c4.22,0.03,8.44,0,12.66,0c0.42,0.02,0.83,0.04,1.25,0.05c0.49,0.28,1.02,0.33,1.57,0.24C107.07,183.71,107.8,183.87,108.53,184.02
		z"/>
	<path class="st7" d="M28.48,50.9c0,0-7.16-27.34-7.16-29.39s0.53-2.85,2.58-3.92S59.07,1.38,62.81,0.49
		c3.74-0.89,5.16-0.8,9.17,0.53s34.29,15.33,36.96,16.49s3.74,2.14,2.58,5.79c-1.16,3.65-9.17,27.6-9.17,27.6H28.48z"/>
	<path class="st8" d="M66.41,43.88c-1.3,0-2.61-0.03-3.91,0.01c-0.75,0.03-1.01-0.25-1-0.99c0.03-1.88,0.01-3.75,0.01-5.63
		c0-1.94,0.14-1.72-1.8-1.72c-1.72-0.01-3.44,0-5.16,0c-1.39-0.01-1.4-0.01-1.4-1.33c-0.01-2.35-0.01-4.69,0-7.04
		c0-1.39,0.01-1.4,1.49-1.4c1.82-0.01,3.65,0,5.47,0c1.38-0.01,1.39-0.01,1.4-1.34c0.01-1.98,0.03-3.96-0.01-5.94
		c-0.01-0.78,0.19-1.12,1.05-1.1c2.55,0.05,5.11,0.01,7.66,0.02c1.07,0.01,1.09,0.03,1.1,1.17c0.02,1.77,0,3.54,0.01,5.32
		c0.01,2.14-0.21,1.86,1.96,1.88c1.77,0.01,3.55,0.03,5.32-0.01c0.81-0.02,1.09,0.25,1.08,1.07c-0.04,2.55-0.04,5.11,0,7.66
		c0.01,0.83-0.28,1.08-1.08,1.06c-1.88-0.04-3.75-0.02-5.63-0.01c-1.71,0-1.64-0.16-1.64,1.57c0,1.88,0.01,3.75,0,5.63
		c-0.01,1.1-0.03,1.11-1.14,1.13C68.92,43.89,67.67,43.88,66.41,43.88z"/>
	<path class="st9" d="M65.54,244.15c2.99-0.02,5.98-0.03,8.97-0.05c-1.06,0.36-2.16,0.18-3.23,0.18
		C69.36,244.29,67.44,244.47,65.54,244.15z"/>
	<path class="st9" d="M77.13,243.99c0.89-0.26,1.8-0.22,2.71-0.19C78.95,244.13,78.03,243.99,77.13,243.99z"/>
	<path class="st9" d="M56.14,243.51c0.6-0.04,1.19-0.08,1.76,0.18C57.3,243.68,56.7,243.82,56.14,243.51z"/>
	<path class="st10" d="M119.55,133.86c0.15,0.01,0.3,0.02,0.45,0.04c-0.19,0.27-0.38,0.54-0.57,0.81
		C119.17,134.39,119.23,134.11,119.55,133.86z"/>
	<path class="st9" d="M34.96,183.31c-0.49,0.28-1.02,0.33-1.57,0.25C33.86,183.15,34.42,183.25,34.96,183.31z"/>
	<path class="st9" d="M106.34,183.55c-0.55,0.08-1.08,0.04-1.57-0.24C105.31,183.25,105.86,183.15,106.34,183.55z"/>
	<path class="st10" d="M15.32,133.92c0.14,0.01,0.28,0.01,0.42,0.02c0.04,0.18,0.07,0.35,0.1,0.52
		C15.55,134.4,15.43,134.17,15.32,133.92z"/>
	<path class="st10" d="M15.84,134.44c0.05,0.11,0.1,0.22,0.15,0.33C15.94,134.66,15.89,134.55,15.84,134.44z"/>
	<g>
		<path class="st6" d="M67.59,126.77c0.62-0.69,1.16-1.44,1.85-2.01c1.57-1.3,3.42-1.54,5.37-1.11c2.72,0.59,5,2.06,7.21,3.66
			c1.92,1.4,3.8,2.86,5.72,4.26c0.52,0.38,1.11,0.68,1.71,0.92c0.38,0.15,0.86,0.22,1.26,0.16c1.45-0.23,1.87-1.31,1.01-2.48
			c-0.24-0.33-0.55-0.67-0.61-1.04c-0.06-0.38,0.05-0.88,0.28-1.18c0.14-0.19,0.69-0.21,0.98-0.11c1.64,0.55,2.76,1.73,3.54,3.21
			c1.63,3.08,0.67,6.7-2.28,8.95c-1.76,1.34-3.79,1.99-5.94,2.22c-5.74,0.6-11.1-0.56-15.97-3.71c-1.74-1.13-3.15-2.59-3.99-4.47
			c-0.64,0.87-1.2,1.83-1.94,2.61c-2.4,2.54-5.48,3.92-8.8,4.82c-3.82,1.04-7.67,1.35-11.55,0.33c-3.09-0.81-5.42-2.56-6.51-5.66
			c-1.08-3.07,0.64-6.9,3.66-8.18c0.46-0.19,0.98-0.46,1.4,0.03c0.46,0.52,0.37,1.11,0,1.66c-0.21,0.32-0.46,0.61-0.67,0.93
			c-0.42,0.63-0.35,0.99,0.22,1.5c0.8,0.71,1.71,0.85,2.6,0.31c1.33-0.81,2.63-1.67,3.88-2.6c2.45-1.82,4.79-3.79,7.57-5.11
			c1.66-0.79,3.38-1.36,5.28-1.16c1.96,0.21,3.39,1.23,4.46,2.83C67.44,126.5,67.53,126.66,67.59,126.77z"/>
	</g>
</g>
</svg>
