<?xml version="1.0" encoding="utf-8"?>
<!-- Generator: Adobe Illustrator 27.2.0, SVG Export Plug-In . SVG Version: 6.00 Build 0)  -->
<svg version="1.1" id="Lager_1" xmlns="http://www.w3.org/2000/svg" xmlns:xlink="http://www.w3.org/1999/xlink" x="0px" y="0px"
	 viewBox="0 0 442.51 244.25" style="enable-background:new 0 0 442.51 244.25;" xml:space="preserve">
<style type="text/css">
	.st0{display:none;}
	.st1{display:inline;fill:none;}
	.st2{display:inline;}
	.st3{fill:none;stroke:#0099CE;stroke-width:50;stroke-miterlimit:10;}
	.st4{fill:#0099CE;}
	.st5{display:none;fill:none;stroke:#1E1E1C;stroke-width:2;stroke-miterlimit:10;}
	.st6{fill:#FFFFFF;stroke:#DADADA;stroke-miterlimit:10;}
	.st7{fill:#343434;}
	.st8{fill:#67C2DB;}
	.st9{fill:#878787;}
	.st10{fill:#F6F6F6;}
	.st11{fill:#E2CCA4;}
	.st12{fill:#157E56;}
	.st13{fill:#020203;}
	.st14{fill:none;stroke:#0099CE;stroke-width:2;stroke-miterlimit:10;stroke-dasharray:14.997,9.9979;}
	.st15{fill:none;stroke:#0099CE;stroke-width:3;stroke-miterlimit:10;}
	.st16{fill:none;stroke:#0099CE;stroke-width:2;stroke-miterlimit:10;}
</style>
<g class="st0">
	<line class="st1" x1="218.9" y1="200.2" x2="432.7" y2="58.73"/>
	<g class="st2">
		<line class="st3" x1="218.9" y1="200.2" x2="377.34" y2="95.36"/>
		<g>
			<path class="st4" d="M432.7,58.73c-19.65,26.9-41.06,64.78-49.54,95.51l-13.09-54.07l-44.64-33.18
				C357.02,71.2,400.26,66.31,432.7,58.73z"/>
		</g>
	</g>
</g>
<polyline class="st5" points="185.14,40.06 185.14,229.65 432.7,229.65 "/>
<g>
	<path class="st6" d="M106.67,131.56c-1.1,1.52-1.86,3.24-2.88,4.81c-1.15,1.78-2.38,3.49-3.77,5.06c-4.18,4.7-9.07,8.47-14.85,11
		c-0.56,0.24-0.78,0.51-0.78,1.11c0.01,4.46,0.01,8.91,0.01,13.37c0,0.82,0.03,0.84,0.88,0.85c2.74,0.01,5.48,0,8.21,0.01
		c0.41,0,0.87-0.12,1.24,0.2c-3.17,0.01-6.33,0.02-9.5,0c-0.63-0.01-1.1,0.15-1.51,0.65c-1.75,2.06-3.53,4.07-5.3,6.11
		c-2.82,3.23-5.65,6.46-8.57,9.6c-0.71,0.76-0.76,0.77-1.43,0.01c-2.1-2.36-4.18-4.75-6.26-7.13c-2.42-2.76-4.85-5.51-7.25-8.3
		c-0.58-0.67-1.19-0.98-2.1-0.95c-2.85,0.06-5.7,0.01-8.55,0c0.38-0.29,0.83-0.19,1.25-0.19c2.46-0.02,4.92,0,7.39-0.02
		c1.01,0,1.03-0.01,1.03-1.05c0.01-3.98-0.01-7.97,0.02-11.96c0.01-0.71-0.23-1.03-0.88-1.27c-3.2-1.19-6.23-2.69-9.05-4.61
		c-6.1-4.14-10.84-9.48-14.18-16.06c-0.21-0.41-0.47-0.8-0.71-1.21c-0.04-0.08-0.08-0.17-0.11-0.25l0.01,0.02
		c-0.02-0.13-0.05-0.26-0.08-0.39c-0.5-1.2-1.01-2.4-1.5-3.6c-0.92-2.27-1.35-4.64-1.69-7.05c-0.29-2.06-0.54-4.1-0.51-6.18
		c0.02-1,0.01-1.02,0.92-1.32c4.62-1.55,9.08-3.45,13.44-5.63c4.46-2.22,8.72-4.71,12.48-7.98c6.29-5.48,10.82-12.29,14.6-19.64
		c0.18-0.35,0.27-0.74,0.49-1.05c0.41-0.61,0.71-0.57,1.25-0.04c0.26,0.26,0.39,0.58,0.55,0.89c1.61,3.18,3.4,6.25,5.42,9.19
		c3.5,5.1,7.53,9.69,12.63,13.26c5.21,3.65,10.88,6.41,16.73,8.82c1.94,0.79,3.89,1.55,5.86,2.29c0.93,0.35,0.93,0.32,0.93,1.32
		c0,3.56-0.56,7.05-1.55,10.46c-0.62,2.11-1.2,4.23-2.18,6.22C106.52,131.11,106.47,131.32,106.67,131.56z"/>
	<path class="st7" d="M106.76,130.93c0.98-1.99,1.56-4.11,2.18-6.22c1-3.41,1.55-6.89,1.55-10.46c0-1.01,0-0.97-0.93-1.32
		c-1.96-0.74-3.92-1.49-5.86-2.29c-5.85-2.42-11.52-5.18-16.73-8.82c-5.1-3.58-9.14-8.16-12.63-13.26
		c-2.01-2.94-3.81-6.01-5.42-9.19c-0.16-0.31-0.28-0.62-0.55-0.89c-0.53-0.53-0.83-0.58-1.25,0.04c-0.21,0.32-0.31,0.71-0.49,1.05
		c-3.79,7.35-8.31,14.17-14.6,19.64c-3.76,3.27-8.03,5.76-12.48,7.98c-4.36,2.18-8.82,4.08-13.44,5.63
		c-0.92,0.31-0.91,0.32-0.92,1.32c-0.03,2.08,0.23,4.13,0.51,6.18c0.34,2.4,0.77,4.79,1.69,7.05c0.49,1.21,1,2.4,1.5,3.6
		c-0.11-0.01-0.21-0.01-0.32-0.02c-1.74-2.03-3.2-4.25-4.52-6.56c-0.53-0.93-1.04-1.88-1.58-2.81c-0.44-0.76-0.65-1.64-0.98-2.45
		c-0.87-2.12-1.64-4.27-2.24-6.49c-0.37-1.38-0.68-2.78-1.04-4.16c-0.21-0.79-0.14-1.7-0.23-2.55c-0.5-4.37-0.53-8.73,0.09-13.1
		c0.13-0.92,0.1-1.85,0.28-2.78c0.15-0.75,0.38-1.51,0.6-2.2c0.45-1.39,0.74-2.82,1.2-4.21c0.62-1.82,1.45-3.52,2.17-5.28
		c0.95-2.33,2.34-4.41,3.62-6.55c0.8-1.35,1.89-2.52,2.86-3.77c0.57-0.74,1.27-1.37,1.73-2.19c0.2-0.36,0.54-0.69,0.89-0.92
		c0.56-0.36,0.95-0.83,1.36-1.36c0.96-1.23,2.39-1.95,3.49-3.05c0.39-0.39,0.74-0.1,0.91,0.3c0.27,0.67,0.53,1.35,0.71,2.05
		c0.5,1.87,1.1,3.71,1.69,5.54c0.23,0.4,0.62,0.21,0.93,0.21c17.36,0.01,34.72,0.01,52.08,0.01c0.34,0,0.71,0.14,1.01-0.16
		c1.07-3.05,2.17-6.08,3.01-9.2c0.12-0.44,0.42-0.53,0.76-0.23c2.44,2.2,5.13,4.09,7.34,6.55c2.54,2.83,4.82,5.82,6.69,9.13
		c1.06,1.86,2.06,3.75,2.81,5.75c1.06,2.79,1.95,5.63,2.62,8.55c0.97,4.24,1.28,8.51,1.15,12.83c-0.08,2.72-0.56,5.38-1.05,8.04
		c-0.38,2.05-0.88,4.07-1.62,6c-1.04,2.71-2.05,5.42-3.6,7.94c-1.28,2.08-2.66,4.1-3.92,6.17c-0.2,0.33-0.48,0.62-0.72,0.92
		C106.99,130.95,106.88,130.94,106.76,130.93z"/>
	<path class="st4" d="M98.49,168.55c7.4,1.7,13.05,5.84,16.96,12.32c2.39,3.96,3.5,8.3,3.67,12.91c0.03,0.77-0.19,1.33-0.71,1.88
		c-3.11,3.36-6.7,6.11-10.62,8.43c-7.22,4.27-15.03,6.89-23.27,8.32c-2.51,0.44-5.03,0.74-7.55,0.98c-0.68-0.02-1.37-0.05-2.03,0.14
		c-0.65,0.03-1.31,0.06-1.97,0.09c-2.24,0.01-4.49,0.02-6.73,0.04c-1.91-0.11-3.83-0.13-5.73-0.35c-0.42-0.19-0.87-0.16-1.32-0.13
		c-2.09-0.27-4.22-0.38-6.26-0.83c-4.57-1.03-9.11-2.16-13.46-3.96c-5.86-2.42-11.3-5.53-16.03-9.8c-1.04-0.95-2.02-1.97-2.97-3
		c-0.45-0.5-0.65-1.01-0.63-1.68c0.08-3.52,0.8-6.9,2.18-10.14c0.92-2.16,2.16-4.12,3.59-5.97c3.61-4.66,8.39-7.47,13.98-9.05
		c0.3-0.08,0.6-0.15,0.9-0.22c0.19,0.44,0.5,0.78,0.83,1.13c0.77,0.83,1.52,1.68,2.27,2.54c2,2.29,3.99,4.6,6,6.89
		c1.91,2.18,3.83,4.33,5.74,6.5c2.44,2.79,4.86,5.61,7.3,8.4c2,2.3,4.03,4.58,6.03,6.86c0.49,0.56,0.5,0.56,0.95,0.04
		c1.48-1.67,2.95-3.34,4.43-5c2.63-2.94,5.26-5.88,7.89-8.82c3.31-3.7,6.62-7.4,9.92-11.09C94.06,173.5,96.28,171.02,98.49,168.55z"
		/>
	<path class="st8" d="M98.49,168.55c-2.21,2.48-4.43,4.95-6.65,7.42c-3.31,3.7-6.62,7.4-9.92,11.09c-2.63,2.94-5.26,5.88-7.89,8.82
		c-1.49,1.66-2.96,3.33-4.43,5c-0.46,0.52-0.47,0.52-0.95-0.04c-2.01-2.29-4.03-4.57-6.03-6.86c-2.44-2.8-4.85-5.61-7.3-8.4
		c-1.91-2.18-3.83-4.33-5.74-6.5c-2.01-2.29-4-4.6-6-6.89c-0.74-0.85-1.5-1.7-2.27-2.54c-0.32-0.35-0.63-0.69-0.83-1.13
		c0.55-0.1,1.1-0.22,1.64-0.32c0.41,0.07,0.81,0.02,1.18-0.19c0.31-0.01,0.62-0.04,0.92-0.05c2.85,0.01,5.7,0.06,8.55,0
		c0.92-0.01,1.52,0.29,2.1,0.95c2.4,2.78,4.83,5.54,7.25,8.3c2.09,2.38,4.16,4.76,6.26,7.13c0.68,0.76,0.72,0.76,1.43-0.01
		c2.93-3.14,5.75-6.37,8.57-9.6c1.77-2.03,3.56-4.05,5.3-6.11c0.43-0.5,0.89-0.66,1.52-0.65c3.17,0.02,6.33,0,9.5,0
		c0.32,0.01,0.62,0.03,0.94,0.04c0.37,0.21,0.76,0.25,1.18,0.18C97.4,168.31,97.94,168.43,98.49,168.55z"/>
	<path class="st9" d="M38.45,68.71c0,0-5.37-20.51-5.37-22.04c0-1.54,0.4-2.14,1.94-2.94c1.54-0.8,26.38-12.16,29.18-12.83
		s3.87-0.6,6.88,0.4c3.01,1,25.72,11.5,27.72,12.37s2.81,1.61,1.94,4.34s-6.88,20.7-6.88,20.7H38.45z"/>
	<path class="st10" d="M66.9,63.44c-0.98,0-1.96-0.02-2.93,0.01c-0.56,0.02-0.76-0.19-0.75-0.74c0.02-1.41,0.01-2.81,0.01-4.22
		c0-1.46,0.1-1.29-1.35-1.29c-1.29-0.01-2.58,0-3.87,0c-1.04-0.01-1.05-0.01-1.05-1c-0.01-1.76-0.01-3.52,0-5.28
		c0-1.04,0.01-1.05,1.12-1.05c1.37-0.01,2.74,0,4.1,0c1.04-0.01,1.04-0.01,1.05-1.01c0.01-1.49,0.02-2.97-0.01-4.46
		c-0.01-0.59,0.14-0.84,0.79-0.83c1.91,0.04,3.83,0.01,5.75,0.01c0.8,0.01,0.82,0.02,0.83,0.88c0.01,1.33,0,2.66,0.01,3.99
		c0.01,1.61-0.16,1.4,1.47,1.41c1.33,0.01,2.66,0.02,3.99-0.01c0.61-0.01,0.82,0.19,0.81,0.8c-0.03,1.91-0.03,3.83,0,5.75
		c0.01,0.62-0.21,0.81-0.81,0.8c-1.41-0.03-2.81-0.01-4.22-0.01c-1.28,0-1.23-0.12-1.23,1.18c0,1.41,0.01,2.81,0,4.22
		c-0.01,0.83-0.02,0.83-0.86,0.85C68.78,63.45,67.85,63.44,66.9,63.44z"/>
	<path class="st11" d="M66.25,213.64c2.24-0.01,4.49-0.02,6.73-0.04c-0.79,0.27-1.62,0.13-2.42,0.13
		C69.11,213.75,67.67,213.88,66.25,213.64z"/>
	<path class="st11" d="M74.94,213.52c0.67-0.19,1.35-0.16,2.03-0.14C76.31,213.63,75.62,213.52,74.94,213.52z"/>
	<path class="st11" d="M59.2,213.16c0.45-0.03,0.89-0.06,1.32,0.13C60.07,213.29,59.62,213.4,59.2,213.16z"/>
	<path class="st12" d="M106.76,130.93c0.11,0.01,0.22,0.02,0.34,0.03c-0.14,0.2-0.29,0.4-0.43,0.61
		C106.47,131.32,106.52,131.11,106.76,130.93z"/>
	<path class="st11" d="M43.31,168.01c-0.37,0.21-0.77,0.25-1.18,0.19C42.49,167.89,42.91,167.97,43.31,168.01z"/>
	<path class="st11" d="M96.85,168.19c-0.41,0.06-0.81,0.03-1.18-0.18C96.08,167.97,96.49,167.89,96.85,168.19z"/>
	<path class="st12" d="M28.58,130.97c0.1,0.01,0.21,0.01,0.32,0.02c0.03,0.13,0.05,0.26,0.08,0.39
		C28.76,131.33,28.67,131.16,28.58,130.97z"/>
	<path class="st12" d="M28.97,131.36c0.04,0.08,0.08,0.16,0.11,0.25C29.05,131.53,29.01,131.44,28.97,131.36z"/>
	<g>
		<path class="st13" d="M67.79,125.61c0.47-0.52,0.87-1.08,1.39-1.51c1.18-0.98,2.57-1.16,4.03-0.83c2.04,0.44,3.75,1.54,5.41,2.75
			c1.44,1.05,2.85,2.15,4.29,3.2c0.39,0.29,0.83,0.51,1.28,0.69c0.28,0.11,0.65,0.17,0.95,0.12c1.09-0.17,1.4-0.98,0.76-1.86
			c-0.18-0.25-0.41-0.5-0.46-0.78c-0.04-0.29,0.04-0.66,0.21-0.89c0.1-0.14,0.52-0.16,0.74-0.08c1.23,0.41,2.07,1.3,2.66,2.41
			c1.22,2.31,0.5,5.03-1.71,6.71c-1.32,1.01-2.84,1.49-4.46,1.67c-4.31,0.45-8.33-0.42-11.98-2.78c-1.31-0.85-2.36-1.94-2.99-3.35
			c-0.48,0.65-0.9,1.37-1.46,1.96c-1.8,1.9-4.11,2.94-6.6,3.62c-2.87,0.78-5.75,1.01-8.66,0.25c-2.32-0.61-4.07-1.92-4.88-4.25
			c-0.81-2.3,0.48-5.18,2.75-6.14c0.35-0.14,0.74-0.35,1.05,0.02c0.35,0.39,0.28,0.83,0,1.25c-0.16,0.24-0.35,0.46-0.5,0.7
			c-0.31,0.47-0.26,0.74,0.17,1.13c0.6,0.53,1.28,0.64,1.95,0.23c1-0.61,1.97-1.25,2.91-1.95c1.84-1.37,3.59-2.84,5.68-3.83
			c1.25-0.59,2.54-1.02,3.96-0.87c1.47,0.16,2.54,0.92,3.35,2.12C67.67,125.41,67.74,125.53,67.79,125.61z"/>
	</g>
</g>
<g>
	<g>
		<line class="st14" x1="179.98" y1="174.58" x2="388.58" y2="89.46"/>
		<g>
			<polygon class="st4" points="385.53,99.53 383.72,98.69 387.87,89.75 378.64,86.26 379.35,84.39 390.59,88.64 			"/>
		</g>
	</g>
</g>
<line class="st15" x1="139.78" y1="218.03" x2="430.78" y2="218.03"/>
<rect x="140.78" y="42.04" class="st16" width="288.97" height="177.9"/>
</svg>
