<?xml version="1.0" encoding="utf-8"?>
<!-- Generator: Adobe Illustrator 26.5.3, SVG Export Plug-In . SVG Version: 6.00 Build 0)  -->
<svg version="1.1" id="Lager_1" xmlns="http://www.w3.org/2000/svg" xmlns:xlink="http://www.w3.org/1999/xlink" x="0px" y="0px"
	 viewBox="0 0 442.5 244.2" style="enable-background:new 0 0 442.5 244.2;" xml:space="preserve">
<style type="text/css">
	.st0{display:none;}
	.st1{display:inline;fill:none;}
	.st2{display:inline;}
	.st3{fill:none;stroke:#0099CE;stroke-width:50;stroke-miterlimit:10;}
	.st4{fill:#0099CE;}
	.st5{display:none;fill:none;stroke:#1E1E1C;stroke-width:2;stroke-miterlimit:10;}
	.st6{fill:#FFFFFF;stroke:#DADADA;stroke-miterlimit:10;}
	.st7{fill:#343434;}
	.st8{fill:#67C2DB;}
	.st9{fill:#878787;}
	.st10{fill:#F6F6F6;}
	.st11{fill:#E2CCA4;}
	.st12{fill:#157E56;}
	.st13{fill:#020203;}
	.st14{fill:#1D1D1B;stroke:#1D1D1B;stroke-width:2;stroke-miterlimit:10;stroke-dasharray:14.997,9.9979;}
	.st15{fill:#1D1D1B;stroke:#1D1D1B;stroke-miterlimit:10;}
	.st16{fill:none;stroke:#1D1D1B;stroke-width:3;stroke-miterlimit:10;}
	.st17{fill:none;stroke:#1D1D1B;stroke-width:2;stroke-miterlimit:10;}
</style>
<g class="st0">
	<line class="st1" x1="218.9" y1="200.2" x2="432.7" y2="58.7"/>
	<g class="st2">
		<line class="st3" x1="218.9" y1="200.2" x2="377.3" y2="95.4"/>
		<g>
			<path class="st4" d="M432.7,58.7c-19.6,26.9-41.1,64.8-49.5,95.5l-13.1-54.1L325.4,67C357,71.2,400.3,66.3,432.7,58.7z"/>
		</g>
	</g>
</g>
<polyline class="st5" points="185.1,40.1 185.1,229.6 432.7,229.6 "/>
<g>
	<path class="st6" d="M106.7,131.6c-1.1,1.5-1.9,3.2-2.9,4.8c-1.2,1.8-2.4,3.5-3.8,5.1c-4.2,4.7-9.1,8.5-14.8,11
		c-0.6,0.2-0.8,0.5-0.8,1.1c0,4.5,0,8.9,0,13.4c0,0.8,0,0.8,0.9,0.9c2.7,0,5.5,0,8.2,0c0.4,0,0.9-0.1,1.2,0.2c-3.2,0-6.3,0-9.5,0
		c-0.6,0-1.1,0.1-1.5,0.6c-1.8,2.1-3.5,4.1-5.3,6.1c-2.8,3.2-5.7,6.5-8.6,9.6c-0.7,0.8-0.8,0.8-1.4,0c-2.1-2.4-4.2-4.8-6.3-7.1
		c-2.4-2.8-4.8-5.5-7.2-8.3c-0.6-0.7-1.2-1-2.1-0.9c-2.8,0.1-5.7,0-8.5,0c0.4-0.3,0.8-0.2,1.2-0.2c2.5,0,4.9,0,7.4,0c1,0,1,0,1-1.1
		c0-4,0-8,0-12c0-0.7-0.2-1-0.9-1.3c-3.2-1.2-6.2-2.7-9-4.6c-6.1-4.1-10.8-9.5-14.2-16.1c-0.2-0.4-0.5-0.8-0.7-1.2
		c0-0.1-0.1-0.2-0.1-0.2l0,0c0-0.1,0-0.3-0.1-0.4c-0.5-1.2-1-2.4-1.5-3.6c-0.9-2.3-1.4-4.6-1.7-7.1c-0.3-2.1-0.5-4.1-0.5-6.2
		c0-1,0-1,0.9-1.3c4.6-1.6,9.1-3.4,13.4-5.6c4.5-2.2,8.7-4.7,12.5-8c6.3-5.5,10.8-12.3,14.6-19.6c0.2-0.3,0.3-0.7,0.5-1.1
		c0.4-0.6,0.7-0.6,1.2,0c0.3,0.3,0.4,0.6,0.6,0.9c1.6,3.2,3.4,6.2,5.4,9.2c3.5,5.1,7.5,9.7,12.6,13.3c5.2,3.7,10.9,6.4,16.7,8.8
		c1.9,0.8,3.9,1.6,5.9,2.3c0.9,0.3,0.9,0.3,0.9,1.3c0,3.6-0.6,7.1-1.6,10.5c-0.6,2.1-1.2,4.2-2.2,6.2
		C106.5,131.1,106.5,131.3,106.7,131.6z"/>
	<path class="st7" d="M106.8,130.9c1-2,1.6-4.1,2.2-6.2c1-3.4,1.6-6.9,1.6-10.5c0-1,0-1-0.9-1.3c-2-0.7-3.9-1.5-5.9-2.3
		c-5.8-2.4-11.5-5.2-16.7-8.8c-5.1-3.6-9.1-8.2-12.6-13.3c-2-2.9-3.8-6-5.4-9.2c-0.2-0.3-0.3-0.6-0.6-0.9c-0.5-0.5-0.8-0.6-1.2,0
		c-0.2,0.3-0.3,0.7-0.5,1.1c-3.8,7.3-8.3,14.2-14.6,19.6c-3.8,3.3-8,5.8-12.5,8c-4.4,2.2-8.8,4.1-13.4,5.6c-0.9,0.3-0.9,0.3-0.9,1.3
		c0,2.1,0.2,4.1,0.5,6.2c0.3,2.4,0.8,4.8,1.7,7.1c0.5,1.2,1,2.4,1.5,3.6c-0.1,0-0.2,0-0.3,0c-1.7-2-3.2-4.2-4.5-6.6
		c-0.5-0.9-1-1.9-1.6-2.8c-0.4-0.8-0.6-1.6-1-2.4c-0.9-2.1-1.6-4.3-2.2-6.5c-0.4-1.4-0.7-2.8-1-4.2c-0.2-0.8-0.1-1.7-0.2-2.6
		c-0.5-4.4-0.5-8.7,0.1-13.1c0.1-0.9,0.1-1.8,0.3-2.8c0.1-0.8,0.4-1.5,0.6-2.2c0.5-1.4,0.7-2.8,1.2-4.2c0.6-1.8,1.5-3.5,2.2-5.3
		c1-2.3,2.3-4.4,3.6-6.6c0.8-1.3,1.9-2.5,2.9-3.8c0.6-0.7,1.3-1.4,1.7-2.2c0.2-0.4,0.5-0.7,0.9-0.9c0.6-0.4,1-0.8,1.4-1.4
		c1-1.2,2.4-2,3.5-3c0.4-0.4,0.7-0.1,0.9,0.3c0.3,0.7,0.5,1.3,0.7,2c0.5,1.9,1.1,3.7,1.7,5.5c0.2,0.4,0.6,0.2,0.9,0.2
		c17.4,0,34.7,0,52.1,0c0.3,0,0.7,0.1,1-0.2c1.1-3.1,2.2-6.1,3-9.2c0.1-0.4,0.4-0.5,0.8-0.2c2.4,2.2,5.1,4.1,7.3,6.6
		c2.5,2.8,4.8,5.8,6.7,9.1c1.1,1.9,2.1,3.8,2.8,5.8c1.1,2.8,1.9,5.6,2.6,8.6c1,4.2,1.3,8.5,1.2,12.8c-0.1,2.7-0.6,5.4-1.1,8
		c-0.4,2.1-0.9,4.1-1.6,6c-1,2.7-2.1,5.4-3.6,7.9c-1.3,2.1-2.7,4.1-3.9,6.2c-0.2,0.3-0.5,0.6-0.7,0.9
		C107,130.9,106.9,130.9,106.8,130.9z"/>
	<path class="st4" d="M98.5,168.6c7.4,1.7,13.1,5.8,17,12.3c2.4,4,3.5,8.3,3.7,12.9c0,0.8-0.2,1.3-0.7,1.9
		c-3.1,3.4-6.7,6.1-10.6,8.4c-7.2,4.3-15,6.9-23.3,8.3c-2.5,0.4-5,0.7-7.6,1c-0.7,0-1.4-0.1-2,0.1c-0.7,0-1.3,0.1-2,0.1
		c-2.2,0-4.5,0-6.7,0c-1.9-0.1-3.8-0.1-5.7-0.4c-0.4-0.2-0.9-0.2-1.3-0.1c-2.1-0.3-4.2-0.4-6.3-0.8c-4.6-1-9.1-2.2-13.5-4
		c-5.9-2.4-11.3-5.5-16-9.8c-1-0.9-2-2-3-3c-0.5-0.5-0.6-1-0.6-1.7c0.1-3.5,0.8-6.9,2.2-10.1c0.9-2.2,2.2-4.1,3.6-6
		c3.6-4.7,8.4-7.5,14-9.1c0.3-0.1,0.6-0.1,0.9-0.2c0.2,0.4,0.5,0.8,0.8,1.1c0.8,0.8,1.5,1.7,2.3,2.5c2,2.3,4,4.6,6,6.9
		c1.9,2.2,3.8,4.3,5.7,6.5c2.4,2.8,4.9,5.6,7.3,8.4c2,2.3,4,4.6,6,6.9c0.5,0.6,0.5,0.6,0.9,0c1.5-1.7,2.9-3.3,4.4-5
		c2.6-2.9,5.3-5.9,7.9-8.8c3.3-3.7,6.6-7.4,9.9-11.1C94.1,173.5,96.3,171,98.5,168.6z"/>
	<path class="st8" d="M98.5,168.6c-2.2,2.5-4.4,4.9-6.7,7.4c-3.3,3.7-6.6,7.4-9.9,11.1c-2.6,2.9-5.3,5.9-7.9,8.8
		c-1.5,1.7-3,3.3-4.4,5c-0.5,0.5-0.5,0.5-0.9,0c-2-2.3-4-4.6-6-6.9c-2.4-2.8-4.8-5.6-7.3-8.4c-1.9-2.2-3.8-4.3-5.7-6.5
		c-2-2.3-4-4.6-6-6.9c-0.7-0.9-1.5-1.7-2.3-2.5c-0.3-0.4-0.6-0.7-0.8-1.1c0.5-0.1,1.1-0.2,1.6-0.3c0.4,0.1,0.8,0,1.2-0.2
		c0.3,0,0.6,0,0.9-0.1c2.8,0,5.7,0.1,8.5,0c0.9,0,1.5,0.3,2.1,0.9c2.4,2.8,4.8,5.5,7.2,8.3c2.1,2.4,4.2,4.8,6.3,7.1
		c0.7,0.8,0.7,0.8,1.4,0c2.9-3.1,5.8-6.4,8.6-9.6c1.8-2,3.6-4.1,5.3-6.1c0.4-0.5,0.9-0.7,1.5-0.6c3.2,0,6.3,0,9.5,0
		c0.3,0,0.6,0,0.9,0c0.4,0.2,0.8,0.2,1.2,0.2C97.4,168.3,97.9,168.4,98.5,168.6z"/>
	<path class="st9" d="M38.5,68.7c0,0-5.4-20.5-5.4-22c0-1.5,0.4-2.1,1.9-2.9c1.5-0.8,26.4-12.2,29.2-12.8s3.9-0.6,6.9,0.4
		c3,1,25.7,11.5,27.7,12.4s2.8,1.6,1.9,4.3s-6.9,20.7-6.9,20.7H38.5z"/>
	<path class="st10" d="M66.9,63.4c-1,0-2,0-2.9,0c-0.6,0-0.8-0.2-0.8-0.7c0-1.4,0-2.8,0-4.2c0-1.5,0.1-1.3-1.3-1.3
		c-1.3,0-2.6,0-3.9,0c-1,0-1,0-1-1c0-1.8,0-3.5,0-5.3c0-1,0-1,1.1-1c1.4,0,2.7,0,4.1,0c1,0,1,0,1-1c0-1.5,0-3,0-4.5
		c0-0.6,0.1-0.8,0.8-0.8c1.9,0,3.8,0,5.8,0c0.8,0,0.8,0,0.8,0.9c0,1.3,0,2.7,0,4c0,1.6-0.2,1.4,1.5,1.4c1.3,0,2.7,0,4,0
		c0.6,0,0.8,0.2,0.8,0.8c0,1.9,0,3.8,0,5.8c0,0.6-0.2,0.8-0.8,0.8c-1.4,0-2.8,0-4.2,0c-1.3,0-1.2-0.1-1.2,1.2c0,1.4,0,2.8,0,4.2
		c0,0.8,0,0.8-0.9,0.8C68.8,63.5,67.8,63.4,66.9,63.4z"/>
	<path class="st11" d="M66.2,213.6c2.2,0,4.5,0,6.7,0c-0.8,0.3-1.6,0.1-2.4,0.1C69.1,213.8,67.7,213.9,66.2,213.6z"/>
	<path class="st11" d="M74.9,213.5c0.7-0.2,1.3-0.2,2-0.1C76.3,213.6,75.6,213.5,74.9,213.5z"/>
	<path class="st11" d="M59.2,213.2c0.5,0,0.9-0.1,1.3,0.1C60.1,213.3,59.6,213.4,59.2,213.2z"/>
	<path class="st12" d="M106.8,130.9c0.1,0,0.2,0,0.3,0c-0.1,0.2-0.3,0.4-0.4,0.6C106.5,131.3,106.5,131.1,106.8,130.9z"/>
	<path class="st11" d="M43.3,168c-0.4,0.2-0.8,0.2-1.2,0.2C42.5,167.9,42.9,168,43.3,168z"/>
	<path class="st11" d="M96.8,168.2c-0.4,0.1-0.8,0-1.2-0.2C96.1,168,96.5,167.9,96.8,168.2z"/>
	<path class="st12" d="M28.6,131c0.1,0,0.2,0,0.3,0c0,0.1,0,0.3,0.1,0.4C28.8,131.3,28.7,131.2,28.6,131z"/>
	<path class="st12" d="M29,131.4c0,0.1,0.1,0.2,0.1,0.2C29,131.5,29,131.4,29,131.4z"/>
	<g>
		<path class="st13" d="M67.8,125.6c0.5-0.5,0.9-1.1,1.4-1.5c1.2-1,2.6-1.2,4-0.8c2,0.4,3.8,1.5,5.4,2.8c1.4,1.1,2.8,2.2,4.3,3.2
			c0.4,0.3,0.8,0.5,1.3,0.7c0.3,0.1,0.7,0.2,0.9,0.1c1.1-0.2,1.4-1,0.8-1.9c-0.2-0.2-0.4-0.5-0.5-0.8c0-0.3,0-0.7,0.2-0.9
			c0.1-0.1,0.5-0.2,0.7-0.1c1.2,0.4,2.1,1.3,2.7,2.4c1.2,2.3,0.5,5-1.7,6.7c-1.3,1-2.8,1.5-4.5,1.7c-4.3,0.4-8.3-0.4-12-2.8
			c-1.3-0.9-2.4-1.9-3-3.4c-0.5,0.6-0.9,1.4-1.5,2c-1.8,1.9-4.1,2.9-6.6,3.6c-2.9,0.8-5.8,1-8.7,0.2c-2.3-0.6-4.1-1.9-4.9-4.2
			c-0.8-2.3,0.5-5.2,2.8-6.1c0.3-0.1,0.7-0.3,1,0c0.3,0.4,0.3,0.8,0,1.2c-0.2,0.2-0.3,0.5-0.5,0.7c-0.3,0.5-0.3,0.7,0.2,1.1
			c0.6,0.5,1.3,0.6,2,0.2c1-0.6,2-1.2,2.9-1.9c1.8-1.4,3.6-2.8,5.7-3.8c1.2-0.6,2.5-1,4-0.9c1.5,0.2,2.5,0.9,3.3,2.1
			C67.7,125.4,67.7,125.5,67.8,125.6z"/>
	</g>
</g>
<g>
	<g>
		<line class="st14" x1="180" y1="174.6" x2="388.6" y2="89.5"/>
		<g>
			<polygon class="st15" points="385.5,99.5 383.7,98.7 387.9,89.8 378.6,86.3 379.4,84.4 390.6,88.6 			"/>
		</g>
	</g>
</g>
<line class="st16" x1="139.8" y1="218" x2="430.8" y2="218"/>
<rect x="140.8" y="42" class="st17" width="289" height="177.9"/>
</svg>
