<?xml version="1.0" encoding="utf-8"?>
<!-- Generator: Adobe Illustrator 27.2.0, SVG Export Plug-In . SVG Version: 6.00 Build 0)  -->
<svg version="1.1" id="Lager_1" xmlns="http://www.w3.org/2000/svg" xmlns:xlink="http://www.w3.org/1999/xlink" x="0px" y="0px"
	 viewBox="0 0 1195.69 388.06" style="enable-background:new 0 0 1195.69 388.06;" xml:space="preserve">
<style type="text/css">
	.st0{clip-path:url(#SVGID_00000127038644103238634240000009420257483297803439_);}
	.st1{fill:#262626;}
	.st2{fill:#FFFFFF;}
	.st3{fill:#4BB492;}
	.st4{fill:#6ED6B0;}
	.st5{fill:#DFBF91;}
	.st6{fill:#206B42;}
	.st7{fill-rule:evenodd;clip-rule:evenodd;fill:#FFFFFF;}
	.st8{fill-rule:evenodd;clip-rule:evenodd;fill:#464545;}
	.st9{clip-path:url(#SVGID_00000013884338570270231850000000806362785947747001_);}
	.st10{fill:#FFFFFF;stroke:#DADADA;stroke-width:2;stroke-miterlimit:10;}
	.st11{fill:#161615;}
	.st12{clip-path:url(#SVGID_00000088100419681467934950000000820134727783531186_);}
	.st13{clip-path:url(#SVGID_00000020380140929348167300000009396535781007338921_);}
</style>
<g id="Group_162">
	<g>
		<g>
			<g>
				<defs>
					<rect id="SVGID_1_" x="25.73" y="22.06" width="222.98" height="344.07"/>
				</defs>
				<clipPath id="SVGID_00000148626735824069905360000013614787894957406389_">
					<use xlink:href="#SVGID_1_"  style="overflow:visible;"/>
				</clipPath>
				<g id="Group_161" style="clip-path:url(#SVGID_00000148626735824069905360000013614787894957406389_);">
					<path id="Path_303" class="st1" d="M236.13,123.51c0,0,4.41,36.69-3.74,70.64s-12.75,55.88-5.1,69.66
						c7.65,13.77,21.42,23.97,21.42,23.97s-10.69-1.03-17.34,0l-6.65,1.03c0,0-24.42-13.57-41.7-13.15s-75.86,0.36-88.52,1.15
						s-18.77,2.98-31.42,4.6c-18.01,2.3-30.12,4.83-30.12,4.83c6.13-5.6,11.13-12.33,14.72-19.82c6.82-14.46-5.6-46.66-10.03-69
						c-10.22-51.62-11.46-67.47-11.46-67.47L236.13,123.51z"/>
					<path id="Path_304" class="st2" d="M212.47,194.07c-2.32,3.17-3.89,6.78-6.02,10.07c-2.36,3.72-5,7.26-7.9,10.59
						c-8.55,9.85-19.16,17.7-31.08,23.01c-1.04,0.28-1.72,1.26-1.63,2.33c0.04,9.32,0.01,18.65,0.03,27.97
						c0,1.71-0.3,2.74,1.47,2.75c5.73,0.03,12.01,0.18,17.74,0.22c0.87,0,1.9-0.28,2.67,0.4c-6.62,0.01-13.52-1.1-20.14-1.14
						c-1.22-0.1-2.41,0.41-3.17,1.37c-3.65,4.3-7.4,8.52-11.1,12.77c-5.9,6.77-11.82,13.52-17.94,20.09c-1.49,1.6-1.59,1.61-3,0.02
						c-4.39-4.95-8.75-9.93-13.11-14.91c-5.07-5.78-10.15-11.54-15.17-17.36c-1.04-1.36-2.69-2.11-4.39-2
						c-5.96,0.12-12.22,1.19-18.19,1.17c0.79-0.62,2.76,1.61,3.63,1.61c5.15-0.03,10.75-0.74,15.91-0.76
						c2.12-0.01,1.4-0.84,0.97-4.64c0.01-8.34-0.03-16.68,0.04-25.02c0.17-1.23-0.63-2.39-1.84-2.66
						c-21.11-7.72-38.49-23.19-48.62-43.25c-0.44-0.87-0.99-1.68-1.5-2.52c-0.08-0.17-0.16-0.34-0.24-0.52l0.02,0.04
						c-0.06-0.28-0.11-0.55-0.16-0.82c-1.05-2.51-2.11-5.02-3.14-7.54c-1.78-4.75-2.96-9.71-3.53-14.75
						c-0.69-4.28-1.05-8.6-1.07-12.94c0.03-2.1,0.01-2.13,1.93-2.77c9.64-3.26,19.04-7.2,28.12-11.78
						c9.31-4.65,18.25-9.85,26.12-16.7c13.17-11.46,22.62-25.73,30.56-41.11c0.3-0.75,0.64-1.49,1.02-2.2
						c0.87-1.28,1.49-1.2,2.6-0.07c0.48,0.55,0.87,1.17,1.14,1.85c3.35,6.65,7.13,13.07,11.33,19.22
						c7.31,10.67,15.76,20.27,26.43,27.75c10.89,7.63,22.75,13.41,35,18.46c4.05,1.67,8.15,3.24,12.26,4.79
						c1.95,0.74,1.95,0.66,1.95,2.76c-0.04,7.41-1.13,14.78-3.25,21.88c-1.14,4.46-2.66,8.81-4.55,13.01
						c-0.4,0.2-0.56,0.69-0.36,1.09c0.04,0.09,0.11,0.17,0.18,0.24"/>
					<path id="Path_305" class="st1" d="M208.4,56.09c5.34,5.85,10.04,12.25,14.01,19.11c2.27,3.85,4.24,7.87,5.88,12.03
						c2.23,5.83,4.06,11.81,5.47,17.89c1.94,8.81,2.76,17.83,2.42,26.85c-0.3,5.66-1.04,11.28-2.2,16.83
						c-0.74,4.28-1.87,8.49-3.39,12.56c-2.17,5.67-4.28,11.34-7.53,16.6c-2.68,4.34-5.55,8.56-8.2,12.92
						c-0.46,0.67-0.97,1.31-1.51,1.92c-0.23-0.02-0.47-0.04-0.71-0.06c1.89-4.2,3.41-8.55,4.55-13.01
						c2.12-7.1,3.21-14.47,3.25-21.88c0-2.1,0-2.03-1.95-2.76c-4.1-1.55-8.2-3.12-12.26-4.79c-12.24-5.06-24.11-10.84-35-18.47
						c-10.67-7.49-19.12-17.08-26.43-27.76c-4.2-6.15-7.98-12.57-11.33-19.22c-0.28-0.67-0.66-1.3-1.14-1.85
						c-1.11-1.12-1.74-1.21-2.6,0.07c-0.38,0.71-0.72,1.45-1.02,2.2c-7.93,15.38-17.39,29.64-30.56,41.1
						c-7.87,6.85-16.8,12.05-26.12,16.7c-9.09,4.58-18.48,8.51-28.12,11.78c-1.92,0.64-1.9,0.67-1.93,2.77
						c0.02,4.33,0.38,8.66,1.07,12.94c0.57,5.04,1.75,10,3.53,14.75c1.02,2.52,2.09,5.03,3.14,7.54c-0.22-0.01-0.44-0.02-0.66-0.03
						c-3.57-4.27-6.74-8.86-9.44-13.72c-1.12-1.94-2.18-3.92-3.29-5.87c-0.79-1.67-1.48-3.38-2.05-5.14
						c-1.82-4.43-1.19-5.94-2.43-10.6c-0.77-2.89-1.79-6.28-2.55-9.17c-0.44-1.67-2.83-14.31-3.03-16.1
						c-1.04-9.14-0.44-10.05,0.85-19.17c0.28-1.93,0.2-3.88,0.59-5.82c0.33-1.56,0.75-3.09,1.26-4.6c0.94-2.9,1.53-5.9,2.51-8.8
						c1.29-3.8,3.03-7.37,4.54-11.05c2-4.86,4.91-9.23,7.57-13.71c1.68-2.82,3.96-5.28,5.98-7.9c1.19-1.54,2.65-2.85,3.63-4.58
						c0.46-0.78,1.1-1.44,1.87-1.92c1.18-0.76,1.18-0.76,2.84-2.84C66.18,41.49,143.64-12.09,208.4,56.09"/>
					<path id="Path_306" class="st3" d="M195.35,271.46c15.48,3.57,27.31,12.22,35.49,25.79c4.83,8.2,7.48,17.5,7.68,27.02
						c0.1,1.46-0.43,2.9-1.47,3.94c-6.51,6.93-14,12.87-22.23,17.64c-15.11,8.94-31.45,14.43-48.7,17.4
						c-5.24,0.91-10.52,1.54-15.81,2.03c-1.42-0.13-2.86-0.03-4.25,0.3l-4.11,0.18l-14.08,0.07c-4-0.23-8.01-0.28-12-0.74
						c-0.88-0.32-1.83-0.42-2.76-0.28c-4.38-0.56-8.83-0.78-13.11-1.74c-9.56-2.15-19.07-4.52-28.17-8.28
						c-12.26-5.07-23.64-11.57-33.54-20.5c-2.19-1.97-4.22-4.11-6.21-6.28c-0.91-0.94-1.39-2.22-1.32-3.52
						c0.15-7.3,1.69-14.5,4.55-21.21c1.96-4.47,4.49-8.67,7.52-12.49c7.54-9.75,17.56-15.64,29.26-18.94
						c0.62-0.17,1.25-0.31,1.88-0.46c0.43,0.88,1.02,1.68,1.72,2.37c1.6,1.75,3.18,3.52,4.74,5.31c4.2,4.8,8.36,9.62,12.57,14.42
						c3.99,4.55,8.03,9.05,12.01,13.61c5.11,5.84,10.17,11.73,15.27,17.58c4.19,4.8,8.42,9.57,12.62,14.36
						c1.01,1.16,1.04,1.17,2,0.08c3.09-3.49,6.18-6.97,9.27-10.45c5.5-6.16,11-12.31,16.5-18.46c6.92-7.74,13.84-15.48,20.76-23.21
						C186.08,281.82,190.71,276.65,195.35,271.46"/>
					<path id="Path_307" class="st4" d="M195.35,271.46c-4.63,5.18-9.27,10.35-13.91,15.53c-6.92,7.74-13.84,15.47-20.76,23.21
						c-5.5,6.15-11,12.31-16.5,18.46c-3.1,3.48-6.19,6.96-9.27,10.45c-0.96,1.09-0.99,1.08-2-0.08c-4.2-4.79-8.43-9.56-12.62-14.36
						c-5.1-5.85-10.16-11.74-15.27-17.58c-3.98-4.55-8.02-9.06-12.01-13.61c-4.2-4.79-8.37-9.62-12.56-14.42
						c-1.56-1.78-3.14-3.55-4.74-5.31c-0.7-0.68-1.29-1.48-1.72-2.36c1.14-0.23,2.28-0.45,3.43-0.68c0.84,0.16,1.71,0.02,2.47-0.38
						l1.93-0.11c5.97,0.02,11.93,0.13,17.9,0.01c1.71-0.11,3.35,0.64,4.39,2c5.02,5.82,10.1,11.58,15.17,17.36
						c4.36,4.98,8.71,9.96,13.11,14.91c1.42,1.59,1.51,1.58,3-0.02c6.12-6.57,12.04-13.32,17.94-20.09
						c3.71-4.25,7.45-8.48,11.1-12.77c0.77-0.95,1.96-1.46,3.18-1.37c6.62,0.05,13.24,0.01,19.86,0l1.96,0.08
						c0.75,0.41,1.63,0.55,2.47,0.38L195.35,271.46"/>
					<path id="Path_308" class="st5" d="M127.88,365.84l14.08-0.07c-1.67,0.56-3.39,0.28-5.07,0.28
						C133.88,366.05,130.87,366.32,127.88,365.84"/>
					<path id="Path_309" class="st5" d="M146.06,365.58c1.39-0.33,2.83-0.43,4.25-0.3C148.93,365.64,147.49,365.75,146.06,365.58"/>
					<path id="Path_310" class="st5" d="M113.13,364.83c0.93-0.14,1.88-0.05,2.76,0.28C114.95,365.09,114.01,365.32,113.13,364.83"
						/>
					<path id="Path_311" class="st6" d="M212.65,192.74c0.24,0.02,0.47,0.04,0.71,0.06c-0.3,0.42-0.6,0.85-0.9,1.27
						c-0.33-0.3-0.35-0.82-0.05-1.15C212.48,192.84,212.56,192.78,212.65,192.74"/>
					<path id="Path_312" class="st5" d="M79.88,270.34c-0.75,0.41-1.62,0.54-2.47,0.38C78.14,270.25,79.04,270.11,79.88,270.34"/>
					<path id="Path_313" class="st5" d="M191.91,270.73c-0.84,0.16-1.72,0.03-2.47-0.38C190.27,270.11,191.18,270.25,191.91,270.73"
						/>
					<path id="Path_314" class="st6" d="M49.06,192.83c0.22,0.01,0.44,0.02,0.66,0.03c0.06,0.27,0.11,0.55,0.16,0.82
						C49.48,193.56,49.17,193.24,49.06,192.83"/>
					<path id="Path_315" class="st6" d="M49.87,193.64l0.24,0.52C50.03,193.98,49.95,193.81,49.87,193.64"/>
					<path id="Path_316" class="st7" d="M187.51,270.24c0.18,3.39-0.29,24.74-0.29,24.74s4.68,1.77,6.4,4.53
						c1.72,2.77,3.12,5.25,2,11.07c-1.11,5.82-7.77,9.36-12.43,9.14s-12.3-2.62-12.65-12.66c-0.35-10.03,10.36-12.66,10.36-12.66
						l0.1-24.16H187.51z"/>
					<path id="Path_317" class="st7" d="M87.18,270.31v9.86c0,0-12.03,1.22-19.98,10.86s-7.39,15.99-7.39,20.07s-0.19,27.4,0,28.46
						s0.48,2.87,2.71,3.23c3.74,0.33,7.5,0.35,11.25,0.06c1.27-0.26,3.13-0.75,3.29-3.29c0.18-1.44-0.78-2.77-2.19-3.08
						c-1.09-0.2-8.48-0.2-8.48-0.2s-0.36-20.92,0.24-28.74c0.6-7.81,8.01-21.95,24.39-21.35s23.64,11.93,24.27,19.3
						s0.63,30.79,0.63,30.79c-2.37-0.13-4.74-0.13-7.11,0c-2.31,0.25-3.56,6.43-0.59,6.5s9.1,0.24,10.99,0.07
						c1.88-0.17,3.01-0.86,3.01-3.29s0.05-24.74,0-29.56c-0.3-5.96-2.19-11.72-5.47-16.71c-3.32-4.76-11.1-10.75-16.03-11.93
						c-2.39-0.61-4.81-1.1-7.24-1.46v-9.62L87.18,270.31z"/>
					<path id="Path_318" class="st8" d="M189.5,307.66c0,3.44-2.79,6.23-6.22,6.23c-3.44,0-6.23-2.79-6.23-6.22
						c0-3.44,2.79-6.23,6.22-6.23l0,0C186.71,301.43,189.5,304.22,189.5,307.66L189.5,307.66"/>
				</g>
			</g>
		</g>
	</g>
</g>
<g id="Group_173" transform="translate(307.653 131.855)">
	<g>
		<g>
			<g>
				<defs>
					
						<rect id="SVGID_00000097471106245669100730000008886496781472495034_" x="-26.72" y="-109.92" width="214.47" height="344.19"/>
				</defs>
				<clipPath id="SVGID_00000067952788614110736720000001704775382848968627_">
					<use xlink:href="#SVGID_00000097471106245669100730000008886496781472495034_"  style="overflow:visible;"/>
				</clipPath>
				<g id="Group_171" style="clip-path:url(#SVGID_00000067952788614110736720000001704775382848968627_);">
					<path id="Path_328" class="st10" d="M161.43,60.52c-2.34,3.2-3.93,6.84-6.08,10.16c-2.38,3.76-5.05,7.33-7.98,10.69
						c-8.64,9.94-19.35,17.88-31.38,23.24c-1.05,0.28-1.74,1.27-1.64,2.35c0.04,9.42,0.01,18.83,0.03,28.25
						c0,1.73,0.06,1.78,1.85,1.79c5.78,0.03,11.57,0,17.35,0.03c0.88,0,1.83-0.26,2.62,0.43c-6.69,0.01-13.37,0.05-20.06,0
						c-1.23-0.1-2.43,0.42-3.21,1.38c-3.69,4.34-7.47,8.6-11.21,12.9c-5.96,6.83-11.93,13.65-18.11,20.29
						c-1.5,1.62-1.6,1.63-3.03,0.02c-4.44-4.99-8.83-10.03-13.24-15.06c-5.12-5.84-10.25-11.65-15.32-17.53
						c-1.05-1.37-2.71-2.13-4.44-2.02c-6.02,0.12-12.05,0.01-18.07,0c0.8-0.44,1.73-0.58,2.63-0.4c5.2-0.03,10.4,0,15.61-0.02
						c2.14-0.01,2.17-0.03,2.18-2.22c0.01-8.42-0.03-16.84,0.04-25.27c0.18-1.24-0.63-2.41-1.86-2.68
						C26.79,99.04,9.23,83.42-1,63.16c-0.45-0.88-1-1.7-1.51-2.55c-0.08-0.17-0.16-0.35-0.25-0.52l0.01,0.04
						c-0.05-0.28-0.11-0.55-0.16-0.83c-1.06-2.54-2.14-5.07-3.17-7.61c-1.8-4.8-2.99-9.8-3.56-14.9c-0.7-4.32-1.06-8.69-1.08-13.06
						c0.03-2.12,0.01-2.15,1.95-2.8c9.73-3.29,19.22-7.27,28.4-11.89C29.1,4.57,37.96-1.1,46-7.82
						C59.3-19.39,68.85-33.8,76.86-49.33c0.3-0.76,0.64-1.5,1.03-2.22c0.87-1.29,1.51-1.2,2.63-0.07c0.48,0.55,0.87,1.18,1.15,1.87
						c3.38,6.71,7.2,13.19,11.44,19.4c7.13,10.88,16.17,20.38,26.69,28.03c11.06,7.5,22.91,13.75,35.34,18.64
						c4.09,1.69,8.23,3.27,12.38,4.84c1.97,0.74,1.97,0.67,1.97,2.79c-0.04,7.48-1.14,14.92-3.28,22.09
						c-1.15,4.5-2.69,8.9-4.6,13.13c-0.41,0.2-0.57,0.7-0.37,1.1C161.3,60.37,161.36,60.45,161.43,60.52"/>
					<path id="Path_329" class="st1" d="M157.32-78.81c5.4,5.9,10.14,12.37,14.14,19.29c2.29,3.89,4.28,7.95,5.95,12.15
						c2.26,5.89,4.1,11.93,5.53,18.07c1.96,8.9,2.78,18.01,2.45,27.11c-0.31,5.71-1.05,11.4-2.22,17
						c-0.75,4.32-1.89,8.57-3.42,12.68c-2,5.81-4.55,11.43-7.61,16.76c-2.71,4.39-5.61,8.65-8.28,13.05
						c-0.47,0.68-0.98,1.33-1.53,1.94l-0.71-0.06c1.91-4.24,3.44-8.63,4.6-13.13c2.14-7.17,3.24-14.61,3.28-22.1
						c0-2.12,0-2.05-1.97-2.79c-4.14-1.56-8.28-3.15-12.38-4.84c-12.43-4.89-24.29-11.14-35.34-18.64
						c-10.52-7.66-19.56-17.15-26.69-28.03c-4.24-6.21-8.06-12.69-11.44-19.41c-0.28-0.68-0.67-1.31-1.15-1.86
						c-1.12-1.13-1.75-1.22-2.63,0.07c-0.39,0.72-0.73,1.46-1.03,2.22C68.85-33.8,59.3-19.4,46-7.82C37.96-1.1,29.1,4.56,19.62,9.04
						c-9.18,4.62-18.67,8.59-28.4,11.89c-1.94,0.65-1.92,0.68-1.95,2.8c0.02,4.38,0.38,8.75,1.08,13.07
						c0.57,5.09,1.77,10.1,3.56,14.9c1.03,2.55,2.11,5.07,3.17,7.61c-0.23-0.01-0.45-0.02-0.67-0.03
						c-3.61-4.31-6.81-8.95-9.54-13.85c-1.13-1.96-2.21-3.96-3.33-5.93c-0.8-1.68-1.49-3.42-2.07-5.19
						c-1.87-4.46-3.44-9.04-4.72-13.71c-0.78-2.92-1.43-5.88-2.19-8.8c-0.29-1.78-0.46-3.58-0.5-5.39
						c-1.12-9.19-1.05-18.49,0.18-27.67c0.28-1.95,0.21-3.91,0.59-5.88c0.33-1.57,0.75-3.12,1.27-4.64
						c0.95-2.93,1.55-5.96,2.54-8.89c1.3-3.84,3.06-7.44,4.59-11.15c2.21-4.79,4.76-9.42,7.64-13.84c1.85-2.77,3.87-5.44,6.03-7.98
						c1.33-1.45,2.55-3,3.66-4.63c0.47-0.79,1.11-1.45,1.89-1.94C3.64-81,3.71-81.5,5.33-83.1
						C16.05-93.72,79.35-140.12,157.32-78.81"/>
					<path id="Path_330" class="st3" d="M144.15,138.68c15.09,3.23,28.1,12.69,35.84,26.04c4.88,8.28,7.55,17.67,7.76,27.28
						c0.1,1.48-0.44,2.93-1.49,3.98c-6.57,7-14.13,13-22.45,17.81c-15.18,8.82-31.85,14.78-49.18,17.58
						c-5.3,0.91-10.62,1.56-15.97,2.05c-1.44-0.13-2.88-0.03-4.29,0.3l-4.15,0.19L76,233.98c-4.04-0.23-8.09-0.28-12.11-0.74
						c-0.89-0.32-1.85-0.42-2.78-0.28c-4.42-0.56-8.91-0.78-13.24-1.76c-9.7-1.97-19.22-4.77-28.45-8.36
						c-12.4-4.89-23.86-11.9-33.87-20.7c-2.21-1.99-4.26-4.15-6.27-6.34c-0.92-0.95-1.4-2.24-1.33-3.56
						c0.15-7.37,1.71-14.64,4.6-21.42c1.98-4.51,4.53-8.75,7.59-12.61c7.62-9.84,17.73-15.79,29.55-19.13
						c0.63-0.18,1.27-0.32,1.9-0.46c0.44,0.89,1.03,1.7,1.74,2.39c1.62,1.77,3.21,3.55,4.78,5.36c4.23,4.85,8.44,9.72,12.68,14.56
						c4.03,4.6,8.11,9.14,12.12,13.74c5.16,5.9,10.27,11.85,15.42,17.75c4.23,4.85,8.5,9.67,12.75,14.51
						c1.02,1.17,1.05,1.18,2.02,0.08c3.12-3.52,6.24-7.04,9.36-10.56c5.55-6.22,11.1-12.43,16.67-18.64
						c6.99-7.82,13.98-15.63,20.97-23.44C134.79,149.13,139.47,143.9,144.15,138.68"/>
					<path id="Path_331" class="st4" d="M144.15,138.68c-4.68,5.23-9.36,10.45-14.04,15.68c-6.99,7.81-13.98,15.63-20.97,23.44
						c-5.56,6.21-11.11,12.43-16.67,18.64c-3.13,3.51-6.25,7.03-9.36,10.56c-0.97,1.1-1,1.09-2.02-0.08
						c-4.24-4.84-8.52-9.66-12.75-14.51c-5.15-5.91-10.26-11.85-15.42-17.75c-4.02-4.6-8.1-9.15-12.12-13.74
						c-4.24-4.84-8.45-9.71-12.68-14.56c-1.58-1.8-3.17-3.59-4.78-5.36c-0.71-0.69-1.3-1.5-1.74-2.39l3.46-0.68
						c0.85,0.16,1.73,0.02,2.49-0.39l1.95-0.11c6.02,0.02,12.05,0.13,18.07,0c1.72-0.11,3.39,0.65,4.44,2.02
						c5.07,5.88,10.2,11.7,15.32,17.53c4.4,5.02,8.8,10.06,13.24,15.06c1.43,1.61,1.53,1.6,3.03-0.02
						c6.18-6.63,12.16-13.45,18.11-20.29c3.74-4.29,7.52-8.56,11.21-12.9c0.78-0.96,1.98-1.48,3.21-1.38c6.69,0.05,13.37,0,20.06,0
						l1.98,0.09c0.76,0.41,1.64,0.55,2.5,0.39L144.15,138.68"/>
					<path id="Path_332" class="st5" d="M76.01,233.98l14.22-0.07c-1.68,0.38-3.41,0.47-5.12,0.28
						C82.07,234.37,79.03,234.3,76.01,233.98"/>
					<path id="Path_333" class="st5" d="M94.38,233.72c1.4-0.33,2.85-0.43,4.29-0.3C97.27,233.78,95.82,233.89,94.38,233.72"/>
					<path id="Path_334" class="st5" d="M61.12,232.96c0.94-0.14,1.89-0.04,2.78,0.28C62.96,233.39,62,233.3,61.12,232.96"/>
					<path id="Path_335" class="st6" d="M161.63,59.18l0.71,0.06c-0.3,0.43-0.6,0.86-0.9,1.28c-0.33-0.31-0.35-0.83-0.05-1.16
						C161.45,59.29,161.54,59.23,161.63,59.18"/>
					<path id="Path_336" class="st5" d="M27.55,137.54c-0.76,0.41-1.64,0.55-2.49,0.39C25.79,137.45,26.7,137.31,27.55,137.54"/>
					<path id="Path_337" class="st5" d="M140.67,137.93c-0.85,0.16-1.73,0.03-2.5-0.39C139.02,137.31,139.94,137.45,140.67,137.93"
						/>
					<path id="Path_338" class="st6" d="M-3.58,59.27c0.22,0.01,0.44,0.02,0.67,0.03c0.05,0.28,0.11,0.55,0.16,0.83
						C-3.17,60.01-3.48,59.68-3.58,59.27"/>
					<path id="Path_339" class="st6" d="M-2.76,60.09l0.25,0.52C-2.59,60.44-2.67,60.26-2.76,60.09"/>
					<path id="Path_340" class="st11" d="M79.27,47.93c0.9-1.13,1.88-2.19,2.93-3.18c2.39-1.93,5.56-2.58,8.52-1.76
						c4.17,1.11,8.06,3.09,11.42,5.81c3.05,2.22,6.02,4.53,9.07,6.75c0.84,0.6,1.75,1.08,2.71,1.45c0.63,0.25,1.32,0.34,2,0.25
						c2.3-0.37,2.96-2.08,1.6-3.93c-0.44-0.47-0.77-1.03-0.97-1.65c-0.09-0.66,0.07-1.32,0.45-1.87c0.23-0.29,1.09-0.32,1.56-0.17
						c2.47,0.89,4.49,2.72,5.62,5.09c2.53,4.97,0.98,11.04-3.62,14.19c-2.75,2.03-6.01,3.24-9.41,3.52
						c-8.87,1.07-17.83-1.01-25.31-5.89c-2.76-1.69-4.95-4.16-6.32-7.09c-0.94,1.44-1.97,2.82-3.07,4.14
						c-3.84,3.8-8.68,6.44-13.95,7.64c-5.95,1.8-12.26,1.98-18.3,0.52c-4.78-0.96-8.7-4.37-10.32-8.97
						c-1.57-5.16,0.9-10.69,5.8-12.96c0.72-0.31,1.55-0.73,2.22,0.04c0.65,0.76,0.65,1.88,0,2.63c-0.34,0.51-0.73,0.97-1.07,1.48
						c-0.66,1-0.56,1.57,0.35,2.38c1.08,1.13,2.81,1.33,4.12,0.49c2.11-1.28,4.18-2.65,6.16-4.12c3.72-3.09,7.74-5.8,12-8.11
						c2.56-1.39,5.46-2.03,8.36-1.84c2.93,0.31,5.55,1.97,7.07,4.49C79.03,47.51,79.17,47.77,79.27,47.93"/>
					<path id="Path_341" class="st7" d="M132.07,137.43c0.19,3.42-0.29,24.98-0.29,24.98s4.72,1.78,6.46,4.58
						c1.74,2.79,3.15,5.3,2.02,11.18s-7.85,9.45-12.56,9.23s-12.42-2.65-12.78-12.78s10.46-12.78,10.46-12.78l0.11-24.4
						L132.07,137.43z"/>
					<path id="Path_342" class="st7" d="M30.76,137.5v9.95c-7.82,1.12-14.98,5.01-20.17,10.96c-8.02,9.73-7.46,16.15-7.46,20.27
						s-0.19,27.67,0,28.74c0.01,1.61,1.16,2.98,2.74,3.26c3.78,0.34,7.58,0.35,11.36,0.06c1.29-0.26,3.16-0.75,3.32-3.32
						c0.18-1.45-0.79-2.8-2.22-3.11c-1.11-0.2-8.56-0.2-8.56-0.2S9.39,182.98,10,175.09s8.08-22.16,24.63-21.56
						s23.87,12.05,24.51,19.49s0.63,31.09,0.63,31.09c-2.39-0.13-4.79-0.13-7.18,0c-2.34,0.25-3.59,6.49-0.59,6.56
						c3,0.07,9.19,0.24,11.09,0.07c1.9-0.17,3.04-0.87,3.04-3.32c0-2.45,0.05-24.98,0-29.85c-0.31-6.01-2.22-11.84-5.53-16.87
						c-3.35-4.81-11.21-10.85-16.18-12.05c-2.41-0.62-4.85-1.11-7.31-1.48v-9.72L30.76,137.5z"/>
					<path id="Path_343" class="st8" d="M134.09,175.21c0,3.47-2.81,6.29-6.29,6.29c-3.47,0-6.29-2.81-6.29-6.29
						c0-3.47,2.81-6.29,6.29-6.29C131.27,168.93,134.09,171.74,134.09,175.21L134.09,175.21"/>
				</g>
			</g>
		</g>
	</g>
</g>
<g id="Group_162_00000023963605316134829720000005761418028308194465_">
	<g>
		<g>
			<g>
				<defs>
					<rect id="SVGID_00000063624060707558974760000006966901116726501264_" x="643.55" y="22.11" width="222.98" height="344.07"/>
				</defs>
				<clipPath id="SVGID_00000149346252404731492610000017061454962940978569_">
					<use xlink:href="#SVGID_00000063624060707558974760000006966901116726501264_"  style="overflow:visible;"/>
				</clipPath>
				
					<g id="Group_161_00000163766922296423467700000014447531822745629356_" style="clip-path:url(#SVGID_00000149346252404731492610000017061454962940978569_);">
					<path id="Path_303_00000048469465844027592420000000603358443027710883_" class="st1" d="M853.96,123.57
						c0,0,4.41,36.69-3.74,70.64c-8.16,33.95-12.75,55.88-5.1,69.66c7.65,13.77,21.42,23.97,21.42,23.97s-10.69-1.03-17.34,0
						l-6.65,1.03c0,0-24.42-13.57-41.7-13.15s-75.86,0.36-88.52,1.15c-12.66,0.79-18.77,2.98-31.42,4.6
						c-18.01,2.3-30.12,4.83-30.12,4.83c6.13-5.6,11.13-12.33,14.72-19.82c6.82-14.46-5.6-46.66-10.03-69
						c-10.22-51.62-11.46-67.47-11.46-67.47L853.96,123.57z"/>
					<path id="Path_304_00000122717000528980805110000016092633688523530666_" class="st2" d="M830.29,194.13
						c-2.32,3.17-3.89,6.78-6.02,10.07c-2.36,3.72-5,7.26-7.9,10.59c-8.55,9.85-19.16,17.7-31.08,23.01
						c-1.04,0.28-1.72,1.26-1.63,2.33c0.04,9.32,0.01,18.65,0.03,27.97c0,1.71-0.3,2.74,1.47,2.75c5.73,0.03,12.01,0.18,17.74,0.22
						c0.87,0,1.9-0.28,2.67,0.4c-6.62,0.01-13.52-1.1-20.14-1.14c-1.22-0.1-2.41,0.41-3.17,1.37c-3.65,4.3-7.4,8.52-11.1,12.77
						c-5.9,6.77-11.82,13.52-17.94,20.09c-1.49,1.6-1.59,1.61-3,0.02c-4.39-4.95-8.75-9.93-13.11-14.91
						c-5.07-5.78-10.15-11.54-15.17-17.36c-1.04-1.36-2.69-2.11-4.39-2c-5.96,0.12-12.22,1.19-18.19,1.17
						c0.79-0.62,2.76,1.61,3.63,1.61c5.15-0.03,10.75-0.74,15.91-0.76c2.12-0.01,1.4-0.84,0.97-4.64
						c0.01-8.34-0.03-16.68,0.04-25.02c0.17-1.23-0.63-2.39-1.84-2.66c-21.11-7.72-38.49-23.19-48.62-43.25
						c-0.44-0.87-0.99-1.68-1.5-2.52c-0.08-0.17-0.16-0.34-0.24-0.52l0.02,0.04c-0.06-0.28-0.11-0.55-0.16-0.82
						c-1.05-2.51-2.11-5.02-3.14-7.54c-1.78-4.75-2.96-9.71-3.53-14.75c-0.69-4.28-1.05-8.6-1.07-12.94
						c0.03-2.1,0.01-2.13,1.93-2.77c9.64-3.26,19.04-7.2,28.12-11.78c9.31-4.65,18.25-9.85,26.12-16.7
						c13.17-11.46,22.62-25.73,30.56-41.11c0.3-0.75,0.64-1.49,1.02-2.2c0.87-1.28,1.49-1.2,2.6-0.07c0.48,0.55,0.87,1.17,1.14,1.85
						c3.35,6.65,7.13,13.07,11.33,19.22c7.31,10.67,15.76,20.27,26.43,27.75c10.89,7.63,22.75,13.41,35,18.46
						c4.05,1.67,8.15,3.24,12.26,4.79c1.95,0.74,1.95,0.66,1.95,2.76c-0.04,7.41-1.13,14.78-3.25,21.88
						c-1.14,4.46-2.66,8.81-4.55,13.01c-0.4,0.2-0.56,0.69-0.36,1.09c0.04,0.09,0.11,0.17,0.18,0.24"/>
					<path id="Path_305_00000172415294012037700440000009110348757493886085_" class="st1" d="M826.22,56.15
						c5.34,5.85,10.04,12.25,14.01,19.11c2.27,3.85,4.24,7.87,5.88,12.03c2.23,5.83,4.06,11.81,5.47,17.89
						c1.94,8.81,2.76,17.83,2.42,26.85c-0.3,5.66-1.04,11.28-2.2,16.83c-0.74,4.28-1.87,8.49-3.39,12.56
						c-2.17,5.67-4.28,11.34-7.53,16.6c-2.68,4.34-5.55,8.56-8.2,12.92c-0.46,0.67-0.97,1.31-1.51,1.92
						c-0.23-0.02-0.47-0.04-0.71-0.06c1.89-4.2,3.41-8.55,4.55-13.01c2.12-7.1,3.21-14.47,3.25-21.88c0-2.1,0-2.03-1.95-2.76
						c-4.1-1.55-8.2-3.12-12.26-4.79c-12.24-5.06-24.11-10.84-35-18.47c-10.67-7.49-19.12-17.08-26.43-27.76
						c-4.2-6.15-7.98-12.57-11.33-19.22c-0.28-0.67-0.66-1.3-1.14-1.85c-1.11-1.12-1.74-1.21-2.6,0.07
						c-0.38,0.71-0.72,1.45-1.02,2.2c-7.93,15.38-17.39,29.64-30.56,41.1c-7.87,6.85-16.8,12.05-26.12,16.7
						c-9.09,4.58-18.48,8.51-28.12,11.78c-1.92,0.64-1.9,0.67-1.93,2.77c0.02,4.33,0.38,8.66,1.07,12.94
						c0.57,5.04,1.75,10,3.53,14.75c1.02,2.52,2.09,5.03,3.14,7.54c-0.22-0.01-0.44-0.02-0.66-0.03c-3.57-4.27-6.74-8.86-9.44-13.72
						c-1.12-1.94-2.18-3.92-3.29-5.87c-0.79-1.67-1.48-3.38-2.05-5.14c-1.82-4.43-1.19-5.94-2.43-10.6
						c-0.77-2.89-1.79-6.28-2.55-9.17c-0.44-1.67-2.83-14.31-3.03-16.1c-1.04-9.14-0.44-10.05,0.85-19.17
						c0.28-1.93,0.2-3.88,0.59-5.82c0.33-1.56,0.75-3.09,1.26-4.6c0.94-2.9,1.53-5.9,2.51-8.8c1.29-3.8,3.03-7.37,4.54-11.05
						c2-4.86,4.91-9.23,7.57-13.71c1.68-2.82,3.96-5.28,5.98-7.9c1.19-1.54,2.65-2.85,3.63-4.58c0.46-0.78,1.1-1.44,1.87-1.92
						c1.18-0.76,1.18-0.76,2.84-2.84C684,41.55,761.46-12.03,826.22,56.15"/>
					<path id="Path_306_00000068655185165663655450000015540429775597490111_" class="st3" d="M813.17,271.52
						c15.48,3.57,27.31,12.22,35.49,25.79c4.84,8.2,7.48,17.5,7.68,27.02c0.1,1.46-0.43,2.9-1.47,3.94
						c-6.51,6.93-14,12.87-22.23,17.64c-15.11,8.94-31.45,14.43-48.7,17.4c-5.24,0.91-10.52,1.54-15.81,2.03
						c-1.42-0.13-2.86-0.03-4.25,0.3l-4.11,0.18l-14.08,0.07c-4-0.23-8.01-0.28-12-0.74c-0.88-0.32-1.83-0.42-2.76-0.28
						c-4.38-0.56-8.83-0.78-13.11-1.74c-9.56-2.15-19.07-4.52-28.17-8.28c-12.26-5.07-23.64-11.57-33.54-20.5
						c-2.19-1.97-4.22-4.11-6.21-6.28c-0.91-0.94-1.39-2.22-1.32-3.52c0.15-7.3,1.69-14.5,4.55-21.21
						c1.96-4.47,4.49-8.67,7.52-12.49c7.54-9.75,17.56-15.64,29.26-18.94c0.62-0.17,1.25-0.31,1.88-0.46
						c0.43,0.88,1.02,1.68,1.72,2.37c1.6,1.75,3.18,3.52,4.74,5.31c4.2,4.8,8.36,9.62,12.57,14.42c3.99,4.55,8.03,9.05,12.01,13.61
						c5.11,5.84,10.17,11.73,15.27,17.58c4.19,4.8,8.42,9.57,12.62,14.36c1.01,1.16,1.04,1.17,2,0.08
						c3.09-3.49,6.18-6.97,9.27-10.45c5.5-6.16,11-12.31,16.5-18.46c6.92-7.74,13.84-15.48,20.76-23.21
						C803.9,281.88,808.54,276.7,813.17,271.52"/>
					<path id="Path_307_00000150823977871255959760000003144006452938665886_" class="st4" d="M813.17,271.52
						c-4.63,5.18-9.27,10.35-13.91,15.53c-6.92,7.74-13.84,15.47-20.76,23.21c-5.5,6.15-11,12.31-16.5,18.46
						c-3.1,3.48-6.19,6.96-9.27,10.45c-0.96,1.09-0.99,1.08-2-0.08c-4.2-4.79-8.43-9.56-12.62-14.36
						c-5.1-5.85-10.16-11.74-15.27-17.58c-3.98-4.55-8.02-9.06-12.01-13.61c-4.2-4.79-8.37-9.62-12.56-14.42
						c-1.56-1.78-3.14-3.55-4.74-5.31c-0.7-0.68-1.29-1.48-1.72-2.36c1.14-0.23,2.28-0.45,3.43-0.68c0.84,0.16,1.71,0.02,2.47-0.38
						l1.93-0.11c5.97,0.02,11.93,0.13,17.9,0.01c1.71-0.11,3.35,0.64,4.39,2c5.02,5.82,10.1,11.58,15.17,17.36
						c4.36,4.98,8.71,9.96,13.11,14.91c1.42,1.59,1.51,1.58,3-0.02c6.12-6.57,12.04-13.32,17.94-20.09
						c3.71-4.25,7.45-8.48,11.1-12.77c0.77-0.95,1.96-1.46,3.18-1.37c6.62,0.05,13.24,0.01,19.86,0l1.96,0.08
						c0.75,0.41,1.63,0.55,2.47,0.38L813.17,271.52"/>
					<path id="Path_308_00000080893777440919840890000010870174698108494237_" class="st5" d="M745.7,365.9l14.08-0.07
						c-1.67,0.56-3.39,0.28-5.07,0.28C751.7,366.11,748.69,366.38,745.7,365.9"/>
					<path id="Path_309_00000017509295799248966100000001342120449040227472_" class="st5" d="M763.89,365.64
						c1.39-0.33,2.83-0.43,4.25-0.3C766.75,365.7,765.31,365.81,763.89,365.64"/>
					<path id="Path_310_00000102517384350303258230000017376814799944818571_" class="st5" d="M730.95,364.89
						c0.93-0.14,1.88-0.05,2.76,0.28C732.78,365.15,731.83,365.38,730.95,364.89"/>
					<path id="Path_311_00000016040784744168226110000012216705676074012830_" class="st6" d="M830.47,192.8
						c0.24,0.02,0.47,0.04,0.71,0.06c-0.3,0.42-0.6,0.85-0.9,1.27c-0.33-0.3-0.35-0.82-0.05-1.15
						C830.3,192.9,830.38,192.84,830.47,192.8"/>
					<path id="Path_312_00000157998780802344515690000001549759765058396800_" class="st5" d="M697.7,270.4
						c-0.75,0.41-1.62,0.54-2.47,0.38C695.97,270.31,696.87,270.17,697.7,270.4"/>
					<path id="Path_313_00000080178904944820665900000002452727404340679322_" class="st5" d="M809.73,270.79
						c-0.84,0.16-1.72,0.03-2.47-0.38C808.1,270.17,809,270.31,809.73,270.79"/>
					<path id="Path_314_00000134952989635004468210000016138513769417864580_" class="st6" d="M666.88,192.89
						c0.22,0.01,0.44,0.02,0.66,0.03c0.06,0.27,0.11,0.55,0.16,0.82C667.3,193.62,666.99,193.3,666.88,192.89"/>
					<path id="Path_315_00000062895139361333355980000013314565177974528447_" class="st6" d="M667.69,193.7l0.24,0.52
						C667.86,194.04,667.78,193.87,667.69,193.7"/>
					<path id="Path_316_00000176002937841898795340000015628712715881628322_" class="st7" d="M805.33,270.3
						c0.18,3.39-0.29,24.74-0.29,24.74s4.68,1.77,6.4,4.53c1.72,2.77,3.12,5.25,2,11.07c-1.11,5.82-7.77,9.36-12.43,9.14
						s-12.3-2.62-12.65-12.66c-0.35-10.03,10.36-12.66,10.36-12.66l0.1-24.16H805.33z"/>
					<path id="Path_317_00000177461116729797888320000002372742390934504888_" class="st7" d="M705,270.37v9.86
						c0,0-12.03,1.22-19.98,10.86c-7.94,9.64-7.39,15.99-7.39,20.07s-0.19,27.4,0,28.46s0.48,2.87,2.71,3.23
						c3.74,0.33,7.5,0.35,11.25,0.06c1.27-0.26,3.13-0.75,3.29-3.29c0.18-1.44-0.78-2.77-2.19-3.08c-1.09-0.2-8.48-0.2-8.48-0.2
						s-0.36-20.92,0.24-28.74c0.6-7.81,8.01-21.95,24.39-21.35s23.64,11.93,24.27,19.3s0.63,30.79,0.63,30.79
						c-2.37-0.13-4.74-0.13-7.11,0c-2.31,0.25-3.56,6.43-0.59,6.5s9.1,0.24,10.99,0.07s3.01-0.86,3.01-3.29s0.05-24.74,0-29.56
						c-0.3-5.96-2.19-11.72-5.47-16.71c-3.32-4.76-11.1-10.75-16.03-11.93c-2.39-0.61-4.81-1.1-7.24-1.46v-9.62L705,270.37z"/>
					<path id="Path_318_00000010992709897104062520000000683931645515658905_" class="st8" d="M807.32,307.72
						c0,3.44-2.79,6.23-6.22,6.23s-6.23-2.79-6.23-6.22c0-3.44,2.79-6.23,6.22-6.23l0,0C804.53,301.49,807.32,304.28,807.32,307.72
						L807.32,307.72"/>
				</g>
			</g>
		</g>
	</g>
</g>
<g id="Group_173_00000029004246941177023150000010367731762596962198_" transform="translate(307.653 131.855)">
	<g>
		<g>
			<g>
				<defs>
					
						<rect id="SVGID_00000173880160737161103090000005477939028660466106_" x="647.79" y="-109.86" width="214.47" height="344.19"/>
				</defs>
				<clipPath id="SVGID_00000108309823674927307410000009865107297113119931_">
					<use xlink:href="#SVGID_00000173880160737161103090000005477939028660466106_"  style="overflow:visible;"/>
				</clipPath>
				
					<g id="Group_171_00000053508530490448156140000015750278354045619851_" style="clip-path:url(#SVGID_00000108309823674927307410000009865107297113119931_);">
					<path id="Path_328_00000010304318024819259510000009920440689130917036_" class="st10" d="M835.95,60.58
						c-2.34,3.2-3.93,6.84-6.08,10.16c-2.38,3.76-5.05,7.33-7.98,10.69c-8.64,9.94-19.35,17.88-31.38,23.24
						c-1.05,0.28-1.74,1.27-1.64,2.35c0.04,9.42,0.01,18.83,0.03,28.25c0,1.73,0.06,1.78,1.85,1.79c5.78,0.03,11.57,0,17.35,0.03
						c0.88,0,1.83-0.26,2.62,0.43c-6.69,0.01-13.37,0.05-20.06,0c-1.23-0.1-2.43,0.42-3.21,1.38c-3.69,4.34-7.47,8.6-11.21,12.9
						c-5.96,6.83-11.93,13.65-18.11,20.29c-1.5,1.62-1.6,1.63-3.03,0.02c-4.44-4.99-8.83-10.03-13.24-15.06
						c-5.12-5.84-10.25-11.65-15.32-17.53c-1.05-1.37-2.71-2.13-4.44-2.02c-6.02,0.12-12.05,0.01-18.07,0
						c0.8-0.44,1.73-0.58,2.63-0.4c5.2-0.03,10.4,0,15.61-0.02c2.14-0.01,2.17-0.03,2.18-2.22c0.01-8.42-0.03-16.84,0.04-25.27
						c0.18-1.24-0.63-2.41-1.86-2.68c-21.32-7.8-38.88-23.42-49.11-43.68c-0.45-0.88-1-1.7-1.51-2.55
						c-0.08-0.17-0.16-0.35-0.25-0.52l0.01,0.04c-0.05-0.28-0.11-0.55-0.16-0.83c-1.06-2.54-2.14-5.07-3.17-7.61
						c-1.8-4.8-2.99-9.8-3.56-14.9c-0.7-4.32-1.06-8.69-1.08-13.06c0.03-2.12,0.01-2.15,1.95-2.8c9.73-3.29,19.22-7.27,28.4-11.89
						c9.47-4.48,18.33-10.15,26.37-16.87c13.3-11.57,22.85-25.98,30.86-41.51c0.3-0.76,0.64-1.5,1.03-2.22
						c0.87-1.29,1.51-1.2,2.63-0.07c0.48,0.55,0.87,1.18,1.15,1.87c3.38,6.71,7.2,13.19,11.44,19.4
						c7.13,10.88,16.17,20.38,26.69,28.03c11.06,7.5,22.91,13.75,35.34,18.64c4.09,1.69,8.23,3.27,12.38,4.84
						c1.97,0.74,1.97,0.67,1.97,2.79c-0.04,7.48-1.14,14.92-3.28,22.09c-1.15,4.5-2.69,8.9-4.6,13.13c-0.41,0.2-0.57,0.7-0.37,1.1
						C835.81,60.43,835.87,60.51,835.95,60.58"/>
					<path id="Path_329_00000061466731153574895200000008713892313260482447_" class="st1" d="M831.84-78.75
						c5.4,5.9,10.14,12.37,14.14,19.29c2.29,3.89,4.28,7.95,5.95,12.15c2.26,5.89,4.1,11.93,5.53,18.07
						c1.96,8.9,2.78,18.01,2.45,27.11c-0.31,5.71-1.05,11.4-2.22,17c-0.75,4.32-1.89,8.57-3.42,12.68c-2,5.81-4.55,11.43-7.61,16.76
						c-2.71,4.39-5.61,8.65-8.28,13.05c-0.47,0.68-0.98,1.33-1.53,1.94l-0.71-0.06c1.91-4.24,3.44-8.63,4.6-13.13
						c2.14-7.17,3.24-14.61,3.28-22.1c0-2.12,0-2.05-1.97-2.79c-4.14-1.56-8.28-3.15-12.38-4.84
						c-12.43-4.89-24.29-11.14-35.34-18.64c-10.52-7.66-19.56-17.15-26.69-28.03c-4.24-6.21-8.06-12.69-11.44-19.41
						c-0.28-0.68-0.67-1.31-1.15-1.86c-1.12-1.13-1.75-1.22-2.63,0.07c-0.39,0.72-0.73,1.46-1.03,2.22
						c-8.01,15.53-17.56,29.93-30.86,41.51c-8.04,6.72-16.9,12.39-26.38,16.87c-9.18,4.62-18.67,8.59-28.4,11.89
						c-1.94,0.65-1.92,0.68-1.95,2.8c0.02,4.38,0.38,8.75,1.08,13.07c0.57,5.09,1.77,10.1,3.56,14.9c1.03,2.55,2.11,5.07,3.17,7.61
						c-0.23-0.01-0.45-0.02-0.67-0.03c-3.61-4.31-6.81-8.95-9.54-13.85c-1.13-1.96-2.21-3.96-3.33-5.93
						c-0.8-1.68-1.49-3.42-2.07-5.19c-1.87-4.46-3.44-9.04-4.72-13.71c-0.78-2.92-1.43-5.88-2.19-8.8c-0.29-1.78-0.46-3.58-0.5-5.39
						c-1.12-9.19-1.05-18.49,0.18-27.67c0.28-1.95,0.21-3.91,0.59-5.88c0.33-1.57,0.75-3.12,1.27-4.64
						c0.95-2.93,1.55-5.96,2.54-8.89c1.3-3.84,3.06-7.44,4.59-11.15c2.21-4.79,4.76-9.42,7.64-13.84c1.85-2.77,3.87-5.44,6.03-7.98
						c1.33-1.45,2.55-3,3.66-4.63c0.47-0.79,1.11-1.45,1.89-1.94c1.19-0.76,1.25-1.27,2.87-2.87
						C690.56-93.66,753.86-140.06,831.84-78.75"/>
					<path id="Path_330_00000133503965656334760480000011795362362643818907_" class="st3" d="M818.66,138.74
						c15.09,3.23,28.1,12.69,35.84,26.04c4.88,8.28,7.55,17.67,7.76,27.28c0.1,1.48-0.44,2.93-1.49,3.98
						c-6.57,7-14.14,13-22.45,17.81c-15.18,8.82-31.85,14.78-49.18,17.58c-5.3,0.91-10.62,1.56-15.97,2.05
						c-1.44-0.13-2.88-0.03-4.29,0.3l-4.15,0.19l-14.22,0.07c-4.04-0.23-8.09-0.28-12.11-0.74c-0.89-0.32-1.85-0.42-2.78-0.28
						c-4.42-0.56-8.91-0.78-13.24-1.76c-9.7-1.97-19.22-4.77-28.45-8.36c-12.4-4.89-23.86-11.9-33.87-20.7
						c-2.21-1.99-4.26-4.15-6.27-6.34c-0.92-0.95-1.4-2.24-1.33-3.56c0.15-7.37,1.71-14.64,4.6-21.42
						c1.98-4.51,4.53-8.75,7.59-12.61c7.62-9.84,17.73-15.79,29.55-19.13c0.63-0.18,1.27-0.32,1.9-0.46
						c0.44,0.89,1.03,1.7,1.74,2.39c1.62,1.77,3.21,3.55,4.78,5.36c4.23,4.85,8.44,9.72,12.68,14.56c4.03,4.6,8.11,9.14,12.12,13.74
						c5.16,5.9,10.27,11.85,15.42,17.75c4.23,4.85,8.5,9.67,12.75,14.51c1.02,1.17,1.05,1.18,2.02,0.08
						c3.12-3.52,6.24-7.04,9.36-10.56c5.55-6.22,11.1-12.43,16.67-18.64c6.99-7.82,13.98-15.63,20.97-23.44
						C809.31,149.19,813.99,143.96,818.66,138.74"/>
					<path id="Path_331_00000036966223452569253930000009250557656701997978_" class="st4" d="M818.66,138.74
						c-4.68,5.23-9.36,10.45-14.04,15.68c-6.99,7.81-13.98,15.63-20.97,23.44c-5.56,6.21-11.11,12.43-16.67,18.64
						c-3.13,3.51-6.25,7.03-9.36,10.56c-0.97,1.1-1,1.09-2.02-0.08c-4.24-4.84-8.52-9.66-12.75-14.51
						c-5.15-5.91-10.26-11.85-15.42-17.75c-4.02-4.6-8.1-9.15-12.12-13.74c-4.24-4.84-8.45-9.71-12.68-14.56
						c-1.58-1.8-3.17-3.59-4.78-5.36c-0.71-0.69-1.3-1.5-1.74-2.39l3.46-0.68c0.85,0.16,1.73,0.02,2.49-0.39l1.95-0.11
						c6.02,0.02,12.05,0.13,18.07,0c1.72-0.11,3.39,0.65,4.44,2.02c5.07,5.88,10.2,11.7,15.32,17.53c4.4,5.02,8.8,10.06,13.24,15.06
						c1.43,1.61,1.53,1.6,3.03-0.02c6.18-6.63,12.16-13.45,18.11-20.29c3.74-4.29,7.52-8.56,11.21-12.9
						c0.78-0.96,1.98-1.48,3.21-1.38c6.69,0.05,13.37,0,20.06,0l1.98,0.09c0.76,0.41,1.64,0.55,2.5,0.39L818.66,138.74"/>
					<path id="Path_332_00000095321086880290726530000008567597611979638424_" class="st5" d="M750.52,234.04l14.22-0.07
						c-1.68,0.38-3.41,0.47-5.12,0.28C756.58,234.43,753.54,234.36,750.52,234.04"/>
					<path id="Path_333_00000121269523846795134600000008353631652752046225_" class="st5" d="M768.89,233.78
						c1.4-0.33,2.85-0.43,4.29-0.3C771.78,233.84,770.33,233.95,768.89,233.78"/>
					<path id="Path_334_00000000220432464304927610000002166613562759251074_" class="st5" d="M735.63,233.02
						c0.94-0.14,1.89-0.04,2.78,0.28C737.48,233.45,736.52,233.36,735.63,233.02"/>
					<path id="Path_335_00000107589078732662203720000011964142772381449889_" class="st6" d="M836.14,59.24l0.71,0.06
						c-0.3,0.43-0.6,0.86-0.91,1.28c-0.33-0.31-0.35-0.83-0.05-1.16C835.97,59.35,836.05,59.29,836.14,59.24"/>
					<path id="Path_336_00000006669617659069559740000006241226708624615845_" class="st5" d="M702.06,137.6
						c-0.76,0.41-1.64,0.55-2.49,0.39C700.3,137.51,701.21,137.37,702.06,137.6"/>
					<path id="Path_337_00000173121649261980387960000014788248276117609626_" class="st5" d="M815.18,137.99
						c-0.85,0.16-1.73,0.03-2.5-0.39C813.54,137.37,814.45,137.51,815.18,137.99"/>
					<path id="Path_338_00000011736723398444544920000008062075812023132600_" class="st6" d="M670.93,59.33
						c0.22,0.01,0.44,0.02,0.67,0.03c0.05,0.28,0.11,0.55,0.16,0.83C671.35,60.07,671.03,59.74,670.93,59.33"/>
					<path id="Path_339_00000071551885304010670970000016264330672260902067_" class="st6" d="M671.76,60.15l0.25,0.52
						C671.92,60.5,671.84,60.32,671.76,60.15"/>
					<path id="Path_340_00000131345002146360616940000009215422048252434850_" class="st11" d="M753.78,47.99
						c0.9-1.13,1.88-2.19,2.93-3.18c2.39-1.93,5.56-2.58,8.52-1.76c4.17,1.11,8.06,3.09,11.42,5.81c3.05,2.22,6.02,4.53,9.07,6.75
						c0.84,0.6,1.75,1.08,2.71,1.45c0.63,0.25,1.32,0.34,2,0.25c2.3-0.37,2.96-2.08,1.6-3.93c-0.44-0.47-0.77-1.03-0.97-1.65
						c-0.09-0.66,0.07-1.32,0.45-1.87c0.23-0.29,1.09-0.32,1.56-0.17c2.47,0.89,4.49,2.72,5.62,5.09
						c2.53,4.97,0.98,11.04-3.62,14.19c-2.75,2.03-6.01,3.24-9.41,3.52c-8.87,1.07-17.83-1.01-25.31-5.89
						c-2.76-1.69-4.95-4.16-6.32-7.09c-0.94,1.44-1.97,2.82-3.07,4.14c-3.84,3.8-8.68,6.44-13.95,7.64
						c-5.95,1.8-12.26,1.98-18.3,0.52c-4.78-0.96-8.7-4.37-10.32-8.97c-1.57-5.16,0.9-10.69,5.8-12.96
						c0.72-0.31,1.55-0.73,2.22,0.04c0.65,0.76,0.65,1.88,0,2.63c-0.34,0.51-0.73,0.97-1.07,1.48c-0.66,1-0.56,1.57,0.35,2.38
						c1.08,1.13,2.81,1.33,4.12,0.49c2.11-1.28,4.18-2.65,6.16-4.12c3.72-3.09,7.74-5.8,12-8.11c2.56-1.39,5.46-2.03,8.36-1.84
						c2.93,0.31,5.55,1.97,7.07,4.49C753.54,47.57,753.68,47.83,753.78,47.99"/>
					<path id="Path_341_00000117647563974815854970000007224359582622333621_" class="st7" d="M806.59,137.49
						c0.19,3.42-0.29,24.98-0.29,24.98s4.72,1.78,6.46,4.58c1.74,2.79,3.15,5.3,2.02,11.18s-7.85,9.45-12.56,9.23
						c-4.71-0.23-12.42-2.65-12.78-12.78s10.46-12.78,10.46-12.78l0.11-24.4L806.59,137.49z"/>
					<path id="Path_342_00000071529120126370583010000003673597331177623198_" class="st7" d="M705.27,137.56v9.95
						c-7.82,1.12-14.98,5.01-20.17,10.96c-8.02,9.73-7.46,16.15-7.46,20.27s-0.19,27.67,0,28.74c0.01,1.61,1.16,2.98,2.74,3.26
						c3.78,0.34,7.58,0.35,11.36,0.06c1.29-0.26,3.16-0.75,3.32-3.32c0.18-1.45-0.79-2.8-2.22-3.11c-1.11-0.2-8.56-0.2-8.56-0.2
						s-0.36-21.13,0.25-29.02s8.08-22.16,24.63-21.56c16.54,0.61,23.87,12.05,24.51,19.49s0.63,31.09,0.63,31.09
						c-2.39-0.13-4.79-0.13-7.18,0c-2.34,0.25-3.59,6.49-0.59,6.56c3,0.07,9.19,0.24,11.09,0.07s3.04-0.87,3.04-3.32
						c0-2.45,0.05-24.98,0-29.85c-0.31-6.01-2.22-11.84-5.53-16.87c-3.35-4.81-11.21-10.85-16.18-12.05
						c-2.41-0.62-4.85-1.11-7.31-1.48v-9.72L705.27,137.56z"/>
					<path id="Path_343_00000132066079757879381980000015821538811447495816_" class="st8" d="M808.6,175.27
						c0,3.47-2.81,6.29-6.29,6.29c-3.47,0-6.29-2.81-6.29-6.29c0-3.47,2.81-6.29,6.29-6.29S808.6,171.8,808.6,175.27L808.6,175.27"
						/>
				</g>
			</g>
		</g>
	</g>
</g>
</svg>
