<?xml version="1.0" encoding="utf-8"?>
<!-- Generator: Adobe Illustrator 27.2.0, SVG Export Plug-In . SVG Version: 6.00 Build 0)  -->
<svg version="1.1" id="Lager_1" xmlns="http://www.w3.org/2000/svg" xmlns:xlink="http://www.w3.org/1999/xlink" x="0px" y="0px"
	 viewBox="0 0 1195.69 430.15" style="enable-background:new 0 0 1195.69 430.15;" xml:space="preserve">
<style type="text/css">
	.st0{clip-path:url(#SVGID_00000108270306934315746270000014326491565104032684_);}
	.st1{fill:#262626;}
	.st2{fill:#FFFFFF;}
	.st3{fill:#161615;}
	.st4{fill:#757474;}
	.st5{fill:#DFBF91;}
	.st6{fill:#206B42;}
	.st7{fill-rule:evenodd;clip-rule:evenodd;fill:#FFFFFF;}
	.st8{fill-rule:evenodd;clip-rule:evenodd;fill:#464545;}
	.st9{clip-path:url(#SVGID_00000175316311928849234780000008717919671430225564_);}
	.st10{clip-path:url(#SVGID_00000044885188214710583240000005786881590086931390_);}
	.st11{fill:#F4F4F4;}
	.st12{clip-path:url(#SVGID_00000019680524182394375510000013078561112224906145_);}
	.st13{fill:#FFFFFF;stroke:#DADADA;stroke-width:2;stroke-miterlimit:10;}
	.st14{clip-path:url(#SVGID_00000039135991959527010710000014436695139701558957_);}
	.st15{clip-path:url(#SVGID_00000044875773734273002450000010275846847805586315_);}
	.st16{clip-path:url(#SVGID_00000098193988220875400200000006483829691076307613_);}
	.st17{clip-path:url(#SVGID_00000158002698832391551300000017687666893169160084_);}
</style>
<g id="Group_162">
	<g>
		<defs>
			<rect id="SVGID_1_" x="653.57" y="765.05" width="242.52" height="374.22"/>
		</defs>
		<clipPath id="SVGID_00000169540819244831637270000004148875432051659697_">
			<use xlink:href="#SVGID_1_"  style="overflow:visible;"/>
		</clipPath>
		<g id="Group_161" style="clip-path:url(#SVGID_00000169540819244831637270000004148875432051659697_);">
			<path id="Path_303" class="st1" d="M882.41,875.4c0,0,4.8,39.91-4.07,76.83c-8.87,36.92-13.87,60.78-5.55,75.76
				c8.32,14.98,23.3,26.07,23.3,26.07s-11.63-1.12-18.86,0l-7.23,1.12c0,0-26.56-14.76-45.35-14.3
				c-18.79,0.46-82.51,0.39-96.28,1.25c-13.77,0.86-20.42,3.24-34.18,5c-19.59,2.5-32.76,5.26-32.76,5.26
				c6.67-6.09,12.1-13.41,16.01-21.56c7.42-15.72-6.09-50.75-10.91-75.05c-11.12-56.14-12.46-73.39-12.46-73.39L882.41,875.4z"/>
			<path id="Path_304" class="st2" d="M856.67,952.14c-2.52,3.45-4.23,7.37-6.55,10.95c-2.57,4.05-5.44,7.9-8.59,11.51
				c-9.3,10.71-20.84,19.25-33.8,25.03c-1.13,0.3-1.87,1.37-1.77,2.53c0.04,10.14,0.01,20.28,0.03,30.42c0,1.86-0.32,2.98,1.6,2.99
				c6.23,0.03,13.06,0.2,19.29,0.23c0.95,0,2.06-0.3,2.9,0.44c-7.2,0.01-14.7-1.19-21.91-1.24c-1.33-0.1-2.62,0.45-3.45,1.48
				c-3.97,4.67-8.04,9.27-12.07,13.89c-6.42,7.36-12.85,14.7-19.51,21.84c-1.62,1.74-1.73,1.75-3.26,0.02
				c-4.78-5.38-9.51-10.8-14.26-16.21c-5.51-6.28-11.04-12.55-16.5-18.88c-1.13-1.48-2.92-2.29-4.78-2.18
				c-6.49,0.13-13.29,1.29-19.78,1.27c0.86-0.67,3,1.75,3.95,1.75c5.6-0.03,11.7-0.81,17.3-0.83c2.31-0.01,1.52-0.92,1.05-5.04
				c0.01-9.07-0.03-18.14,0.04-27.21c0.19-1.34-0.68-2.6-2-2.89c-22.96-8.4-41.86-25.22-52.88-47.04c-0.48-0.95-1.08-1.83-1.63-2.74
				c-0.09-0.19-0.18-0.37-0.27-0.56l0.02,0.04c-0.06-0.3-0.12-0.59-0.18-0.89c-1.14-2.73-2.3-5.46-3.42-8.2
				c-1.93-5.17-3.22-10.56-3.84-16.04c-0.75-4.65-1.14-9.36-1.17-14.07c0.03-2.28,0.01-2.32,2.1-3.01
				c10.48-3.55,20.7-7.83,30.59-12.81c10.13-5.05,19.85-10.71,28.41-18.16c14.32-12.47,24.61-27.98,33.24-44.71
				c0.32-0.82,0.69-1.62,1.11-2.39c0.94-1.39,1.62-1.3,2.83-0.08c0.52,0.6,0.94,1.28,1.24,2.01c3.64,7.23,7.76,14.21,12.32,20.9
				c7.96,11.61,17.14,22.05,28.75,30.19c11.84,8.3,24.75,14.59,38.07,20.08c4.41,1.82,8.87,3.52,13.33,5.21
				c2.12,0.8,2.12,0.72,2.12,3c-0.04,8.06-1.23,16.08-3.53,23.8c-1.24,4.85-2.9,9.58-4.95,14.15c-0.44,0.22-0.61,0.75-0.4,1.19
				c0.05,0.1,0.11,0.18,0.2,0.26"/>
			<path id="Path_305" class="st1" d="M852.24,802.07c5.81,6.36,10.92,13.33,15.23,20.78c2.47,4.19,4.61,8.56,6.4,13.09
				c2.43,6.34,4.42,12.84,5.95,19.46c2.11,9.58,3,19.39,2.63,29.2c-0.33,6.15-1.13,12.27-2.39,18.31c-0.8,4.66-2.04,9.23-3.68,13.66
				c-2.36,6.17-4.66,12.34-8.18,18.05c-2.91,4.72-6.04,9.31-8.92,14.05c-0.5,0.73-1.05,1.43-1.65,2.09
				c-0.25-0.02-0.51-0.04-0.77-0.06c2.05-4.56,3.71-9.3,4.95-14.15c2.3-7.73,3.49-15.74,3.53-23.8c0-2.28-0.01-2.21-2.12-3
				c-4.46-1.68-8.92-3.39-13.33-5.21c-13.32-5.5-26.23-11.79-38.06-20.09c-11.61-8.14-20.79-18.58-28.75-30.19
				c-4.57-6.69-8.68-13.67-12.32-20.9c-0.3-0.73-0.72-1.41-1.24-2.01c-1.21-1.22-1.89-1.31-2.83,0.08
				c-0.42,0.78-0.79,1.57-1.11,2.39c-8.63,16.72-18.91,32.23-33.24,44.7c-8.56,7.45-18.28,13.11-28.41,18.16
				c-9.88,4.98-20.1,9.26-30.59,12.81c-2.08,0.7-2.06,0.73-2.1,3.01c0.02,4.71,0.41,9.42,1.17,14.07c0.62,5.48,1.9,10.87,3.84,16.04
				c1.11,2.74,2.27,5.47,3.41,8.2c-0.24-0.01-0.48-0.02-0.72-0.03c-3.89-4.64-7.33-9.64-10.27-14.93c-1.21-2.11-2.38-4.26-3.58-6.39
				c-0.86-1.81-1.6-3.68-2.23-5.59c-1.97-4.82-1.29-6.46-2.64-11.52c-0.84-3.14-1.94-6.83-2.77-9.97
				c-0.48-1.82-3.08-15.56-3.3-17.51c-1.13-9.94-0.48-10.93,0.92-20.85c0.3-2.1,0.22-4.22,0.64-6.34c0.36-1.69,0.81-3.36,1.37-5
				c1.03-3.16,1.66-6.42,2.73-9.57c1.4-4.13,3.29-8.01,4.94-12.01c2.18-5.29,5.34-10.04,8.23-14.91c1.82-3.07,4.31-5.74,6.5-8.59
				c1.29-1.68,2.88-3.1,3.94-4.98c0.5-0.85,1.2-1.56,2.03-2.09c1.28-0.82,1.28-0.82,3.09-3.09
				C697.57,786.19,781.81,727.92,852.24,802.07"/>
			<path id="Path_306" class="st3" d="M838.05,1036.32c16.84,3.88,29.7,13.29,38.6,28.05c5.26,8.92,8.14,19.03,8.35,29.38
				c0.11,1.59-0.47,3.16-1.6,4.29c-7.08,7.54-15.22,14-24.18,19.18c-16.43,9.72-34.21,15.69-52.97,18.93
				c-5.7,0.98-11.44,1.68-17.2,2.21c-1.55-0.14-3.11-0.03-4.62,0.33l-4.47,0.2l-15.31,0.08c-4.35-0.25-8.72-0.3-13.05-0.8
				c-0.96-0.35-1.99-0.45-3-0.3c-4.76-0.61-9.6-0.85-14.26-1.9c-10.39-2.34-20.74-4.92-30.64-9.01
				c-13.34-5.51-25.71-12.58-36.48-22.29c-2.38-2.15-4.59-4.47-6.76-6.83c-0.99-1.02-1.51-2.41-1.43-3.83
				c0.16-7.94,1.84-15.77,4.95-23.07c2.13-4.86,4.88-9.42,8.18-13.58c8.2-10.6,19.1-17.01,31.83-20.6c0.68-0.19,1.36-0.33,2.05-0.5
				c0.47,0.96,1.11,1.83,1.87,2.58c1.74,1.9,3.46,3.83,5.15,5.77c4.57,5.22,9.1,10.47,13.67,15.68c4.34,4.95,8.73,9.84,13.06,14.8
				c5.56,6.36,11.06,12.76,16.61,19.12c4.56,5.22,9.16,10.41,13.73,15.62c1.1,1.26,1.13,1.27,2.17,0.09
				c3.36-3.79,6.72-7.58,10.09-11.37c5.98-6.7,11.96-13.39,17.95-20.08c7.53-8.42,15.05-16.83,22.58-25.25
				C827.97,1047.58,833.01,1041.95,838.05,1036.32"/>
			<path id="Path_307" class="st4" d="M838.05,1036.32c-5.04,5.63-10.08,11.26-15.12,16.89c-7.53,8.41-15.05,16.83-22.58,25.25
				c-5.98,6.69-11.97,13.38-17.95,20.08c-3.37,3.78-6.73,7.57-10.09,11.37c-1.05,1.19-1.07,1.17-2.17-0.08
				c-4.57-5.21-9.17-10.4-13.73-15.62c-5.55-6.36-11.05-12.77-16.61-19.12c-4.33-4.95-8.72-9.85-13.06-14.8
				c-4.57-5.21-9.1-10.46-13.66-15.68c-1.7-1.94-3.41-3.86-5.15-5.77c-0.77-0.74-1.4-1.61-1.87-2.57c1.24-0.25,2.48-0.49,3.73-0.74
				c0.92,0.17,1.86,0.03,2.68-0.42l2.1-0.12c6.49,0.02,12.98,0.14,19.47,0.01c1.86-0.12,3.65,0.7,4.78,2.17
				c5.46,6.33,10.99,12.6,16.5,18.88c4.74,5.41,9.48,10.83,14.26,16.21c1.54,1.73,1.64,1.72,3.27-0.02
				c6.66-7.14,13.09-14.48,19.51-21.85c4.03-4.62,8.1-9.22,12.07-13.89c0.84-1.03,2.13-1.59,3.45-1.48c7.2,0.05,14.4,0.01,21.6,0
				l2.13,0.09c0.82,0.45,1.77,0.59,2.69,0.42L838.05,1036.32"/>
			<path id="Path_308" class="st5" d="M764.67,1138.96l15.31-0.08c-1.81,0.61-3.68,0.31-5.52,0.3
				C771.19,1139.19,767.92,1139.49,764.67,1138.96"/>
			<path id="Path_309" class="st5" d="M784.45,1138.68c1.51-0.36,3.07-0.47,4.62-0.33C787.56,1138.75,786,1138.86,784.45,1138.68"/>
			<path id="Path_310" class="st5" d="M748.62,1137.86c1.01-0.15,2.04-0.05,3,0.3C750.61,1138.15,749.58,1138.4,748.62,1137.86"/>
			<path id="Path_311" class="st6" d="M856.87,950.69c0.26,0.02,0.51,0.04,0.77,0.06c-0.33,0.46-0.65,0.92-0.97,1.38
				c-0.36-0.33-0.38-0.89-0.05-1.25C856.68,950.81,856.77,950.74,856.87,950.69"/>
			<path id="Path_312" class="st5" d="M712.47,1035.09c-0.82,0.44-1.77,0.59-2.68,0.42
				C710.58,1034.99,711.56,1034.84,712.47,1035.09"/>
			<path id="Path_313" class="st5" d="M834.31,1035.51c-0.92,0.18-1.87,0.03-2.69-0.42
				C832.53,1034.84,833.51,1034.99,834.31,1035.51"/>
			<path id="Path_314" class="st6" d="M678.94,950.79c0.24,0.01,0.48,0.02,0.72,0.03c0.06,0.3,0.12,0.6,0.18,0.89
				C679.4,951.59,679.06,951.23,678.94,950.79"/>
			<path id="Path_315" class="st6" d="M679.83,951.67l0.27,0.56C680,952.05,679.92,951.86,679.83,951.67"/>
			<path id="Path_316" class="st7" d="M829.52,1034.99c0.2,3.68-0.31,26.91-0.31,26.91s5.09,1.92,6.96,4.93
				c1.87,3.01,3.39,5.71,2.18,12.04c-1.21,6.33-8.45,10.18-13.52,9.94s-13.38-2.85-13.76-13.76c-0.38-10.91,11.27-13.77,11.27-13.77
				l0.11-26.28L829.52,1034.99z"/>
			<path id="Path_317" class="st7" d="M720.41,1035.06v10.72c0,0-13.09,1.33-21.73,11.81c-8.64,10.48-8.04,17.39-8.04,21.83
				c0,4.44-0.21,29.8,0,30.95c0.21,1.15,0.52,3.12,2.95,3.52c4.07,0.36,8.16,0.38,12.23,0.06c1.39-0.29,3.4-0.81,3.58-3.58
				c0.19-1.57-0.84-3.02-2.39-3.35c-1.19-0.22-9.22-0.22-9.22-0.22s-0.39-22.76,0.27-31.25c0.66-8.5,8.71-23.87,26.52-23.22
				s25.71,12.97,26.4,20.99s0.69,33.49,0.69,33.49c-2.58-0.14-5.16-0.14-7.74,0c-2.52,0.27-3.87,6.99-0.64,7.07
				c3.24,0.08,9.9,0.26,11.95,0.08c2.05-0.19,3.28-0.93,3.28-3.57s0.06-26.91,0-32.15c-0.33-6.48-2.39-12.75-5.95-18.17
				c-3.61-5.18-12.07-11.69-17.43-12.97c-2.6-0.66-5.23-1.19-7.88-1.59v-10.47L720.41,1035.06z"/>
			<path id="Path_318" class="st8" d="M831.69,1075.68c0,3.74-3.03,6.77-6.77,6.77c-3.74,0-6.77-3.03-6.77-6.77s3.03-6.77,6.77-6.77
				c0,0,0,0,0,0C828.66,1068.91,831.69,1071.94,831.69,1075.68L831.69,1075.68"/>
		</g>
	</g>
</g>
<g id="Group_173" transform="translate(307.653 131.855)">
	<g>
		<defs>
			<rect id="SVGID_00000112617367889984892280000013454380460049910689_" x="982.13" y="800.58" width="135.32" height="217.16"/>
		</defs>
		<clipPath id="SVGID_00000147193665060413440730000006129524095041911217_">
			<use xlink:href="#SVGID_00000112617367889984892280000013454380460049910689_"  style="overflow:visible;"/>
		</clipPath>
		<g id="Group_171" style="clip-path:url(#SVGID_00000147193665060413440730000006129524095041911217_);">
			<path id="Path_328" class="st2" d="M1100.85,908.12c-1.47,2.02-2.48,4.32-3.84,6.41c-1.5,2.37-3.19,4.63-5.03,6.74
				c-5.45,6.27-12.21,11.28-19.8,14.66c-0.66,0.17-1.1,0.8-1.04,1.48c0.02,5.94,0.01,11.88,0.02,17.82c0,1.09,0.04,1.12,1.17,1.13
				c3.65,0.02,7.3,0,10.94,0.02c0.56,0,1.16-0.16,1.65,0.27c-4.22,0.01-8.44,0.03-12.66,0c-0.78-0.06-1.53,0.26-2.02,0.87
				c-2.33,2.74-4.71,5.43-7.07,8.14c-3.76,4.31-7.53,8.61-11.43,12.8c-0.95,1.02-1.01,1.03-1.91,0.01c-2.8-3.15-5.57-6.33-8.35-9.5
				c-3.23-3.68-6.47-7.35-9.67-11.06c-0.66-0.86-1.71-1.34-2.8-1.27c-3.8,0.08-7.6,0.01-11.4,0c0.51-0.28,1.09-0.37,1.66-0.25
				c3.28-0.02,6.56,0,9.85-0.01c1.35-0.01,1.37-0.02,1.37-1.4c0.01-5.31-0.02-10.63,0.03-15.94c0.11-0.78-0.4-1.52-1.17-1.69
				c-13.45-4.92-24.53-14.77-30.98-27.56c-0.28-0.55-0.63-1.07-0.95-1.61c-0.05-0.11-0.1-0.22-0.16-0.33l0.01,0.03
				c-0.03-0.17-0.07-0.35-0.1-0.52c-0.67-1.6-1.35-3.2-2-4.8c-1.13-3.03-1.89-6.19-2.25-9.4c-0.44-2.73-0.67-5.48-0.68-8.24
				c0.02-1.34,0.01-1.36,1.23-1.76c6.14-2.08,12.13-4.58,17.92-7.5c5.98-2.83,11.57-6.4,16.64-10.64
				c8.39-7.3,14.42-16.39,19.47-26.19c0.19-0.48,0.41-0.95,0.65-1.4c0.55-0.81,0.95-0.76,1.66-0.05c0.31,0.35,0.55,0.75,0.73,1.18
				c2.13,4.24,4.54,8.33,7.22,12.24c4.5,6.87,10.2,12.86,16.84,17.69c6.98,4.73,14.46,8.68,22.3,11.76
				c2.58,1.06,5.19,2.06,7.81,3.05c1.24,0.47,1.24,0.42,1.24,1.76c-0.02,4.72-0.72,9.41-2.07,13.94c-0.73,2.84-1.7,5.61-2.9,8.29
				c-0.26,0.13-0.36,0.44-0.23,0.7C1100.76,908.02,1100.8,908.07,1100.85,908.12"/>
			<path id="Path_329" class="st1" d="M1098.25,820.21c3.4,3.72,6.4,7.81,8.92,12.17c1.45,2.45,2.7,5.02,3.75,7.67
				c1.42,3.72,2.59,7.52,3.49,11.4c1.24,5.61,1.76,11.36,1.54,17.11c-0.19,3.61-0.66,7.19-1.4,10.72c-0.47,2.73-1.19,5.41-2.16,8
				c-1.26,3.67-2.87,7.21-4.8,10.58c-1.71,2.77-3.54,5.46-5.23,8.23c-0.3,0.43-0.62,0.84-0.97,1.22l-0.45-0.04
				c1.2-2.67,2.17-5.45,2.9-8.29c1.35-4.53,2.05-9.22,2.07-13.94c0-1.34,0-1.29-1.24-1.76c-2.61-0.99-5.22-1.99-7.81-3.05
				c-7.84-3.09-15.32-7.03-22.3-11.76c-6.64-4.83-12.34-10.82-16.84-17.69c-2.67-3.92-5.09-8.01-7.22-12.25
				c-0.18-0.43-0.42-0.83-0.73-1.18c-0.71-0.71-1.11-0.77-1.66,0.05c-0.24,0.45-0.46,0.92-0.65,1.4
				c-5.06,9.8-11.08,18.89-19.47,26.19c-5.07,4.24-10.66,7.82-16.64,10.64c-5.79,2.92-11.78,5.42-17.92,7.5
				c-1.22,0.41-1.21,0.43-1.23,1.76c0.01,2.76,0.24,5.52,0.68,8.24c0.36,3.21,1.12,6.37,2.25,9.4c0.65,1.61,1.33,3.2,2,4.8
				c-0.14-0.01-0.28-0.01-0.42-0.02c-2.28-2.72-4.29-5.64-6.02-8.74c-0.71-1.24-1.39-2.5-2.1-3.74c-0.5-1.06-0.94-2.16-1.31-3.27
				c-1.18-2.82-2.17-5.71-2.98-8.65c-0.49-1.84-0.9-3.71-1.38-5.55c-0.18-1.12-0.29-2.26-0.32-3.4c-0.7-5.8-0.67-11.67,0.12-17.46
				c0.17-1.23,0.13-2.47,0.37-3.71c0.21-0.99,0.48-1.97,0.8-2.93c0.6-1.85,0.97-3.76,1.6-5.61c0.82-2.42,1.93-4.69,2.89-7.04
				c1.39-3.03,3-5.94,4.82-8.73c1.17-1.75,2.44-3.43,3.81-5.03c0.84-0.92,1.61-1.89,2.31-2.92c0.3-0.5,0.7-0.92,1.19-1.23
				c0.75-0.48,0.79-0.8,1.81-1.81C1009.12,810.8,1049.05,781.52,1098.25,820.21"/>
			<path id="Path_330" class="st3" d="M1089.94,957.43c9.52,2.04,17.73,8.01,22.61,16.43c3.08,5.22,4.77,11.15,4.89,17.21
				c0.07,0.93-0.28,1.85-0.94,2.51c-4.15,4.42-8.92,8.2-14.16,11.24c-9.58,5.56-20.09,9.32-31.03,11.09
				c-3.34,0.58-6.7,0.98-10.07,1.29c-0.91-0.08-1.82-0.02-2.71,0.19l-2.62,0.12l-8.97,0.04c-2.55-0.15-5.11-0.18-7.64-0.47
				c-0.56-0.2-1.16-0.27-1.76-0.18c-2.79-0.35-5.62-0.49-8.35-1.11c-6.12-1.25-12.13-3.01-17.95-5.28
				c-7.82-3.09-15.05-7.51-21.37-13.06c-1.39-1.26-2.69-2.62-3.96-4c-0.58-0.6-0.89-1.41-0.84-2.24c0.1-4.65,1.08-9.24,2.9-13.52
				c1.25-2.85,2.86-5.52,4.79-7.96c4.8-6.21,11.19-9.97,18.64-12.07c0.4-0.11,0.8-0.2,1.2-0.29c0.28,0.56,0.65,1.07,1.1,1.51
				c1.02,1.12,2.02,2.24,3.02,3.38c2.67,3.06,5.32,6.13,8,9.19c2.54,2.9,5.11,5.77,7.65,8.67c3.25,3.72,6.48,7.48,9.73,11.2
				c2.67,3.06,5.36,6.1,8.04,9.15c0.65,0.74,0.66,0.74,1.27,0.05c1.97-2.22,3.94-4.44,5.91-6.66c3.5-3.92,7.01-7.84,10.52-11.76
				c4.41-4.93,8.82-9.86,13.23-14.79C1084.04,964.02,1086.99,960.72,1089.94,957.43"/>
			<path id="Path_331" class="st4" d="M1089.94,957.43c-2.95,3.3-5.91,6.6-8.86,9.9c-4.41,4.93-8.82,9.86-13.23,14.79
				c-3.51,3.92-7.01,7.84-10.52,11.76c-1.98,2.21-3.95,4.43-5.91,6.66c-0.61,0.69-0.63,0.69-1.27-0.05
				c-2.68-3.05-5.37-6.09-8.04-9.15c-3.25-3.73-6.47-7.48-9.73-11.2c-2.54-2.9-5.11-5.77-7.65-8.67c-2.68-3.05-5.33-6.13-8-9.19
				c-0.99-1.14-2-2.26-3.02-3.38c-0.45-0.44-0.82-0.95-1.1-1.51l2.18-0.43c0.54,0.1,1.09,0.02,1.57-0.24l1.23-0.07
				c3.8,0.01,7.6,0.08,11.4,0c1.09-0.07,2.14,0.41,2.8,1.27c3.2,3.71,6.44,7.38,9.67,11.06c2.78,3.17,5.55,6.35,8.35,9.5
				c0.9,1.02,0.96,1.01,1.91-0.01c3.9-4.18,7.67-8.48,11.43-12.8c2.36-2.71,4.74-5.4,7.07-8.14c0.49-0.61,1.25-0.93,2.02-0.87
				c4.22,0.03,8.44,0,12.66,0l1.25,0.05c0.48,0.26,1.04,0.35,1.58,0.24L1089.94,957.43"/>
			<path id="Path_332" class="st5" d="M1046.95,1017.56l8.97-0.04c-1.06,0.24-2.15,0.3-3.23,0.18
				C1050.77,1017.81,1048.86,1017.76,1046.95,1017.56"/>
			<path id="Path_333" class="st5" d="M1058.54,1017.4c0.89-0.21,1.8-0.27,2.71-0.19C1060.36,1017.44,1059.44,1017.5,1058.54,1017.4
				"/>
			<path id="Path_334" class="st5" d="M1037.55,1016.91c0.59-0.09,1.19-0.03,1.76,0.18
				C1038.72,1017.19,1038.11,1017.13,1037.55,1016.91"/>
			<path id="Path_335" class="st6" d="M1100.97,907.27l0.45,0.04c-0.19,0.27-0.38,0.54-0.57,0.81c-0.21-0.19-0.22-0.52-0.03-0.73
				C1100.86,907.34,1100.91,907.3,1100.97,907.27"/>
			<path id="Path_336" class="st5" d="M1016.37,956.71c-0.48,0.26-1.04,0.35-1.57,0.24
				C1015.26,956.65,1015.84,956.57,1016.37,956.71"/>
			<path id="Path_337" class="st5" d="M1087.75,956.96c-0.54,0.1-1.09,0.02-1.58-0.24C1086.71,956.57,1087.28,956.65,1087.75,956.96
				"/>
			<path id="Path_338" class="st6" d="M996.73,907.33c0.14,0.01,0.28,0.01,0.42,0.02c0.03,0.18,0.07,0.35,0.1,0.52
				C996.99,907.8,996.79,907.59,996.73,907.33"/>
			<path id="Path_339" class="st6" d="M997.25,907.85l0.16,0.33C997.36,908.06,997.31,907.95,997.25,907.85"/>
			<path id="Path_340" class="st3" d="M1049,900.17c0.57-0.71,1.19-1.38,1.85-2.01c1.51-1.22,3.51-1.63,5.38-1.11
				c2.63,0.7,5.09,1.95,7.2,3.66c1.92,1.4,3.8,2.86,5.72,4.26c0.53,0.38,1.1,0.68,1.71,0.92c0.4,0.16,0.83,0.21,1.26,0.16
				c1.45-0.23,1.87-1.31,1.01-2.48c-0.28-0.3-0.49-0.65-0.61-1.04c-0.06-0.41,0.05-0.83,0.28-1.18c0.14-0.18,0.69-0.21,0.98-0.1
				c1.56,0.56,2.83,1.71,3.54,3.21c1.6,3.13,0.62,6.97-2.28,8.95c-1.73,1.28-3.79,2.05-5.94,2.22c-5.59,0.68-11.25-0.64-15.97-3.71
				c-1.74-1.07-3.13-2.62-3.99-4.47c-0.59,0.91-1.24,1.78-1.94,2.61c-2.43,2.4-5.47,4.07-8.8,4.82c-3.75,1.13-7.74,1.25-11.55,0.33
				c-3.02-0.61-5.49-2.76-6.51-5.66c-0.99-3.26,0.57-6.74,3.66-8.17c0.46-0.19,0.98-0.46,1.4,0.03c0.41,0.48,0.41,1.18,0,1.66
				c-0.21,0.32-0.46,0.61-0.67,0.93c-0.42,0.63-0.35,0.99,0.22,1.5c0.68,0.71,1.77,0.84,2.6,0.31c1.33-0.81,2.64-1.67,3.88-2.6
				c2.35-1.95,4.89-3.66,7.57-5.11c1.61-0.88,3.44-1.28,5.28-1.16c1.85,0.19,3.5,1.24,4.46,2.83
				C1048.85,899.91,1048.94,900.07,1049,900.17"/>
			<path id="Path_341" class="st7" d="M1082.32,956.64c0.12,2.16-0.18,15.76-0.18,15.76s2.98,1.12,4.08,2.89
				c1.1,1.76,1.98,3.35,1.28,7.05s-4.95,5.97-7.92,5.82c-2.97-0.14-7.84-1.67-8.06-8.06s6.6-8.07,6.6-8.07l0.07-15.39
				L1082.32,956.64z"/>
			<path id="Path_342" class="st7" d="M1018.4,956.69v6.28c-4.93,0.71-9.45,3.16-12.73,6.91c-5.06,6.14-4.71,10.19-4.71,12.79
				c0,2.6-0.12,17.46,0,18.13c0,1.01,0.73,1.88,1.73,2.06c2.38,0.21,4.78,0.22,7.16,0.04c0.81-0.17,1.99-0.48,2.09-2.09
				c0.11-0.92-0.5-1.77-1.4-1.96c-0.7-0.13-5.4-0.13-5.4-0.13s-0.23-13.33,0.16-18.31c0.38-4.98,5.1-13.98,15.54-13.6
				s15.06,7.6,15.46,12.29c0.4,4.69,0.4,19.62,0.4,19.62c-1.51-0.08-3.02-0.08-4.53,0c-1.47,0.16-2.27,4.09-0.37,4.14
				s5.8,0.15,7,0.04c1.2-0.11,1.92-0.55,1.92-2.09c0-1.55,0.03-15.76,0-18.84c-0.2-3.79-1.4-7.47-3.49-10.64
				c-2.12-3.03-7.07-6.85-10.21-7.6c-1.52-0.39-3.06-0.7-4.61-0.93v-6.13L1018.4,956.69z"/>
			<path id="Path_343" class="st8" d="M1083.59,980.48c0,2.19-1.78,3.97-3.97,3.97c-2.19,0-3.97-1.78-3.97-3.97s1.78-3.97,3.97-3.97
				C1081.82,976.51,1083.59,978.29,1083.59,980.48L1083.59,980.48"/>
		</g>
	</g>
</g>
<g>
	<defs>
		<rect id="SVGID_00000070112051327961210690000008323010672898069142_" x="27.57" y="26.99" width="221.01" height="380.23"/>
	</defs>
	<clipPath id="SVGID_00000085218126978482444770000004422031550402194103_">
		<use xlink:href="#SVGID_00000070112051327961210690000008323010672898069142_"  style="overflow:visible;"/>
	</clipPath>
	<g id="Group_49" style="clip-path:url(#SVGID_00000085218126978482444770000004422031550402194103_);">
		<path id="Path_26" class="st1" d="M236.11,166.74c0,0,4.38,36.37-3.71,70.02s-12.64,55.39-5.06,69.04s21.23,23.76,21.23,23.76
			s-10.6-1.02-17.19,0l-6.59,1.02c0,0-24.21-13.45-41.33-13.03c-17.12,0.42-75.19,0.35-87.74,1.14c-12.55,0.79-18.6,2.96-31.15,4.56
			c-17.85,2.28-29.85,4.79-29.85,4.79c6.08-5.55,11.03-12.22,14.59-19.65c6.76-14.33-5.55-46.25-9.94-68.39
			c-10.13-51.16-11.36-66.88-11.36-66.88L236.11,166.74z"/>
		<path id="Path_27" class="st2" d="M212.66,236.67c-2.3,3.14-3.86,6.72-5.97,9.98c-2.34,3.69-4.96,7.2-7.83,10.49
			c-8.48,9.76-18.99,17.55-30.8,22.81c-1.03,0.27-1.71,1.25-1.61,2.31c0.04,9.24,0.01,18.48,0.03,27.73c0,1.7-0.29,2.72,1.46,2.73
			c5.68,0.03,11.9,0.18,17.58,0.21c0.86,0,1.88-0.27,2.65,0.4c-6.56,0.01-13.4-1.09-19.96-1.13c-1.21-0.1-2.39,0.41-3.15,1.35
			c-3.62,4.26-7.33,8.44-11,12.66c-5.85,6.71-11.71,13.4-17.78,19.91c-1.48,1.58-1.57,1.6-2.97,0.02
			c-4.36-4.9-8.67-9.84-12.99-14.77c-5.02-5.73-10.06-11.44-15.04-17.21c-1.03-1.34-2.66-2.09-4.36-1.98
			c-5.91,0.12-12.11,1.18-18.03,1.16c0.79-0.61,2.73,1.6,3.6,1.59c5.11-0.03,10.66-0.74,15.76-0.76c2.1-0.01,1.39-0.84,0.96-4.6
			c0.01-8.27-0.03-16.53,0.04-24.8c0.17-1.22-0.62-2.37-1.83-2.63c-20.92-7.65-38.15-22.98-48.19-42.87
			c-0.44-0.86-0.99-1.67-1.48-2.5c-0.08-0.17-0.16-0.34-0.24-0.51l0.02,0.04c-0.06-0.27-0.11-0.54-0.16-0.81
			c-1.04-2.49-2.1-4.97-3.11-7.47c-1.76-4.71-2.94-9.62-3.5-14.62c-0.68-4.24-1.04-8.53-1.06-12.83c0.03-2.08,0.01-2.11,1.91-2.74
			c9.55-3.23,18.87-7.14,27.87-11.67c9.23-4.61,18.09-9.76,25.89-16.55c13.06-11.36,22.43-25.5,30.29-40.74
			c0.29-0.75,0.63-1.47,1.01-2.18c0.86-1.27,1.48-1.18,2.58-0.07c0.48,0.54,0.86,1.16,1.13,1.83c3.32,6.59,7.07,12.96,11.23,19.05
			c7.25,10.58,15.62,20.09,26.2,27.51c10.79,7.57,22.55,13.29,34.69,18.3c4.02,1.65,8.08,3.21,12.15,4.75
			c1.93,0.73,1.93,0.66,1.93,2.74c-0.03,7.35-1.12,14.65-3.22,21.69c-1.13,4.42-2.64,8.73-4.51,12.89c-0.4,0.2-0.56,0.68-0.36,1.08
			C212.53,236.53,212.59,236.61,212.66,236.67"/>
		<path id="Path_28" class="st1" d="M212.84,235.36c1.87-4.16,3.38-8.47,4.51-12.89c2.1-7.04,3.19-14.34,3.22-21.69
			c0-2.08,0-2.01-1.93-2.74c-4.07-1.54-8.13-3.09-12.15-4.75c-12.14-5-23.9-10.73-34.69-18.3c-10.58-7.42-18.95-16.93-26.2-27.51
			c-4.16-6.09-7.91-12.46-11.23-19.05c-0.28-0.67-0.66-1.29-1.13-1.83c-1.1-1.11-1.72-1.19-2.58,0.07
			c-0.38,0.71-0.72,1.43-1.01,2.18c-7.86,15.24-17.24,29.38-30.29,40.74c-7.8,6.79-16.66,11.94-25.89,16.55
			c-9.01,4.54-18.32,8.44-27.87,11.67c-1.9,0.63-1.88,0.66-1.91,2.74c0.02,4.3,0.38,8.58,1.06,12.82c0.56,5,1.74,9.91,3.5,14.62
			c1.01,2.5,2.07,4.98,3.11,7.47c-0.22-0.01-0.44-0.02-0.66-0.03c-3.54-4.23-6.68-8.78-9.37-13.6c-1.11-1.93-2.16-3.89-3.26-5.82
			c-0.78-1.65-1.46-3.35-2.03-5.09c-1.8-4.39-1.18-5.89-2.41-10.5c-0.76-2.87-1.77-6.22-2.52-9.09c-0.43-1.66-2.8-14.18-3.01-15.95
			c-1.03-9.05-0.44-9.96,0.84-19c0.27-1.91,0.2-3.84,0.58-5.77c0.33-1.55,0.74-3.07,1.25-4.57c0.93-2.88,1.52-5.85,2.49-8.72
			c1.28-3.77,3-7.3,4.5-10.95c1.98-4.82,4.86-9.14,7.5-13.59c1.82-2.72,3.79-5.34,5.92-7.83c1.31-1.42,2.51-2.94,3.6-4.54
			c0.46-0.77,1.09-1.42,1.85-1.91c1.1-0.77,2.05-1.72,2.82-2.81c1.99-2.56,4.96-4.04,7.23-6.31c0.81-0.81,1.54-0.2,1.88,0.63
			c0.58,1.38,1.07,2.8,1.46,4.24c1.03,3.88,2.29,7.68,3.5,11.5c0.48,0.85,1.29,0.43,1.94,0.43c36.01,0.02,72.02,0.03,108.02,0.01
			c0.69,0,1.46,0.28,2.08-0.32c2.23-6.31,4.49-12.62,6.24-19.09c0.25-0.91,0.88-1.1,1.58-0.46c5.05,4.55,10.65,8.48,15.23,13.58
			c5.29,5.8,9.95,12.15,13.88,18.94c2.25,3.82,4.2,7.81,5.83,11.93c2.22,5.78,4.03,11.7,5.43,17.73c1.93,8.73,2.73,17.67,2.4,26.61
			c-0.3,5.61-1.03,11.19-2.18,16.68c-0.73,4.24-1.86,8.41-3.35,12.45c-2.15,5.62-4.24,11.24-7.46,16.45
			c-2.65,4.3-5.5,8.49-8.13,12.81c-0.46,0.66-0.96,1.3-1.5,1.9C213.32,235.39,213.08,235.37,212.84,235.36"/>
		<path id="Path_29" class="st3" d="M195.69,313.38c14.81,3.17,27.58,12.46,35.18,25.56c4.79,8.12,7.41,17.35,7.61,26.78
			c0.1,1.45-0.43,2.87-1.46,3.9c-6.45,6.87-13.87,12.76-22.03,17.48c-14.97,8.86-31.18,14.3-48.27,17.25
			c-5.2,0.9-10.43,1.53-15.67,2.02c-1.41-0.13-2.83-0.03-4.21,0.3l-4.07,0.19l-13.95,0.07c-3.97-0.23-7.94-0.27-11.89-0.73
			c-0.87-0.32-1.81-0.41-2.73-0.27c-4.34-0.55-8.75-0.77-12.99-1.73c-9.47-2.13-18.9-4.48-27.92-8.21
			c-12.16-5.02-23.43-11.46-33.24-20.32c-2.17-1.96-4.18-4.07-6.16-6.22c-0.9-0.93-1.38-2.2-1.3-3.49
			c0.15-7.23,1.68-14.37,4.51-21.02c1.94-4.43,4.45-8.59,7.45-12.38c7.47-9.66,17.4-15.5,29-18.78c0.62-0.17,1.24-0.3,1.87-0.45
			c0.43,0.87,1.01,1.67,1.71,2.35c1.59,1.73,3.15,3.49,4.69,5.26c4.15,4.76,8.28,9.54,12.44,14.29c3.95,4.51,7.96,8.97,11.9,13.48
			c5.06,5.79,10.08,11.63,15.14,17.43c4.15,4.76,8.35,9.49,12.51,14.24c1,1.15,1.03,1.16,1.98,0.08c3.06-3.46,6.12-6.91,9.19-10.36
			c5.45-6.1,10.9-12.2,16.36-18.3c6.86-7.67,13.72-15.34,20.58-23.01C186.5,323.64,191.09,318.51,195.69,313.38"/>
		<path id="Path_30" class="st4" d="M195.69,313.38c-4.59,5.13-9.19,10.26-13.78,15.39c-6.86,7.67-13.72,15.34-20.58,23.01
			c-5.45,6.1-10.91,12.2-16.36,18.3c-3.08,3.44-6.14,6.9-9.19,10.36c-0.96,1.08-0.98,1.07-1.98-0.08
			c-4.17-4.75-8.36-9.48-12.51-14.24c-5.06-5.8-10.07-11.64-15.14-17.43c-3.94-4.51-7.95-8.98-11.9-13.48
			c-4.16-4.75-8.29-9.53-12.44-14.29c-1.55-1.77-3.11-3.52-4.69-5.26c-0.7-0.68-1.28-1.47-1.71-2.35c1.13-0.22,2.27-0.45,3.4-0.67
			c0.83,0.16,1.7,0.02,2.44-0.38l1.92-0.11c5.92,0.02,11.83,0.12,17.74,0.01c1.69-0.11,3.32,0.64,4.36,1.98
			c4.97,5.77,10.02,11.48,15.04,17.21c4.32,4.93,8.64,9.87,12.99,14.77c1.4,1.58,1.5,1.57,2.98-0.02
			c6.07-6.51,11.93-13.2,17.78-19.91c3.67-4.21,7.38-8.4,11-12.66c0.76-0.94,1.94-1.45,3.15-1.35c6.56,0.04,13.13,0.01,19.69,0
			l1.95,0.08c0.75,0.41,1.61,0.54,2.45,0.38L195.69,313.38"/>
		<path id="Path_31" class="st4" d="M71.16,106.3c0,0-11.14-42.53-11.14-45.71s0.83-4.43,4.02-6.1c3.19-1.66,54.72-25.21,60.54-26.6
			c5.82-1.39,8.04-1.25,14.27,0.83c6.23,2.08,53.33,23.83,57.49,25.63s5.82,3.32,4.02,9s-14.27,42.94-14.27,42.94L71.16,106.3z"/>
		<path id="Path_32" class="st11" d="M130.18,95.37c-2.03,0-4.06-0.05-6.08,0.02c-1.17,0.04-1.58-0.39-1.56-1.54
			c0.05-2.92,0.02-5.84,0.01-8.76c-0.01-3.02,0.22-2.67-2.8-2.68c-2.68-0.01-5.35,0.01-8.03-0.01c-2.16-0.01-2.17-0.02-2.18-2.07
			c-0.02-3.65-0.02-7.3,0-10.95c0.01-2.17,0.02-2.18,2.31-2.19c2.84-0.01,5.68,0.01,8.52-0.01c2.15-0.01,2.17-0.02,2.18-2.09
			c0.02-3.08,0.04-6.16-0.01-9.25c-0.02-1.21,0.29-1.74,1.63-1.71c3.97,0.08,7.95,0.01,11.92,0.03c1.66,0.01,1.69,0.05,1.71,1.81
			c0.03,2.76,0,5.51,0.01,8.27c0.02,3.33-0.33,2.9,3.05,2.92c2.76,0.02,5.51,0.05,8.27-0.02c1.26-0.03,1.7,0.39,1.67,1.67
			c-0.07,3.97-0.07,7.95,0,11.92c0.02,1.29-0.44,1.69-1.68,1.66c-2.92-0.07-5.84-0.03-8.76-0.02c-2.66,0-2.55-0.25-2.55,2.44
			c0,2.92,0.02,5.84-0.01,8.76c-0.02,1.71-0.05,1.73-1.78,1.76C134.07,95.39,132.12,95.37,130.18,95.37"/>
		<path id="Path_33" class="st5" d="M128.81,406.93l13.95-0.07c-1.65,0.55-3.36,0.28-5.03,0.28
			C134.76,407.13,131.78,407.41,128.81,406.93"/>
		<path id="Path_34" class="st5" d="M146.84,406.67c1.38-0.33,2.8-0.43,4.21-0.3C149.68,406.73,148.25,406.83,146.84,406.67"/>
		<path id="Path_35" class="st5" d="M114.19,405.92c0.92-0.14,1.86-0.04,2.73,0.27C116.01,406.34,115.06,406.25,114.19,405.92"/>
		<path id="Path_36" class="st6" d="M212.84,235.36c0.24,0.02,0.47,0.04,0.7,0.06l-0.89,1.26c-0.33-0.3-0.35-0.81-0.04-1.14
			C212.68,235.46,212.75,235.4,212.84,235.36"/>
		<path id="Path_37" class="st5" d="M81.25,312.27c-0.75,0.41-1.61,0.54-2.44,0.38C79.52,312.18,80.41,312.04,81.25,312.27"/>
		<path id="Path_38" class="st5" d="M192.28,312.65c-0.84,0.16-1.7,0.03-2.45-0.38C190.66,312.04,191.55,312.18,192.28,312.65"/>
		<path id="Path_39" class="st6" d="M50.7,235.44c0.22,0.01,0.44,0.02,0.66,0.03c0.05,0.27,0.11,0.54,0.16,0.81
			C51.11,236.17,50.8,235.85,50.7,235.44"/>
		<path id="Path_40" class="st6" d="M51.5,236.25l0.24,0.51C51.66,236.59,51.58,236.42,51.5,236.25"/>
	</g>
</g>
<g id="Group_177" transform="translate(734.561 6291.029)">
	<g>
		<defs>
			
				<rect id="SVGID_00000179618555043379186800000012848402284435469990_" x="-449.67" y="-6264.04" width="210.51" height="380.23"/>
		</defs>
		<clipPath id="SVGID_00000129910992475425819070000004444375522560516491_">
			<use xlink:href="#SVGID_00000179618555043379186800000012848402284435469990_"  style="overflow:visible;"/>
		</clipPath>
		<g id="Group_51" style="clip-path:url(#SVGID_00000129910992475425819070000004444375522560516491_);">
			<path id="Path_41" class="st13" d="M-264.99-6054.35c-2.29,3.14-3.86,6.72-5.96,9.98c-2.34,3.69-4.96,7.2-7.83,10.49
				c-8.48,9.76-18.99,17.55-30.8,22.81c-1.03,0.27-1.71,1.24-1.62,2.3c0.04,9.24,0,18.48,0.03,27.73c0,1.7,0.06,1.75,1.82,1.75
				c5.68,0.03,11.35,0,17.03,0.03c0.86,0,1.8-0.25,2.57,0.43c-6.56,0-13.13,0.05-19.69,0c-1.21-0.09-2.38,0.41-3.15,1.35
				c-3.62,4.26-7.33,8.44-11,12.66c-5.85,6.71-11.71,13.4-17.78,19.91c-1.48,1.59-1.57,1.6-2.98,0.02
				c-4.36-4.9-8.67-9.84-12.99-14.77c-5.02-5.73-10.06-11.44-15.03-17.21c-1.03-1.34-2.67-2.09-4.36-1.98
				c-5.91,0.12-11.83,0.01-17.74,0c0.79-0.43,1.7-0.57,2.58-0.39c5.11-0.03,10.22,0,15.32-0.02c2.11,0,2.13-0.03,2.13-2.18
				c0.01-8.27-0.03-16.53,0.04-24.8c0.17-1.22-0.62-2.37-1.82-2.63c-20.92-7.65-38.15-22.98-48.19-42.87
				c-0.44-0.85-0.99-1.67-1.49-2.5c-0.08-0.17-0.16-0.34-0.24-0.51l0.01,0.04c-0.05-0.27-0.11-0.54-0.16-0.81
				c-1.04-2.49-2.1-4.97-3.11-7.47c-1.76-4.71-2.94-9.62-3.5-14.62c-0.68-4.24-1.04-8.53-1.06-12.82c0.03-2.08,0.01-2.11,1.92-2.74
				c9.55-3.23,18.87-7.14,27.87-11.67c9.3-4.39,18-9.95,25.89-16.55c13.05-11.37,22.43-25.52,30.29-40.75
				c0.29-0.75,0.63-1.47,1.01-2.18c0.85-1.27,1.49-1.18,2.58-0.07c0.48,0.54,0.86,1.16,1.13,1.83c3.32,6.6,7.07,12.96,11.23,19.06
				c7,10.67,15.88,19.99,26.2,27.5c10.85,7.37,22.48,13.51,34.69,18.31c4.02,1.65,8.09,3.21,12.15,4.75
				c1.93,0.73,1.94,0.66,1.94,2.74c-0.04,7.35-1.12,14.65-3.22,21.69c-1.13,4.42-2.64,8.73-4.51,12.89c-0.4,0.2-0.56,0.68-0.36,1.08
				C-265.12-6054.49-265.06-6054.41-264.99-6054.35"/>
			<path id="Path_42" class="st1" d="M-264.8-6055.67c1.87-4.16,3.38-8.47,4.5-12.89c2.1-7.04,3.18-14.34,3.22-21.69
				c0-2.08,0-2.01-1.93-2.74c-4.07-1.53-8.13-3.09-12.15-4.75c-12.2-4.8-23.84-10.94-34.69-18.3c-10.32-7.51-19.2-16.83-26.2-27.51
				c-4.16-6.09-7.91-12.46-11.23-19.05c-0.28-0.67-0.66-1.29-1.13-1.83c-1.1-1.11-1.72-1.19-2.58,0.07
				c-0.38,0.71-0.72,1.43-1.01,2.18c-7.86,15.24-17.24,29.38-30.29,40.74c-7.89,6.59-16.59,12.15-25.89,16.55
				c-9.01,4.54-18.32,8.44-27.87,11.67c-1.9,0.64-1.88,0.66-1.92,2.74c0.02,4.3,0.38,8.58,1.06,12.82c0.56,5,1.74,9.91,3.5,14.62
				c1.01,2.5,2.07,4.98,3.11,7.47c-0.21-0.01-0.44-0.02-0.66-0.03c-3.54-4.23-6.68-8.78-9.37-13.6c-1.11-1.93-2.16-3.89-3.26-5.82
				c-0.78-1.65-1.46-3.35-2.04-5.09c-1.83-4.38-3.38-8.88-4.63-13.46c-0.76-2.87-1.4-5.77-2.15-8.64c-0.28-1.75-0.45-3.52-0.49-5.29
				c-1.1-9.02-1.03-18.15,0.19-27.16c0.27-1.92,0.2-3.83,0.58-5.77c0.33-1.54,0.74-3.07,1.25-4.56c0.93-2.88,1.52-5.85,2.49-8.73
				c1.28-3.77,3-7.3,4.5-10.95c2.17-4.71,4.67-9.25,7.5-13.59c1.82-2.72,3.79-5.33,5.92-7.82c1.31-1.43,2.51-2.94,3.6-4.54
				c0.46-0.78,1.09-1.43,1.85-1.92c1.1-0.77,2.05-1.72,2.82-2.81c1.98-2.55,4.96-4.04,7.24-6.31c0.81-0.81,1.54-0.2,1.88,0.64
				c0.58,1.38,1.07,2.8,1.46,4.24c1.03,3.88,2.29,7.68,3.5,11.5c0.48,0.85,1.29,0.43,1.93,0.43c36.01,0.03,72.02,0.03,108.03,0
				c0.69,0,1.46,0.28,2.08-0.32c2.23-6.31,4.49-12.62,6.24-19.09c0.24-0.91,0.88-1.1,1.58-0.46c5.05,4.55,10.64,8.48,15.23,13.58
				c5.3,5.79,9.95,12.14,13.88,18.93c2.25,3.82,4.2,7.8,5.83,11.92c2.21,5.78,4.03,11.7,5.43,17.73c1.93,8.73,2.73,17.68,2.4,26.61
				c-0.3,5.61-1.03,11.19-2.18,16.68c-0.73,4.24-1.86,8.41-3.35,12.45c-1.96,5.71-4.46,11.21-7.45,16.45
				c-2.65,4.3-5.51,8.49-8.13,12.81c-0.46,0.67-0.96,1.3-1.5,1.9l-0.7-0.06"/>
			<path id="Path_43" class="st3" d="M-281.95-5977.65c14.81,3.17,27.58,12.45,35.18,25.55c4.79,8.12,7.41,17.35,7.61,26.78
				c0.1,1.45-0.43,2.88-1.46,3.9c-6.45,6.87-13.87,12.76-22.03,17.48c-14.9,8.65-31.26,14.5-48.27,17.24
				c-5.2,0.9-10.43,1.53-15.67,2.01c-1.41-0.13-2.83-0.03-4.21,0.3l-4.08,0.21l-13.95,0.07c-3.97-0.23-7.94-0.27-11.89-0.73
				c-0.87-0.32-1.81-0.41-2.73-0.27c-4.34-0.55-8.75-0.77-12.99-1.73c-9.52-1.94-18.87-4.68-27.92-8.21
				c-12.17-4.8-23.41-11.68-33.24-20.32c-2.17-1.96-4.18-4.07-6.16-6.22c-0.9-0.93-1.38-2.2-1.3-3.49
				c0.15-7.23,1.68-14.37,4.51-21.02c1.94-4.43,4.45-8.59,7.45-12.38c7.34-9.28,17.53-15.88,29-18.78c0.62-0.17,1.24-0.3,1.86-0.45
				c0.43,0.87,1.01,1.66,1.7,2.34c1.59,1.73,3.15,3.49,4.68,5.26c4.15,4.76,8.28,9.54,12.45,14.29c3.95,4.51,7.96,8.97,11.9,13.48
				c5.06,5.79,10.08,11.63,15.13,17.43c4.15,4.76,8.35,9.49,12.51,14.24c1,1.15,1.03,1.16,1.98,0.08c3.06-3.46,6.12-6.91,9.19-10.36
				c5.45-6.1,10.9-12.21,16.36-18.31c6.86-7.66,13.72-15.33,20.58-23.01C-291.15-5967.4-286.55-5972.53-281.95-5977.65"/>
			<path id="Path_44" class="st4" d="M-281.95-5977.64c-4.59,5.13-9.19,10.26-13.78,15.39c-6.86,7.66-13.72,15.33-20.58,23.01
				c-5.45,6.1-10.91,12.21-16.36,18.31c-3.07,3.45-6.14,6.9-9.19,10.36c-0.96,1.08-0.98,1.06-1.98-0.08
				c-4.17-4.75-8.36-9.48-12.51-14.24c-5.06-5.8-10.07-11.63-15.13-17.43c-3.94-4.52-7.95-8.98-11.9-13.48
				c-4.16-4.75-8.29-9.53-12.45-14.29c-1.55-1.77-3.11-3.52-4.68-5.26c-0.7-0.68-1.27-1.47-1.7-2.34l3.41-0.67
				c0.83,0.16,1.7,0.02,2.45-0.38l1.92-0.11c5.91,0.02,11.83,0.12,17.74,0c1.69-0.1,3.32,0.64,4.36,1.98
				c4.97,5.77,10.01,11.48,15.04,17.21c4.32,4.93,8.64,9.87,12.99,14.77c1.4,1.58,1.49,1.57,2.98-0.02
				c6.07-6.51,11.93-13.2,17.78-19.91c3.67-4.21,7.38-8.4,11-12.66c0.76-0.94,1.94-1.45,3.15-1.35c6.56,0.04,13.13,0,19.69,0
				l1.94,0.08c0.75,0.41,1.61,0.54,2.45,0.38l3.41,0.73"/>
			<path id="Path_45" class="st4" d="M-406.48-6184.73c0,0-11.13-42.53-11.13-45.71s0.83-4.43,4.02-6.09
				c3.19-1.66,54.71-25.21,60.53-26.6c5.82-1.39,8.03-1.25,14.26,0.83s53.33,23.83,57.48,25.63s5.82,3.33,4.02,9
				c-1.8,5.68-14.26,42.94-14.26,42.94H-406.48z"/>
			<path id="Path_46" class="st11" d="M-347.47-6195.66c-2.03,0-4.06-0.05-6.08,0.02c-1.17,0.04-1.58-0.39-1.56-1.54
				c0.05-2.92,0.02-5.84,0.01-8.76c0-3.02,0.21-2.67-2.8-2.68c-2.68-0.01-5.35,0-8.03,0c-2.16,0-2.17-0.02-2.18-2.07
				c-0.02-3.65-0.02-7.3,0-10.95c0-2.17,0.02-2.18,2.31-2.19c2.84,0,5.68,0,8.52,0c2.15,0,2.17-0.02,2.18-2.09
				c0.01-3.08,0.04-6.17-0.01-9.25c-0.02-1.21,0.29-1.73,1.63-1.7c3.97,0.08,7.95,0.01,11.92,0.03c1.66,0.01,1.69,0.05,1.7,1.82
				c0.03,2.76,0,5.51,0,8.27c0.02,3.33-0.33,2.9,3.05,2.92c2.76,0.02,5.51,0.05,8.27-0.02c1.26-0.03,1.7,0.39,1.67,1.67
				c-0.07,3.97-0.07,7.95,0,11.92c0.02,1.29-0.44,1.68-1.68,1.66c-2.92-0.07-5.84-0.03-8.76-0.02c-2.66,0-2.55-0.25-2.55,2.44
				c0,2.92,0.02,5.84,0,8.76c-0.01,1.7-0.05,1.73-1.78,1.76c-1.95,0.03-3.89,0-5.84,0"/>
			<path id="Path_47" class="st5" d="M-348.83-5884.1l13.95-0.07c-1.65,0.37-3.35,0.46-5.03,0.28
				C-342.88-5883.73-345.86-5883.8-348.83-5884.1"/>
			<path id="Path_48" class="st5" d="M-330.8-5884.36c1.38-0.33,2.8-0.43,4.21-0.3C-327.97-5884.3-329.39-5884.2-330.8-5884.36"/>
			<path id="Path_49" class="st5" d="M-363.45-5885.11c0.92-0.14,1.86-0.04,2.73,0.27
				C-361.64-5884.68-362.58-5884.78-363.45-5885.11"/>
			<path id="Path_50" class="st6" d="M-264.8-6055.67l0.7,0.06c-0.3,0.43-0.59,0.84-0.89,1.26c-0.33-0.3-0.35-0.81-0.05-1.14
				C-264.97-6055.57-264.89-6055.63-264.8-6055.67"/>
			<path id="Path_51" class="st5" d="M-396.4-5978.76c-0.75,0.41-1.61,0.54-2.45,0.38C-398.12-5978.85-397.23-5978.99-396.4-5978.76
				"/>
			<path id="Path_52" class="st5" d="M-285.37-5978.38c-0.84,0.16-1.7,0.03-2.45-0.38
				C-286.98-5978.99-286.09-5978.85-285.37-5978.38"/>
			<path id="Path_53" class="st6" d="M-426.96-6055.59c0.21,0,0.43,0.02,0.66,0.03c0.05,0.27,0.11,0.54,0.16,0.81
				C-426.54-6054.86-426.85-6055.19-426.96-6055.59"/>
			<path id="Path_54" class="st6" d="M-426.14-6054.78l0.24,0.51C-425.98-6054.44-426.06-6054.61-426.14-6054.78"/>
		</g>
	</g>
	<g id="Group_152" transform="translate(29.987 89.301)">
		<g>
			<defs>
				<rect id="SVGID_00000175287429799779821460000012985748204341247156_" x="-415.81" y="-6163.23" width="82.83" height="27.04"/>
			</defs>
			<clipPath id="SVGID_00000046310713887578947030000016944340919080334011_">
				<use xlink:href="#SVGID_00000175287429799779821460000012985748204341247156_"  style="overflow:visible;"/>
			</clipPath>
			
				<g id="Group_151" transform="translate(0 0)" style="clip-path:url(#SVGID_00000046310713887578947030000016944340919080334011_);">
				<path id="Path_285" class="st3" d="M-374.51-6158.51c0.81-1.01,1.7-1.97,2.64-2.86c2.15-1.73,5-2.32,7.66-1.58
					c3.75,1,7.26,2.78,10.27,5.22c2.74,2,5.42,4.08,8.16,6.07c0.75,0.54,1.57,0.98,2.43,1.31c0.57,0.22,1.19,0.3,1.8,0.21
					c2.07-0.33,2.66-1.87,1.44-3.54c-0.4-0.42-0.69-0.93-0.87-1.48c-0.08-0.59,0.06-1.19,0.4-1.68c0.21-0.26,0.98-0.29,1.4-0.15
					c2.22,0.8,4.04,2.44,5.05,4.58c2.28,4.47,0.89,9.93-3.26,12.76c-2.47,1.82-5.4,2.92-8.46,3.16c-7.98,0.97-16.04-0.91-22.78-5.29
					c-2.48-1.52-4.46-3.75-5.68-6.39c-0.84,1.3-1.77,2.54-2.77,3.72c-3.46,3.42-7.81,5.8-12.55,6.87
					c-5.35,1.62-11.03,1.78-16.46,0.47c-4.29-0.87-7.81-3.92-9.28-8.05c-1.41-4.64,0.81-9.62,5.22-11.66
					c0.65-0.28,1.39-0.65,1.99,0.04c0.58,0.68,0.58,1.69,0,2.37c-0.3,0.46-0.66,0.88-0.96,1.33c-0.59,0.9-0.5,1.41,0.32,2.13
					c0.97,1.01,2.52,1.2,3.7,0.44c1.9-1.15,3.76-2.38,5.54-3.71c3.35-2.78,6.97-5.21,10.8-7.28c2.3-1.25,4.91-1.82,7.52-1.65
					c2.64,0.28,4.99,1.78,6.36,4.04C-374.72-6158.89-374.59-6158.65-374.51-6158.51"/>
			</g>
		</g>
	</g>
</g>
<g>
	<defs>
		<rect id="SVGID_00000048480923748645884410000001603934695077096602_" x="700.24" y="26.99" width="221.01" height="380.23"/>
	</defs>
	<clipPath id="SVGID_00000182488132726688157160000006187694402270803343_">
		<use xlink:href="#SVGID_00000048480923748645884410000001603934695077096602_"  style="overflow:visible;"/>
	</clipPath>
	
		<g id="Group_49_00000080193884830249424570000010818267019790118557_" style="clip-path:url(#SVGID_00000182488132726688157160000006187694402270803343_);">
		<path id="Path_26_00000099635230589562320600000014699733603540872843_" class="st1" d="M908.78,166.74c0,0,4.38,36.37-3.71,70.02
			c-8.09,33.65-12.64,55.39-5.06,69.04s21.23,23.76,21.23,23.76s-10.6-1.02-17.19,0l-6.59,1.02c0,0-24.21-13.45-41.33-13.03
			c-17.12,0.42-75.19,0.35-87.74,1.14c-12.55,0.79-18.6,2.96-31.15,4.56c-17.85,2.28-29.85,4.79-29.85,4.79
			c6.08-5.55,11.03-12.22,14.59-19.65c6.76-14.33-5.55-46.25-9.94-68.39c-10.13-51.16-11.36-66.88-11.36-66.88L908.78,166.74z"/>
		<path id="Path_27_00000056412898050317607160000002730842818259282104_" class="st2" d="M885.33,236.67
			c-2.3,3.14-3.86,6.72-5.97,9.98c-2.34,3.69-4.96,7.2-7.83,10.49c-8.48,9.76-18.99,17.55-30.8,22.81
			c-1.03,0.27-1.71,1.25-1.61,2.31c0.04,9.24,0.01,18.48,0.03,27.73c0,1.7-0.29,2.72,1.46,2.73c5.67,0.03,11.9,0.18,17.58,0.21
			c0.86,0,1.88-0.27,2.65,0.4c-6.56,0.01-13.4-1.09-19.96-1.13c-1.21-0.1-2.39,0.41-3.15,1.35c-3.62,4.26-7.33,8.44-11,12.66
			c-5.85,6.71-11.71,13.4-17.78,19.91c-1.47,1.58-1.57,1.6-2.97,0.02c-4.36-4.9-8.67-9.84-12.99-14.77
			c-5.02-5.73-10.06-11.44-15.04-17.21c-1.03-1.34-2.66-2.09-4.36-1.98c-5.91,0.12-12.11,1.18-18.03,1.16
			c0.79-0.61,2.73,1.6,3.6,1.59c5.11-0.03,10.66-0.74,15.76-0.76c2.1-0.01,1.39-0.84,0.96-4.6c0.01-8.27-0.03-16.53,0.04-24.8
			c0.17-1.22-0.62-2.37-1.83-2.63c-20.92-7.65-38.15-22.98-48.19-42.87c-0.44-0.86-0.99-1.67-1.48-2.5
			c-0.08-0.17-0.16-0.34-0.24-0.51l0.02,0.04c-0.06-0.27-0.11-0.54-0.16-0.81c-1.04-2.49-2.1-4.97-3.11-7.47
			c-1.76-4.71-2.94-9.62-3.5-14.62c-0.68-4.24-1.04-8.53-1.06-12.83c0.03-2.08,0.01-2.11,1.91-2.74
			c9.55-3.23,18.87-7.14,27.87-11.67c9.23-4.61,18.09-9.76,25.89-16.55c13.06-11.36,22.43-25.5,30.29-40.74
			c0.29-0.75,0.63-1.47,1.01-2.18c0.86-1.27,1.48-1.18,2.58-0.07c0.48,0.54,0.86,1.16,1.13,1.83c3.32,6.59,7.07,12.96,11.23,19.05
			c7.25,10.58,15.62,20.09,26.2,27.51c10.79,7.57,22.55,13.29,34.69,18.3c4.02,1.65,8.08,3.21,12.15,4.75
			c1.93,0.73,1.93,0.66,1.93,2.74c-0.03,7.35-1.12,14.65-3.22,21.69c-1.13,4.42-2.64,8.73-4.51,12.89c-0.4,0.2-0.56,0.68-0.36,1.08
			C885.2,236.53,885.26,236.61,885.33,236.67"/>
		<path id="Path_28_00000180364231503907243710000013308635284291844285_" class="st1" d="M885.51,235.36
			c1.87-4.16,3.38-8.47,4.51-12.89c2.1-7.04,3.19-14.34,3.22-21.69c0-2.08,0-2.01-1.93-2.74c-4.07-1.54-8.13-3.09-12.15-4.75
			c-12.14-5-23.9-10.73-34.69-18.3c-10.58-7.42-18.95-16.93-26.2-27.51c-4.16-6.09-7.91-12.46-11.23-19.05
			c-0.28-0.67-0.66-1.29-1.13-1.83c-1.1-1.11-1.72-1.19-2.58,0.07c-0.38,0.71-0.72,1.43-1.01,2.18
			c-7.86,15.24-17.24,29.38-30.29,40.74c-7.8,6.79-16.66,11.94-25.89,16.55c-9.01,4.54-18.32,8.44-27.87,11.67
			c-1.9,0.63-1.88,0.66-1.91,2.74c0.02,4.3,0.38,8.58,1.06,12.82c0.56,5,1.74,9.91,3.5,14.62c1.01,2.5,2.07,4.98,3.11,7.47
			c-0.22-0.01-0.44-0.02-0.66-0.03c-3.54-4.23-6.68-8.78-9.37-13.6c-1.11-1.93-2.16-3.89-3.26-5.82c-0.78-1.65-1.46-3.35-2.03-5.09
			c-1.8-4.39-1.18-5.89-2.41-10.5c-0.76-2.87-1.77-6.22-2.52-9.09c-0.43-1.66-2.81-14.18-3.01-15.95c-1.03-9.05-0.44-9.96,0.84-19
			c0.27-1.91,0.2-3.84,0.58-5.77c0.33-1.55,0.74-3.07,1.25-4.57c0.93-2.88,1.52-5.85,2.49-8.72c1.28-3.77,3-7.3,4.5-10.95
			c1.98-4.82,4.86-9.14,7.5-13.59c1.82-2.72,3.79-5.34,5.92-7.83c1.31-1.42,2.51-2.94,3.6-4.54c0.46-0.77,1.09-1.42,1.85-1.91
			c1.1-0.77,2.05-1.72,2.82-2.81c1.99-2.56,4.96-4.04,7.23-6.31c0.81-0.81,1.54-0.2,1.88,0.63c0.58,1.38,1.07,2.8,1.47,4.24
			c1.03,3.88,2.29,7.68,3.5,11.5c0.48,0.85,1.29,0.43,1.93,0.43c36.01,0.02,72.02,0.03,108.02,0.01c0.69,0,1.47,0.28,2.08-0.32
			c2.23-6.31,4.49-12.62,6.24-19.09c0.25-0.91,0.88-1.1,1.58-0.46c5.05,4.55,10.65,8.48,15.23,13.58
			c5.29,5.8,9.95,12.15,13.88,18.94c2.25,3.82,4.2,7.81,5.83,11.93c2.22,5.78,4.03,11.7,5.43,17.73c1.93,8.73,2.73,17.67,2.4,26.61
			c-0.3,5.61-1.03,11.19-2.18,16.68c-0.73,4.24-1.86,8.41-3.35,12.45c-2.15,5.62-4.24,11.24-7.46,16.45
			c-2.66,4.3-5.5,8.49-8.13,12.81c-0.46,0.66-0.96,1.3-1.5,1.9C885.99,235.39,885.75,235.37,885.51,235.36"/>
		<path id="Path_29_00000008110617382988136530000007712277854694259592_" class="st3" d="M868.36,313.38
			c14.81,3.17,27.58,12.46,35.18,25.56c4.79,8.12,7.41,17.35,7.61,26.78c0.1,1.45-0.43,2.87-1.46,3.9
			c-6.45,6.87-13.87,12.76-22.03,17.48c-14.97,8.86-31.18,14.3-48.27,17.25c-5.2,0.9-10.43,1.53-15.67,2.02
			c-1.41-0.13-2.83-0.03-4.21,0.3l-4.07,0.19l-13.95,0.07c-3.97-0.23-7.94-0.27-11.89-0.73c-0.87-0.32-1.81-0.41-2.73-0.27
			c-4.34-0.55-8.75-0.77-12.99-1.73c-9.47-2.13-18.9-4.48-27.92-8.21c-12.16-5.02-23.43-11.46-33.24-20.32
			c-2.17-1.96-4.18-4.07-6.16-6.22c-0.9-0.93-1.38-2.2-1.3-3.49c0.15-7.23,1.68-14.37,4.51-21.02c1.94-4.43,4.45-8.59,7.45-12.38
			c7.48-9.66,17.4-15.5,29-18.78c0.62-0.17,1.24-0.3,1.86-0.45c0.43,0.87,1.01,1.67,1.71,2.35c1.59,1.73,3.15,3.49,4.69,5.26
			c4.15,4.76,8.28,9.54,12.45,14.29c3.95,4.51,7.96,8.97,11.9,13.48c5.06,5.79,10.08,11.63,15.14,17.43
			c4.15,4.76,8.35,9.49,12.51,14.24c1,1.15,1.03,1.16,1.98,0.08c3.06-3.46,6.12-6.91,9.19-10.36c5.45-6.1,10.9-12.2,16.36-18.3
			c6.86-7.67,13.72-15.34,20.58-23.01C859.17,323.64,863.76,318.51,868.36,313.38"/>
		<path id="Path_30_00000156555811925032834130000016741416207094595725_" class="st4" d="M868.36,313.38
			c-4.59,5.13-9.19,10.26-13.78,15.39c-6.86,7.67-13.72,15.34-20.58,23.01c-5.45,6.1-10.91,12.2-16.36,18.3
			c-3.08,3.44-6.14,6.9-9.19,10.36c-0.96,1.08-0.98,1.07-1.98-0.08c-4.17-4.75-8.36-9.48-12.51-14.24
			c-5.06-5.8-10.07-11.64-15.14-17.43c-3.95-4.51-7.95-8.98-11.9-13.48c-4.16-4.75-8.29-9.53-12.45-14.29
			c-1.55-1.77-3.11-3.52-4.69-5.26c-0.7-0.68-1.28-1.47-1.71-2.35c1.13-0.22,2.27-0.45,3.4-0.67c0.83,0.16,1.7,0.02,2.45-0.38
			l1.92-0.11c5.91,0.02,11.83,0.12,17.74,0.01c1.69-0.11,3.32,0.64,4.36,1.98c4.97,5.77,10.01,11.48,15.04,17.21
			c4.32,4.93,8.64,9.87,12.99,14.77c1.4,1.58,1.5,1.57,2.98-0.02c6.07-6.51,11.93-13.2,17.78-19.91c3.67-4.21,7.38-8.4,11-12.66
			c0.76-0.94,1.94-1.45,3.15-1.35c6.56,0.04,13.13,0.01,19.69,0l1.95,0.08c0.75,0.41,1.61,0.54,2.45,0.38L868.36,313.38"/>
		<path id="Path_31_00000119101182576079307890000014018870082486915989_" class="st4" d="M743.83,106.3
			c0,0-11.14-42.53-11.14-45.71s0.83-4.43,4.02-6.1c3.19-1.66,54.72-25.21,60.54-26.6s8.03-1.25,14.27,0.83
			c6.23,2.08,53.33,23.83,57.49,25.63c4.16,1.8,5.82,3.32,4.02,9s-14.27,42.94-14.27,42.94L743.83,106.3z"/>
		<path id="Path_32_00000139979133819260952050000000210623102231692717_" class="st11" d="M802.84,95.37
			c-2.03,0-4.06-0.05-6.08,0.02c-1.17,0.04-1.58-0.39-1.56-1.54c0.05-2.92,0.02-5.84,0.01-8.76c-0.01-3.02,0.22-2.67-2.8-2.68
			c-2.68-0.01-5.35,0.01-8.03-0.01c-2.16-0.01-2.17-0.02-2.18-2.07c-0.02-3.65-0.02-7.3,0-10.95c0.01-2.17,0.02-2.18,2.32-2.19
			c2.84-0.01,5.68,0.01,8.52-0.01c2.15-0.01,2.17-0.02,2.18-2.09c0.02-3.08,0.04-6.16-0.01-9.25c-0.02-1.21,0.29-1.74,1.63-1.71
			c3.97,0.08,7.95,0.01,11.92,0.03c1.66,0.01,1.69,0.05,1.71,1.81c0.03,2.76,0,5.51,0.01,8.27c0.02,3.33-0.33,2.9,3.05,2.92
			c2.76,0.02,5.51,0.05,8.27-0.02c1.26-0.03,1.7,0.39,1.67,1.67c-0.07,3.97-0.07,7.95,0,11.92c0.02,1.29-0.44,1.69-1.68,1.66
			c-2.92-0.07-5.84-0.03-8.76-0.02c-2.66,0-2.55-0.25-2.55,2.44c0,2.92,0.02,5.84-0.01,8.76c-0.02,1.71-0.05,1.73-1.78,1.76
			C806.74,95.39,804.79,95.37,802.84,95.37"/>
		<path id="Path_33_00000115493299511736063040000000159186609862331316_" class="st5" d="M801.48,406.93l13.95-0.07
			c-1.65,0.55-3.36,0.28-5.03,0.28C807.43,407.13,804.45,407.41,801.48,406.93"/>
		<path id="Path_34_00000165217214557831133070000010816552966026415766_" class="st5" d="M819.51,406.67
			c1.38-0.33,2.8-0.43,4.21-0.3C822.35,406.73,820.92,406.83,819.51,406.67"/>
		<path id="Path_35_00000162319673569071041730000010936022241663725490_" class="st5" d="M786.86,405.92
			c0.92-0.14,1.86-0.04,2.73,0.27C788.68,406.34,787.73,406.25,786.86,405.92"/>
		<path id="Path_36_00000075847261780163868310000007131071910374993543_" class="st6" d="M885.51,235.36
			c0.23,0.02,0.47,0.04,0.7,0.06l-0.89,1.26c-0.33-0.3-0.35-0.81-0.04-1.14C885.34,235.46,885.42,235.4,885.51,235.36"/>
		<path id="Path_37_00000026163885166559510740000013686505806724453552_" class="st5" d="M753.92,312.27
			c-0.75,0.41-1.61,0.54-2.45,0.38C752.19,312.18,753.08,312.04,753.92,312.27"/>
		<path id="Path_38_00000075884455224986370800000016432351559582598315_" class="st5" d="M864.95,312.65
			c-0.84,0.16-1.7,0.03-2.45-0.38C863.33,312.04,864.22,312.18,864.95,312.65"/>
		<path id="Path_39_00000060752906140527278530000005819194718968970417_" class="st6" d="M723.36,235.44
			c0.22,0.01,0.44,0.02,0.66,0.03c0.05,0.27,0.11,0.54,0.16,0.81C723.78,236.17,723.47,235.85,723.36,235.44"/>
		<path id="Path_40_00000105395970728534428430000017793909746013720245_" class="st6" d="M724.17,236.25l0.24,0.51
			C724.33,236.59,724.25,236.42,724.17,236.25"/>
	</g>
</g>
<g id="Group_177_00000065752895558556026620000013761706556586788788_" transform="translate(734.561 6291.029)">
	<g>
		<defs>
			<rect id="SVGID_00000005247695048818980380000001233473500710053290_" x="223" y="-6264.04" width="210.51" height="380.23"/>
		</defs>
		<clipPath id="SVGID_00000179630147657365105330000014640171242168983979_">
			<use xlink:href="#SVGID_00000005247695048818980380000001233473500710053290_"  style="overflow:visible;"/>
		</clipPath>
		
			<g id="Group_51_00000164471993616147340580000010205926987316715426_" style="clip-path:url(#SVGID_00000179630147657365105330000014640171242168983979_);">
			<path id="Path_41_00000142871983020525767120000007173368654704910014_" class="st13" d="M407.68-6054.35
				c-2.29,3.14-3.86,6.72-5.96,9.98c-2.34,3.69-4.96,7.2-7.83,10.49c-8.48,9.76-18.99,17.55-30.8,22.81
				c-1.03,0.27-1.71,1.24-1.62,2.3c0.04,9.24,0,18.48,0.03,27.73c0,1.7,0.06,1.75,1.82,1.75c5.68,0.03,11.35,0,17.03,0.03
				c0.86,0,1.8-0.25,2.57,0.43c-6.56,0-13.13,0.05-19.69,0c-1.21-0.09-2.38,0.41-3.15,1.35c-3.62,4.26-7.33,8.44-11,12.66
				c-5.85,6.71-11.71,13.4-17.78,19.91c-1.48,1.59-1.57,1.6-2.98,0.02c-4.36-4.9-8.67-9.84-12.99-14.77
				c-5.02-5.73-10.06-11.44-15.03-17.21c-1.03-1.34-2.67-2.09-4.36-1.98c-5.91,0.12-11.83,0.01-17.74,0
				c0.79-0.43,1.7-0.57,2.58-0.39c5.11-0.03,10.22,0,15.32-0.02c2.11,0,2.13-0.03,2.13-2.18c0.01-8.27-0.03-16.53,0.04-24.8
				c0.17-1.22-0.62-2.37-1.82-2.63c-20.92-7.65-38.15-22.98-48.19-42.87c-0.44-0.85-0.99-1.67-1.49-2.5
				c-0.08-0.17-0.16-0.34-0.24-0.51l0.01,0.04c-0.05-0.27-0.11-0.54-0.16-0.81c-1.04-2.49-2.1-4.97-3.11-7.47
				c-1.76-4.71-2.94-9.62-3.5-14.62c-0.68-4.24-1.04-8.53-1.06-12.82c0.03-2.08,0.01-2.11,1.92-2.74
				c9.55-3.23,18.87-7.14,27.87-11.67c9.3-4.39,18-9.95,25.89-16.55c13.05-11.37,22.43-25.52,30.29-40.75
				c0.29-0.75,0.63-1.47,1.01-2.18c0.85-1.27,1.49-1.18,2.58-0.07c0.48,0.54,0.86,1.16,1.13,1.83c3.32,6.6,7.07,12.96,11.23,19.06
				c7,10.67,15.88,19.99,26.2,27.5c10.85,7.37,22.48,13.51,34.69,18.31c4.02,1.65,8.09,3.21,12.15,4.75
				c1.93,0.73,1.94,0.66,1.94,2.74c-0.04,7.35-1.12,14.65-3.22,21.69c-1.13,4.42-2.64,8.73-4.51,12.89c-0.4,0.2-0.56,0.68-0.36,1.08
				C407.55-6054.49,407.61-6054.41,407.68-6054.35"/>
			<path id="Path_42_00000174575624093404766370000017915379253225392283_" class="st1" d="M407.87-6055.67
				c1.87-4.16,3.38-8.47,4.5-12.89c2.1-7.04,3.18-14.34,3.22-21.69c0-2.08,0-2.01-1.93-2.74c-4.07-1.53-8.13-3.09-12.15-4.75
				c-12.2-4.8-23.84-10.94-34.69-18.3c-10.32-7.51-19.2-16.83-26.2-27.51c-4.16-6.09-7.91-12.46-11.23-19.05
				c-0.28-0.67-0.66-1.29-1.13-1.83c-1.1-1.11-1.72-1.19-2.58,0.07c-0.38,0.71-0.72,1.43-1.01,2.18
				c-7.86,15.24-17.24,29.38-30.29,40.74c-7.89,6.59-16.59,12.15-25.89,16.55c-9.01,4.54-18.32,8.44-27.87,11.67
				c-1.9,0.64-1.88,0.66-1.92,2.74c0.02,4.3,0.38,8.58,1.06,12.82c0.56,5,1.74,9.91,3.5,14.62c1.01,2.5,2.07,4.98,3.11,7.47
				c-0.21-0.01-0.44-0.02-0.66-0.03c-3.54-4.23-6.68-8.78-9.37-13.6c-1.11-1.93-2.16-3.89-3.26-5.82c-0.78-1.65-1.46-3.35-2.04-5.09
				c-1.83-4.38-3.38-8.88-4.63-13.46c-0.76-2.87-1.4-5.77-2.15-8.64c-0.28-1.75-0.45-3.52-0.49-5.29
				c-1.1-9.02-1.03-18.15,0.19-27.16c0.27-1.92,0.2-3.83,0.58-5.77c0.33-1.54,0.74-3.07,1.25-4.56c0.93-2.88,1.52-5.85,2.49-8.73
				c1.28-3.77,3-7.3,4.5-10.95c2.17-4.71,4.67-9.25,7.5-13.59c1.82-2.72,3.79-5.33,5.92-7.82c1.31-1.43,2.51-2.94,3.6-4.54
				c0.46-0.78,1.09-1.43,1.85-1.92c1.1-0.77,2.05-1.72,2.82-2.81c1.98-2.55,4.96-4.04,7.24-6.31c0.81-0.81,1.54-0.2,1.88,0.64
				c0.58,1.38,1.07,2.8,1.46,4.24c1.03,3.88,2.29,7.68,3.5,11.5c0.48,0.85,1.29,0.43,1.93,0.43c36.01,0.03,72.02,0.03,108.03,0
				c0.69,0,1.46,0.28,2.08-0.32c2.23-6.31,4.49-12.62,6.24-19.09c0.24-0.91,0.88-1.1,1.58-0.46c5.05,4.55,10.64,8.48,15.23,13.58
				c5.3,5.79,9.95,12.14,13.88,18.93c2.25,3.82,4.2,7.8,5.83,11.92c2.21,5.78,4.03,11.7,5.43,17.73c1.93,8.73,2.73,17.68,2.4,26.61
				c-0.3,5.61-1.03,11.19-2.18,16.68c-0.73,4.24-1.86,8.41-3.35,12.45c-1.96,5.71-4.46,11.21-7.45,16.45
				c-2.65,4.3-5.51,8.49-8.13,12.81c-0.46,0.67-0.96,1.3-1.5,1.9l-0.7-0.06"/>
			<path id="Path_43_00000029024712441664809360000006402395807151884217_" class="st3" d="M390.72-5977.65
				c14.81,3.17,27.58,12.45,35.18,25.55c4.79,8.12,7.41,17.35,7.61,26.78c0.1,1.45-0.43,2.88-1.46,3.9
				c-6.45,6.87-13.87,12.76-22.03,17.48c-14.9,8.65-31.26,14.5-48.27,17.24c-5.2,0.9-10.43,1.53-15.67,2.01
				c-1.41-0.13-2.83-0.03-4.21,0.3l-4.08,0.21l-13.95,0.07c-3.97-0.23-7.94-0.27-11.89-0.73c-0.87-0.32-1.81-0.41-2.73-0.27
				c-4.34-0.55-8.75-0.77-12.99-1.73c-9.52-1.94-18.87-4.68-27.92-8.21c-12.17-4.8-23.41-11.68-33.24-20.32
				c-2.17-1.96-4.18-4.07-6.16-6.22c-0.9-0.93-1.38-2.2-1.3-3.49c0.15-7.23,1.68-14.37,4.51-21.02c1.94-4.43,4.45-8.59,7.45-12.38
				c7.34-9.28,17.53-15.88,29-18.78c0.62-0.17,1.24-0.3,1.86-0.45c0.43,0.87,1.01,1.66,1.7,2.34c1.59,1.73,3.15,3.49,4.68,5.26
				c4.15,4.76,8.28,9.54,12.45,14.29c3.95,4.51,7.96,8.97,11.9,13.48c5.06,5.79,10.08,11.63,15.13,17.43
				c4.15,4.76,8.35,9.49,12.51,14.24c1,1.15,1.03,1.16,1.98,0.08c3.06-3.46,6.12-6.91,9.19-10.36c5.45-6.1,10.9-12.21,16.36-18.31
				c6.86-7.66,13.72-15.33,20.58-23.01C381.52-5967.4,386.11-5972.53,390.72-5977.65"/>
			<path id="Path_44_00000064345253970123155250000015095643839921374380_" class="st4" d="M390.71-5977.64
				c-4.59,5.13-9.19,10.26-13.78,15.39c-6.86,7.66-13.72,15.33-20.58,23.01c-5.45,6.1-10.91,12.21-16.36,18.31
				c-3.07,3.45-6.14,6.9-9.19,10.36c-0.96,1.08-0.98,1.06-1.98-0.08c-4.17-4.75-8.36-9.48-12.51-14.24
				c-5.06-5.8-10.07-11.63-15.13-17.43c-3.94-4.52-7.95-8.98-11.9-13.48c-4.16-4.75-8.29-9.53-12.45-14.29
				c-1.55-1.77-3.11-3.52-4.68-5.26c-0.7-0.68-1.27-1.47-1.7-2.34l3.41-0.67c0.83,0.16,1.7,0.02,2.45-0.38l1.92-0.11
				c5.91,0.02,11.83,0.12,17.74,0c1.69-0.1,3.32,0.64,4.36,1.98c4.97,5.77,10.01,11.48,15.04,17.21c4.32,4.93,8.64,9.87,12.99,14.77
				c1.4,1.58,1.49,1.57,2.98-0.02c6.07-6.51,11.93-13.2,17.78-19.91c3.67-4.21,7.38-8.4,11-12.66c0.76-0.94,1.94-1.45,3.15-1.35
				c6.56,0.04,13.13,0,19.69,0l1.94,0.08c0.75,0.41,1.61,0.54,2.45,0.38l3.41,0.73"/>
			<path id="Path_45_00000088837487626484222820000001346360984435084726_" class="st4" d="M266.19-6184.73
				c0,0-11.13-42.53-11.13-45.71s0.83-4.43,4.02-6.09c3.19-1.66,54.71-25.21,60.53-26.6c5.82-1.39,8.03-1.25,14.26,0.83
				s53.33,23.83,57.48,25.63s5.82,3.33,4.02,9c-1.8,5.68-14.26,42.94-14.26,42.94H266.19z"/>
			<path id="Path_46_00000050643172451868380580000018185039451379513788_" class="st11" d="M325.2-6195.66
				c-2.03,0-4.06-0.05-6.08,0.02c-1.17,0.04-1.58-0.39-1.56-1.54c0.05-2.92,0.02-5.84,0.01-8.76c0-3.02,0.21-2.67-2.8-2.68
				c-2.68-0.01-5.35,0-8.03,0c-2.16,0-2.17-0.02-2.18-2.07c-0.02-3.65-0.02-7.3,0-10.95c0-2.17,0.02-2.18,2.31-2.19
				c2.84,0,5.68,0,8.52,0c2.15,0,2.17-0.02,2.18-2.09c0.01-3.08,0.04-6.17-0.01-9.25c-0.02-1.21,0.29-1.73,1.63-1.7
				c3.97,0.08,7.95,0.01,11.92,0.03c1.66,0.01,1.69,0.05,1.7,1.82c0.03,2.76,0,5.51,0,8.27c0.02,3.33-0.33,2.9,3.05,2.92
				c2.76,0.02,5.51,0.05,8.27-0.02c1.26-0.03,1.7,0.39,1.67,1.67c-0.07,3.97-0.07,7.95,0,11.92c0.02,1.29-0.44,1.68-1.68,1.66
				c-2.92-0.07-5.84-0.03-8.76-0.02c-2.66,0-2.55-0.25-2.55,2.44c0,2.92,0.02,5.84,0,8.76c-0.01,1.7-0.05,1.73-1.78,1.76
				c-1.95,0.03-3.89,0-5.84,0"/>
			<path id="Path_47_00000079456938874596338500000008517403329915217597_" class="st5" d="M323.84-5884.1l13.95-0.07
				c-1.65,0.37-3.35,0.46-5.03,0.28C329.79-5883.73,326.81-5883.8,323.84-5884.1"/>
			<path id="Path_48_00000147906977270398867450000002646365237064998035_" class="st5" d="M341.87-5884.36
				c1.38-0.33,2.8-0.43,4.21-0.3C344.7-5884.3,343.28-5884.2,341.87-5884.36"/>
			<path id="Path_49_00000167370223671802963140000008565267520778924695_" class="st5" d="M309.22-5885.11
				c0.92-0.14,1.86-0.04,2.73,0.27C311.03-5884.68,310.09-5884.78,309.22-5885.11"/>
			<path id="Path_50_00000085936189267510904710000017156406750643448252_" class="st6" d="M407.87-6055.67l0.7,0.06
				c-0.3,0.43-0.59,0.84-0.89,1.26c-0.33-0.3-0.35-0.81-0.05-1.14C407.7-6055.57,407.78-6055.63,407.87-6055.67"/>
			<path id="Path_51_00000109742646798058614440000003366838133461151905_" class="st5" d="M276.27-5978.76
				c-0.75,0.41-1.61,0.54-2.45,0.38C274.55-5978.85,275.44-5978.99,276.27-5978.76"/>
			<path id="Path_52_00000141442109793400217840000002274298992335286455_" class="st5" d="M387.3-5978.38
				c-0.84,0.16-1.7,0.03-2.45-0.38C385.69-5978.99,386.58-5978.85,387.3-5978.38"/>
			<path id="Path_53_00000163067582249031131400000011482019376711732360_" class="st6" d="M245.71-6055.59
				c0.21,0,0.43,0.02,0.66,0.03c0.05,0.27,0.11,0.54,0.16,0.81C246.13-6054.86,245.82-6055.19,245.71-6055.59"/>
			<path id="Path_54_00000114062688069495622060000014842474861077730715_" class="st6" d="M246.53-6054.78l0.24,0.51
				C246.69-6054.44,246.61-6054.61,246.53-6054.78"/>
		</g>
	</g>
	<g id="Group_152_00000106850245475110453230000014684273051977954726_" transform="translate(29.987 89.301)">
		<g>
			<defs>
				<rect id="SVGID_00000176741971054987564440000009306368567176148392_" x="256.86" y="-6163.23" width="82.83" height="27.04"/>
			</defs>
			<clipPath id="SVGID_00000155845971740528581800000010955447228478592398_">
				<use xlink:href="#SVGID_00000176741971054987564440000009306368567176148392_"  style="overflow:visible;"/>
			</clipPath>
			
				<g id="Group_151_00000094586859252626614070000017776409651698190514_" transform="translate(0 0)" style="clip-path:url(#SVGID_00000155845971740528581800000010955447228478592398_);">
				<path id="Path_285_00000078042679311000383990000012476351286776804509_" class="st3" d="M298.16-6158.51
					c0.81-1.01,1.7-1.97,2.64-2.86c2.15-1.73,5-2.32,7.66-1.58c3.75,1,7.26,2.78,10.27,5.22c2.74,2,5.42,4.08,8.16,6.07
					c0.75,0.54,1.57,0.98,2.43,1.31c0.57,0.22,1.19,0.3,1.8,0.21c2.07-0.33,2.66-1.87,1.44-3.54c-0.4-0.42-0.69-0.93-0.87-1.48
					c-0.08-0.59,0.06-1.19,0.4-1.68c0.21-0.26,0.98-0.29,1.4-0.15c2.22,0.8,4.04,2.44,5.05,4.58c2.28,4.47,0.89,9.93-3.26,12.76
					c-2.47,1.82-5.4,2.92-8.46,3.16c-7.98,0.97-16.04-0.91-22.78-5.29c-2.48-1.52-4.46-3.75-5.68-6.39
					c-0.84,1.3-1.77,2.54-2.77,3.72c-3.46,3.42-7.81,5.8-12.55,6.87c-5.35,1.62-11.03,1.78-16.46,0.47
					c-4.29-0.87-7.81-3.92-9.28-8.05c-1.41-4.64,0.81-9.62,5.22-11.66c0.65-0.28,1.39-0.65,1.99,0.04c0.58,0.68,0.58,1.69,0,2.37
					c-0.3,0.46-0.66,0.88-0.96,1.33c-0.59,0.9-0.5,1.41,0.32,2.13c0.97,1.01,2.52,1.2,3.7,0.44c1.9-1.15,3.76-2.38,5.54-3.71
					c3.35-2.78,6.97-5.21,10.8-7.28c2.3-1.25,4.91-1.82,7.52-1.65c2.64,0.28,4.99,1.78,6.36,4.04
					C297.95-6158.89,298.08-6158.65,298.16-6158.51"/>
			</g>
		</g>
	</g>
</g>
</svg>
