<?xml version="1.0" encoding="utf-8"?>
<!-- Generator: Adobe Illustrator 27.2.0, SVG Export Plug-In . SVG Version: 6.00 Build 0)  -->
<svg version="1.1" id="Lager_1" xmlns="http://www.w3.org/2000/svg" xmlns:xlink="http://www.w3.org/1999/xlink" x="0px" y="0px"
	 viewBox="0 0 1195.7 430.1" style="enable-background:new 0 0 1195.7 430.1;" xml:space="preserve">
<style type="text/css">
	.st0{clip-path:url(#SVGID_00000162312412431226625790000013521346598636417159_);}
	.st1{fill:#262626;}
	.st2{fill:#FFFFFF;}
	.st3{fill:#0099CE;}
	.st4{fill:#67C2DB;}
	.st5{fill:#595959;}
	.st6{fill:#F4F4F4;}
	.st7{fill:#DFBF91;}
	.st8{fill:#206B42;}
	.st9{clip-path:url(#SVGID_00000070830147070506722830000009264049383046986924_);}
	.st10{fill:#FFFFFF;stroke:#DADADA;stroke-width:2;stroke-miterlimit:10;}
	.st11{clip-path:url(#SVGID_00000085208667006032654520000001296222980680988077_);}
	.st12{fill:#161615;}
	.st13{clip-path:url(#SVGID_00000117668729717374610060000001983962797185157547_);}
	.st14{clip-path:url(#SVGID_00000129919263687441130840000013700915530809375401_);}
	.st15{clip-path:url(#SVGID_00000127764231126467387890000012281781030902741423_);}
</style>
<g>
	<g>
		<g>
			<g>
				<defs>
					<rect id="SVGID_1_" x="27.6" y="27" width="221" height="380.2"/>
				</defs>
				<clipPath id="SVGID_00000021085797607789417490000011091164603414305419_">
					<use xlink:href="#SVGID_1_"  style="overflow:visible;"/>
				</clipPath>
				<g id="Group_49" style="clip-path:url(#SVGID_00000021085797607789417490000011091164603414305419_);">
					<path id="Path_26" class="st1" d="M236.1,166.7c0,0,4.4,36.4-3.7,70s-12.6,55.4-5.1,69s21.2,23.8,21.2,23.8s-10.6-1-17.2,0
						l-6.6,1c0,0-24.2-13.5-41.3-13s-75.2,0.4-87.7,1.1s-18.6,3-31.2,4.6c-17.8,2.3-29.8,4.8-29.8,4.8c6.1-5.5,11-12.2,14.6-19.6
						c6.8-14.3-5.5-46.2-9.9-68.4C29.2,188.8,28,173.1,28,173.1L236.1,166.7z"/>
					<path id="Path_27" class="st2" d="M212.7,236.7c-2.3,3.1-3.9,6.7-6,10c-2.3,3.7-5,7.2-7.8,10.5c-8.5,9.8-19,17.5-30.8,22.8
						c-1,0.3-1.7,1.2-1.6,2.3c0,9.2,0,18.5,0,27.7c0,1.7-0.3,2.7,1.5,2.7c5.7,0,11.9,0.2,17.6,0.2c0.9,0,1.9-0.3,2.6,0.4
						c-6.6,0-13.4-1.1-20-1.1c-1.2-0.1-2.4,0.4-3.1,1.4c-3.6,4.3-7.3,8.4-11,12.7c-5.9,6.7-11.7,13.4-17.8,19.9
						c-1.5,1.6-1.6,1.6-3,0c-4.4-4.9-8.7-9.8-13-14.8c-5-5.7-10.1-11.4-15-17.2c-1-1.3-2.7-2.1-4.4-2c-5.9,0.1-12.1,1.2-18,1.2
						c0.8-0.6,2.7,1.6,3.6,1.6c5.1,0,10.7-0.7,15.8-0.8c2.1,0,1.4-0.8,1-4.6c0-8.3,0-16.5,0-24.8c0.2-1.2-0.6-2.4-1.8-2.6
						c-20.9-7.6-38.2-23-48.2-42.9c-0.4-0.9-1-1.7-1.5-2.5c-0.1-0.2-0.2-0.3-0.2-0.5l0,0c-0.1-0.3-0.1-0.5-0.2-0.8
						c-1-2.5-2.1-5-3.1-7.5c-1.8-4.7-2.9-9.6-3.5-14.6c-0.7-4.2-1-8.5-1.1-12.8c0-2.1,0-2.1,1.9-2.7c9.5-3.2,18.9-7.1,27.9-11.7
						c9.2-4.6,18.1-9.8,25.9-16.6c13.1-11.4,22.4-25.5,30.3-40.7c0.3-0.8,0.6-1.5,1-2.2c0.9-1.3,1.5-1.2,2.6-0.1
						c0.5,0.5,0.9,1.2,1.1,1.8c3.3,6.6,7.1,13,11.2,19.1c7.2,10.6,15.6,20.1,26.2,27.5c10.8,7.6,22.6,13.3,34.7,18.3
						c4,1.6,8.1,3.2,12.1,4.8c1.9,0.7,1.9,0.7,1.9,2.7c0,7.4-1.1,14.6-3.2,21.7c-1.1,4.4-2.6,8.7-4.5,12.9c-0.4,0.2-0.6,0.7-0.4,1.1
						C212.5,236.5,212.6,236.6,212.7,236.7"/>
					<path id="Path_28" class="st1" d="M212.8,235.4c1.9-4.2,3.4-8.5,4.5-12.9c2.1-7,3.2-14.3,3.2-21.7c0-2.1,0-2-1.9-2.7
						c-4.1-1.5-8.1-3.1-12.1-4.8c-12.1-5-23.9-10.7-34.7-18.3c-10.6-7.4-18.9-16.9-26.2-27.5c-4.2-6.1-7.9-12.5-11.2-19.1
						c-0.3-0.7-0.7-1.3-1.1-1.8c-1.1-1.1-1.7-1.2-2.6,0.1c-0.4,0.7-0.7,1.4-1,2.2c-7.9,15.2-17.2,29.4-30.3,40.7
						c-7.8,6.8-16.7,11.9-25.9,16.6c-9,4.5-18.3,8.4-27.9,11.7c-1.9,0.6-1.9,0.7-1.9,2.7c0,4.3,0.4,8.6,1.1,12.8
						c0.6,5,1.7,9.9,3.5,14.6c1,2.5,2.1,5,3.1,7.5c-0.2,0-0.4,0-0.7,0c-3.5-4.2-6.7-8.8-9.4-13.6c-1.1-1.9-2.2-3.9-3.3-5.8
						c-0.8-1.6-1.5-3.4-2-5.1c-1.8-4.4-1.2-5.9-2.4-10.5c-0.8-2.9-1.8-6.2-2.5-9.1c-0.4-1.7-2.8-14.2-3-15.9c-1-9.1-0.4-10,0.8-19
						c0.3-1.9,0.2-3.8,0.6-5.8c0.3-1.6,0.7-3.1,1.2-4.6c0.9-2.9,1.5-5.9,2.5-8.7c1.3-3.8,3-7.3,4.5-10.9c2-4.8,4.9-9.1,7.5-13.6
						c1.8-2.7,3.8-5.3,5.9-7.8c1.3-1.4,2.5-2.9,3.6-4.5c0.5-0.8,1.1-1.4,1.8-1.9c1.1-0.8,2-1.7,2.8-2.8c2-2.6,5-4,7.2-6.3
						c0.8-0.8,1.5-0.2,1.9,0.6c0.6,1.4,1.1,2.8,1.5,4.2c1,3.9,2.3,7.7,3.5,11.5c0.5,0.8,1.3,0.4,1.9,0.4c36,0,72,0,108,0
						c0.7,0,1.5,0.3,2.1-0.3c2.2-6.3,4.5-12.6,6.2-19.1c0.2-0.9,0.9-1.1,1.6-0.5c5.1,4.6,10.6,8.5,15.2,13.6
						c5.3,5.8,9.9,12.2,13.9,18.9c2.2,3.8,4.2,7.8,5.8,11.9c2.2,5.8,4,11.7,5.4,17.7c1.9,8.7,2.7,17.7,2.4,26.6
						c-0.3,5.6-1,11.2-2.2,16.7c-0.7,4.2-1.9,8.4-3.4,12.4c-2.1,5.6-4.2,11.2-7.5,16.4c-2.6,4.3-5.5,8.5-8.1,12.8
						c-0.5,0.7-1,1.3-1.5,1.9C213.3,235.4,213.1,235.4,212.8,235.4"/>
					<path id="Path_29" class="st3" d="M195.7,313.4c14.8,3.2,27.6,12.5,35.2,25.6c4.8,8.1,7.4,17.4,7.6,26.8
						c0.1,1.5-0.4,2.9-1.5,3.9c-6.4,6.9-13.9,12.8-22,17.5c-15,8.9-31.2,14.3-48.3,17.2c-5.2,0.9-10.4,1.5-15.7,2
						c-1.4-0.1-2.8,0-4.2,0.3l-4.1,0.2l-13.9,0.1c-4-0.2-7.9-0.3-11.9-0.7c-0.9-0.3-1.8-0.4-2.7-0.3c-4.3-0.5-8.8-0.8-13-1.7
						c-9.5-2.1-18.9-4.5-27.9-8.2c-12.2-5-23.4-11.5-33.2-20.3c-2.2-2-4.2-4.1-6.2-6.2c-0.9-0.9-1.4-2.2-1.3-3.5
						c0.2-7.2,1.7-14.4,4.5-21c1.9-4.4,4.5-8.6,7.5-12.4c7.5-9.7,17.4-15.5,29-18.8c0.6-0.2,1.2-0.3,1.9-0.5c0.4,0.9,1,1.7,1.7,2.4
						c1.6,1.7,3.2,3.5,4.7,5.3c4.2,4.8,8.3,9.5,12.4,14.3c3.9,4.5,8,9,11.9,13.5c5.1,5.8,10.1,11.6,15.1,17.4
						c4.2,4.8,8.3,9.5,12.5,14.2c1,1.1,1,1.2,2,0.1c3.1-3.5,6.1-6.9,9.2-10.4c5.4-6.1,10.9-12.2,16.4-18.3
						c6.9-7.7,13.7-15.3,20.6-23C186.5,323.6,191.1,318.5,195.7,313.4"/>
					<path id="Path_30" class="st4" d="M195.7,313.4c-4.6,5.1-9.2,10.3-13.8,15.4c-6.9,7.7-13.7,15.3-20.6,23
						c-5.4,6.1-10.9,12.2-16.4,18.3c-3.1,3.4-6.1,6.9-9.2,10.4c-1,1.1-1,1.1-2-0.1c-4.2-4.8-8.4-9.5-12.5-14.2
						c-5.1-5.8-10.1-11.6-15.1-17.4c-3.9-4.5-7.9-9-11.9-13.5c-4.2-4.8-8.3-9.5-12.4-14.3c-1.6-1.8-3.1-3.5-4.7-5.3
						c-0.7-0.7-1.3-1.5-1.7-2.4c1.1-0.2,2.3-0.5,3.4-0.7c0.8,0.2,1.7,0,2.4-0.4l1.9-0.1c5.9,0,11.8,0.1,17.7,0
						c1.7-0.1,3.3,0.6,4.4,2c5,5.8,10,11.5,15,17.2c4.3,4.9,8.6,9.9,13,14.8c1.4,1.6,1.5,1.6,3,0c6.1-6.5,11.9-13.2,17.8-19.9
						c3.7-4.2,7.4-8.4,11-12.7c0.8-0.9,1.9-1.5,3.1-1.4c6.6,0,13.1,0,19.7,0l1.9,0.1c0.8,0.4,1.6,0.5,2.4,0.4L195.7,313.4"/>
					<path id="Path_31" class="st5" d="M71.2,106.3c0,0-11.1-42.5-11.1-45.7s0.8-4.4,4-6.1c3.2-1.7,54.7-25.2,60.5-26.6
						c5.8-1.4,8-1.2,14.3,0.8c6.2,2.1,53.3,23.8,57.5,25.6s5.8,3.3,4,9s-14.3,42.9-14.3,42.9L71.2,106.3z"/>
					<path id="Path_32" class="st6" d="M130.2,95.4c-2,0-4.1-0.1-6.1,0c-1.2,0-1.6-0.4-1.6-1.5c0.1-2.9,0-5.8,0-8.8
						c0-3,0.2-2.7-2.8-2.7c-2.7,0-5.3,0-8,0c-2.2,0-2.2,0-2.2-2.1c0-3.7,0-7.3,0-10.9c0-2.2,0-2.2,2.3-2.2c2.8,0,5.7,0,8.5,0
						c2.2,0,2.2,0,2.2-2.1c0-3.1,0-6.2,0-9.2c0-1.2,0.3-1.7,1.6-1.7c4,0.1,8,0,11.9,0c1.7,0,1.7,0,1.7,1.8c0,2.8,0,5.5,0,8.3
						c0,3.3-0.3,2.9,3.1,2.9c2.8,0,5.5,0.1,8.3,0c1.3,0,1.7,0.4,1.7,1.7c-0.1,4-0.1,7.9,0,11.9c0,1.3-0.4,1.7-1.7,1.7
						c-2.9-0.1-5.8,0-8.8,0c-2.7,0-2.6-0.2-2.6,2.4c0,2.9,0,5.8,0,8.8c0,1.7-0.1,1.7-1.8,1.8C134.1,95.4,132.1,95.4,130.2,95.4"/>
					<path id="Path_33" class="st7" d="M128.8,406.9l13.9-0.1c-1.6,0.5-3.4,0.3-5,0.3C134.8,407.1,131.8,407.4,128.8,406.9"/>
					<path id="Path_34" class="st7" d="M146.8,406.7c1.4-0.3,2.8-0.4,4.2-0.3C149.7,406.7,148.2,406.8,146.8,406.7"/>
					<path id="Path_35" class="st7" d="M114.2,405.9c0.9-0.1,1.9,0,2.7,0.3C116,406.3,115.1,406.2,114.2,405.9"/>
					<path id="Path_36" class="st8" d="M212.8,235.4c0.2,0,0.5,0,0.7,0.1l-0.9,1.3c-0.3-0.3-0.4-0.8,0-1.1
						C212.7,235.5,212.8,235.4,212.8,235.4"/>
					<path id="Path_37" class="st7" d="M81.2,312.3c-0.8,0.4-1.6,0.5-2.4,0.4C79.5,312.2,80.4,312,81.2,312.3"/>
					<path id="Path_38" class="st7" d="M192.3,312.6c-0.8,0.2-1.7,0-2.4-0.4C190.7,312,191.6,312.2,192.3,312.6"/>
					<path id="Path_39" class="st8" d="M50.7,235.4c0.2,0,0.4,0,0.7,0c0,0.3,0.1,0.5,0.2,0.8C51.1,236.2,50.8,235.9,50.7,235.4"/>
					<path id="Path_40" class="st8" d="M51.5,236.2l0.2,0.5C51.7,236.6,51.6,236.4,51.5,236.2"/>
				</g>
			</g>
		</g>
	</g>
</g>
<g id="Group_177" transform="translate(734.561 6291.029)">
	<g>
		<g>
			<g>
				<g>
					<defs>
						<rect id="SVGID_00000056407036087273094920000017104010910379046800_" x="-449.7" y="-6264" width="210.5" height="380.2"/>
					</defs>
					<clipPath id="SVGID_00000151543028205727587720000002302962215955250072_">
						<use xlink:href="#SVGID_00000056407036087273094920000017104010910379046800_"  style="overflow:visible;"/>
					</clipPath>
					<g id="Group_51" style="clip-path:url(#SVGID_00000151543028205727587720000002302962215955250072_);">
						<path id="Path_41" class="st10" d="M-265-6054.4c-2.3,3.1-3.9,6.7-6,10c-2.3,3.7-5,7.2-7.8,10.5c-8.5,9.8-19,17.5-30.8,22.8
							c-1,0.3-1.7,1.2-1.6,2.3c0,9.2,0,18.5,0,27.7c0,1.7,0.1,1.8,1.8,1.8c5.7,0,11.4,0,17,0c0.9,0,1.8-0.2,2.6,0.4
							c-6.6,0-13.1,0-19.7,0c-1.2-0.1-2.4,0.4-3.1,1.4c-3.6,4.3-7.3,8.4-11,12.7c-5.9,6.7-11.7,13.4-17.8,19.9c-1.5,1.6-1.6,1.6-3,0
							c-4.4-4.9-8.7-9.8-13-14.8c-5-5.7-10.1-11.4-15-17.2c-1-1.3-2.7-2.1-4.4-2c-5.9,0.1-11.8,0-17.7,0c0.8-0.4,1.7-0.6,2.6-0.4
							c5.1,0,10.2,0,15.3,0c2.1,0,2.1,0,2.1-2.2c0-8.3,0-16.5,0-24.8c0.2-1.2-0.6-2.4-1.8-2.6c-20.9-7.6-38.1-23-48.2-42.9
							c-0.4-0.9-1-1.7-1.5-2.5c-0.1-0.2-0.2-0.3-0.2-0.5l0,0c0-0.3-0.1-0.5-0.2-0.8c-1-2.5-2.1-5-3.1-7.5c-1.8-4.7-2.9-9.6-3.5-14.6
							c-0.7-4.2-1-8.5-1.1-12.8c0-2.1,0-2.1,1.9-2.7c9.5-3.2,18.9-7.1,27.9-11.7c9.3-4.4,18-10,25.9-16.5
							c13-11.4,22.4-25.5,30.3-40.8c0.3-0.8,0.6-1.5,1-2.2c0.9-1.3,1.5-1.2,2.6-0.1c0.5,0.5,0.9,1.2,1.1,1.8
							c3.3,6.6,7.1,13,11.2,19.1c7,10.7,15.9,20,26.2,27.5c10.9,7.4,22.5,13.5,34.7,18.3c4,1.6,8.1,3.2,12.1,4.8
							c1.9,0.7,1.9,0.7,1.9,2.7c0,7.4-1.1,14.6-3.2,21.7c-1.1,4.4-2.6,8.7-4.5,12.9c-0.4,0.2-0.6,0.7-0.4,1.1
							C-265.1-6054.5-265.1-6054.4-265-6054.4"/>
						<path id="Path_42" class="st1" d="M-264.8-6055.7c1.9-4.2,3.4-8.5,4.5-12.9c2.1-7,3.2-14.3,3.2-21.7c0-2.1,0-2-1.9-2.7
							c-4.1-1.5-8.1-3.1-12.1-4.8c-12.2-4.8-23.8-10.9-34.7-18.3c-10.3-7.5-19.2-16.8-26.2-27.5c-4.2-6.1-7.9-12.5-11.2-19
							c-0.3-0.7-0.7-1.3-1.1-1.8c-1.1-1.1-1.7-1.2-2.6,0.1c-0.4,0.7-0.7,1.4-1,2.2c-7.9,15.2-17.2,29.4-30.3,40.7
							c-7.9,6.6-16.6,12.1-25.9,16.5c-9,4.5-18.3,8.4-27.9,11.7c-1.9,0.6-1.9,0.7-1.9,2.7c0,4.3,0.4,8.6,1.1,12.8
							c0.6,5,1.7,9.9,3.5,14.6c1,2.5,2.1,5,3.1,7.5c-0.2,0-0.4,0-0.7,0c-3.5-4.2-6.7-8.8-9.4-13.6c-1.1-1.9-2.2-3.9-3.3-5.8
							c-0.8-1.6-1.5-3.4-2-5.1c-1.8-4.4-3.4-8.9-4.6-13.5c-0.8-2.9-1.4-5.8-2.1-8.6c-0.3-1.8-0.5-3.5-0.5-5.3
							c-1.1-9-1-18.1,0.2-27.2c0.3-1.9,0.2-3.8,0.6-5.8c0.3-1.5,0.7-3.1,1.2-4.6c0.9-2.9,1.5-5.9,2.5-8.7c1.3-3.8,3-7.3,4.5-11
							c2.2-4.7,4.7-9.2,7.5-13.6c1.8-2.7,3.8-5.3,5.9-7.8c1.3-1.4,2.5-2.9,3.6-4.5c0.5-0.8,1.1-1.4,1.9-1.9c1.1-0.8,2-1.7,2.8-2.8
							c2-2.5,5-4,7.2-6.3c0.8-0.8,1.5-0.2,1.9,0.6c0.6,1.4,1.1,2.8,1.5,4.2c1,3.9,2.3,7.7,3.5,11.5c0.5,0.9,1.3,0.4,1.9,0.4
							c36,0,72,0,108,0c0.7,0,1.5,0.3,2.1-0.3c2.2-6.3,4.5-12.6,6.2-19.1c0.2-0.9,0.9-1.1,1.6-0.5c5,4.5,10.6,8.5,15.2,13.6
							c5.3,5.8,10,12.1,13.9,18.9c2.2,3.8,4.2,7.8,5.8,11.9c2.2,5.8,4,11.7,5.4,17.7c1.9,8.7,2.7,17.7,2.4,26.6
							c-0.3,5.6-1,11.2-2.2,16.7c-0.7,4.2-1.9,8.4-3.4,12.5c-2,5.7-4.5,11.2-7.4,16.5c-2.6,4.3-5.5,8.5-8.1,12.8
							c-0.5,0.7-1,1.3-1.5,1.9L-264.8-6055.7"/>
						<path id="Path_43" class="st3" d="M-282-5977.6c14.8,3.2,27.6,12.5,35.2,25.5c4.8,8.1,7.4,17.4,7.6,26.8
							c0.1,1.5-0.4,2.9-1.5,3.9c-6.4,6.9-13.9,12.8-22,17.5c-14.9,8.6-31.3,14.5-48.3,17.2c-5.2,0.9-10.4,1.5-15.7,2
							c-1.4-0.1-2.8,0-4.2,0.3l-4.1,0.2l-14,0.1c-4-0.2-7.9-0.3-11.9-0.7c-0.9-0.3-1.8-0.4-2.7-0.3c-4.3-0.5-8.8-0.8-13-1.7
							c-9.5-1.9-18.9-4.7-27.9-8.2c-12.2-4.8-23.4-11.7-33.2-20.3c-2.2-2-4.2-4.1-6.2-6.2c-0.9-0.9-1.4-2.2-1.3-3.5
							c0.1-7.2,1.7-14.4,4.5-21c1.9-4.4,4.5-8.6,7.5-12.4c7.3-9.3,17.5-15.9,29-18.8c0.6-0.2,1.2-0.3,1.9-0.5c0.4,0.9,1,1.7,1.7,2.3
							c1.6,1.7,3.1,3.5,4.7,5.3c4.1,4.8,8.3,9.5,12.5,14.3c4,4.5,8,9,11.9,13.5c5.1,5.8,10.1,11.6,15.1,17.4
							c4.1,4.8,8.4,9.5,12.5,14.2c1,1.1,1,1.2,2,0.1c3.1-3.5,6.1-6.9,9.2-10.4c5.5-6.1,10.9-12.2,16.4-18.3
							c6.9-7.7,13.7-15.3,20.6-23C-291.1-5967.4-286.5-5972.5-282-5977.6"/>
						<path id="Path_44" class="st4" d="M-282-5977.6c-4.6,5.1-9.2,10.3-13.8,15.4c-6.9,7.7-13.7,15.3-20.6,23
							c-5.5,6.1-10.9,12.2-16.4,18.3c-3.1,3.5-6.1,6.9-9.2,10.4c-1,1.1-1,1.1-2-0.1c-4.2-4.8-8.4-9.5-12.5-14.2
							c-5.1-5.8-10.1-11.6-15.1-17.4c-3.9-4.5-8-9-11.9-13.5c-4.2-4.8-8.3-9.5-12.5-14.3c-1.5-1.8-3.1-3.5-4.7-5.3
							c-0.7-0.7-1.3-1.5-1.7-2.3l3.4-0.7c0.8,0.2,1.7,0,2.5-0.4l1.9-0.1c5.9,0,11.8,0.1,17.7,0c1.7-0.1,3.3,0.6,4.4,2
							c5,5.8,10,11.5,15,17.2c4.3,4.9,8.6,9.9,13,14.8c1.4,1.6,1.5,1.6,3,0c6.1-6.5,11.9-13.2,17.8-19.9c3.7-4.2,7.4-8.4,11-12.7
							c0.8-0.9,1.9-1.5,3.1-1.4c6.6,0,13.1,0,19.7,0l1.9,0.1c0.8,0.4,1.6,0.5,2.5,0.4L-282-5977.6"/>
						<path id="Path_45" class="st5" d="M-406.5-6184.7c0,0-11.1-42.5-11.1-45.7s0.8-4.4,4-6.1c3.2-1.7,54.7-25.2,60.5-26.6
							s8-1.2,14.3,0.8s53.3,23.8,57.5,25.6s5.8,3.3,4,9c-1.8,5.7-14.3,42.9-14.3,42.9H-406.5z"/>
						<path id="Path_46" class="st6" d="M-347.5-6195.7c-2,0-4.1,0-6.1,0c-1.2,0-1.6-0.4-1.6-1.5c0-2.9,0-5.8,0-8.8
							c0-3,0.2-2.7-2.8-2.7c-2.7,0-5.4,0-8,0c-2.2,0-2.2,0-2.2-2.1c0-3.6,0-7.3,0-11c0-2.2,0-2.2,2.3-2.2c2.8,0,5.7,0,8.5,0
							c2.1,0,2.2,0,2.2-2.1c0-3.1,0-6.2,0-9.2c0-1.2,0.3-1.7,1.6-1.7c4,0.1,8,0,11.9,0c1.7,0,1.7,0,1.7,1.8c0,2.8,0,5.5,0,8.3
							c0,3.3-0.3,2.9,3,2.9c2.8,0,5.5,0,8.3,0c1.3,0,1.7,0.4,1.7,1.7c-0.1,4-0.1,8,0,11.9c0,1.3-0.4,1.7-1.7,1.7
							c-2.9-0.1-5.8,0-8.8,0c-2.7,0-2.5-0.2-2.5,2.4c0,2.9,0,5.8,0,8.8c0,1.7,0,1.7-1.8,1.8
							C-343.6-6195.6-345.5-6195.7-347.5-6195.7"/>
						<path id="Path_47" class="st7" d="M-348.8-5884.1l14-0.1c-1.6,0.4-3.4,0.5-5,0.3C-342.9-5883.7-345.9-5883.8-348.8-5884.1"/>
						<path id="Path_48" class="st7" d="M-330.8-5884.4c1.4-0.3,2.8-0.4,4.2-0.3C-328-5884.3-329.4-5884.2-330.8-5884.4"/>
						<path id="Path_49" class="st7" d="M-363.5-5885.1c0.9-0.1,1.9,0,2.7,0.3C-361.6-5884.7-362.6-5884.8-363.5-5885.1"/>
						<path id="Path_50" class="st8" d="M-264.8-6055.7l0.7,0.1c-0.3,0.4-0.6,0.8-0.9,1.3c-0.3-0.3-0.4-0.8,0-1.1
							C-265-6055.6-264.9-6055.6-264.8-6055.7"/>
						<path id="Path_51" class="st7" d="M-396.4-5978.8c-0.8,0.4-1.6,0.5-2.5,0.4C-398.1-5978.9-397.2-5979-396.4-5978.8"/>
						<path id="Path_52" class="st7" d="M-285.4-5978.4c-0.8,0.2-1.7,0-2.5-0.4C-287-5979-286.1-5978.9-285.4-5978.4"/>
						<path id="Path_53" class="st8" d="M-427-6055.6c0.2,0,0.4,0,0.7,0c0,0.3,0.1,0.5,0.2,0.8
							C-426.5-6054.9-426.9-6055.2-427-6055.6"/>
						<path id="Path_54" class="st8" d="M-426.1-6054.8l0.2,0.5C-426-6054.4-426.1-6054.6-426.1-6054.8"/>
					</g>
				</g>
			</g>
		</g>
	</g>
	<g id="Group_152" transform="translate(29.987 89.301)">
		<g>
			<g>
				<g>
					<g>
						<defs>
							<rect id="SVGID_00000139288576749281216150000017921799071057430411_" x="-415.8" y="-6163.2" width="82.8" height="27"/>
						</defs>
						<clipPath id="SVGID_00000058574657578645031460000001724154663851868815_">
							<use xlink:href="#SVGID_00000139288576749281216150000017921799071057430411_"  style="overflow:visible;"/>
						</clipPath>
						
							<g id="Group_151" transform="translate(0 0)" style="clip-path:url(#SVGID_00000058574657578645031460000001724154663851868815_);">
							<path id="Path_285" class="st12" d="M-374.5-6158.5c0.8-1,1.7-2,2.6-2.9c2.1-1.7,5-2.3,7.7-1.6c3.8,1,7.3,2.8,10.3,5.2
								c2.7,2,5.4,4.1,8.2,6.1c0.8,0.5,1.6,1,2.4,1.3c0.6,0.2,1.2,0.3,1.8,0.2c2.1-0.3,2.7-1.9,1.4-3.5c-0.4-0.4-0.7-0.9-0.9-1.5
								c-0.1-0.6,0.1-1.2,0.4-1.7c0.2-0.3,1-0.3,1.4-0.1c2.2,0.8,4,2.4,5,4.6c2.3,4.5,0.9,9.9-3.3,12.8c-2.5,1.8-5.4,2.9-8.5,3.2
								c-8,1-16-0.9-22.8-5.3c-2.5-1.5-4.5-3.8-5.7-6.4c-0.8,1.3-1.8,2.5-2.8,3.7c-3.5,3.4-7.8,5.8-12.5,6.9
								c-5.4,1.6-11,1.8-16.5,0.5c-4.3-0.9-7.8-3.9-9.3-8c-1.4-4.6,0.8-9.6,5.2-11.7c0.6-0.3,1.4-0.6,2,0c0.6,0.7,0.6,1.7,0,2.4
								c-0.3,0.5-0.7,0.9-1,1.3c-0.6,0.9-0.5,1.4,0.3,2.1c1,1,2.5,1.2,3.7,0.4c1.9-1.1,3.8-2.4,5.5-3.7c3.4-2.8,7-5.2,10.8-7.3
								c2.3-1.2,4.9-1.8,7.5-1.6c2.6,0.3,5,1.8,6.4,4C-374.7-6158.9-374.6-6158.6-374.5-6158.5"/>
						</g>
					</g>
				</g>
			</g>
		</g>
	</g>
</g>
<g>
	<g>
		<g>
			<g>
				<defs>
					<rect id="SVGID_00000024711165759801202690000004782551157496028575_" x="643.5" y="27" width="221" height="380.2"/>
				</defs>
				<clipPath id="SVGID_00000118366470775382099410000003621188991954939540_">
					<use xlink:href="#SVGID_00000024711165759801202690000004782551157496028575_"  style="overflow:visible;"/>
				</clipPath>
				
					<g id="Group_49_00000080193884830249424570000010818267019790118557_" style="clip-path:url(#SVGID_00000118366470775382099410000003621188991954939540_);">
					<path id="Path_26_00000099635230589562320600000014699733603540872843_" class="st1" d="M852.1,166.7c0,0,4.4,36.4-3.7,70
						s-12.6,55.4-5.1,69s21.2,23.8,21.2,23.8s-10.6-1-17.2,0l-6.6,1c0,0-24.2-13.5-41.3-13s-75.2,0.4-87.7,1.1s-18.6,3-31.2,4.6
						c-17.8,2.3-29.8,4.8-29.8,4.8c6.1-5.5,11-12.2,14.6-19.6c6.8-14.3-5.5-46.2-9.9-68.4c-10.1-51.2-11.4-66.9-11.4-66.9
						L852.1,166.7z"/>
					<path id="Path_27_00000056412898050317607160000002730842818259282104_" class="st2" d="M828.6,236.7c-2.3,3.1-3.9,6.7-6,10
						c-2.3,3.7-5,7.2-7.8,10.5c-8.5,9.8-19,17.5-30.8,22.8c-1,0.3-1.7,1.2-1.6,2.3c0,9.2,0,18.5,0,27.7c0,1.7-0.3,2.7,1.5,2.7
						c5.7,0,11.9,0.2,17.6,0.2c0.9,0,1.9-0.3,2.7,0.4c-6.6,0-13.4-1.1-20-1.1c-1.2-0.1-2.4,0.4-3.2,1.4c-3.6,4.3-7.3,8.4-11,12.7
						c-5.8,6.7-11.7,13.4-17.8,19.9c-1.5,1.6-1.6,1.6-3,0c-4.4-4.9-8.7-9.8-13-14.8c-5-5.7-10.1-11.4-15-17.2c-1-1.3-2.7-2.1-4.4-2
						c-5.9,0.1-12.1,1.2-18,1.2c0.8-0.6,2.7,1.6,3.6,1.6c5.1,0,10.7-0.7,15.8-0.8c2.1,0,1.4-0.8,1-4.6c0-8.3,0-16.5,0-24.8
						c0.2-1.2-0.6-2.4-1.8-2.6c-20.9-7.6-38.2-23-48.2-42.9c-0.4-0.9-1-1.7-1.5-2.5c-0.1-0.2-0.2-0.3-0.2-0.5l0,0
						c-0.1-0.3-0.1-0.5-0.2-0.8c-1-2.5-2.1-5-3.1-7.5c-1.8-4.7-2.9-9.6-3.5-14.6c-0.7-4.2-1-8.5-1.1-12.8c0-2.1,0-2.1,1.9-2.7
						c9.5-3.2,18.9-7.1,27.9-11.7c9.2-4.6,18.1-9.8,25.9-16.6c13.1-11.4,22.4-25.5,30.3-40.7c0.3-0.8,0.6-1.5,1-2.2
						c0.9-1.3,1.5-1.2,2.6-0.1c0.5,0.5,0.9,1.2,1.1,1.8c3.3,6.6,7.1,13,11.2,19.1c7.2,10.6,15.6,20.1,26.2,27.5
						c10.8,7.6,22.5,13.3,34.7,18.3c4,1.6,8.1,3.2,12.2,4.8c1.9,0.7,1.9,0.7,1.9,2.7c0,7.4-1.1,14.6-3.2,21.7
						c-1.1,4.4-2.6,8.7-4.5,12.9c-0.4,0.2-0.6,0.7-0.4,1.1C828.5,236.5,828.6,236.6,828.6,236.7"/>
					<path id="Path_28_00000180364231503907243710000013308635284291844285_" class="st1" d="M828.8,235.4c1.9-4.2,3.4-8.5,4.5-12.9
						c2.1-7,3.2-14.3,3.2-21.7c0-2.1,0-2-1.9-2.7c-4.1-1.5-8.1-3.1-12.2-4.8c-12.1-5-23.9-10.7-34.7-18.3
						c-10.6-7.4-19-16.9-26.2-27.5c-4.2-6.1-7.9-12.5-11.2-19.1c-0.3-0.7-0.7-1.3-1.1-1.8c-1.1-1.1-1.7-1.2-2.6,0.1
						c-0.4,0.7-0.7,1.4-1,2.2c-7.9,15.2-17.2,29.4-30.3,40.7c-7.8,6.8-16.7,11.9-25.9,16.6c-9,4.5-18.3,8.4-27.9,11.7
						c-1.9,0.6-1.9,0.7-1.9,2.7c0,4.3,0.4,8.6,1.1,12.8c0.6,5,1.7,9.9,3.5,14.6c1,2.5,2.1,5,3.1,7.5c-0.2,0-0.4,0-0.7,0
						c-3.5-4.2-6.7-8.8-9.4-13.6c-1.1-1.9-2.2-3.9-3.3-5.8c-0.8-1.6-1.5-3.4-2-5.1c-1.8-4.4-1.2-5.9-2.4-10.5
						c-0.8-2.9-1.8-6.2-2.5-9.1c-0.4-1.7-2.8-14.2-3-15.9c-1-9.1-0.4-10,0.8-19c0.3-1.9,0.2-3.8,0.6-5.8c0.3-1.6,0.7-3.1,1.2-4.6
						c0.9-2.9,1.5-5.9,2.5-8.7c1.3-3.8,3-7.3,4.5-10.9c2-4.8,4.9-9.1,7.5-13.6c1.8-2.7,3.8-5.3,5.9-7.8c1.3-1.4,2.5-2.9,3.6-4.5
						c0.5-0.8,1.1-1.4,1.8-1.9c1.1-0.8,2-1.7,2.8-2.8c2-2.6,5-4,7.2-6.3c0.8-0.8,1.5-0.2,1.9,0.6c0.6,1.4,1.1,2.8,1.5,4.2
						c1,3.9,2.3,7.7,3.5,11.5c0.5,0.8,1.3,0.4,1.9,0.4c36,0,72,0,108,0c0.7,0,1.5,0.3,2.1-0.3c2.2-6.3,4.5-12.6,6.2-19.1
						c0.2-0.9,0.9-1.1,1.6-0.5c5,4.6,10.7,8.5,15.2,13.6c5.3,5.8,10,12.2,13.9,18.9c2.2,3.8,4.2,7.8,5.8,11.9
						c2.2,5.8,4,11.7,5.4,17.7c1.9,8.7,2.7,17.7,2.4,26.6c-0.3,5.6-1,11.2-2.2,16.7c-0.7,4.2-1.9,8.4-3.3,12.4
						c-2.2,5.6-4.2,11.2-7.5,16.4c-2.7,4.3-5.5,8.5-8.1,12.8c-0.5,0.7-1,1.3-1.5,1.9C829.3,235.4,829,235.4,828.8,235.4"/>
					<path id="Path_29_00000008110617382988136530000007712277854694259592_" class="st3" d="M811.7,313.4
						c14.8,3.2,27.6,12.5,35.2,25.6c4.8,8.1,7.4,17.4,7.6,26.8c0.1,1.5-0.4,2.9-1.5,3.9c-6.5,6.9-13.9,12.8-22,17.5
						c-15,8.9-31.2,14.3-48.3,17.2c-5.2,0.9-10.4,1.5-15.7,2c-1.4-0.1-2.8,0-4.2,0.3l-4.1,0.2l-14,0.1c-4-0.2-7.9-0.3-11.9-0.7
						c-0.9-0.3-1.8-0.4-2.7-0.3c-4.3-0.5-8.8-0.8-13-1.7c-9.5-2.1-18.9-4.5-27.9-8.2c-12.2-5-23.4-11.5-33.2-20.3
						c-2.2-2-4.2-4.1-6.2-6.2c-0.9-0.9-1.4-2.2-1.3-3.5c0.2-7.2,1.7-14.4,4.5-21c1.9-4.4,4.5-8.6,7.5-12.4
						c7.5-9.7,17.4-15.5,29-18.8c0.6-0.2,1.2-0.3,1.9-0.5c0.4,0.9,1,1.7,1.7,2.4c1.6,1.7,3.2,3.5,4.7,5.3c4.2,4.8,8.3,9.5,12.5,14.3
						c4,4.5,8,9,11.9,13.5c5.1,5.8,10.1,11.6,15.1,17.4c4.2,4.8,8.3,9.5,12.5,14.2c1,1.1,1,1.2,2,0.1c3.1-3.5,6.1-6.9,9.2-10.4
						c5.5-6.1,10.9-12.2,16.4-18.3c6.9-7.7,13.7-15.3,20.6-23C802.5,323.6,807.1,318.5,811.7,313.4"/>
					<path id="Path_30_00000156555811925032834130000016741416207094595725_" class="st4" d="M811.7,313.4
						c-4.6,5.1-9.2,10.3-13.8,15.4c-6.9,7.7-13.7,15.3-20.6,23c-5.5,6.1-10.9,12.2-16.4,18.3c-3.1,3.4-6.1,6.9-9.2,10.4
						c-1,1.1-1,1.1-2-0.1c-4.2-4.8-8.4-9.5-12.5-14.2c-5.1-5.8-10.1-11.6-15.1-17.4c-4-4.5-8-9-11.9-13.5
						c-4.2-4.8-8.3-9.5-12.5-14.3c-1.5-1.8-3.1-3.5-4.7-5.3c-0.7-0.7-1.3-1.5-1.7-2.4c1.1-0.2,2.3-0.5,3.4-0.7
						c0.8,0.2,1.7,0,2.5-0.4l1.9-0.1c5.9,0,11.8,0.1,17.7,0c1.7-0.1,3.3,0.6,4.4,2c5,5.8,10,11.5,15,17.2c4.3,4.9,8.6,9.9,13,14.8
						c1.4,1.6,1.5,1.6,3,0c6.1-6.5,11.9-13.2,17.8-19.9c3.7-4.2,7.4-8.4,11-12.7c0.8-0.9,1.9-1.5,3.2-1.4c6.6,0,13.1,0,19.7,0l2,0.1
						c0.8,0.4,1.6,0.5,2.5,0.4L811.7,313.4"/>
					<path id="Path_31_00000119101182576079307890000014018870082486915989_" class="st5" d="M687.1,106.3c0,0-11.1-42.5-11.1-45.7
						s0.8-4.4,4-6.1c3.2-1.7,54.7-25.2,60.5-26.6s8-1.2,14.3,0.8c6.2,2.1,53.3,23.8,57.5,25.6c4.2,1.8,5.8,3.3,4,9
						s-14.3,42.9-14.3,42.9L687.1,106.3z"/>
					<path id="Path_32_00000139979133819260952050000000210623102231692717_" class="st6" d="M746.1,95.4c-2,0-4.1-0.1-6.1,0
						c-1.2,0-1.6-0.4-1.6-1.5c0-2.9,0-5.8,0-8.8c0-3,0.2-2.7-2.8-2.7c-2.7,0-5.3,0-8,0c-2.2,0-2.2,0-2.2-2.1c0-3.7,0-7.3,0-10.9
						c0-2.2,0-2.2,2.3-2.2c2.8,0,5.7,0,8.5,0c2.2,0,2.2,0,2.2-2.1c0-3.1,0-6.2,0-9.2c0-1.2,0.3-1.7,1.6-1.7c4,0.1,8,0,11.9,0
						c1.7,0,1.7,0,1.7,1.8c0,2.8,0,5.5,0,8.3c0,3.3-0.3,2.9,3,2.9c2.8,0,5.5,0.1,8.3,0c1.3,0,1.7,0.4,1.7,1.7c-0.1,4-0.1,7.9,0,11.9
						c0,1.3-0.4,1.7-1.7,1.7c-2.9-0.1-5.8,0-8.8,0c-2.7,0-2.5-0.2-2.5,2.4c0,2.9,0,5.8,0,8.8c0,1.7,0,1.7-1.8,1.8
						C750,95.4,748.1,95.4,746.1,95.4"/>
					<path id="Path_33_00000115493299511736063040000000159186609862331316_" class="st7" d="M744.8,406.9l14-0.1
						c-1.7,0.5-3.4,0.3-5,0.3C750.7,407.1,747.8,407.4,744.8,406.9"/>
					<path id="Path_34_00000165217214557831133070000010816552966026415766_" class="st7" d="M762.8,406.7c1.4-0.3,2.8-0.4,4.2-0.3
						C765.7,406.7,764.2,406.8,762.8,406.7"/>
					<path id="Path_35_00000162319673569071041730000010936022241663725490_" class="st7" d="M730.2,405.9c0.9-0.1,1.9,0,2.7,0.3
						C732,406.3,731,406.2,730.2,405.9"/>
					<path id="Path_36_00000075847261780163868310000007131071910374993543_" class="st8" d="M828.8,235.4c0.2,0,0.5,0,0.7,0.1
						l-0.9,1.3c-0.3-0.3-0.3-0.8,0-1.1C828.6,235.5,828.7,235.4,828.8,235.4"/>
					<path id="Path_37_00000026163885166559510740000013686505806724453552_" class="st7" d="M697.2,312.3c-0.8,0.4-1.6,0.5-2.5,0.4
						C695.5,312.2,696.4,312,697.2,312.3"/>
					<path id="Path_38_00000075884455224986370800000016432351559582598315_" class="st7" d="M808.2,312.6c-0.8,0.2-1.7,0-2.5-0.4
						C806.6,312,807.5,312.2,808.2,312.6"/>
					<path id="Path_39_00000060752906140527278530000005819194718968970417_" class="st8" d="M666.7,235.4c0.2,0,0.4,0,0.7,0
						c0,0.3,0.1,0.5,0.2,0.8C667.1,236.2,666.8,235.9,666.7,235.4"/>
					<path id="Path_40_00000105395970728534428430000017793909746013720245_" class="st8" d="M667.5,236.2l0.2,0.5
						C667.6,236.6,667.5,236.4,667.5,236.2"/>
				</g>
			</g>
		</g>
	</g>
</g>
<g id="Group_177_00000065752895558556026620000013761706556586788788_" transform="translate(734.561 6291.029)">
	<g>
		<g>
			<g>
				<g>
					<defs>
						<rect id="SVGID_00000013158088350066076380000003744703458025102726_" x="223" y="-6264" width="210.5" height="380.2"/>
					</defs>
					<clipPath id="SVGID_00000089544361250577323080000005308591724906176154_">
						<use xlink:href="#SVGID_00000013158088350066076380000003744703458025102726_"  style="overflow:visible;"/>
					</clipPath>
					
						<g id="Group_51_00000164471993616147340580000010205926987316715426_" style="clip-path:url(#SVGID_00000089544361250577323080000005308591724906176154_);">
						<path id="Path_41_00000142871983020525767120000007173368654704910014_" class="st10" d="M407.7-6054.4c-2.3,3.1-3.9,6.7-6,10
							c-2.3,3.7-5,7.2-7.8,10.5c-8.5,9.8-19,17.5-30.8,22.8c-1,0.3-1.7,1.2-1.6,2.3c0,9.2,0,18.5,0,27.7c0,1.7,0.1,1.8,1.8,1.8
							c5.7,0,11.4,0,17,0c0.9,0,1.8-0.2,2.6,0.4c-6.6,0-13.1,0-19.7,0c-1.2-0.1-2.4,0.4-3.1,1.4c-3.6,4.3-7.3,8.4-11,12.7
							c-5.9,6.7-11.7,13.4-17.8,19.9c-1.5,1.6-1.6,1.6-3,0c-4.4-4.9-8.7-9.8-13-14.8c-5-5.7-10.1-11.4-15-17.2c-1-1.3-2.7-2.1-4.4-2
							c-5.9,0.1-11.8,0-17.7,0c0.8-0.4,1.7-0.6,2.6-0.4c5.1,0,10.2,0,15.3,0c2.1,0,2.1,0,2.1-2.2c0-8.3,0-16.5,0-24.8
							c0.2-1.2-0.6-2.4-1.8-2.6c-20.9-7.6-38.1-23-48.2-42.9c-0.4-0.9-1-1.7-1.5-2.5c-0.1-0.2-0.2-0.3-0.2-0.5l0,0
							c-0.1-0.3-0.1-0.5-0.2-0.8c-1-2.5-2.1-5-3.1-7.5c-1.8-4.7-2.9-9.6-3.5-14.6c-0.7-4.2-1-8.5-1.1-12.8c0-2.1,0-2.1,1.9-2.7
							c9.6-3.2,18.9-7.1,27.9-11.7c9.3-4.4,18-10,25.9-16.5c13-11.4,22.4-25.5,30.3-40.8c0.3-0.8,0.6-1.5,1-2.2
							c0.9-1.3,1.5-1.2,2.6-0.1c0.5,0.5,0.9,1.2,1.1,1.8c3.3,6.6,7.1,13,11.2,19.1c7,10.7,15.9,20,26.2,27.5
							c10.9,7.4,22.5,13.5,34.7,18.3c4,1.6,8.1,3.2,12.1,4.8c1.9,0.7,1.9,0.7,1.9,2.7c0,7.4-1.1,14.6-3.2,21.7
							c-1.1,4.4-2.6,8.7-4.5,12.9c-0.4,0.2-0.6,0.7-0.4,1.1C407.5-6054.5,407.6-6054.4,407.7-6054.4"/>
						<path id="Path_42_00000174575624093404766370000017915379253225392283_" class="st1" d="M407.9-6055.7
							c1.9-4.2,3.4-8.5,4.5-12.9c2.1-7,3.2-14.3,3.2-21.7c0-2.1,0-2-1.9-2.7c-4.1-1.5-8.1-3.1-12.1-4.8
							c-12.2-4.8-23.8-10.9-34.7-18.3c-10.3-7.5-19.2-16.8-26.2-27.5c-4.2-6.1-7.9-12.5-11.2-19c-0.3-0.7-0.7-1.3-1.1-1.8
							c-1.1-1.1-1.7-1.2-2.6,0.1c-0.4,0.7-0.7,1.4-1,2.2c-7.9,15.2-17.2,29.4-30.3,40.7c-7.9,6.6-16.6,12.1-25.9,16.5
							c-9,4.5-18.3,8.4-27.9,11.7c-1.9,0.6-1.9,0.7-1.9,2.7c0,4.3,0.4,8.6,1.1,12.8c0.6,5,1.7,9.9,3.5,14.6c1,2.5,2.1,5,3.1,7.5
							c-0.2,0-0.4,0-0.7,0c-3.5-4.2-6.7-8.8-9.4-13.6c-1.1-1.9-2.2-3.9-3.3-5.8c-0.8-1.6-1.5-3.4-2-5.1c-1.8-4.4-3.4-8.9-4.6-13.5
							c-0.8-2.9-1.4-5.8-2.1-8.6c-0.3-1.8-0.4-3.5-0.5-5.3c-1.1-9-1-18.1,0.2-27.2c0.3-1.9,0.2-3.8,0.6-5.8c0.3-1.5,0.7-3.1,1.2-4.6
							c0.9-2.9,1.5-5.9,2.5-8.7c1.3-3.8,3-7.3,4.5-11c2.2-4.7,4.7-9.2,7.5-13.6c1.8-2.7,3.8-5.3,5.9-7.8c1.3-1.4,2.5-2.9,3.6-4.5
							c0.5-0.8,1.1-1.4,1.9-1.9c1.1-0.8,2.1-1.7,2.8-2.8c2-2.5,5-4,7.2-6.3c0.8-0.8,1.5-0.2,1.9,0.6c0.6,1.4,1.1,2.8,1.5,4.2
							c1,3.9,2.3,7.7,3.5,11.5c0.5,0.9,1.3,0.4,1.9,0.4c36,0,72,0,108,0c0.7,0,1.5,0.3,2.1-0.3c2.2-6.3,4.5-12.6,6.2-19.1
							c0.2-0.9,0.9-1.1,1.6-0.5c5,4.5,10.6,8.5,15.2,13.6c5.3,5.8,10,12.1,13.9,18.9c2.2,3.8,4.2,7.8,5.8,11.9
							c2.2,5.8,4,11.7,5.4,17.7c1.9,8.7,2.7,17.7,2.4,26.6c-0.3,5.6-1,11.2-2.2,16.7c-0.7,4.2-1.9,8.4-3.4,12.5
							c-2,5.7-4.5,11.2-7.5,16.5c-2.6,4.3-5.5,8.5-8.1,12.8c-0.5,0.7-1,1.3-1.5,1.9L407.9-6055.7"/>
						<path id="Path_43_00000029024712441664809360000006402395807151884217_" class="st3" d="M390.7-5977.6
							c14.8,3.2,27.6,12.5,35.2,25.5c4.8,8.1,7.4,17.4,7.6,26.8c0.1,1.5-0.4,2.9-1.5,3.9c-6.5,6.9-13.9,12.8-22,17.5
							c-14.9,8.6-31.3,14.5-48.3,17.2c-5.2,0.9-10.4,1.5-15.7,2c-1.4-0.1-2.8,0-4.2,0.3l-4.1,0.2l-14,0.1c-4-0.2-7.9-0.3-11.9-0.7
							c-0.9-0.3-1.8-0.4-2.7-0.3c-4.3-0.5-8.8-0.8-13-1.7c-9.5-1.9-18.9-4.7-27.9-8.2c-12.2-4.8-23.4-11.7-33.2-20.3
							c-2.2-2-4.2-4.1-6.2-6.2c-0.9-0.9-1.4-2.2-1.3-3.5c0.1-7.2,1.7-14.4,4.5-21c1.9-4.4,4.4-8.6,7.4-12.4
							c7.3-9.3,17.5-15.9,29-18.8c0.6-0.2,1.2-0.3,1.9-0.5c0.4,0.9,1,1.7,1.7,2.3c1.6,1.7,3.1,3.5,4.7,5.3
							c4.1,4.8,8.3,9.5,12.5,14.3c4,4.5,8,9,11.9,13.5c5.1,5.8,10.1,11.6,15.1,17.4c4.1,4.8,8.4,9.5,12.5,14.2c1,1.1,1,1.2,2,0.1
							c3.1-3.5,6.1-6.9,9.2-10.4c5.5-6.1,10.9-12.2,16.4-18.3c6.9-7.7,13.7-15.3,20.6-23C381.5-5967.4,386.1-5972.5,390.7-5977.6"/>
						<path id="Path_44_00000064345253970123155250000015095643839921374380_" class="st4" d="M390.7-5977.6
							c-4.6,5.1-9.2,10.3-13.8,15.4c-6.9,7.7-13.7,15.3-20.6,23c-5.5,6.1-10.9,12.2-16.4,18.3c-3.1,3.5-6.1,6.9-9.2,10.4
							c-1,1.1-1,1.1-2-0.1c-4.2-4.8-8.4-9.5-12.5-14.2c-5.1-5.8-10.1-11.6-15.1-17.4c-3.9-4.5-8-9-11.9-13.5
							c-4.2-4.8-8.3-9.5-12.5-14.3c-1.5-1.8-3.1-3.5-4.7-5.3c-0.7-0.7-1.3-1.5-1.7-2.3l3.4-0.7c0.8,0.2,1.7,0,2.5-0.4l1.9-0.1
							c5.9,0,11.8,0.1,17.7,0c1.7-0.1,3.3,0.6,4.4,2c5,5.8,10,11.5,15,17.2c4.3,4.9,8.6,9.9,13,14.8c1.4,1.6,1.5,1.6,3,0
							c6.1-6.5,11.9-13.2,17.8-19.9c3.7-4.2,7.4-8.4,11-12.7c0.8-0.9,1.9-1.5,3.1-1.4c6.6,0,13.1,0,19.7,0l1.9,0.1
							c0.8,0.4,1.6,0.5,2.5,0.4L390.7-5977.6"/>
						<path id="Path_45_00000088837487626484222820000001346360984435084726_" class="st5" d="M266.2-6184.7
							c0,0-11.1-42.5-11.1-45.7s0.8-4.4,4-6.1c3.2-1.7,54.7-25.2,60.5-26.6s8-1.2,14.3,0.8s53.3,23.8,57.5,25.6s5.8,3.3,4,9
							c-1.8,5.7-14.3,42.9-14.3,42.9H266.2z"/>
						<path id="Path_46_00000050643172451868380580000018185039451379513788_" class="st6" d="M325.2-6195.7c-2,0-4.1,0-6.1,0
							c-1.2,0-1.6-0.4-1.6-1.5c0-2.9,0-5.8,0-8.8c0-3,0.2-2.7-2.8-2.7c-2.7,0-5.4,0-8,0c-2.2,0-2.2,0-2.2-2.1c0-3.6,0-7.3,0-11
							c0-2.2,0-2.2,2.3-2.2c2.8,0,5.7,0,8.5,0c2.1,0,2.2,0,2.2-2.1c0-3.1,0-6.2,0-9.2c0-1.2,0.3-1.7,1.6-1.7c4,0.1,8,0,11.9,0
							c1.7,0,1.7,0,1.7,1.8c0,2.8,0,5.5,0,8.3c0,3.3-0.3,2.9,3,2.9c2.8,0,5.5,0,8.3,0c1.3,0,1.7,0.4,1.7,1.7c-0.1,4-0.1,8,0,11.9
							c0,1.3-0.4,1.7-1.7,1.7c-2.9-0.1-5.8,0-8.8,0c-2.7,0-2.5-0.2-2.5,2.4c0,2.9,0,5.8,0,8.8c0,1.7,0,1.7-1.8,1.8
							C329.1-6195.6,327.1-6195.7,325.2-6195.7"/>
						<path id="Path_47_00000079456938874596338500000008517403329915217597_" class="st7" d="M323.8-5884.1l14-0.1
							c-1.6,0.4-3.4,0.5-5,0.3C329.8-5883.7,326.8-5883.8,323.8-5884.1"/>
						<path id="Path_48_00000147906977270398867450000002646365237064998035_" class="st7" d="M341.9-5884.4
							c1.4-0.3,2.8-0.4,4.2-0.3C344.7-5884.3,343.3-5884.2,341.9-5884.4"/>
						<path id="Path_49_00000167370223671802963140000008565267520778924695_" class="st7" d="M309.2-5885.1c0.9-0.1,1.9,0,2.7,0.3
							C311-5884.7,310.1-5884.8,309.2-5885.1"/>
						<path id="Path_50_00000085936189267510904710000017156406750643448252_" class="st8" d="M407.9-6055.7l0.7,0.1
							c-0.3,0.4-0.6,0.8-0.9,1.3c-0.3-0.3-0.4-0.8,0-1.1C407.7-6055.6,407.8-6055.6,407.9-6055.7"/>
						<path id="Path_51_00000109742646798058614440000003366838133461151905_" class="st7" d="M276.3-5978.8
							c-0.8,0.4-1.6,0.5-2.5,0.4C274.5-5978.9,275.4-5979,276.3-5978.8"/>
						<path id="Path_52_00000141442109793400217840000002274298992335286455_" class="st7" d="M387.3-5978.4c-0.8,0.2-1.7,0-2.5-0.4
							C385.7-5979,386.6-5978.9,387.3-5978.4"/>
						<path id="Path_53_00000163067582249031131400000011482019376711732360_" class="st8" d="M245.7-6055.6c0.2,0,0.4,0,0.7,0
							c0.1,0.3,0.1,0.5,0.2,0.8C246.1-6054.9,245.8-6055.2,245.7-6055.6"/>
						<path id="Path_54_00000114062688069495622060000014842474861077730715_" class="st8" d="M246.5-6054.8l0.2,0.5
							C246.7-6054.4,246.6-6054.6,246.5-6054.8"/>
					</g>
				</g>
			</g>
		</g>
	</g>
	<g id="Group_152_00000106850245475110453230000014684273051977954726_" transform="translate(29.987 89.301)">
		<g>
			<g>
				<g>
					<g>
						<defs>
							<rect id="SVGID_00000000182196452825452580000012815730589315532167_" x="256.9" y="-6163.2" width="82.8" height="27"/>
						</defs>
						<clipPath id="SVGID_00000077299469331147336320000009313923800510998671_">
							<use xlink:href="#SVGID_00000000182196452825452580000012815730589315532167_"  style="overflow:visible;"/>
						</clipPath>
						
							<g id="Group_151_00000094586859252626614070000017776409651698190514_" transform="translate(0 0)" style="clip-path:url(#SVGID_00000077299469331147336320000009313923800510998671_);">
							<path id="Path_285_00000078042679311000383990000012476351286776804509_" class="st12" d="M298.2-6158.5c0.8-1,1.7-2,2.6-2.9
								c2.1-1.7,5-2.3,7.7-1.6c3.8,1,7.3,2.8,10.3,5.2c2.7,2,5.4,4.1,8.2,6.1c0.8,0.5,1.6,1,2.4,1.3c0.6,0.2,1.2,0.3,1.8,0.2
								c2.1-0.3,2.7-1.9,1.4-3.5c-0.4-0.4-0.7-0.9-0.9-1.5c-0.1-0.6,0.1-1.2,0.4-1.7c0.2-0.3,1-0.3,1.4-0.1c2.2,0.8,4,2.4,5,4.6
								c2.3,4.5,0.9,9.9-3.3,12.8c-2.5,1.8-5.4,2.9-8.5,3.2c-8,1-16-0.9-22.8-5.3c-2.5-1.5-4.5-3.8-5.7-6.4
								c-0.8,1.3-1.8,2.5-2.8,3.7c-3.5,3.4-7.8,5.8-12.5,6.9c-5.4,1.6-11,1.8-16.5,0.5c-4.3-0.9-7.8-3.9-9.3-8
								c-1.4-4.6,0.8-9.6,5.2-11.7c0.6-0.3,1.4-0.6,2,0c0.6,0.7,0.6,1.7,0,2.4c-0.3,0.5-0.7,0.9-1,1.3c-0.6,0.9-0.5,1.4,0.3,2.1
								c1,1,2.5,1.2,3.7,0.4c1.9-1.1,3.8-2.4,5.5-3.7c3.4-2.8,7-5.2,10.8-7.3c2.3-1.2,4.9-1.8,7.5-1.6c2.6,0.3,5,1.8,6.4,4
								C298-6158.9,298.1-6158.6,298.2-6158.5"/>
						</g>
					</g>
				</g>
			</g>
		</g>
	</g>
</g>
</svg>
