<?xml version="1.0" encoding="utf-8"?>
<!-- Generator: Adobe Illustrator 27.2.0, SVG Export Plug-In . SVG Version: 6.00 Build 0)  -->
<svg version="1.1" id="Lager_1" xmlns="http://www.w3.org/2000/svg" xmlns:xlink="http://www.w3.org/1999/xlink" x="0px" y="0px"
	 viewBox="0 0 1195.7 442.2" style="enable-background:new 0 0 1195.7 442.2;" xml:space="preserve">
<style type="text/css">
	.st0{clip-path:url(#SVGID_00000116920823196571406720000000616904204293119161_);}
	.st1{fill:#262626;}
	.st2{fill:#FFFFFF;}
	.st3{fill:#4BB492;}
	.st4{fill:#6ED6B0;}
	.st5{fill:#DFBF91;}
	.st6{fill:#206B42;}
	.st7{fill-rule:evenodd;clip-rule:evenodd;fill:#FFFFFF;}
	.st8{fill-rule:evenodd;clip-rule:evenodd;fill:#464545;}
	.st9{clip-path:url(#SVGID_00000139268524923023808010000013960334583214043014_);}
	.st10{fill:#FFFFFF;stroke:#DADADA;stroke-width:2;stroke-miterlimit:10;}
	.st11{fill:#161615;}
	.st12{clip-path:url(#SVGID_00000104664855382771927680000010679272624076922804_);}
	.st13{clip-path:url(#SVGID_00000124840030928750902510000006259910559125474192_);}
</style>
<g id="Group_162">
	<g>
		<g>
			<g>
				<g>
					<defs>
						<rect id="SVGID_1_" x="25.7" y="76.2" width="223" height="344.1"/>
					</defs>
					<clipPath id="SVGID_00000163032205035384807360000011326358560506326930_">
						<use xlink:href="#SVGID_1_"  style="overflow:visible;"/>
					</clipPath>
					<g id="Group_161" style="clip-path:url(#SVGID_00000163032205035384807360000011326358560506326930_);">
						<path id="Path_303" class="st1" d="M236.1,177.6c0,0,4.4,36.7-3.7,70.6s-12.8,55.9-5.1,69.7c7.6,13.8,21.4,24,21.4,24
							s-10.7-1-17.3,0l-6.6,1c0,0-24.4-13.6-41.7-13.1s-75.9,0.4-88.5,1.1s-18.8,3-31.4,4.6c-18,2.3-30.1,4.8-30.1,4.8
							c6.1-5.6,11.1-12.3,14.7-19.8c6.8-14.5-5.6-46.7-10-69c-10.2-51.6-11.5-67.5-11.5-67.5L236.1,177.6z"/>
						<path id="Path_304" class="st2" d="M212.5,248.2c-2.3,3.2-3.9,6.8-6,10.1c-2.4,3.7-5,7.3-7.9,10.6c-8.6,9.9-19.2,17.7-31.1,23
							c-1,0.3-1.7,1.3-1.6,2.3c0,9.3,0,18.6,0,28c0,1.7-0.3,2.7,1.5,2.8c5.7,0,12,0.2,17.7,0.2c0.9,0,1.9-0.3,2.7,0.4
							c-6.6,0-13.5-1.1-20.1-1.1c-1.2-0.1-2.4,0.4-3.2,1.4c-3.6,4.3-7.4,8.5-11.1,12.8c-5.9,6.8-11.8,13.5-17.9,20.1
							c-1.5,1.6-1.6,1.6-3,0c-4.4-5-8.8-9.9-13.1-14.9c-5.1-5.8-10.2-11.5-15.2-17.4c-1-1.4-2.7-2.1-4.4-2c-6,0.1-12.2,1.2-18.2,1.2
							c0.8-0.6,2.8,1.6,3.6,1.6c5.2,0,10.8-0.7,15.9-0.8c2.1,0,1.4-0.8,1-4.6c0-8.3,0-16.7,0-25c0.2-1.2-0.6-2.4-1.8-2.7
							c-21.1-7.7-38.5-23.2-48.6-43.2c-0.4-0.9-1-1.7-1.5-2.5c-0.1-0.2-0.2-0.3-0.2-0.5l0,0c-0.1-0.3-0.1-0.6-0.2-0.8
							c-1-2.5-2.1-5-3.1-7.5c-1.8-4.8-3-9.7-3.5-14.8c-0.7-4.3-1-8.6-1.1-12.9c0-2.1,0-2.1,1.9-2.8c9.6-3.3,19-7.2,28.1-11.8
							c9.3-4.6,18.2-9.9,26.1-16.7c13.2-11.5,22.6-25.7,30.6-41.1c0.3-0.8,0.6-1.5,1-2.2c0.9-1.3,1.5-1.2,2.6-0.1
							c0.5,0.5,0.9,1.2,1.1,1.8c3.4,6.7,7.1,13.1,11.3,19.2c7.3,10.7,15.8,20.3,26.4,27.8c10.9,7.6,22.8,13.4,35,18.5
							c4.1,1.7,8.1,3.2,12.3,4.8c1.9,0.7,1.9,0.7,1.9,2.8c0,7.4-1.1,14.8-3.2,21.9c-1.1,4.5-2.7,8.8-4.6,13
							c-0.4,0.2-0.6,0.7-0.4,1.1C212.3,248,212.4,248.1,212.5,248.2"/>
						<path id="Path_305" class="st1" d="M208.4,110.2c5.3,5.9,10,12.2,14,19.1c2.3,3.8,4.2,7.9,5.9,12c2.2,5.8,4.1,11.8,5.5,17.9
							c1.9,8.8,2.8,17.8,2.4,26.9c-0.3,5.7-1,11.3-2.2,16.8c-0.7,4.3-1.9,8.5-3.4,12.6c-2.2,5.7-4.3,11.3-7.5,16.6
							c-2.7,4.3-5.6,8.6-8.2,12.9c-0.5,0.7-1,1.3-1.5,1.9c-0.2,0-0.5,0-0.7-0.1c1.9-4.2,3.4-8.6,4.6-13c2.1-7.1,3.2-14.5,3.2-21.9
							c0-2.1,0-2-1.9-2.8c-4.1-1.6-8.2-3.1-12.3-4.8c-12.2-5.1-24.1-10.8-35-18.5c-10.7-7.5-19.1-17.1-26.4-27.8
							c-4.2-6.1-8-12.6-11.3-19.2c-0.3-0.7-0.7-1.3-1.1-1.8c-1.1-1.1-1.7-1.2-2.6,0.1c-0.4,0.7-0.7,1.5-1,2.2
							c-7.9,15.4-17.4,29.6-30.6,41.1c-7.9,6.9-16.8,12.1-26.1,16.7c-9.1,4.6-18.5,8.5-28.1,11.8c-1.9,0.6-1.9,0.7-1.9,2.8
							c0,4.3,0.4,8.7,1.1,12.9c0.6,5,1.8,10,3.5,14.8c1,2.5,2.1,5,3.1,7.5c-0.2,0-0.4,0-0.7,0c-3.6-4.3-6.7-8.9-9.4-13.7
							c-1.1-1.9-2.2-3.9-3.3-5.9c-0.8-1.7-1.5-3.4-2-5.1c-1.8-4.4-1.2-5.9-2.4-10.6c-0.8-2.9-1.8-6.3-2.5-9.2
							c-0.4-1.7-2.8-14.3-3-16.1c-1-9.1-0.4-10.1,0.9-19.2c0.3-1.9,0.2-3.9,0.6-5.8c0.3-1.6,0.8-3.1,1.3-4.6
							c0.9-2.9,1.5-5.9,2.5-8.8c1.3-3.8,3-7.4,4.5-11.1c2-4.9,4.9-9.2,7.6-13.7c1.7-2.8,4-5.3,6-7.9c1.2-1.5,2.7-2.8,3.6-4.6
							c0.5-0.8,1.1-1.4,1.9-1.9c1.2-0.8,1.2-0.8,2.8-2.8C66.2,95.6,143.6,42,208.4,110.2"/>
						<path id="Path_306" class="st3" d="M195.4,325.6c15.5,3.6,27.3,12.2,35.5,25.8c4.8,8.2,7.5,17.5,7.7,27
							c0.1,1.5-0.4,2.9-1.5,3.9c-6.5,6.9-14,12.9-22.2,17.6c-15.1,8.9-31.4,14.4-48.7,17.4c-5.2,0.9-10.5,1.5-15.8,2
							c-1.4-0.1-2.9,0-4.2,0.3l-4.1,0.2l-14.1,0.1c-4-0.2-8-0.3-12-0.7c-0.9-0.3-1.8-0.4-2.8-0.3c-4.4-0.6-8.8-0.8-13.1-1.7
							c-9.6-2.1-19.1-4.5-28.2-8.3c-12.3-5.1-23.6-11.6-33.5-20.5c-2.2-2-4.2-4.1-6.2-6.3c-0.9-0.9-1.4-2.2-1.3-3.5
							c0.1-7.3,1.7-14.5,4.5-21.2c2-4.5,4.5-8.7,7.5-12.5c7.5-9.8,17.6-15.6,29.3-18.9c0.6-0.2,1.2-0.3,1.9-0.5
							c0.4,0.9,1,1.7,1.7,2.4c1.6,1.8,3.2,3.5,4.7,5.3c4.2,4.8,8.4,9.6,12.6,14.4c4,4.5,8,9,12,13.6c5.1,5.8,10.2,11.7,15.3,17.6
							c4.2,4.8,8.4,9.6,12.6,14.4c1,1.2,1,1.2,2,0.1c3.1-3.5,6.2-7,9.3-10.5c5.5-6.2,11-12.3,16.5-18.5c6.9-7.7,13.8-15.5,20.8-23.2
							C186.1,335.9,190.7,330.8,195.4,325.6"/>
						<path id="Path_307" class="st4" d="M195.4,325.6c-4.6,5.2-9.3,10.4-13.9,15.5c-6.9,7.7-13.8,15.5-20.8,23.2
							c-5.5,6.1-11,12.3-16.5,18.5c-3.1,3.5-6.2,7-9.3,10.5c-1,1.1-1,1.1-2-0.1c-4.2-4.8-8.4-9.6-12.6-14.4
							c-5.1-5.9-10.2-11.7-15.3-17.6c-4-4.5-8-9.1-12-13.6c-4.2-4.8-8.4-9.6-12.6-14.4c-1.6-1.8-3.1-3.5-4.7-5.3
							c-0.7-0.7-1.3-1.5-1.7-2.4c1.1-0.2,2.3-0.5,3.4-0.7c0.8,0.2,1.7,0,2.5-0.4l1.9-0.1c6,0,11.9,0.1,17.9,0c1.7-0.1,3.3,0.6,4.4,2
							c5,5.8,10.1,11.6,15.2,17.4c4.4,5,8.7,10,13.1,14.9c1.4,1.6,1.5,1.6,3,0c6.1-6.6,12-13.3,17.9-20.1c3.7-4.2,7.4-8.5,11.1-12.8
							c0.8-1,2-1.5,3.2-1.4c6.6,0,13.2,0,19.9,0l2,0.1c0.8,0.4,1.6,0.5,2.5,0.4L195.4,325.6"/>
						<path id="Path_308" class="st5" d="M127.9,420l14.1-0.1c-1.7,0.6-3.4,0.3-5.1,0.3C133.9,420.2,130.9,420.4,127.9,420"/>
						<path id="Path_309" class="st5" d="M146.1,419.7c1.4-0.3,2.8-0.4,4.2-0.3C148.9,419.8,147.5,419.9,146.1,419.7"/>
						<path id="Path_310" class="st5" d="M113.1,418.9c0.9-0.1,1.9,0,2.8,0.3C114.9,419.2,114,419.4,113.1,418.9"/>
						<path id="Path_311" class="st6" d="M212.6,246.9c0.2,0,0.5,0,0.7,0.1c-0.3,0.4-0.6,0.9-0.9,1.3c-0.3-0.3-0.4-0.8-0.1-1.1
							C212.5,247,212.6,246.9,212.6,246.9"/>
						<path id="Path_312" class="st5" d="M79.9,324.5c-0.8,0.4-1.6,0.5-2.5,0.4C78.1,324.4,79,324.2,79.9,324.5"/>
						<path id="Path_313" class="st5" d="M191.9,324.8c-0.8,0.2-1.7,0-2.5-0.4C190.3,324.2,191.2,324.4,191.9,324.8"/>
						<path id="Path_314" class="st6" d="M49.1,246.9c0.2,0,0.4,0,0.7,0c0.1,0.3,0.1,0.6,0.2,0.8C49.5,247.7,49.2,247.4,49.1,246.9"
							/>
						<path id="Path_315" class="st6" d="M49.9,247.8l0.2,0.5C50,248.1,50,247.9,49.9,247.8"/>
						<path id="Path_316" class="st7" d="M187.5,324.4c0.2,3.4-0.3,24.7-0.3,24.7s4.7,1.8,6.4,4.5c1.7,2.8,3.1,5.2,2,11.1
							c-1.1,5.8-7.8,9.4-12.4,9.1s-12.3-2.6-12.6-12.7c-0.4-10,10.4-12.7,10.4-12.7l0.1-24.2H187.5z"/>
						<path id="Path_317" class="st7" d="M87.2,324.4v9.9c0,0-12,1.2-20,10.9s-7.4,16-7.4,20.1s-0.2,27.4,0,28.5s0.5,2.9,2.7,3.2
							c3.7,0.3,7.5,0.4,11.2,0.1c1.3-0.3,3.1-0.8,3.3-3.3c0.2-1.4-0.8-2.8-2.2-3.1c-1.1-0.2-8.5-0.2-8.5-0.2s-0.4-20.9,0.2-28.7
							c0.6-7.8,8-22,24.4-21.4s23.6,11.9,24.3,19.3s0.6,30.8,0.6,30.8c-2.4-0.1-4.7-0.1-7.1,0c-2.3,0.2-3.6,6.4-0.6,6.5
							s9.1,0.2,11,0.1c1.9-0.2,3-0.9,3-3.3s0.1-24.7,0-29.6c-0.3-6-2.2-11.7-5.5-16.7c-3.3-4.8-11.1-10.8-16-11.9
							c-2.4-0.6-4.8-1.1-7.2-1.5v-9.6L87.2,324.4z"/>
						<path id="Path_318" class="st8" d="M189.5,361.8c0,3.4-2.8,6.2-6.2,6.2c-3.4,0-6.2-2.8-6.2-6.2c0-3.4,2.8-6.2,6.2-6.2l0,0
							C186.7,355.5,189.5,358.3,189.5,361.8L189.5,361.8"/>
					</g>
				</g>
			</g>
		</g>
	</g>
</g>
<g id="Group_173" transform="translate(307.653 131.855)">
	<g>
		<g>
			<g>
				<g>
					<defs>
						<rect id="SVGID_00000101067649630737367170000006053783096330726330_" x="-26.7" y="-55.8" width="214.5" height="344.2"/>
					</defs>
					<clipPath id="SVGID_00000036248667857597489730000014656848762744224687_">
						<use xlink:href="#SVGID_00000101067649630737367170000006053783096330726330_"  style="overflow:visible;"/>
					</clipPath>
					<g id="Group_171" style="clip-path:url(#SVGID_00000036248667857597489730000014656848762744224687_);">
						<path id="Path_328" class="st10" d="M161.4,114.6c-2.3,3.2-3.9,6.8-6.1,10.2c-2.4,3.8-5.1,7.3-8,10.7
							c-8.6,9.9-19.4,17.9-31.4,23.2c-1.1,0.3-1.7,1.3-1.6,2.3c0,9.4,0,18.8,0,28.2c0,1.7,0.1,1.8,1.8,1.8c5.8,0,11.6,0,17.4,0
							c0.9,0,1.8-0.3,2.6,0.4c-6.7,0-13.4,0.1-20.1,0c-1.2-0.1-2.4,0.4-3.2,1.4c-3.7,4.3-7.5,8.6-11.2,12.9
							c-6,6.8-11.9,13.6-18.1,20.3c-1.5,1.6-1.6,1.6-3,0c-4.4-5-8.8-10-13.2-15.1c-5.1-5.8-10.2-11.6-15.3-17.5
							c-1-1.4-2.7-2.1-4.4-2c-6,0.1-12,0-18.1,0c0.8-0.4,1.7-0.6,2.6-0.4c5.2,0,10.4,0,15.6,0c2.1,0,2.2,0,2.2-2.2
							c0-8.4,0-16.8,0-25.3c0.2-1.2-0.6-2.4-1.9-2.7C26.8,153.2,9.2,137.5-1,117.3c-0.5-0.9-1-1.7-1.5-2.5c-0.1-0.2-0.2-0.3-0.2-0.5
							l0,0c0-0.3-0.1-0.5-0.2-0.8c-1.1-2.5-2.1-5.1-3.2-7.6c-1.8-4.8-3-9.8-3.6-14.9c-0.7-4.3-1.1-8.7-1.1-13.1c0-2.1,0-2.1,1.9-2.8
							c9.7-3.3,19.2-7.3,28.4-11.9C29.1,58.7,38,53,46,46.3c13.3-11.6,22.8-26,30.9-41.5c0.3-0.8,0.6-1.5,1-2.2
							c0.9-1.3,1.5-1.2,2.6-0.1C81,3,81.4,3.7,81.7,4.4c3.4,6.7,7.2,13.2,11.4,19.4c7.1,10.9,16.2,20.4,26.7,28
							c11.1,7.5,22.9,13.7,35.3,18.6c4.1,1.7,8.2,3.3,12.4,4.8c2,0.7,2,0.7,2,2.8c0,7.5-1.1,14.9-3.3,22.1
							c-1.1,4.5-2.7,8.9-4.6,13.1c-0.4,0.2-0.6,0.7-0.4,1.1C161.3,114.5,161.4,114.6,161.4,114.6"/>
						<path id="Path_329" class="st1" d="M157.3-24.7c5.4,5.9,10.1,12.4,14.1,19.3c2.3,3.9,4.3,8,5.9,12.2
							c2.3,5.9,4.1,11.9,5.5,18.1c2,8.9,2.8,18,2.4,27.1c-0.3,5.7-1.1,11.4-2.2,17c-0.8,4.3-1.9,8.6-3.4,12.7
							c-2,5.8-4.6,11.4-7.6,16.8c-2.7,4.4-5.6,8.7-8.3,13c-0.5,0.7-1,1.3-1.5,1.9l-0.7-0.1c1.9-4.2,3.4-8.6,4.6-13.1
							c2.1-7.2,3.2-14.6,3.3-22.1c0-2.1,0-2.1-2-2.8c-4.1-1.6-8.3-3.2-12.4-4.8c-12.4-4.9-24.3-11.1-35.3-18.6
							c-10.5-7.7-19.6-17.2-26.7-28c-4.2-6.2-8.1-12.7-11.4-19.4C81.4,3.7,81,3,80.5,2.5c-1.1-1.1-1.8-1.2-2.6,0.1
							c-0.4,0.7-0.7,1.5-1,2.2c-8,15.5-17.6,29.9-30.9,41.5C38,53,29.1,58.7,19.6,63.2C10.4,67.8,1,71.7-8.8,75
							c-1.9,0.7-1.9,0.7-1.9,2.8c0,4.4,0.4,8.8,1.1,13.1c0.6,5.1,1.8,10.1,3.6,14.9c1,2.5,2.1,5.1,3.2,7.6c-0.2,0-0.5,0-0.7,0
							c-3.6-4.3-6.8-9-9.5-13.8c-1.1-2-2.2-4-3.3-5.9c-0.8-1.7-1.5-3.4-2.1-5.2c-1.9-4.5-3.4-9-4.7-13.7c-0.8-2.9-1.4-5.9-2.2-8.8
							c-0.3-1.8-0.5-3.6-0.5-5.4c-1.1-9.2-1-18.5,0.2-27.7c0.3-2,0.2-3.9,0.6-5.9c0.3-1.6,0.8-3.1,1.3-4.6c1-2.9,1.5-6,2.5-8.9
							c1.3-3.8,3.1-7.4,4.6-11.2c2.2-4.8,4.8-9.4,7.6-13.8c1.8-2.8,3.9-5.4,6-8c1.3-1.4,2.5-3,3.7-4.6c0.5-0.8,1.1-1.4,1.9-1.9
							c1.2-0.8,1.3-1.3,2.9-2.9C16-39.6,79.3-86,157.3-24.7"/>
						<path id="Path_330" class="st3" d="M144.1,192.8c15.1,3.2,28.1,12.7,35.8,26c4.9,8.3,7.6,17.7,7.8,27.3c0.1,1.5-0.4,2.9-1.5,4
							c-6.6,7-14.1,13-22.4,17.8c-15.2,8.8-31.9,14.8-49.2,17.6c-5.3,0.9-10.6,1.6-16,2c-1.4-0.1-2.9,0-4.3,0.3l-4.2,0.2L76,288.1
							c-4-0.2-8.1-0.3-12.1-0.7c-0.9-0.3-1.8-0.4-2.8-0.3c-4.4-0.6-8.9-0.8-13.2-1.8c-9.7-2-19.2-4.8-28.5-8.4
							C7,272.1-4.4,265.1-14.4,256.3c-2.2-2-4.3-4.1-6.3-6.3c-0.9-0.9-1.4-2.2-1.3-3.6c0.1-7.4,1.7-14.6,4.6-21.4
							c2-4.5,4.5-8.8,7.6-12.6c7.6-9.8,17.7-15.8,29.5-19.1c0.6-0.2,1.3-0.3,1.9-0.5c0.4,0.9,1,1.7,1.7,2.4c1.6,1.8,3.2,3.6,4.8,5.4
							c4.2,4.9,8.4,9.7,12.7,14.6c4,4.6,8.1,9.1,12.1,13.7c5.2,5.9,10.3,11.9,15.4,17.8c4.2,4.9,8.5,9.7,12.8,14.5
							c1,1.2,1.1,1.2,2,0.1c3.1-3.5,6.2-7,9.4-10.6c5.6-6.2,11.1-12.4,16.7-18.6c7-7.8,14-15.6,21-23.4
							C134.8,203.2,139.5,198,144.1,192.8"/>
						<path id="Path_331" class="st4" d="M144.1,192.8c-4.7,5.2-9.4,10.4-14,15.7c-7,7.8-14,15.6-21,23.4
							c-5.6,6.2-11.1,12.4-16.7,18.6c-3.1,3.5-6.2,7-9.4,10.6c-1,1.1-1,1.1-2-0.1c-4.2-4.8-8.5-9.7-12.8-14.5
							c-5.2-5.9-10.3-11.9-15.4-17.8c-4-4.6-8.1-9.1-12.1-13.7c-4.2-4.8-8.5-9.7-12.7-14.6c-1.6-1.8-3.2-3.6-4.8-5.4
							c-0.7-0.7-1.3-1.5-1.7-2.4l3.5-0.7c0.9,0.2,1.7,0,2.5-0.4l2-0.1c6,0,12.1,0.1,18.1,0c1.7-0.1,3.4,0.6,4.4,2
							c5.1,5.9,10.2,11.7,15.3,17.5c4.4,5,8.8,10.1,13.2,15.1c1.4,1.6,1.5,1.6,3,0c6.2-6.6,12.2-13.4,18.1-20.3
							c3.7-4.3,7.5-8.6,11.2-12.9c0.8-1,2-1.5,3.2-1.4c6.7,0.1,13.4,0,20.1,0l2,0.1c0.8,0.4,1.6,0.6,2.5,0.4L144.1,192.8"/>
						<path id="Path_332" class="st5" d="M76,288.1l14.2-0.1c-1.7,0.4-3.4,0.5-5.1,0.3C82.1,288.5,79,288.4,76,288.1"/>
						<path id="Path_333" class="st5" d="M94.4,287.8c1.4-0.3,2.8-0.4,4.3-0.3C97.3,287.9,95.8,288,94.4,287.8"/>
						<path id="Path_334" class="st5" d="M61.1,287.1c0.9-0.1,1.9,0,2.8,0.3C63,287.5,62,287.4,61.1,287.1"/>
						<path id="Path_335" class="st6" d="M161.6,113.3l0.7,0.1c-0.3,0.4-0.6,0.9-0.9,1.3c-0.3-0.3-0.4-0.8-0.1-1.2
							C161.4,113.4,161.5,113.3,161.6,113.3"/>
						<path id="Path_336" class="st5" d="M27.5,191.7c-0.8,0.4-1.6,0.6-2.5,0.4C25.8,191.6,26.7,191.4,27.5,191.7"/>
						<path id="Path_337" class="st5" d="M140.7,192c-0.9,0.2-1.7,0-2.5-0.4C139,191.4,139.9,191.6,140.7,192"/>
						<path id="Path_338" class="st6" d="M-3.6,113.4c0.2,0,0.4,0,0.7,0c0,0.3,0.1,0.6,0.2,0.8C-3.2,114.1-3.5,113.8-3.6,113.4"/>
						<path id="Path_339" class="st6" d="M-2.8,114.2l0.2,0.5C-2.6,114.6-2.7,114.4-2.8,114.2"/>
						<path id="Path_340" class="st11" d="M79.3,102c0.9-1.1,1.9-2.2,2.9-3.2c2.4-1.9,5.6-2.6,8.5-1.8c4.2,1.1,8.1,3.1,11.4,5.8
							c3.1,2.2,6,4.5,9.1,6.8c0.8,0.6,1.8,1.1,2.7,1.4c0.6,0.2,1.3,0.3,2,0.2c2.3-0.4,3-2.1,1.6-3.9c-0.4-0.5-0.8-1-1-1.7
							c-0.1-0.7,0.1-1.3,0.4-1.9c0.2-0.3,1.1-0.3,1.6-0.2c2.5,0.9,4.5,2.7,5.6,5.1c2.5,5,1,11-3.6,14.2c-2.8,2-6,3.2-9.4,3.5
							c-8.9,1.1-17.8-1-25.3-5.9c-2.8-1.7-4.9-4.2-6.3-7.1c-0.9,1.4-2,2.8-3.1,4.1c-3.8,3.8-8.7,6.4-14,7.6c-6,1.8-12.3,2-18.3,0.5
							c-4.8-1-8.7-4.4-10.3-9c-1.6-5.2,0.9-10.7,5.8-13c0.7-0.3,1.5-0.7,2.2,0c0.7,0.8,0.7,1.9,0,2.6c-0.3,0.5-0.7,1-1.1,1.5
							c-0.7,1-0.6,1.6,0.3,2.4c1.1,1.1,2.8,1.3,4.1,0.5c2.1-1.3,4.2-2.7,6.2-4.1c3.7-3.1,7.7-5.8,12-8.1c2.6-1.4,5.5-2,8.4-1.8
							c2.9,0.3,5.6,2,7.1,4.5C79,101.6,79.2,101.9,79.3,102"/>
						<path id="Path_341" class="st7" d="M132.1,191.5c0.2,3.4-0.3,25-0.3,25s4.7,1.8,6.5,4.6c1.7,2.8,3.1,5.3,2,11.2
							s-7.9,9.4-12.6,9.2s-12.4-2.6-12.8-12.8s10.5-12.8,10.5-12.8l0.1-24.4L132.1,191.5z"/>
						<path id="Path_342" class="st7" d="M30.8,191.6v9.9c-7.8,1.1-15,5-20.2,11c-8,9.7-7.5,16.1-7.5,20.3s-0.2,27.7,0,28.7
							c0,1.6,1.2,3,2.7,3.3c3.8,0.3,7.6,0.4,11.4,0.1c1.3-0.3,3.2-0.8,3.3-3.3c0.2-1.4-0.8-2.8-2.2-3.1c-1.1-0.2-8.6-0.2-8.6-0.2
							s-0.4-21.1,0.2-29s8.1-22.2,24.6-21.6s23.9,12.1,24.5,19.5s0.6,31.1,0.6,31.1c-2.4-0.1-4.8-0.1-7.2,0
							c-2.3,0.2-3.6,6.5-0.6,6.6c3,0.1,9.2,0.2,11.1,0.1c1.9-0.2,3-0.9,3-3.3c0-2.4,0.1-25,0-29.8c-0.3-6-2.2-11.8-5.5-16.9
							c-3.3-4.8-11.2-10.9-16.2-12.1c-2.4-0.6-4.8-1.1-7.3-1.5v-9.7L30.8,191.6z"/>
						<path id="Path_343" class="st8" d="M134.1,229.3c0,3.5-2.8,6.3-6.3,6.3c-3.5,0-6.3-2.8-6.3-6.3c0-3.5,2.8-6.3,6.3-6.3
							C131.3,223,134.1,225.9,134.1,229.3L134.1,229.3"/>
					</g>
				</g>
			</g>
		</g>
	</g>
</g>
<g id="Group_162_00000023963605316134829720000005761418028308194465_">
	<g>
		<g>
			<g>
				<g>
					<defs>
						<rect id="SVGID_00000092453761278335687360000014541412757355406734_" x="643.5" y="76.2" width="223" height="344.1"/>
					</defs>
					<clipPath id="SVGID_00000058557379636014751110000009773037925570605237_">
						<use xlink:href="#SVGID_00000092453761278335687360000014541412757355406734_"  style="overflow:visible;"/>
					</clipPath>
					
						<g id="Group_161_00000163766922296423467700000014447531822745629356_" style="clip-path:url(#SVGID_00000058557379636014751110000009773037925570605237_);">
						<path id="Path_303_00000048469465844027592420000000603358443027710883_" class="st1" d="M854,177.7c0,0,4.4,36.7-3.7,70.6
							c-8.2,33.9-12.8,55.9-5.1,69.7c7.7,13.8,21.4,24,21.4,24s-10.7-1-17.3,0l-6.7,1c0,0-24.4-13.6-41.7-13.1s-75.9,0.4-88.5,1.1
							c-12.7,0.8-18.8,3-31.4,4.6c-18,2.3-30.1,4.8-30.1,4.8c6.1-5.6,11.1-12.3,14.7-19.8c6.8-14.5-5.6-46.7-10-69
							C645.3,200,644,184.1,644,184.1L854,177.7z"/>
						<path id="Path_304_00000122717000528980805110000016092633688523530666_" class="st2" d="M830.3,248.2
							c-2.3,3.2-3.9,6.8-6,10.1c-2.4,3.7-5,7.3-7.9,10.6c-8.5,9.9-19.2,17.7-31.1,23c-1,0.3-1.7,1.3-1.6,2.3c0,9.3,0,18.6,0,28
							c0,1.7-0.3,2.7,1.5,2.8c5.7,0,12,0.2,17.7,0.2c0.9,0,1.9-0.3,2.7,0.4c-6.6,0-13.5-1.1-20.1-1.1c-1.2-0.1-2.4,0.4-3.2,1.4
							c-3.7,4.3-7.4,8.5-11.1,12.8c-5.9,6.8-11.8,13.5-17.9,20.1c-1.5,1.6-1.6,1.6-3,0c-4.4-5-8.8-9.9-13.1-14.9
							c-5.1-5.8-10.2-11.5-15.2-17.4c-1-1.4-2.7-2.1-4.4-2c-6,0.1-12.2,1.2-18.2,1.2c0.8-0.6,2.8,1.6,3.6,1.6
							c5.2,0,10.8-0.7,15.9-0.8c2.1,0,1.4-0.8,1-4.6c0-8.3,0-16.7,0-25c0.2-1.2-0.6-2.4-1.8-2.7c-21.1-7.7-38.5-23.2-48.6-43.2
							c-0.4-0.9-1-1.7-1.5-2.5c-0.1-0.2-0.2-0.3-0.2-0.5l0,0c-0.1-0.3-0.1-0.6-0.2-0.8c-1-2.5-2.1-5-3.1-7.5
							c-1.8-4.8-3-9.7-3.5-14.8c-0.7-4.3-1-8.6-1.1-12.9c0-2.1,0-2.1,1.9-2.8c9.6-3.3,19-7.2,28.1-11.8c9.3-4.6,18.2-9.9,26.1-16.7
							c13.2-11.5,22.6-25.7,30.6-41.1c0.3-0.8,0.6-1.5,1-2.2c0.9-1.3,1.5-1.2,2.6-0.1c0.5,0.5,0.9,1.2,1.1,1.8
							c3.3,6.7,7.1,13.1,11.3,19.2c7.3,10.7,15.8,20.3,26.4,27.8c10.9,7.6,22.8,13.4,35,18.5c4,1.7,8.2,3.2,12.3,4.8
							c2,0.7,2,0.7,2,2.8c0,7.4-1.1,14.8-3.2,21.9c-1.1,4.5-2.7,8.8-4.5,13c-0.4,0.2-0.6,0.7-0.4,1.1
							C830.2,248.1,830.2,248.2,830.3,248.2"/>
						<path id="Path_305_00000172415294012037700440000009110348757493886085_" class="st1" d="M826.2,110.3
							c5.3,5.8,10,12.2,14,19.1c2.3,3.8,4.2,7.9,5.9,12c2.2,5.8,4.1,11.8,5.5,17.9c1.9,8.8,2.8,17.8,2.4,26.9
							c-0.3,5.7-1,11.3-2.2,16.8c-0.7,4.3-1.9,8.5-3.4,12.6c-2.2,5.7-4.3,11.3-7.5,16.6c-2.7,4.3-5.5,8.6-8.2,12.9
							c-0.5,0.7-1,1.3-1.5,1.9c-0.2,0-0.5,0-0.7-0.1c1.9-4.2,3.4-8.6,4.5-13c2.1-7.1,3.2-14.5,3.2-21.9c0-2.1,0-2-2-2.8
							c-4.1-1.6-8.2-3.1-12.3-4.8c-12.2-5.1-24.1-10.8-35-18.5c-10.7-7.5-19.1-17.1-26.4-27.8c-4.2-6.1-8-12.6-11.3-19.2
							c-0.3-0.7-0.7-1.3-1.1-1.8c-1.1-1.1-1.7-1.2-2.6,0.1c-0.4,0.7-0.7,1.5-1,2.2c-7.9,15.4-17.4,29.6-30.6,41.1
							c-7.9,6.9-16.8,12.1-26.1,16.7c-9.1,4.6-18.5,8.5-28.1,11.8c-1.9,0.6-1.9,0.7-1.9,2.8c0,4.3,0.4,8.7,1.1,12.9
							c0.6,5,1.8,10,3.5,14.8c1,2.5,2.1,5,3.1,7.5c-0.2,0-0.4,0-0.7,0c-3.6-4.3-6.7-8.9-9.4-13.7c-1.1-1.9-2.2-3.9-3.3-5.9
							c-0.8-1.7-1.5-3.4-2-5.1c-1.8-4.4-1.2-5.9-2.4-10.6c-0.8-2.9-1.8-6.3-2.5-9.2c-0.4-1.7-2.8-14.3-3-16.1
							c-1-9.1-0.4-10.1,0.8-19.2c0.3-1.9,0.2-3.9,0.6-5.8c0.3-1.6,0.8-3.1,1.3-4.6c0.9-2.9,1.5-5.9,2.5-8.8c1.3-3.8,3-7.4,4.5-11.1
							c2-4.9,4.9-9.2,7.6-13.7c1.7-2.8,4-5.3,6-7.9c1.2-1.5,2.7-2.8,3.6-4.6c0.5-0.8,1.1-1.4,1.9-1.9c1.2-0.8,1.2-0.8,2.8-2.8
							C684,95.7,761.5,42.1,826.2,110.3"/>
						<path id="Path_306_00000068655185165663655450000015540429775597490111_" class="st3" d="M813.2,325.6
							c15.5,3.6,27.3,12.2,35.5,25.8c4.8,8.2,7.5,17.5,7.7,27c0.1,1.5-0.4,2.9-1.5,3.9c-6.5,6.9-14,12.9-22.2,17.6
							c-15.1,8.9-31.5,14.4-48.7,17.4c-5.2,0.9-10.5,1.5-15.8,2c-1.4-0.1-2.9,0-4.2,0.3l-4.1,0.2l-14.1,0.1c-4-0.2-8-0.3-12-0.7
							c-0.9-0.3-1.8-0.4-2.8-0.3c-4.4-0.6-8.8-0.8-13.1-1.7c-9.6-2.1-19.1-4.5-28.2-8.3c-12.3-5.1-23.6-11.6-33.5-20.5
							c-2.2-2-4.2-4.1-6.2-6.3c-0.9-0.9-1.4-2.2-1.3-3.5c0.2-7.3,1.7-14.5,4.5-21.2c2-4.5,4.5-8.7,7.5-12.5
							c7.5-9.8,17.6-15.6,29.3-18.9c0.6-0.2,1.2-0.3,1.9-0.5c0.4,0.9,1,1.7,1.7,2.4c1.6,1.8,3.2,3.5,4.7,5.3
							c4.2,4.8,8.4,9.6,12.6,14.4c4,4.5,8,9,12,13.6c5.1,5.8,10.2,11.7,15.3,17.6c4.2,4.8,8.4,9.6,12.6,14.4c1,1.2,1,1.2,2,0.1
							c3.1-3.5,6.2-7,9.3-10.5c5.5-6.2,11-12.3,16.5-18.5c6.9-7.7,13.8-15.5,20.8-23.2C803.9,336,808.5,330.8,813.2,325.6"/>
						<path id="Path_307_00000150823977871255959760000003144006452938665886_" class="st4" d="M813.2,325.6
							c-4.6,5.2-9.3,10.4-13.9,15.5c-6.9,7.7-13.8,15.5-20.8,23.2c-5.5,6.1-11,12.3-16.5,18.5c-3.1,3.5-6.2,7-9.3,10.5
							c-1,1.1-1,1.1-2-0.1c-4.2-4.8-8.4-9.6-12.6-14.4c-5.1-5.9-10.2-11.7-15.3-17.6c-4-4.5-8-9.1-12-13.6
							c-4.2-4.8-8.4-9.6-12.6-14.4c-1.6-1.8-3.1-3.5-4.7-5.3c-0.7-0.7-1.3-1.5-1.7-2.4c1.1-0.2,2.3-0.5,3.4-0.7
							c0.8,0.2,1.7,0,2.5-0.4l1.9-0.1c6,0,11.9,0.1,17.9,0c1.7-0.1,3.3,0.6,4.4,2c5,5.8,10.1,11.6,15.2,17.4c4.4,5,8.7,10,13.1,14.9
							c1.4,1.6,1.5,1.6,3,0c6.1-6.6,12-13.3,17.9-20.1c3.7-4.2,7.5-8.5,11.1-12.8c0.8-1,2-1.5,3.2-1.4c6.6,0,13.2,0,19.9,0l2,0.1
							c0.8,0.4,1.6,0.5,2.5,0.4L813.2,325.6"/>
						<path id="Path_308_00000080893777440919840890000010870174698108494237_" class="st5" d="M745.7,420l14.1-0.1
							c-1.7,0.6-3.4,0.3-5.1,0.3C751.7,420.2,748.7,420.5,745.7,420"/>
						<path id="Path_309_00000017509295799248966100000001342120449040227472_" class="st5" d="M763.9,419.8
							c1.4-0.3,2.8-0.4,4.2-0.3C766.8,419.8,765.3,419.9,763.9,419.8"/>
						<path id="Path_310_00000102517384350303258230000017376814799944818571_" class="st5" d="M731,419c0.9-0.1,1.9,0,2.8,0.3
							C732.8,419.3,731.8,419.5,731,419"/>
						<path id="Path_311_00000016040784744168226110000012216705676074012830_" class="st6" d="M830.5,246.9c0.2,0,0.5,0,0.7,0.1
							c-0.3,0.4-0.6,0.9-0.9,1.3c-0.3-0.3-0.3-0.8,0-1.1C830.3,247,830.4,247,830.5,246.9"/>
						<path id="Path_312_00000157998780802344515690000001549759765058396800_" class="st5" d="M697.7,324.5
							c-0.8,0.4-1.6,0.5-2.5,0.4C696,324.4,696.9,324.3,697.7,324.5"/>
						<path id="Path_313_00000080178904944820665900000002452727404340679322_" class="st5" d="M809.7,324.9c-0.8,0.2-1.7,0-2.5-0.4
							C808.1,324.3,809,324.4,809.7,324.9"/>
						<path id="Path_314_00000134952989635004468210000016138513769417864580_" class="st6" d="M666.9,247c0.2,0,0.4,0,0.7,0
							c0.1,0.3,0.1,0.6,0.2,0.8C667.3,247.7,667,247.4,666.9,247"/>
						<path id="Path_315_00000062895139361333355980000013314565177974528447_" class="st6" d="M667.7,247.8l0.2,0.5
							C667.9,248.2,667.8,248,667.7,247.8"/>
						<path id="Path_316_00000176002937841898795340000015628712715881628322_" class="st7" d="M805.3,324.4
							c0.2,3.4-0.3,24.7-0.3,24.7s4.7,1.8,6.4,4.5c1.7,2.8,3.1,5.2,2,11.1c-1.1,5.8-7.8,9.4-12.4,9.1s-12.3-2.6-12.7-12.7
							c-0.3-10,10.4-12.7,10.4-12.7l0.1-24.2H805.3z"/>
						<path id="Path_317_00000177461116729797888320000002372742390934504888_" class="st7" d="M705,324.5v9.9c0,0-12,1.2-20,10.9
							c-7.9,9.6-7.4,16-7.4,20.1s-0.2,27.4,0,28.5s0.5,2.9,2.7,3.2c3.7,0.3,7.5,0.4,11.2,0.1c1.3-0.3,3.1-0.8,3.3-3.3
							c0.2-1.4-0.8-2.8-2.2-3.1c-1.1-0.2-8.5-0.2-8.5-0.2s-0.4-20.9,0.2-28.7c0.6-7.8,8-22,24.4-21.4s23.6,11.9,24.3,19.3
							s0.6,30.8,0.6,30.8c-2.4-0.1-4.7-0.1-7.1,0c-2.3,0.2-3.6,6.4-0.6,6.5s9.1,0.2,11,0.1s3-0.9,3-3.3s0-24.7,0-29.6
							c-0.3-6-2.2-11.7-5.5-16.7c-3.3-4.8-11.1-10.8-16-11.9c-2.4-0.6-4.8-1.1-7.2-1.5v-9.6L705,324.5z"/>
						<path id="Path_318_00000010992709897104062520000000683931645515658905_" class="st8" d="M807.3,361.8c0,3.4-2.8,6.2-6.2,6.2
							s-6.2-2.8-6.2-6.2c0-3.4,2.8-6.2,6.2-6.2l0,0C804.5,355.6,807.3,358.4,807.3,361.8L807.3,361.8"/>
					</g>
				</g>
			</g>
		</g>
	</g>
</g>
<g id="Group_173_00000029004246941177023150000010367731762596962198_" transform="translate(307.653 131.855)">
	<g>
		<g>
			<g>
				<g>
					<defs>
						<rect id="SVGID_00000180342364218035969760000002425480375936007598_" x="647.8" y="-55.7" width="214.5" height="344.2"/>
					</defs>
					<clipPath id="SVGID_00000182504981475774227050000004313071847180429751_">
						<use xlink:href="#SVGID_00000180342364218035969760000002425480375936007598_"  style="overflow:visible;"/>
					</clipPath>
					
						<g id="Group_171_00000053508530490448156140000015750278354045619851_" style="clip-path:url(#SVGID_00000182504981475774227050000004313071847180429751_);">
						<path id="Path_328_00000010304318024819259510000009920440689130917036_" class="st10" d="M836,114.7
							c-2.3,3.2-3.9,6.8-6.1,10.2c-2.4,3.8-5,7.3-8,10.7c-8.6,9.9-19.3,17.9-31.4,23.2c-1,0.3-1.7,1.3-1.6,2.4c0,9.4,0,18.8,0,28.2
							c0,1.7,0.1,1.8,1.8,1.8c5.8,0,11.6,0,17.3,0c0.9,0,1.8-0.3,2.6,0.4c-6.7,0-13.4,0.1-20.1,0c-1.2-0.1-2.4,0.4-3.2,1.4
							c-3.7,4.3-7.5,8.6-11.2,12.9c-6,6.8-11.9,13.6-18.1,20.3c-1.5,1.6-1.6,1.6-3,0c-4.4-5-8.8-10-13.2-15.1
							c-5.1-5.8-10.2-11.6-15.3-17.5c-1-1.4-2.7-2.1-4.4-2c-6,0.1-12,0-18.1,0c0.8-0.4,1.7-0.6,2.6-0.4c5.2,0,10.4,0,15.6,0
							c2.1,0,2.2,0,2.2-2.2c0-8.4,0-16.8,0-25.3c0.2-1.2-0.6-2.4-1.9-2.7c-21.3-7.8-38.9-23.4-49.1-43.7c-0.5-0.9-1-1.7-1.5-2.6
							c-0.1-0.2-0.2-0.3-0.2-0.5l0,0c0-0.3-0.1-0.6-0.2-0.8c-1.1-2.5-2.1-5.1-3.2-7.6c-1.8-4.8-3-9.8-3.6-14.9
							c-0.7-4.3-1.1-8.7-1.1-13.1c0-2.1,0-2.1,2-2.8c9.7-3.3,19.2-7.3,28.4-11.9c9.5-4.5,18.3-10.2,26.4-16.9
							c13.3-11.6,22.8-26,30.9-41.5c0.3-0.8,0.6-1.5,1-2.2c0.9-1.3,1.5-1.2,2.6-0.1c0.5,0.5,0.9,1.2,1.2,1.9
							c3.4,6.7,7.2,13.2,11.4,19.4c7.1,10.9,16.2,20.4,26.7,28c11.1,7.5,22.9,13.8,35.3,18.6c4.1,1.7,8.2,3.3,12.4,4.8
							c2,0.7,2,0.7,2,2.8c0,7.5-1.1,14.9-3.3,22.1c-1.2,4.5-2.7,8.9-4.6,13.1c-0.4,0.2-0.6,0.7-0.4,1.1
							C835.8,114.5,835.9,114.6,836,114.7"/>
						<path id="Path_329_00000061466731153574895200000008713892313260482447_" class="st1" d="M831.8-24.6
							c5.4,5.9,10.1,12.4,14.1,19.3c2.3,3.9,4.3,8,6,12.2c2.3,5.9,4.1,11.9,5.5,18.1c2,8.9,2.8,18,2.5,27.1c-0.3,5.7-1,11.4-2.2,17
							c-0.8,4.3-1.9,8.6-3.4,12.7c-2,5.8-4.5,11.4-7.6,16.8c-2.7,4.4-5.6,8.7-8.3,13c-0.5,0.7-1,1.3-1.5,1.9l-0.7-0.1
							c1.9-4.2,3.4-8.6,4.6-13.1c2.1-7.2,3.2-14.6,3.3-22.1c0-2.1,0-2.1-2-2.8c-4.1-1.6-8.3-3.2-12.4-4.8
							c-12.4-4.9-24.3-11.1-35.3-18.6c-10.5-7.7-19.6-17.2-26.7-28c-4.2-6.2-8.1-12.7-11.4-19.4c-0.3-0.7-0.7-1.3-1.2-1.9
							c-1.1-1.1-1.8-1.2-2.6,0.1c-0.4,0.7-0.7,1.5-1,2.2c-8,15.5-17.6,29.9-30.9,41.5c-8,6.7-16.9,12.4-26.4,16.9
							c-9.2,4.6-18.7,8.6-28.4,11.9c-1.9,0.7-1.9,0.7-2,2.8c0,4.4,0.4,8.8,1.1,13.1c0.6,5.1,1.8,10.1,3.6,14.9
							c1,2.5,2.1,5.1,3.2,7.6c-0.2,0-0.5,0-0.7,0c-3.6-4.3-6.8-9-9.5-13.8c-1.1-2-2.2-4-3.3-5.9c-0.8-1.7-1.5-3.4-2.1-5.2
							c-1.9-4.5-3.4-9-4.7-13.7c-0.8-2.9-1.4-5.9-2.2-8.8c-0.3-1.8-0.5-3.6-0.5-5.4c-1.1-9.2-1-18.5,0.2-27.7c0.3-2,0.2-3.9,0.6-5.9
							c0.3-1.6,0.8-3.1,1.3-4.6c1-2.9,1.5-6,2.5-8.9c1.3-3.8,3.1-7.4,4.6-11.2c2.2-4.8,4.8-9.4,7.6-13.8c1.8-2.8,3.9-5.4,6-8
							c1.3-1.4,2.5-3,3.7-4.6c0.5-0.8,1.1-1.4,1.9-1.9c1.2-0.8,1.2-1.3,2.9-2.9C690.6-39.5,753.9-85.9,831.8-24.6"/>
						<path id="Path_330_00000133503965656334760480000011795362362643818907_" class="st3" d="M818.7,192.9
							c15.1,3.2,28.1,12.7,35.8,26c4.9,8.3,7.5,17.7,7.8,27.3c0.1,1.5-0.4,2.9-1.5,4c-6.6,7-14.1,13-22.5,17.8
							c-15.2,8.8-31.8,14.8-49.2,17.6c-5.3,0.9-10.6,1.6-16,2c-1.4-0.1-2.9,0-4.3,0.3l-4.2,0.2l-14.2,0.1c-4-0.2-8.1-0.3-12.1-0.7
							c-0.9-0.3-1.8-0.4-2.8-0.3c-4.4-0.6-8.9-0.8-13.2-1.8c-9.7-2-19.2-4.8-28.5-8.4c-12.4-4.9-23.9-11.9-33.9-20.7
							c-2.2-2-4.3-4.1-6.3-6.3c-0.9-0.9-1.4-2.2-1.3-3.6c0.2-7.4,1.7-14.6,4.6-21.4c2-4.5,4.5-8.8,7.6-12.6
							c7.6-9.8,17.7-15.8,29.5-19.1c0.6-0.2,1.3-0.3,1.9-0.5c0.4,0.9,1,1.7,1.7,2.4c1.6,1.8,3.2,3.6,4.8,5.4
							c4.2,4.9,8.4,9.7,12.7,14.6c4,4.6,8.1,9.1,12.1,13.7c5.2,5.9,10.3,11.9,15.4,17.8c4.2,4.9,8.5,9.7,12.8,14.5
							c1,1.2,1,1.2,2,0.1c3.1-3.5,6.2-7,9.4-10.6c5.5-6.2,11.1-12.4,16.7-18.6c7-7.8,14-15.6,21-23.4
							C809.3,203.3,814,198.1,818.7,192.9"/>
						<path id="Path_331_00000036966223452569253930000009250557656701997978_" class="st4" d="M818.7,192.9
							c-4.7,5.2-9.4,10.4-14,15.7c-7,7.8-14,15.6-21,23.4c-5.6,6.2-11.1,12.4-16.7,18.6c-3.1,3.5-6.2,7-9.4,10.6c-1,1.1-1,1.1-2-0.1
							c-4.2-4.8-8.5-9.7-12.8-14.5c-5.2-5.9-10.3-11.9-15.4-17.8c-4-4.6-8.1-9.1-12.1-13.7c-4.2-4.8-8.5-9.7-12.7-14.6
							c-1.6-1.8-3.2-3.6-4.8-5.4c-0.7-0.7-1.3-1.5-1.7-2.4l3.5-0.7c0.8,0.2,1.7,0,2.5-0.4l2-0.1c6,0,12,0.1,18.1,0
							c1.7-0.1,3.4,0.6,4.4,2c5.1,5.9,10.2,11.7,15.3,17.5c4.4,5,8.8,10.1,13.2,15.1c1.4,1.6,1.5,1.6,3,0
							c6.2-6.6,12.2-13.4,18.1-20.3c3.7-4.3,7.5-8.6,11.2-12.9c0.8-1,2-1.5,3.2-1.4c6.7,0.1,13.4,0,20.1,0l2,0.1
							c0.8,0.4,1.6,0.6,2.5,0.4L818.7,192.9"/>
						<path id="Path_332_00000095321086880290726530000008567597611979638424_" class="st5" d="M750.5,288.2l14.2-0.1
							c-1.7,0.4-3.4,0.5-5.1,0.3C756.6,288.5,753.5,288.5,750.5,288.2"/>
						<path id="Path_333_00000121269523846795134600000008353631652752046225_" class="st5" d="M768.9,287.9
							c1.4-0.3,2.8-0.4,4.3-0.3C771.8,288,770.3,288.1,768.9,287.9"/>
						<path id="Path_334_00000000220432464304927610000002166613562759251074_" class="st5" d="M735.6,287.1c0.9-0.1,1.9,0,2.8,0.3
							C737.5,287.6,736.5,287.5,735.6,287.1"/>
						<path id="Path_335_00000107589078732662203720000011964142772381449889_" class="st6" d="M836.1,113.4l0.7,0.1
							c-0.3,0.4-0.6,0.9-0.9,1.3c-0.3-0.3-0.3-0.8,0-1.2C836,113.5,836,113.4,836.1,113.4"/>
						<path id="Path_336_00000006669617659069559740000006241226708624615845_" class="st5" d="M702.1,191.7
							c-0.8,0.4-1.6,0.6-2.5,0.4C700.3,191.6,701.2,191.5,702.1,191.7"/>
						<path id="Path_337_00000173121649261980387960000014788248276117609626_" class="st5" d="M815.2,192.1c-0.8,0.2-1.7,0-2.5-0.4
							C813.5,191.5,814.5,191.6,815.2,192.1"/>
						<path id="Path_338_00000011736723398444544920000008062075812023132600_" class="st6" d="M670.9,113.4c0.2,0,0.4,0,0.7,0
							c0,0.3,0.1,0.5,0.2,0.8C671.3,114.2,671,113.9,670.9,113.4"/>
						<path id="Path_339_00000071551885304010670970000016264330672260902067_" class="st6" d="M671.8,114.3l0.2,0.5
							C671.9,114.6,671.8,114.4,671.8,114.3"/>
						<path id="Path_340_00000131345002146360616940000009215422048252434850_" class="st11" d="M753.8,102.1
							c0.9-1.1,1.9-2.2,2.9-3.2c2.4-1.9,5.6-2.6,8.5-1.8c4.2,1.1,8.1,3.1,11.4,5.8c3,2.2,6,4.5,9.1,6.8c0.8,0.6,1.8,1.1,2.7,1.5
							c0.6,0.2,1.3,0.3,2,0.2c2.3-0.4,3-2.1,1.6-3.9c-0.4-0.5-0.8-1-1-1.7c-0.1-0.7,0.1-1.3,0.5-1.9c0.2-0.3,1.1-0.3,1.6-0.2
							c2.5,0.9,4.5,2.7,5.6,5.1c2.5,5,1,11-3.6,14.2c-2.8,2-6,3.2-9.4,3.5c-8.9,1.1-17.8-1-25.3-5.9c-2.8-1.7-5-4.2-6.3-7.1
							c-0.9,1.4-2,2.8-3.1,4.1c-3.8,3.8-8.7,6.4-14,7.6c-6,1.8-12.3,2-18.3,0.5c-4.8-1-8.7-4.4-10.3-9c-1.6-5.2,0.9-10.7,5.8-13
							c0.7-0.3,1.5-0.7,2.2,0c0.7,0.8,0.7,1.9,0,2.6c-0.3,0.5-0.7,1-1.1,1.5c-0.7,1-0.6,1.6,0.3,2.4c1.1,1.1,2.8,1.3,4.1,0.5
							c2.1-1.3,4.2-2.7,6.2-4.1c3.7-3.1,7.7-5.8,12-8.1c2.6-1.4,5.5-2,8.4-1.8c2.9,0.3,5.5,2,7.1,4.5
							C753.5,101.7,753.7,101.9,753.8,102.1"/>
						<path id="Path_341_00000117647563974815854970000007224359582622333621_" class="st7" d="M806.6,191.6c0.2,3.4-0.3,25-0.3,25
							s4.7,1.8,6.5,4.6c1.7,2.8,3.2,5.3,2,11.2s-7.8,9.4-12.6,9.2c-4.7-0.2-12.4-2.6-12.8-12.8s10.5-12.8,10.5-12.8l0.1-24.4
							L806.6,191.6z"/>
						<path id="Path_342_00000071529120126370583010000003673597331177623198_" class="st7" d="M705.3,191.7v9.9
							c-7.8,1.1-15,5-20.2,11c-8,9.7-7.5,16.1-7.5,20.3s-0.2,27.7,0,28.7c0,1.6,1.2,3,2.7,3.3c3.8,0.3,7.6,0.4,11.4,0.1
							c1.3-0.3,3.2-0.8,3.3-3.3c0.2-1.4-0.8-2.8-2.2-3.1c-1.1-0.2-8.6-0.2-8.6-0.2s-0.4-21.1,0.2-29s8.1-22.2,24.6-21.6
							c16.5,0.6,23.9,12.1,24.5,19.5s0.6,31.1,0.6,31.1c-2.4-0.1-4.8-0.1-7.2,0c-2.3,0.2-3.6,6.5-0.6,6.6c3,0.1,9.2,0.2,11.1,0.1
							c1.9-0.2,3-0.9,3-3.3c0-2.4,0-25,0-29.8c-0.3-6-2.2-11.8-5.5-16.9c-3.3-4.8-11.2-10.9-16.2-12.1c-2.4-0.6-4.8-1.1-7.3-1.5
							v-9.7L705.3,191.7z"/>
						<path id="Path_343_00000132066079757879381980000015821538811447495816_" class="st8" d="M808.6,229.4c0,3.5-2.8,6.3-6.3,6.3
							c-3.5,0-6.3-2.8-6.3-6.3c0-3.5,2.8-6.3,6.3-6.3S808.6,225.9,808.6,229.4L808.6,229.4"/>
					</g>
				</g>
			</g>
		</g>
	</g>
</g>
</svg>
