<?xml version="1.0" encoding="utf-8"?>
<!-- Generator: Adobe Illustrator 27.2.0, SVG Export Plug-In . SVG Version: 6.00 Build 0)  -->
<svg version="1.1" id="Lager_1" xmlns="http://www.w3.org/2000/svg" xmlns:xlink="http://www.w3.org/1999/xlink" x="0px" y="0px"
	 viewBox="0 0 1195.69 430.15" style="enable-background:new 0 0 1195.69 430.15;" xml:space="preserve">
<style type="text/css">
	.st0{clip-path:url(#SVGID_00000182493792367278349330000013446459885795682432_);}
	.st1{fill:#262626;}
	.st2{fill:#FFFFFF;}
	.st3{fill:#0099CE;}
	.st4{fill:#67C2DB;}
	.st5{fill:#757474;}
	.st6{fill:#F4F4F4;}
	.st7{fill:#DFBF91;}
	.st8{fill:#206B42;}
	.st9{clip-path:url(#SVGID_00000040567386559896299150000013128069061046797471_);}
	.st10{fill:#FFFFFF;stroke:#DADADA;stroke-width:2;stroke-miterlimit:10;}
	.st11{clip-path:url(#SVGID_00000139981812967057400550000006939320887254609084_);}
	.st12{fill:#161615;}
	.st13{clip-path:url(#SVGID_00000100368483051812289710000008195304390132165551_);}
	.st14{clip-path:url(#SVGID_00000064352775936883602140000016985216897640956848_);}
	.st15{clip-path:url(#SVGID_00000100374543926609249840000003839871962868133278_);}
</style>
<g>
	<g>
		<g>
			<defs>
				<rect id="SVGID_1_" x="27.57" y="26.99" width="221.01" height="380.23"/>
			</defs>
			<clipPath id="SVGID_00000065038943604936429530000017640170955342391230_">
				<use xlink:href="#SVGID_1_"  style="overflow:visible;"/>
			</clipPath>
			<g id="Group_49" style="clip-path:url(#SVGID_00000065038943604936429530000017640170955342391230_);">
				<path id="Path_26" class="st1" d="M236.11,166.74c0,0,4.38,36.37-3.71,70.02s-12.64,55.39-5.06,69.04s21.23,23.76,21.23,23.76
					s-10.6-1.02-17.19,0l-6.59,1.02c0,0-24.21-13.45-41.33-13.03s-75.19,0.35-87.74,1.14s-18.6,2.96-31.15,4.56
					c-17.85,2.28-29.85,4.79-29.85,4.79c6.08-5.55,11.03-12.22,14.59-19.65c6.76-14.33-5.55-46.25-9.94-68.39
					c-10.13-51.16-11.36-66.88-11.36-66.88L236.11,166.74z"/>
				<path id="Path_27" class="st2" d="M212.66,236.67c-2.3,3.14-3.86,6.72-5.97,9.98c-2.34,3.69-4.96,7.2-7.83,10.49
					c-8.48,9.76-18.99,17.55-30.8,22.81c-1.03,0.27-1.71,1.25-1.61,2.31c0.04,9.24,0.01,18.48,0.03,27.73c0,1.7-0.29,2.72,1.46,2.73
					c5.68,0.03,11.9,0.18,17.58,0.21c0.86,0,1.88-0.27,2.65,0.4c-6.56,0.01-13.4-1.09-19.96-1.13c-1.21-0.1-2.39,0.41-3.15,1.35
					c-3.62,4.26-7.33,8.44-11,12.66c-5.85,6.71-11.71,13.4-17.78,19.91c-1.48,1.58-1.57,1.6-2.97,0.02
					c-4.36-4.9-8.67-9.84-12.99-14.77c-5.02-5.73-10.06-11.44-15.04-17.21c-1.03-1.34-2.66-2.09-4.36-1.98
					c-5.91,0.12-12.11,1.18-18.03,1.16c0.79-0.61,2.73,1.6,3.6,1.59c5.11-0.03,10.66-0.74,15.76-0.76c2.1-0.01,1.39-0.84,0.96-4.6
					c0.01-8.27-0.03-16.53,0.04-24.8c0.17-1.22-0.62-2.37-1.83-2.63c-20.92-7.65-38.15-22.98-48.19-42.87
					c-0.44-0.86-0.99-1.67-1.48-2.5c-0.08-0.17-0.16-0.34-0.24-0.51l0.02,0.04c-0.06-0.27-0.11-0.54-0.16-0.81
					c-1.04-2.49-2.1-4.97-3.11-7.47c-1.76-4.71-2.94-9.62-3.5-14.62c-0.68-4.24-1.04-8.53-1.06-12.83c0.03-2.08,0.01-2.11,1.91-2.74
					c9.55-3.23,18.87-7.14,27.87-11.67c9.23-4.61,18.09-9.76,25.89-16.55c13.06-11.36,22.43-25.5,30.29-40.74
					c0.29-0.75,0.63-1.47,1.01-2.18c0.86-1.27,1.48-1.18,2.58-0.07c0.48,0.54,0.86,1.16,1.13,1.83c3.32,6.59,7.07,12.96,11.23,19.05
					c7.25,10.58,15.62,20.09,26.2,27.51c10.79,7.57,22.55,13.29,34.69,18.3c4.02,1.65,8.08,3.21,12.15,4.75
					c1.93,0.73,1.93,0.66,1.93,2.74c-0.03,7.35-1.12,14.65-3.22,21.69c-1.13,4.42-2.64,8.73-4.51,12.89
					c-0.4,0.2-0.56,0.68-0.36,1.08C212.53,236.53,212.59,236.61,212.66,236.67"/>
				<path id="Path_28" class="st1" d="M212.84,235.36c1.87-4.16,3.38-8.47,4.51-12.89c2.1-7.04,3.19-14.34,3.22-21.69
					c0-2.08,0-2.01-1.93-2.74c-4.07-1.54-8.13-3.09-12.15-4.75c-12.14-5-23.9-10.73-34.69-18.3c-10.58-7.42-18.95-16.93-26.2-27.51
					c-4.16-6.09-7.91-12.46-11.23-19.05c-0.28-0.67-0.66-1.29-1.13-1.83c-1.1-1.11-1.72-1.19-2.58,0.07
					c-0.38,0.71-0.72,1.43-1.01,2.18c-7.86,15.24-17.24,29.38-30.29,40.74c-7.8,6.79-16.66,11.94-25.89,16.55
					c-9.01,4.54-18.32,8.44-27.87,11.67c-1.9,0.63-1.88,0.66-1.91,2.74c0.02,4.3,0.38,8.58,1.06,12.82c0.56,5,1.74,9.91,3.5,14.62
					c1.01,2.5,2.07,4.98,3.11,7.47c-0.22-0.01-0.44-0.02-0.66-0.03c-3.54-4.23-6.68-8.78-9.37-13.6c-1.11-1.93-2.16-3.89-3.26-5.82
					c-0.78-1.65-1.46-3.35-2.03-5.09c-1.8-4.39-1.18-5.89-2.41-10.5c-0.76-2.87-1.77-6.22-2.52-9.09
					c-0.43-1.66-2.8-14.18-3.01-15.95c-1.03-9.05-0.44-9.96,0.84-19c0.27-1.91,0.2-3.84,0.58-5.77c0.33-1.55,0.74-3.07,1.25-4.57
					c0.93-2.88,1.52-5.85,2.49-8.72c1.28-3.77,3-7.3,4.5-10.95c1.98-4.82,4.86-9.14,7.5-13.59c1.82-2.72,3.79-5.34,5.92-7.83
					c1.31-1.42,2.51-2.94,3.6-4.54c0.46-0.77,1.09-1.42,1.85-1.91c1.1-0.77,2.05-1.72,2.82-2.81c1.99-2.56,4.96-4.04,7.23-6.31
					c0.81-0.81,1.54-0.2,1.88,0.63c0.58,1.38,1.07,2.8,1.46,4.24c1.03,3.88,2.29,7.68,3.5,11.5c0.48,0.85,1.29,0.43,1.94,0.43
					c36.01,0.02,72.02,0.03,108.02,0.01c0.69,0,1.46,0.28,2.08-0.32c2.23-6.31,4.49-12.62,6.24-19.09c0.25-0.91,0.88-1.1,1.58-0.46
					c5.05,4.55,10.65,8.48,15.23,13.58c5.29,5.8,9.95,12.15,13.88,18.94c2.25,3.82,4.2,7.81,5.83,11.93
					c2.22,5.78,4.03,11.7,5.43,17.73c1.93,8.73,2.73,17.67,2.4,26.61c-0.3,5.61-1.03,11.19-2.18,16.68
					c-0.73,4.24-1.86,8.41-3.35,12.45c-2.15,5.62-4.24,11.24-7.46,16.45c-2.65,4.3-5.5,8.49-8.13,12.81c-0.46,0.66-0.96,1.3-1.5,1.9
					C213.32,235.39,213.08,235.37,212.84,235.36"/>
				<path id="Path_29" class="st3" d="M195.69,313.38c14.81,3.17,27.58,12.46,35.18,25.56c4.79,8.12,7.41,17.35,7.61,26.78
					c0.1,1.45-0.43,2.87-1.46,3.9c-6.45,6.87-13.87,12.76-22.03,17.48c-14.97,8.86-31.18,14.3-48.27,17.25
					c-5.2,0.9-10.43,1.53-15.67,2.02c-1.41-0.13-2.83-0.03-4.21,0.3l-4.07,0.19l-13.95,0.07c-3.97-0.23-7.94-0.27-11.89-0.73
					c-0.87-0.32-1.81-0.41-2.73-0.27c-4.34-0.55-8.75-0.77-12.99-1.73c-9.47-2.13-18.9-4.48-27.92-8.21
					c-12.16-5.02-23.43-11.46-33.24-20.32c-2.17-1.96-4.18-4.07-6.16-6.22c-0.9-0.93-1.38-2.2-1.3-3.49
					c0.15-7.23,1.68-14.37,4.51-21.02c1.94-4.43,4.45-8.59,7.45-12.38c7.47-9.66,17.4-15.5,29-18.78c0.62-0.17,1.24-0.3,1.87-0.45
					c0.43,0.87,1.01,1.67,1.71,2.35c1.59,1.73,3.15,3.49,4.69,5.26c4.15,4.76,8.28,9.54,12.44,14.29c3.95,4.51,7.96,8.97,11.9,13.48
					c5.06,5.79,10.08,11.63,15.14,17.43c4.15,4.76,8.35,9.49,12.51,14.24c1,1.15,1.03,1.16,1.98,0.08
					c3.06-3.46,6.12-6.91,9.19-10.36c5.45-6.1,10.9-12.2,16.36-18.3c6.86-7.67,13.72-15.34,20.58-23.01
					C186.5,323.64,191.09,318.51,195.69,313.38"/>
				<path id="Path_30" class="st4" d="M195.69,313.38c-4.59,5.13-9.19,10.26-13.78,15.39c-6.86,7.67-13.72,15.34-20.58,23.01
					c-5.45,6.1-10.91,12.2-16.36,18.3c-3.08,3.44-6.14,6.9-9.19,10.36c-0.96,1.08-0.98,1.07-1.98-0.08
					c-4.17-4.75-8.36-9.48-12.51-14.24c-5.06-5.8-10.07-11.64-15.14-17.43c-3.94-4.51-7.95-8.98-11.9-13.48
					c-4.16-4.75-8.29-9.53-12.44-14.29c-1.55-1.77-3.11-3.52-4.69-5.26c-0.7-0.68-1.28-1.47-1.71-2.35c1.13-0.22,2.27-0.45,3.4-0.67
					c0.83,0.16,1.7,0.02,2.44-0.38l1.92-0.11c5.92,0.02,11.83,0.12,17.74,0.01c1.69-0.11,3.32,0.64,4.36,1.98
					c4.97,5.77,10.02,11.48,15.04,17.21c4.32,4.93,8.64,9.87,12.99,14.77c1.4,1.58,1.5,1.57,2.98-0.02
					c6.07-6.51,11.93-13.2,17.78-19.91c3.67-4.21,7.38-8.4,11-12.66c0.76-0.94,1.94-1.45,3.15-1.35c6.56,0.04,13.13,0.01,19.69,0
					l1.95,0.08c0.75,0.41,1.61,0.54,2.45,0.38L195.69,313.38"/>
				<path id="Path_31" class="st5" d="M71.16,106.3c0,0-11.14-42.53-11.14-45.71s0.83-4.43,4.02-6.1
					c3.19-1.66,54.72-25.21,60.54-26.6c5.82-1.39,8.04-1.25,14.27,0.83c6.23,2.08,53.33,23.83,57.49,25.63s5.82,3.32,4.02,9
					s-14.27,42.94-14.27,42.94L71.16,106.3z"/>
				<path id="Path_32" class="st6" d="M130.18,95.37c-2.03,0-4.06-0.05-6.08,0.02c-1.17,0.04-1.58-0.39-1.56-1.54
					c0.05-2.92,0.02-5.84,0.01-8.76c-0.01-3.02,0.22-2.67-2.8-2.68c-2.68-0.01-5.35,0.01-8.03-0.01c-2.16-0.01-2.17-0.02-2.18-2.07
					c-0.02-3.65-0.02-7.3,0-10.95c0.01-2.17,0.02-2.18,2.31-2.19c2.84-0.01,5.68,0.01,8.52-0.01c2.15-0.01,2.17-0.02,2.18-2.09
					c0.02-3.08,0.04-6.16-0.01-9.25c-0.02-1.21,0.29-1.74,1.63-1.71c3.97,0.08,7.95,0.01,11.92,0.03c1.66,0.01,1.69,0.05,1.71,1.81
					c0.03,2.76,0,5.51,0.01,8.27c0.02,3.33-0.33,2.9,3.05,2.92c2.76,0.02,5.51,0.05,8.27-0.02c1.26-0.03,1.7,0.39,1.67,1.67
					c-0.07,3.97-0.07,7.95,0,11.92c0.02,1.29-0.44,1.69-1.68,1.66c-2.92-0.07-5.84-0.03-8.76-0.02c-2.66,0-2.55-0.25-2.55,2.44
					c0,2.92,0.02,5.84-0.01,8.76c-0.02,1.71-0.05,1.73-1.78,1.76C134.07,95.39,132.12,95.37,130.18,95.37"/>
				<path id="Path_33" class="st7" d="M128.81,406.93l13.95-0.07c-1.65,0.55-3.36,0.28-5.03,0.28
					C134.76,407.13,131.78,407.41,128.81,406.93"/>
				<path id="Path_34" class="st7" d="M146.84,406.67c1.38-0.33,2.8-0.43,4.21-0.3C149.68,406.73,148.25,406.83,146.84,406.67"/>
				<path id="Path_35" class="st7" d="M114.19,405.92c0.92-0.14,1.86-0.04,2.73,0.27C116.01,406.34,115.06,406.25,114.19,405.92"/>
				<path id="Path_36" class="st8" d="M212.84,235.36c0.24,0.02,0.47,0.04,0.7,0.06l-0.89,1.26c-0.33-0.3-0.35-0.81-0.04-1.14
					C212.68,235.46,212.75,235.4,212.84,235.36"/>
				<path id="Path_37" class="st7" d="M81.25,312.27c-0.75,0.41-1.61,0.54-2.44,0.38C79.52,312.18,80.41,312.04,81.25,312.27"/>
				<path id="Path_38" class="st7" d="M192.28,312.65c-0.84,0.16-1.7,0.03-2.45-0.38C190.66,312.04,191.55,312.18,192.28,312.65"/>
				<path id="Path_39" class="st8" d="M50.7,235.44c0.22,0.01,0.44,0.02,0.66,0.03c0.05,0.27,0.11,0.54,0.16,0.81
					C51.11,236.17,50.8,235.85,50.7,235.44"/>
				<path id="Path_40" class="st8" d="M51.5,236.25l0.24,0.51C51.66,236.59,51.58,236.42,51.5,236.25"/>
			</g>
		</g>
	</g>
</g>
<g id="Group_177" transform="translate(734.561 6291.029)">
	<g>
		<g>
			<g>
				<defs>
					
						<rect id="SVGID_00000075859800122854020180000011760208793322961553_" x="-449.67" y="-6264.04" width="210.51" height="380.23"/>
				</defs>
				<clipPath id="SVGID_00000068663135056042214460000014652380380490516649_">
					<use xlink:href="#SVGID_00000075859800122854020180000011760208793322961553_"  style="overflow:visible;"/>
				</clipPath>
				<g id="Group_51" style="clip-path:url(#SVGID_00000068663135056042214460000014652380380490516649_);">
					<path id="Path_41" class="st10" d="M-264.99-6054.35c-2.29,3.14-3.86,6.72-5.96,9.98c-2.34,3.69-4.96,7.2-7.83,10.49
						c-8.48,9.76-18.99,17.55-30.8,22.81c-1.03,0.27-1.71,1.24-1.62,2.3c0.04,9.24,0,18.48,0.03,27.73c0,1.7,0.06,1.75,1.82,1.75
						c5.68,0.03,11.35,0,17.03,0.03c0.86,0,1.8-0.25,2.57,0.43c-6.56,0-13.13,0.05-19.69,0c-1.21-0.09-2.38,0.41-3.15,1.35
						c-3.62,4.26-7.33,8.44-11,12.66c-5.85,6.71-11.71,13.4-17.78,19.91c-1.48,1.59-1.57,1.6-2.98,0.02
						c-4.36-4.9-8.67-9.84-12.99-14.77c-5.02-5.73-10.06-11.44-15.03-17.21c-1.03-1.34-2.67-2.09-4.36-1.98
						c-5.91,0.12-11.83,0.01-17.74,0c0.79-0.43,1.7-0.57,2.58-0.39c5.11-0.03,10.22,0,15.32-0.02c2.11,0,2.13-0.03,2.13-2.18
						c0.01-8.27-0.03-16.53,0.04-24.8c0.17-1.22-0.62-2.37-1.82-2.63c-20.92-7.65-38.15-22.98-48.19-42.87
						c-0.44-0.85-0.99-1.67-1.49-2.5c-0.08-0.17-0.16-0.34-0.24-0.51l0.01,0.04c-0.05-0.27-0.11-0.54-0.16-0.81
						c-1.04-2.49-2.1-4.97-3.11-7.47c-1.76-4.71-2.94-9.62-3.5-14.62c-0.68-4.24-1.04-8.53-1.06-12.82
						c0.03-2.08,0.01-2.11,1.92-2.74c9.55-3.23,18.87-7.14,27.87-11.67c9.3-4.39,18-9.95,25.89-16.55
						c13.05-11.37,22.43-25.52,30.29-40.75c0.29-0.75,0.63-1.47,1.01-2.18c0.85-1.27,1.49-1.18,2.58-0.07
						c0.48,0.54,0.86,1.16,1.13,1.83c3.32,6.6,7.07,12.96,11.23,19.06c7,10.67,15.88,19.99,26.2,27.5
						c10.85,7.37,22.48,13.51,34.69,18.31c4.02,1.65,8.09,3.21,12.15,4.75c1.93,0.73,1.94,0.66,1.94,2.74
						c-0.04,7.35-1.12,14.65-3.22,21.69c-1.13,4.42-2.64,8.73-4.51,12.89c-0.4,0.2-0.56,0.68-0.36,1.08
						C-265.12-6054.49-265.06-6054.41-264.99-6054.35"/>
					<path id="Path_42" class="st1" d="M-264.8-6055.67c1.87-4.16,3.38-8.47,4.5-12.89c2.1-7.04,3.18-14.34,3.22-21.69
						c0-2.08,0-2.01-1.93-2.74c-4.07-1.53-8.13-3.09-12.15-4.75c-12.2-4.8-23.84-10.94-34.69-18.3
						c-10.32-7.51-19.2-16.83-26.2-27.51c-4.16-6.09-7.91-12.46-11.23-19.05c-0.28-0.67-0.66-1.29-1.13-1.83
						c-1.1-1.11-1.72-1.19-2.58,0.07c-0.38,0.71-0.72,1.43-1.01,2.18c-7.86,15.24-17.24,29.38-30.29,40.74
						c-7.89,6.59-16.59,12.15-25.89,16.55c-9.01,4.54-18.32,8.44-27.87,11.67c-1.9,0.64-1.88,0.66-1.92,2.74
						c0.02,4.3,0.38,8.58,1.06,12.82c0.56,5,1.74,9.91,3.5,14.62c1.01,2.5,2.07,4.98,3.11,7.47c-0.21-0.01-0.44-0.02-0.66-0.03
						c-3.54-4.23-6.68-8.78-9.37-13.6c-1.11-1.93-2.16-3.89-3.26-5.82c-0.78-1.65-1.46-3.35-2.04-5.09
						c-1.83-4.38-3.38-8.88-4.63-13.46c-0.76-2.87-1.4-5.77-2.15-8.64c-0.28-1.75-0.45-3.52-0.49-5.29
						c-1.1-9.02-1.03-18.15,0.19-27.16c0.27-1.92,0.2-3.83,0.58-5.77c0.33-1.54,0.74-3.07,1.25-4.56c0.93-2.88,1.52-5.85,2.49-8.73
						c1.28-3.77,3-7.3,4.5-10.95c2.17-4.71,4.67-9.25,7.5-13.59c1.82-2.72,3.79-5.33,5.92-7.82c1.31-1.43,2.51-2.94,3.6-4.54
						c0.46-0.78,1.09-1.43,1.85-1.92c1.1-0.77,2.05-1.72,2.82-2.81c1.98-2.55,4.96-4.04,7.24-6.31c0.81-0.81,1.54-0.2,1.88,0.64
						c0.58,1.38,1.07,2.8,1.46,4.24c1.03,3.88,2.29,7.68,3.5,11.5c0.48,0.85,1.29,0.43,1.93,0.43c36.01,0.03,72.02,0.03,108.03,0
						c0.69,0,1.46,0.28,2.08-0.32c2.23-6.31,4.49-12.62,6.24-19.09c0.24-0.91,0.88-1.1,1.58-0.46c5.05,4.55,10.64,8.48,15.23,13.58
						c5.3,5.79,9.95,12.14,13.88,18.93c2.25,3.82,4.2,7.8,5.83,11.92c2.21,5.78,4.03,11.7,5.43,17.73
						c1.93,8.73,2.73,17.68,2.4,26.61c-0.3,5.61-1.03,11.19-2.18,16.68c-0.73,4.24-1.86,8.41-3.35,12.45
						c-1.96,5.71-4.46,11.21-7.45,16.45c-2.65,4.3-5.51,8.49-8.13,12.81c-0.46,0.67-0.96,1.3-1.5,1.9l-0.7-0.06"/>
					<path id="Path_43" class="st3" d="M-281.95-5977.65c14.81,3.17,27.58,12.45,35.18,25.55c4.79,8.12,7.41,17.35,7.61,26.78
						c0.1,1.45-0.43,2.88-1.46,3.9c-6.45,6.87-13.87,12.76-22.03,17.48c-14.9,8.65-31.26,14.5-48.27,17.24
						c-5.2,0.9-10.43,1.53-15.67,2.01c-1.41-0.13-2.83-0.03-4.21,0.3l-4.08,0.21l-13.95,0.07c-3.97-0.23-7.94-0.27-11.89-0.73
						c-0.87-0.32-1.81-0.41-2.73-0.27c-4.34-0.55-8.75-0.77-12.99-1.73c-9.52-1.94-18.87-4.68-27.92-8.21
						c-12.17-4.8-23.41-11.68-33.24-20.32c-2.17-1.96-4.18-4.07-6.16-6.22c-0.9-0.93-1.38-2.2-1.3-3.49
						c0.15-7.23,1.68-14.37,4.51-21.02c1.94-4.43,4.45-8.59,7.45-12.38c7.34-9.28,17.53-15.88,29-18.78
						c0.62-0.17,1.24-0.3,1.86-0.45c0.43,0.87,1.01,1.66,1.7,2.34c1.59,1.73,3.15,3.49,4.68,5.26c4.15,4.76,8.28,9.54,12.45,14.29
						c3.95,4.51,7.96,8.97,11.9,13.48c5.06,5.79,10.08,11.63,15.13,17.43c4.15,4.76,8.35,9.49,12.51,14.24
						c1,1.15,1.03,1.16,1.98,0.08c3.06-3.46,6.12-6.91,9.19-10.36c5.45-6.1,10.9-12.21,16.36-18.31
						c6.86-7.66,13.72-15.33,20.58-23.01C-291.15-5967.4-286.55-5972.53-281.95-5977.65"/>
					<path id="Path_44" class="st4" d="M-281.95-5977.64c-4.59,5.13-9.19,10.26-13.78,15.39c-6.86,7.66-13.72,15.33-20.58,23.01
						c-5.45,6.1-10.91,12.21-16.36,18.31c-3.07,3.45-6.14,6.9-9.19,10.36c-0.96,1.08-0.98,1.06-1.98-0.08
						c-4.17-4.75-8.36-9.48-12.51-14.24c-5.06-5.8-10.07-11.63-15.13-17.43c-3.94-4.52-7.95-8.98-11.9-13.48
						c-4.16-4.75-8.29-9.53-12.45-14.29c-1.55-1.77-3.11-3.52-4.68-5.26c-0.7-0.68-1.27-1.47-1.7-2.34l3.41-0.67
						c0.83,0.16,1.7,0.02,2.45-0.38l1.92-0.11c5.91,0.02,11.83,0.12,17.74,0c1.69-0.1,3.32,0.64,4.36,1.98
						c4.97,5.77,10.01,11.48,15.04,17.21c4.32,4.93,8.64,9.87,12.99,14.77c1.4,1.58,1.49,1.57,2.98-0.02
						c6.07-6.51,11.93-13.2,17.78-19.91c3.67-4.21,7.38-8.4,11-12.66c0.76-0.94,1.94-1.45,3.15-1.35c6.56,0.04,13.13,0,19.69,0
						l1.94,0.08c0.75,0.41,1.61,0.54,2.45,0.38l3.41,0.73"/>
					<path id="Path_45" class="st5" d="M-406.48-6184.73c0,0-11.13-42.53-11.13-45.71s0.83-4.43,4.02-6.09
						c3.19-1.66,54.71-25.21,60.53-26.6s8.03-1.25,14.26,0.83s53.33,23.83,57.48,25.63s5.82,3.33,4.02,9
						c-1.8,5.68-14.26,42.94-14.26,42.94H-406.48z"/>
					<path id="Path_46" class="st6" d="M-347.47-6195.66c-2.03,0-4.06-0.05-6.08,0.02c-1.17,0.04-1.58-0.39-1.56-1.54
						c0.05-2.92,0.02-5.84,0.01-8.76c0-3.02,0.21-2.67-2.8-2.68c-2.68-0.01-5.35,0-8.03,0c-2.16,0-2.17-0.02-2.18-2.07
						c-0.02-3.65-0.02-7.3,0-10.95c0-2.17,0.02-2.18,2.31-2.19c2.84,0,5.68,0,8.52,0c2.15,0,2.17-0.02,2.18-2.09
						c0.01-3.08,0.04-6.17-0.01-9.25c-0.02-1.21,0.29-1.73,1.63-1.7c3.97,0.08,7.95,0.01,11.92,0.03c1.66,0.01,1.69,0.05,1.7,1.82
						c0.03,2.76,0,5.51,0,8.27c0.02,3.33-0.33,2.9,3.05,2.92c2.76,0.02,5.51,0.05,8.27-0.02c1.26-0.03,1.7,0.39,1.67,1.67
						c-0.07,3.97-0.07,7.95,0,11.92c0.02,1.29-0.44,1.68-1.68,1.66c-2.92-0.07-5.84-0.03-8.76-0.02c-2.66,0-2.55-0.25-2.55,2.44
						c0,2.92,0.02,5.84,0,8.76c-0.01,1.7-0.05,1.73-1.78,1.76C-343.59-6195.63-345.53-6195.66-347.47-6195.66"/>
					<path id="Path_47" class="st7" d="M-348.83-5884.1l13.95-0.07c-1.65,0.37-3.35,0.46-5.03,0.28
						C-342.88-5883.73-345.86-5883.8-348.83-5884.1"/>
					<path id="Path_48" class="st7" d="M-330.8-5884.36c1.38-0.33,2.8-0.43,4.21-0.3C-327.97-5884.3-329.39-5884.2-330.8-5884.36"/>
					<path id="Path_49" class="st7" d="M-363.45-5885.11c0.92-0.14,1.86-0.04,2.73,0.27
						C-361.64-5884.68-362.58-5884.78-363.45-5885.11"/>
					<path id="Path_50" class="st8" d="M-264.8-6055.67l0.7,0.06c-0.3,0.43-0.59,0.84-0.89,1.26c-0.33-0.3-0.35-0.81-0.05-1.14
						C-264.97-6055.57-264.89-6055.63-264.8-6055.67"/>
					<path id="Path_51" class="st7" d="M-396.4-5978.76c-0.75,0.41-1.61,0.54-2.45,0.38
						C-398.12-5978.85-397.23-5978.99-396.4-5978.76"/>
					<path id="Path_52" class="st7" d="M-285.37-5978.38c-0.84,0.16-1.7,0.03-2.45-0.38
						C-286.98-5978.99-286.09-5978.85-285.37-5978.38"/>
					<path id="Path_53" class="st8" d="M-426.96-6055.59c0.21,0,0.43,0.02,0.66,0.03c0.05,0.27,0.11,0.54,0.16,0.81
						C-426.54-6054.86-426.85-6055.19-426.96-6055.59"/>
					<path id="Path_54" class="st8" d="M-426.14-6054.78l0.24,0.51C-425.98-6054.44-426.06-6054.61-426.14-6054.78"/>
				</g>
			</g>
		</g>
	</g>
	<g id="Group_152" transform="translate(29.987 89.301)">
		<g>
			<g>
				<g>
					<defs>
						
							<rect id="SVGID_00000093856944313610473050000016761612369353317777_" x="-415.81" y="-6163.23" width="82.83" height="27.04"/>
					</defs>
					<clipPath id="SVGID_00000153688613309358974230000001814016669460874372_">
						<use xlink:href="#SVGID_00000093856944313610473050000016761612369353317777_"  style="overflow:visible;"/>
					</clipPath>
					
						<g id="Group_151" transform="translate(0 0)" style="clip-path:url(#SVGID_00000153688613309358974230000001814016669460874372_);">
						<path id="Path_285" class="st12" d="M-374.51-6158.51c0.81-1.01,1.7-1.97,2.64-2.86c2.15-1.73,5-2.32,7.66-1.58
							c3.75,1,7.26,2.78,10.27,5.22c2.74,2,5.42,4.08,8.16,6.07c0.75,0.54,1.57,0.98,2.43,1.31c0.57,0.22,1.19,0.3,1.8,0.21
							c2.07-0.33,2.66-1.87,1.44-3.54c-0.4-0.42-0.69-0.93-0.87-1.48c-0.08-0.59,0.06-1.19,0.4-1.68c0.21-0.26,0.98-0.29,1.4-0.15
							c2.22,0.8,4.04,2.44,5.05,4.58c2.28,4.47,0.89,9.93-3.26,12.76c-2.47,1.82-5.4,2.92-8.46,3.16
							c-7.98,0.97-16.04-0.91-22.78-5.29c-2.48-1.52-4.46-3.75-5.68-6.39c-0.84,1.3-1.77,2.54-2.77,3.72
							c-3.46,3.42-7.81,5.8-12.55,6.87c-5.35,1.62-11.03,1.78-16.46,0.47c-4.29-0.87-7.81-3.92-9.28-8.05
							c-1.41-4.64,0.81-9.62,5.22-11.66c0.65-0.28,1.39-0.65,1.99,0.04c0.58,0.68,0.58,1.69,0,2.37c-0.3,0.46-0.66,0.88-0.96,1.33
							c-0.59,0.9-0.5,1.41,0.32,2.13c0.97,1.01,2.52,1.2,3.7,0.44c1.9-1.15,3.76-2.38,5.54-3.71c3.35-2.78,6.97-5.21,10.8-7.28
							c2.3-1.25,4.91-1.82,7.52-1.65c2.64,0.28,4.99,1.78,6.36,4.04C-374.72-6158.89-374.59-6158.65-374.51-6158.51"/>
					</g>
				</g>
			</g>
		</g>
	</g>
</g>
<g>
	<g>
		<g>
			<defs>
				<rect id="SVGID_00000048477132085864355040000009539225685593813152_" x="643.54" y="26.99" width="221.01" height="380.23"/>
			</defs>
			<clipPath id="SVGID_00000158002196370603041800000002619192978934464419_">
				<use xlink:href="#SVGID_00000048477132085864355040000009539225685593813152_"  style="overflow:visible;"/>
			</clipPath>
			
				<g id="Group_49_00000080193884830249424570000010818267019790118557_" style="clip-path:url(#SVGID_00000158002196370603041800000002619192978934464419_);">
				<path id="Path_26_00000099635230589562320600000014699733603540872843_" class="st1" d="M852.08,166.74
					c0,0,4.38,36.37-3.71,70.02s-12.64,55.39-5.06,69.04s21.23,23.76,21.23,23.76s-10.6-1.02-17.19,0l-6.59,1.02
					c0,0-24.21-13.45-41.33-13.03s-75.19,0.35-87.74,1.14s-18.6,2.96-31.15,4.56c-17.85,2.28-29.85,4.79-29.85,4.79
					c6.08-5.55,11.03-12.22,14.59-19.65c6.76-14.33-5.55-46.25-9.94-68.39c-10.13-51.16-11.36-66.88-11.36-66.88L852.08,166.74z"/>
				<path id="Path_27_00000056412898050317607160000002730842818259282104_" class="st2" d="M828.63,236.67
					c-2.3,3.14-3.86,6.72-5.97,9.98c-2.34,3.69-4.96,7.2-7.83,10.49c-8.48,9.76-18.99,17.55-30.8,22.81
					c-1.03,0.27-1.71,1.25-1.61,2.31c0.04,9.24,0.01,18.48,0.03,27.73c0,1.7-0.29,2.72,1.46,2.73c5.67,0.03,11.9,0.18,17.58,0.21
					c0.86,0,1.88-0.27,2.65,0.4c-6.56,0.01-13.4-1.09-19.96-1.13c-1.21-0.1-2.39,0.41-3.15,1.35c-3.62,4.26-7.33,8.44-11,12.66
					c-5.85,6.71-11.71,13.4-17.78,19.91c-1.47,1.58-1.57,1.6-2.97,0.02c-4.36-4.9-8.67-9.84-12.99-14.77
					c-5.02-5.73-10.06-11.44-15.04-17.21c-1.03-1.34-2.66-2.09-4.36-1.98c-5.91,0.12-12.11,1.18-18.03,1.16
					c0.79-0.61,2.73,1.6,3.6,1.59c5.11-0.03,10.66-0.74,15.76-0.76c2.1-0.01,1.39-0.84,0.96-4.6c0.01-8.27-0.03-16.53,0.04-24.8
					c0.17-1.22-0.62-2.37-1.83-2.63c-20.92-7.65-38.15-22.98-48.19-42.87c-0.44-0.86-0.99-1.67-1.48-2.5
					c-0.08-0.17-0.16-0.34-0.24-0.51l0.02,0.04c-0.06-0.27-0.11-0.54-0.16-0.81c-1.04-2.49-2.1-4.97-3.11-7.47
					c-1.76-4.71-2.94-9.62-3.5-14.62c-0.68-4.24-1.04-8.53-1.06-12.83c0.03-2.08,0.01-2.11,1.91-2.74
					c9.55-3.23,18.87-7.14,27.87-11.67c9.23-4.61,18.09-9.76,25.89-16.55c13.06-11.36,22.43-25.5,30.29-40.74
					c0.29-0.75,0.63-1.47,1.01-2.18c0.86-1.27,1.48-1.18,2.58-0.07c0.48,0.54,0.86,1.16,1.13,1.83c3.32,6.59,7.07,12.96,11.23,19.05
					c7.25,10.58,15.62,20.09,26.2,27.51c10.79,7.57,22.55,13.29,34.69,18.3c4.02,1.65,8.08,3.21,12.15,4.75
					c1.93,0.73,1.93,0.66,1.93,2.74c-0.03,7.35-1.12,14.65-3.22,21.69c-1.13,4.42-2.64,8.73-4.51,12.89
					c-0.4,0.2-0.56,0.68-0.36,1.08C828.5,236.53,828.56,236.61,828.63,236.67"/>
				<path id="Path_28_00000180364231503907243710000013308635284291844285_" class="st1" d="M828.81,235.36
					c1.87-4.16,3.38-8.47,4.51-12.89c2.1-7.04,3.19-14.34,3.22-21.69c0-2.08,0-2.01-1.93-2.74c-4.07-1.54-8.13-3.09-12.15-4.75
					c-12.14-5-23.9-10.73-34.69-18.3c-10.58-7.42-18.95-16.93-26.2-27.51c-4.16-6.09-7.91-12.46-11.23-19.05
					c-0.28-0.67-0.66-1.29-1.13-1.83c-1.1-1.11-1.72-1.19-2.58,0.07c-0.38,0.71-0.72,1.43-1.01,2.18
					c-7.86,15.24-17.24,29.38-30.29,40.74c-7.8,6.79-16.66,11.94-25.89,16.55c-9.01,4.54-18.32,8.44-27.87,11.67
					c-1.9,0.63-1.88,0.66-1.91,2.74c0.02,4.3,0.38,8.58,1.06,12.82c0.56,5,1.74,9.91,3.5,14.62c1.01,2.5,2.07,4.98,3.11,7.47
					c-0.22-0.01-0.44-0.02-0.66-0.03c-3.54-4.23-6.68-8.78-9.37-13.6c-1.11-1.93-2.16-3.89-3.26-5.82
					c-0.78-1.65-1.46-3.35-2.03-5.09c-1.8-4.39-1.18-5.89-2.41-10.5c-0.76-2.87-1.77-6.22-2.52-9.09
					c-0.43-1.66-2.81-14.18-3.01-15.95c-1.03-9.05-0.44-9.96,0.84-19c0.27-1.91,0.2-3.84,0.58-5.77c0.33-1.55,0.74-3.07,1.25-4.57
					c0.93-2.88,1.52-5.85,2.49-8.72c1.28-3.77,3-7.3,4.5-10.95c1.98-4.82,4.86-9.14,7.5-13.59c1.82-2.72,3.79-5.34,5.92-7.83
					c1.31-1.42,2.51-2.94,3.6-4.54c0.46-0.77,1.09-1.42,1.85-1.91c1.1-0.77,2.05-1.72,2.82-2.81c1.99-2.56,4.96-4.04,7.23-6.31
					c0.81-0.81,1.54-0.2,1.88,0.63c0.58,1.38,1.07,2.8,1.47,4.24c1.03,3.88,2.29,7.68,3.5,11.5c0.48,0.85,1.29,0.43,1.93,0.43
					c36.01,0.02,72.02,0.03,108.02,0.01c0.69,0,1.47,0.28,2.08-0.32c2.23-6.31,4.49-12.62,6.24-19.09c0.25-0.91,0.88-1.1,1.58-0.46
					c5.05,4.55,10.65,8.48,15.23,13.58c5.29,5.8,9.95,12.15,13.88,18.94c2.25,3.82,4.2,7.81,5.83,11.93
					c2.22,5.78,4.03,11.7,5.43,17.73c1.93,8.73,2.73,17.67,2.4,26.61c-0.3,5.61-1.03,11.19-2.18,16.68
					c-0.73,4.24-1.86,8.41-3.35,12.45c-2.15,5.62-4.24,11.24-7.46,16.45c-2.66,4.3-5.5,8.49-8.13,12.81c-0.46,0.66-0.96,1.3-1.5,1.9
					C829.29,235.39,829.05,235.37,828.81,235.36"/>
				<path id="Path_29_00000008110617382988136530000007712277854694259592_" class="st3" d="M811.66,313.38
					c14.81,3.17,27.58,12.46,35.18,25.56c4.79,8.12,7.41,17.35,7.61,26.78c0.1,1.45-0.43,2.87-1.46,3.9
					c-6.45,6.87-13.87,12.76-22.03,17.48c-14.97,8.86-31.18,14.3-48.27,17.25c-5.2,0.9-10.43,1.53-15.67,2.02
					c-1.41-0.13-2.83-0.03-4.21,0.3l-4.07,0.19l-13.95,0.07c-3.97-0.23-7.94-0.27-11.89-0.73c-0.87-0.32-1.81-0.41-2.73-0.27
					c-4.34-0.55-8.75-0.77-12.99-1.73c-9.47-2.13-18.9-4.48-27.92-8.21c-12.16-5.02-23.43-11.46-33.24-20.32
					c-2.17-1.96-4.18-4.07-6.16-6.22c-0.9-0.93-1.38-2.2-1.3-3.49c0.15-7.23,1.68-14.37,4.51-21.02c1.94-4.43,4.45-8.59,7.45-12.38
					c7.48-9.66,17.4-15.5,29-18.78c0.62-0.17,1.24-0.3,1.86-0.45c0.43,0.87,1.01,1.67,1.71,2.35c1.59,1.73,3.15,3.49,4.69,5.26
					c4.15,4.76,8.28,9.54,12.45,14.29c3.95,4.51,7.96,8.97,11.9,13.48c5.06,5.79,10.08,11.63,15.14,17.43
					c4.15,4.76,8.35,9.49,12.51,14.24c1,1.15,1.03,1.16,1.98,0.08c3.06-3.46,6.12-6.91,9.19-10.36c5.45-6.1,10.9-12.2,16.36-18.3
					c6.86-7.67,13.72-15.34,20.58-23.01C802.47,323.64,807.06,318.51,811.66,313.38"/>
				<path id="Path_30_00000156555811925032834130000016741416207094595725_" class="st4" d="M811.66,313.38
					c-4.59,5.13-9.19,10.26-13.78,15.39c-6.86,7.67-13.72,15.34-20.58,23.01c-5.45,6.1-10.91,12.2-16.36,18.3
					c-3.08,3.44-6.14,6.9-9.19,10.36c-0.96,1.08-0.98,1.07-1.98-0.08c-4.17-4.75-8.36-9.48-12.51-14.24
					c-5.06-5.8-10.07-11.64-15.14-17.43c-3.95-4.51-7.95-8.98-11.9-13.48c-4.16-4.75-8.29-9.53-12.45-14.29
					c-1.55-1.77-3.11-3.52-4.69-5.26c-0.7-0.68-1.28-1.47-1.71-2.35c1.13-0.22,2.27-0.45,3.4-0.67c0.83,0.16,1.7,0.02,2.45-0.38
					l1.92-0.11c5.91,0.02,11.83,0.12,17.74,0.01c1.69-0.11,3.32,0.64,4.36,1.98c4.97,5.77,10.01,11.48,15.04,17.21
					c4.32,4.93,8.64,9.87,12.99,14.77c1.4,1.58,1.5,1.57,2.98-0.02c6.07-6.51,11.93-13.2,17.78-19.91c3.67-4.21,7.38-8.4,11-12.66
					c0.76-0.94,1.94-1.45,3.15-1.35c6.56,0.04,13.13,0.01,19.69,0l1.95,0.08c0.75,0.41,1.61,0.54,2.45,0.38L811.66,313.38"/>
				<path id="Path_31_00000119101182576079307890000014018870082486915989_" class="st5" d="M687.13,106.3
					c0,0-11.14-42.53-11.14-45.71s0.83-4.43,4.02-6.1c3.19-1.66,54.72-25.21,60.54-26.6s8.03-1.25,14.27,0.83
					c6.23,2.08,53.33,23.83,57.49,25.63c4.16,1.8,5.82,3.32,4.02,9s-14.27,42.94-14.27,42.94L687.13,106.3z"/>
				<path id="Path_32_00000139979133819260952050000000210623102231692717_" class="st6" d="M746.14,95.37
					c-2.03,0-4.06-0.05-6.08,0.02c-1.17,0.04-1.58-0.39-1.56-1.54c0.05-2.92,0.02-5.84,0.01-8.76c-0.01-3.02,0.22-2.67-2.8-2.68
					c-2.68-0.01-5.35,0.01-8.03-0.01c-2.16-0.01-2.17-0.02-2.18-2.07c-0.02-3.65-0.02-7.3,0-10.95c0.01-2.17,0.02-2.18,2.32-2.19
					c2.84-0.01,5.68,0.01,8.52-0.01c2.15-0.01,2.17-0.02,2.18-2.09c0.02-3.08,0.04-6.16-0.01-9.25c-0.02-1.21,0.29-1.74,1.63-1.71
					c3.97,0.08,7.95,0.01,11.92,0.03c1.66,0.01,1.69,0.05,1.71,1.81c0.03,2.76,0,5.51,0.01,8.27c0.02,3.33-0.33,2.9,3.05,2.92
					c2.76,0.02,5.51,0.05,8.27-0.02c1.26-0.03,1.7,0.39,1.67,1.67c-0.07,3.97-0.07,7.95,0,11.92c0.02,1.29-0.44,1.69-1.68,1.66
					c-2.92-0.07-5.84-0.03-8.76-0.02c-2.66,0-2.55-0.25-2.55,2.44c0,2.92,0.02,5.84-0.01,8.76c-0.02,1.71-0.05,1.73-1.78,1.76
					C750.04,95.39,748.09,95.37,746.14,95.37"/>
				<path id="Path_33_00000115493299511736063040000000159186609862331316_" class="st7" d="M744.78,406.93l13.95-0.07
					c-1.65,0.55-3.36,0.28-5.03,0.28C750.73,407.13,747.75,407.41,744.78,406.93"/>
				<path id="Path_34_00000165217214557831133070000010816552966026415766_" class="st7" d="M762.81,406.67
					c1.38-0.33,2.8-0.43,4.21-0.3C765.65,406.73,764.22,406.83,762.81,406.67"/>
				<path id="Path_35_00000162319673569071041730000010936022241663725490_" class="st7" d="M730.16,405.92
					c0.92-0.14,1.86-0.04,2.73,0.27C731.98,406.34,731.03,406.25,730.16,405.92"/>
				<path id="Path_36_00000075847261780163868310000007131071910374993543_" class="st8" d="M828.81,235.36
					c0.23,0.02,0.47,0.04,0.7,0.06l-0.89,1.26c-0.33-0.3-0.35-0.81-0.04-1.14C828.64,235.46,828.72,235.4,828.81,235.36"/>
				<path id="Path_37_00000026163885166559510740000013686505806724453552_" class="st7" d="M697.22,312.27
					c-0.75,0.41-1.61,0.54-2.45,0.38C695.49,312.18,696.38,312.04,697.22,312.27"/>
				<path id="Path_38_00000075884455224986370800000016432351559582598315_" class="st7" d="M808.25,312.65
					c-0.84,0.16-1.7,0.03-2.45-0.38C806.63,312.04,807.52,312.18,808.25,312.65"/>
				<path id="Path_39_00000060752906140527278530000005819194718968970417_" class="st8" d="M666.66,235.44
					c0.22,0.01,0.44,0.02,0.66,0.03c0.05,0.27,0.11,0.54,0.16,0.81C667.08,236.17,666.77,235.85,666.66,235.44"/>
				<path id="Path_40_00000105395970728534428430000017793909746013720245_" class="st8" d="M667.47,236.25l0.24,0.51
					C667.63,236.59,667.55,236.42,667.47,236.25"/>
			</g>
		</g>
	</g>
</g>
<g id="Group_177_00000065752895558556026620000013761706556586788788_" transform="translate(734.561 6291.029)">
	<g>
		<g>
			<g>
				<defs>
					<rect id="SVGID_00000036251326880441323020000013405267948538333354_" x="223" y="-6264.04" width="210.51" height="380.23"/>
				</defs>
				<clipPath id="SVGID_00000001638731544342715680000005214530845439161253_">
					<use xlink:href="#SVGID_00000036251326880441323020000013405267948538333354_"  style="overflow:visible;"/>
				</clipPath>
				
					<g id="Group_51_00000164471993616147340580000010205926987316715426_" style="clip-path:url(#SVGID_00000001638731544342715680000005214530845439161253_);">
					<path id="Path_41_00000142871983020525767120000007173368654704910014_" class="st10" d="M407.68-6054.35
						c-2.29,3.14-3.86,6.72-5.96,9.98c-2.34,3.69-4.96,7.2-7.83,10.49c-8.48,9.76-18.99,17.55-30.8,22.81
						c-1.03,0.27-1.71,1.24-1.62,2.3c0.04,9.24,0,18.48,0.03,27.73c0,1.7,0.06,1.75,1.82,1.75c5.68,0.03,11.35,0,17.03,0.03
						c0.86,0,1.8-0.25,2.57,0.43c-6.56,0-13.13,0.05-19.69,0c-1.21-0.09-2.38,0.41-3.15,1.35c-3.62,4.26-7.33,8.44-11,12.66
						c-5.85,6.71-11.71,13.4-17.78,19.91c-1.48,1.59-1.57,1.6-2.98,0.02c-4.36-4.9-8.67-9.84-12.99-14.77
						c-5.02-5.73-10.06-11.44-15.03-17.21c-1.03-1.34-2.67-2.09-4.36-1.98c-5.91,0.12-11.83,0.01-17.74,0
						c0.79-0.43,1.7-0.57,2.58-0.39c5.11-0.03,10.22,0,15.32-0.02c2.11,0,2.13-0.03,2.13-2.18c0.01-8.27-0.03-16.53,0.04-24.8
						c0.17-1.22-0.62-2.37-1.82-2.63c-20.92-7.65-38.15-22.98-48.19-42.87c-0.44-0.85-0.99-1.67-1.49-2.5
						c-0.08-0.17-0.16-0.34-0.24-0.51l0.01,0.04c-0.05-0.27-0.11-0.54-0.16-0.81c-1.04-2.49-2.1-4.97-3.11-7.47
						c-1.76-4.71-2.94-9.62-3.5-14.62c-0.68-4.24-1.04-8.53-1.06-12.82c0.03-2.08,0.01-2.11,1.92-2.74
						c9.55-3.23,18.87-7.14,27.87-11.67c9.3-4.39,18-9.95,25.89-16.55c13.05-11.37,22.43-25.52,30.29-40.75
						c0.29-0.75,0.63-1.47,1.01-2.18c0.85-1.27,1.49-1.18,2.58-0.07c0.48,0.54,0.86,1.16,1.13,1.83c3.32,6.6,7.07,12.96,11.23,19.06
						c7,10.67,15.88,19.99,26.2,27.5c10.85,7.37,22.48,13.51,34.69,18.31c4.02,1.65,8.09,3.21,12.15,4.75
						c1.93,0.73,1.94,0.66,1.94,2.74c-0.04,7.35-1.12,14.65-3.22,21.69c-1.13,4.42-2.64,8.73-4.51,12.89
						c-0.4,0.2-0.56,0.68-0.36,1.08C407.55-6054.49,407.61-6054.41,407.68-6054.35"/>
					<path id="Path_42_00000174575624093404766370000017915379253225392283_" class="st1" d="M407.87-6055.67
						c1.87-4.16,3.38-8.47,4.5-12.89c2.1-7.04,3.18-14.34,3.22-21.69c0-2.08,0-2.01-1.93-2.74c-4.07-1.53-8.13-3.09-12.15-4.75
						c-12.2-4.8-23.84-10.94-34.69-18.3c-10.32-7.51-19.2-16.83-26.2-27.51c-4.16-6.09-7.91-12.46-11.23-19.05
						c-0.28-0.67-0.66-1.29-1.13-1.83c-1.1-1.11-1.72-1.19-2.58,0.07c-0.38,0.71-0.72,1.43-1.01,2.18
						c-7.86,15.24-17.24,29.38-30.29,40.74c-7.89,6.59-16.59,12.15-25.89,16.55c-9.01,4.54-18.32,8.44-27.87,11.67
						c-1.9,0.64-1.88,0.66-1.92,2.74c0.02,4.3,0.38,8.58,1.06,12.82c0.56,5,1.74,9.91,3.5,14.62c1.01,2.5,2.07,4.98,3.11,7.47
						c-0.21-0.01-0.44-0.02-0.66-0.03c-3.54-4.23-6.68-8.78-9.37-13.6c-1.11-1.93-2.16-3.89-3.26-5.82
						c-0.78-1.65-1.46-3.35-2.04-5.09c-1.83-4.38-3.38-8.88-4.63-13.46c-0.76-2.87-1.4-5.77-2.15-8.64
						c-0.28-1.75-0.45-3.52-0.49-5.29c-1.1-9.02-1.03-18.15,0.19-27.16c0.27-1.92,0.2-3.83,0.58-5.77c0.33-1.54,0.74-3.07,1.25-4.56
						c0.93-2.88,1.52-5.85,2.49-8.73c1.28-3.77,3-7.3,4.5-10.95c2.17-4.71,4.67-9.25,7.5-13.59c1.82-2.72,3.79-5.33,5.92-7.82
						c1.31-1.43,2.51-2.94,3.6-4.54c0.46-0.78,1.09-1.43,1.85-1.92c1.1-0.77,2.05-1.72,2.82-2.81c1.98-2.55,4.96-4.04,7.24-6.31
						c0.81-0.81,1.54-0.2,1.88,0.64c0.58,1.38,1.07,2.8,1.46,4.24c1.03,3.88,2.29,7.68,3.5,11.5c0.48,0.85,1.29,0.43,1.93,0.43
						c36.01,0.03,72.02,0.03,108.03,0c0.69,0,1.46,0.28,2.08-0.32c2.23-6.31,4.49-12.62,6.24-19.09c0.24-0.91,0.88-1.1,1.58-0.46
						c5.05,4.55,10.64,8.48,15.23,13.58c5.3,5.79,9.95,12.14,13.88,18.93c2.25,3.82,4.2,7.8,5.83,11.92
						c2.21,5.78,4.03,11.7,5.43,17.73c1.93,8.73,2.73,17.68,2.4,26.61c-0.3,5.61-1.03,11.19-2.18,16.68
						c-0.73,4.24-1.86,8.41-3.35,12.45c-1.96,5.71-4.46,11.21-7.45,16.45c-2.65,4.3-5.51,8.49-8.13,12.81
						c-0.46,0.67-0.96,1.3-1.5,1.9l-0.7-0.06"/>
					<path id="Path_43_00000029024712441664809360000006402395807151884217_" class="st3" d="M390.72-5977.65
						c14.81,3.17,27.58,12.45,35.18,25.55c4.79,8.12,7.41,17.35,7.61,26.78c0.1,1.45-0.43,2.88-1.46,3.9
						c-6.45,6.87-13.87,12.76-22.03,17.48c-14.9,8.65-31.26,14.5-48.27,17.24c-5.2,0.9-10.43,1.53-15.67,2.01
						c-1.41-0.13-2.83-0.03-4.21,0.3l-4.08,0.21l-13.95,0.07c-3.97-0.23-7.94-0.27-11.89-0.73c-0.87-0.32-1.81-0.41-2.73-0.27
						c-4.34-0.55-8.75-0.77-12.99-1.73c-9.52-1.94-18.87-4.68-27.92-8.21c-12.17-4.8-23.41-11.68-33.24-20.32
						c-2.17-1.96-4.18-4.07-6.16-6.22c-0.9-0.93-1.38-2.2-1.3-3.49c0.15-7.23,1.68-14.37,4.51-21.02c1.94-4.43,4.45-8.59,7.45-12.38
						c7.34-9.28,17.53-15.88,29-18.78c0.62-0.17,1.24-0.3,1.86-0.45c0.43,0.87,1.01,1.66,1.7,2.34c1.59,1.73,3.15,3.49,4.68,5.26
						c4.15,4.76,8.28,9.54,12.45,14.29c3.95,4.51,7.96,8.97,11.9,13.48c5.06,5.79,10.08,11.63,15.13,17.43
						c4.15,4.76,8.35,9.49,12.51,14.24c1,1.15,1.03,1.16,1.98,0.08c3.06-3.46,6.12-6.91,9.19-10.36c5.45-6.1,10.9-12.21,16.36-18.31
						c6.86-7.66,13.72-15.33,20.58-23.01C381.52-5967.4,386.11-5972.53,390.72-5977.65"/>
					<path id="Path_44_00000064345253970123155250000015095643839921374380_" class="st4" d="M390.71-5977.64
						c-4.59,5.13-9.19,10.26-13.78,15.39c-6.86,7.66-13.72,15.33-20.58,23.01c-5.45,6.1-10.91,12.21-16.36,18.31
						c-3.07,3.45-6.14,6.9-9.19,10.36c-0.96,1.08-0.98,1.06-1.98-0.08c-4.17-4.75-8.36-9.48-12.51-14.24
						c-5.06-5.8-10.07-11.63-15.13-17.43c-3.94-4.52-7.95-8.98-11.9-13.48c-4.16-4.75-8.29-9.53-12.45-14.29
						c-1.55-1.77-3.11-3.52-4.68-5.26c-0.7-0.68-1.27-1.47-1.7-2.34l3.41-0.67c0.83,0.16,1.7,0.02,2.45-0.38l1.92-0.11
						c5.91,0.02,11.83,0.12,17.74,0c1.69-0.1,3.32,0.64,4.36,1.98c4.97,5.77,10.01,11.48,15.04,17.21
						c4.32,4.93,8.64,9.87,12.99,14.77c1.4,1.58,1.49,1.57,2.98-0.02c6.07-6.51,11.93-13.2,17.78-19.91c3.67-4.21,7.38-8.4,11-12.66
						c0.76-0.94,1.94-1.45,3.15-1.35c6.56,0.04,13.13,0,19.69,0l1.94,0.08c0.75,0.41,1.61,0.54,2.45,0.38l3.41,0.73"/>
					<path id="Path_45_00000088837487626484222820000001346360984435084726_" class="st5" d="M266.19-6184.73
						c0,0-11.13-42.53-11.13-45.71s0.83-4.43,4.02-6.09c3.19-1.66,54.71-25.21,60.53-26.6s8.03-1.25,14.26,0.83
						s53.33,23.83,57.48,25.63s5.82,3.33,4.02,9c-1.8,5.68-14.26,42.94-14.26,42.94H266.19z"/>
					<path id="Path_46_00000050643172451868380580000018185039451379513788_" class="st6" d="M325.2-6195.66
						c-2.03,0-4.06-0.05-6.08,0.02c-1.17,0.04-1.58-0.39-1.56-1.54c0.05-2.92,0.02-5.84,0.01-8.76c0-3.02,0.21-2.67-2.8-2.68
						c-2.68-0.01-5.35,0-8.03,0c-2.16,0-2.17-0.02-2.18-2.07c-0.02-3.65-0.02-7.3,0-10.95c0-2.17,0.02-2.18,2.31-2.19
						c2.84,0,5.68,0,8.52,0c2.15,0,2.17-0.02,2.18-2.09c0.01-3.08,0.04-6.17-0.01-9.25c-0.02-1.21,0.29-1.73,1.63-1.7
						c3.97,0.08,7.95,0.01,11.92,0.03c1.66,0.01,1.69,0.05,1.7,1.82c0.03,2.76,0,5.51,0,8.27c0.02,3.33-0.33,2.9,3.05,2.92
						c2.76,0.02,5.51,0.05,8.27-0.02c1.26-0.03,1.7,0.39,1.67,1.67c-0.07,3.97-0.07,7.95,0,11.92c0.02,1.29-0.44,1.68-1.68,1.66
						c-2.92-0.07-5.84-0.03-8.76-0.02c-2.66,0-2.55-0.25-2.55,2.44c0,2.92,0.02,5.84,0,8.76c-0.01,1.7-0.05,1.73-1.78,1.76
						C329.08-6195.63,327.14-6195.66,325.2-6195.66"/>
					<path id="Path_47_00000079456938874596338500000008517403329915217597_" class="st7" d="M323.84-5884.1l13.95-0.07
						c-1.65,0.37-3.35,0.46-5.03,0.28C329.79-5883.73,326.81-5883.8,323.84-5884.1"/>
					<path id="Path_48_00000147906977270398867450000002646365237064998035_" class="st7" d="M341.87-5884.36
						c1.38-0.33,2.8-0.43,4.21-0.3C344.7-5884.3,343.28-5884.2,341.87-5884.36"/>
					<path id="Path_49_00000167370223671802963140000008565267520778924695_" class="st7" d="M309.22-5885.11
						c0.92-0.14,1.86-0.04,2.73,0.27C311.03-5884.68,310.09-5884.78,309.22-5885.11"/>
					<path id="Path_50_00000085936189267510904710000017156406750643448252_" class="st8" d="M407.87-6055.67l0.7,0.06
						c-0.3,0.43-0.59,0.84-0.89,1.26c-0.33-0.3-0.35-0.81-0.05-1.14C407.7-6055.57,407.78-6055.63,407.87-6055.67"/>
					<path id="Path_51_00000109742646798058614440000003366838133461151905_" class="st7" d="M276.27-5978.76
						c-0.75,0.41-1.61,0.54-2.45,0.38C274.55-5978.85,275.44-5978.99,276.27-5978.76"/>
					<path id="Path_52_00000141442109793400217840000002274298992335286455_" class="st7" d="M387.3-5978.38
						c-0.84,0.16-1.7,0.03-2.45-0.38C385.69-5978.99,386.58-5978.85,387.3-5978.38"/>
					<path id="Path_53_00000163067582249031131400000011482019376711732360_" class="st8" d="M245.71-6055.59
						c0.21,0,0.43,0.02,0.66,0.03c0.05,0.27,0.11,0.54,0.16,0.81C246.13-6054.86,245.82-6055.19,245.71-6055.59"/>
					<path id="Path_54_00000114062688069495622060000014842474861077730715_" class="st8" d="M246.53-6054.78l0.24,0.51
						C246.69-6054.44,246.61-6054.61,246.53-6054.78"/>
				</g>
			</g>
		</g>
	</g>
	<g id="Group_152_00000106850245475110453230000014684273051977954726_" transform="translate(29.987 89.301)">
		<g>
			<g>
				<g>
					<defs>
						
							<rect id="SVGID_00000036251421749915568150000005874624337105163176_" x="256.86" y="-6163.23" width="82.83" height="27.04"/>
					</defs>
					<clipPath id="SVGID_00000111192744346641093910000007728420807252240554_">
						<use xlink:href="#SVGID_00000036251421749915568150000005874624337105163176_"  style="overflow:visible;"/>
					</clipPath>
					
						<g id="Group_151_00000094586859252626614070000017776409651698190514_" transform="translate(0 0)" style="clip-path:url(#SVGID_00000111192744346641093910000007728420807252240554_);">
						<path id="Path_285_00000078042679311000383990000012476351286776804509_" class="st12" d="M298.16-6158.51
							c0.81-1.01,1.7-1.97,2.64-2.86c2.15-1.73,5-2.32,7.66-1.58c3.75,1,7.26,2.78,10.27,5.22c2.74,2,5.42,4.08,8.16,6.07
							c0.75,0.54,1.57,0.98,2.43,1.31c0.57,0.22,1.19,0.3,1.8,0.21c2.07-0.33,2.66-1.87,1.44-3.54c-0.4-0.42-0.69-0.93-0.87-1.48
							c-0.08-0.59,0.06-1.19,0.4-1.68c0.21-0.26,0.98-0.29,1.4-0.15c2.22,0.8,4.04,2.44,5.05,4.58c2.28,4.47,0.89,9.93-3.26,12.76
							c-2.47,1.82-5.4,2.92-8.46,3.16c-7.98,0.97-16.04-0.91-22.78-5.29c-2.48-1.52-4.46-3.75-5.68-6.39
							c-0.84,1.3-1.77,2.54-2.77,3.72c-3.46,3.42-7.81,5.8-12.55,6.87c-5.35,1.62-11.03,1.78-16.46,0.47
							c-4.29-0.87-7.81-3.92-9.28-8.05c-1.41-4.64,0.81-9.62,5.22-11.66c0.65-0.28,1.39-0.65,1.99,0.04c0.58,0.68,0.58,1.69,0,2.37
							c-0.3,0.46-0.66,0.88-0.96,1.33c-0.59,0.9-0.5,1.41,0.32,2.13c0.97,1.01,2.52,1.2,3.7,0.44c1.9-1.15,3.76-2.38,5.54-3.71
							c3.35-2.78,6.97-5.21,10.8-7.28c2.3-1.25,4.91-1.82,7.52-1.65c2.64,0.28,4.99,1.78,6.36,4.04
							C297.95-6158.89,298.08-6158.65,298.16-6158.51"/>
					</g>
				</g>
			</g>
		</g>
	</g>
</g>
</svg>
